<?xml version="1.0" encoding="UTF-8" standalone="no"?>
<!-- Created with Inkscape (http://www.inkscape.org/) -->

<svg
   xmlns:dc="http://purl.org/dc/elements/1.1/"
   xmlns:cc="http://creativecommons.org/ns#"
   xmlns:rdf="http://www.w3.org/1999/02/22-rdf-syntax-ns#"
   xmlns:svg="http://www.w3.org/2000/svg"
   xmlns="http://www.w3.org/2000/svg"
   xmlns:sodipodi="http://sodipodi.sourceforge.net/DTD/sodipodi-0.dtd"
   xmlns:inkscape="http://www.inkscape.org/namespaces/inkscape"
   version="1.1"
   id="svg2"
   width="69mm"
   height="60mm"
   viewBox="0 0 260.7874 226.77165"
   sodipodi:docname="0EmissionCO2.svg"
   inkscape:version="0.92.4 (5da689c313, 2019-01-14)">
  <metadata
     id="metadata7807">
    <rdf:RDF>
      <cc:Work
         rdf:about="">
        <dc:format>image/svg+xml</dc:format>
        <dc:type
           rdf:resource="http://purl.org/dc/dcmitype/StillImage" />
        <dc:title></dc:title>
      </cc:Work>
    </rdf:RDF>
  </metadata>
  <defs
     id="defs6" />
  <sodipodi:namedview
     id="namedview4"
     pagecolor="#ffffff"
     bordercolor="#000000"
     borderopacity="0.25"
     inkscape:showpageshadow="2"
     inkscape:pageopacity="0.0"
     inkscape:pagecheckerboard="true"
     inkscape:deskcolor="#d1d1d1"
     showgrid="false"
     units="mm"
     width="69mm"
     inkscape:zoom="0.70799998"
     inkscape:cx="121.05254"
     inkscape:cy="272.22259"
     inkscape:window-width="1360"
     inkscape:window-height="705"
     inkscape:window-x="-8"
     inkscape:window-y="-8"
     inkscape:window-maximized="1"
     inkscape:current-layer="g10" />
  <g
     id="g8"
     inkscape:groupmode="layer"
     inkscape:label="ink_ext_XXXXXX"
     transform="matrix(1.3333333,0,0,-1.3333333,0,226.77168)">
    <g
       id="g10"
       transform="scale(0.1)">
      <g
         id="g20"
         transform="scale(10)" />
      <path
         d="m -1543.9321,3346.3532 c -1.45,-0.23 -2.8,5.74 -4.18,0.35 -6.44,-25.16 -20.38,-46.69 -33.04,-68.82 -4.11,-7.19 -3.12,-16.42 -9.6,-23.69 -6.13,7.81 -2.11,14.62 0.48,20.63 8.46,19.59 17.92,38.75 26.45,58.31 6.26,14.36 9.76,29.57 11.3,45.19 5.34,-9.99 7.17,-20.92 8.59,-31.97"
         style="fill:#60b450;fill-opacity:1;fill-rule:nonzero;stroke:none"
         id="path76"
         inkscape:connector-curvature="0" />
      <path
         d="m 3193.97,3570.99 c -0.01,2.82 1.25,4.47 4.21,4.54 0.51,-3.29 -0.65,-5.03 -4.21,-4.54"
         style="fill:#60b450;fill-opacity:1;fill-rule:nonzero;stroke:none"
         id="path94"
         inkscape:connector-curvature="0" />
      <path
         d="m 3189.33,3566.53 c 0.8,2.17 2.28,3.64 4.5,4.34 0.28,-3.3 -1.09,-4.88 -4.5,-4.34"
         style="fill:#60b450;fill-opacity:1;fill-rule:nonzero;stroke:none"
         id="path98"
         inkscape:connector-curvature="0" />
      <path
         d="m 4356.8,3648.35 c -1.15,0.79 -2.31,1.59 -0.41,2.83 0.13,-0.94 0.27,-1.89 0.41,-2.83"
         style="fill:#3d8e2b;fill-opacity:1;fill-rule:nonzero;stroke:none"
         id="path106"
         inkscape:connector-curvature="0" />
      <g
         id="g112"
         transform="matrix(12.422945,0,0,12.942066,-784.99932,-1118.871)" />
      <path
         d="m 3895.09,972.129 c -0.27,2.062 0.59,2.883 2.64,2.422 -0.88,-0.813 -1.76,-1.61 -2.64,-2.422"
         style="fill:#60b450;fill-opacity:1;fill-rule:nonzero;stroke:none"
         id="path152"
         inkscape:connector-curvature="0" />
      <path
         d="m 684.35765,1552.849 c -17.44,-18.61 -9.53,-39.11 -4.45,-59.4 1.95,-7.73 6.13,-14.87 6.21,-23.1 1.81,-3.21 -3.14,-7.97 2.38,-10.33 l -0.06,-0.25 c 0.03,-2.78 -1.96,-5.88 1.31,-8.14 0.25,-1.25 0.5,-2.51 0.75,-3.76 0.29,-29.8 0.24,-59.55 -4.91,-89.09 -1.63,-9.33 -4.15,-18.22 -8.72,-26.3 -19.57,-34.62 -40.5,-68.29 -70.3,-95.39 -3.71,-3.37 -7.04,-8.19 -12.89,-6.18 -6.29,2.15 -4.83,8.16 -5.06,13.02 -2.78,59.13 -11.66,117.66 -17.31,176.5 -1.04,10.81 -0.75,21.81 -3.74,35.28 -6.63,-12.59 -7.32,-23.86 -6.45,-34.79 3.74,-47.2 3.67,-94.37 1.88,-141.66 -0.85,-22.28 1.83,-44.65 -0.29,-67.03 -0.96,-10.1 -5.03,-17.44 -13.33,-23.12 -21.95,-15.01 -44.25,-29.53 -64.8,-46.55 -9.37,-7.77 -13.92,-5.61 -15.08,6.82 -2.01,21.43 -1.4,43 -3.36,64.47 -3.12,34.14 -10.33,67.51 -18.26,103.66 -2.39,-51.03 -1.34,-99.22 2.92,-147.37 1.27,-14.3 1.17,-28.7 2.74,-42.97 1.06,-9.64 -4.36,-16.13 -10.45,-22.03 -17.3,-16.74 -34.98,-33.06 -49.35,-52.58 -4.26,-5.79 -8.79,-11.31 -11.9,-17.87 -2.01,-4.26 -4.51,-8.47 -10.06,-8.36 -5.93,0.12 -7.28,5.14 -8.81,9.44 -11.31,31.87 -21.88,63.95 -26.53,97.65 -0.75,5.42 -1.61,10.84 -3.77,16.22 -5.75,-16.66 -7.91,-33.67 -4.73,-51.19 5.46,-30 14.69,-59.02 23.63,-88.08 4.1,-13.35 3.95,-25.45 -2.84,-37.8 -13.5,-24.57 -23.06,-50.7 -29.86,-77.89 -1.98,-7.94 -2.25,-7.87 -9.56,-14.39 -16.58,42.15 -21.53,85.28 -23.24,129.47 -1.72,44.33 1.42,87.62 16.22,130.28 -26.25,-22.95 -55.54,-41.72 -76.03,-71.25 -8.01,9.21 -4.55,16.01 -0.56,22.45 10.51,16.91 22.67,32.47 36.95,46.49 19.86,19.52 40.12,38.81 51.99,64.84 3.54,7.77 9.62,13.74 15.79,19.62 11.76,11.21 20.53,24.28 22.64,41.89 -26.36,-15.71 -53.71,-29.19 -79.71,-45.27 -25.88,-15.99 -47.43,-37.51 -71.01,-58.6 -6.15,12.74 -1.16,19.01 4.18,25.01 28.73,32.31 62.74,57.68 101.92,75.83 22.42,10.39 42.59,24.1 62.21,38.83 1.69,1.27 3.3,2.67 4.56,4.37 13.22,17.98 25.02,36.97 41.88,55.88 -10.42,-0.93 -17.05,-4.69 -23.86,-7.05 -22.93,-7.96 -46.95,-10.72 -70.59,-14.89 -38.87,-6.86 -74.53,-21.34 -108.33,-41.19 -4.53,-2.65 -9.21,-6.86 -14.9,-1.98 0.39,3.31 0.78,6.63 1.18,9.95 3.55,6.41 8.67,11.13 14.76,15.24 41.07,27.8 85.75,46.24 134.62,55.55 33.52,6.38 66.46,15.72 99.05,26.06 6.04,1.92 12,4.43 16.98,8.33 22.57,17.67 43.22,37.68 66.53,54.46 0.99,0.71 1.71,1.87 1.25,4.89 -13.55,1.74 -27.82,4.45 -41.71,2.68 -40.22,-5.1 -80.78,-5.14 -121.04,-9.34 -43.25,-4.51 -84.29,-16.19 -123.24,-35.7 -7.4,-3.7 -14.45,-11.03 -24.35,-7.05 0.75,3.4 1.5,6.81 2.26,10.21 0.38,1 0.78,1.99 1.19,2.99 l -0.08,-0.16 c 4.39,7.9 10.95,12.99 19.01,17.2 56.9,29.7 117.67,42.23 181.46,44.85 48.86,2.01 97.7,3.71 146.59,4.31 9.89,0.13 17.61,4.36 24.08,10.78 -1,4.74 -4.31,4.85 -7.03,5.42 -49.94,10.36 -99.09,24.53 -149.72,31.57 -30.61,4.26 -61.38,3.77 -92.14,2.07 -5.04,-0.28 -10.13,-1.56 -15.11,-0.26 -4.01,1.05 -8.94,2.06 -5.71,8.33 1,0.76 1.99,1.53 2.99,2.29 1.47,2.61 6.29,-1.5 6.67,3.31 l 0.18,-0.76 -0.04,0.78 c 35.25,7.49 70.27,2.61 105.38,-1.49 49.93,-5.82 98.77,-18.06 148.53,-24.68 11.23,-1.5 22.75,0.05 34.11,0.87 8.34,0.6 13.65,5.94 18.21,12.34 9.05,12.7 22.41,11.86 35.58,10.85 4.46,-0.34 6.78,-3.27 4.5,-8.06"
         style="fill:#3d8e2b;fill-opacity:1;fill-rule:nonzero;stroke:none"
         id="path154"
         inkscape:connector-curvature="0" />
      <path
         d="m 197.49765,1288.579 c 11.6,0.4 19.92,8.35 29.2,13.54 27.12,15.17 55.81,25.15 86.21,31.35 32.48,6.63 65.9,9.63 96.66,23.45 3.4,1.53 7.06,3.06 11.26,-1.48 -11.85,-14.42 -24.02,-28.79 -34.09,-44.7 -17.91,-28.28 -46.37,-43.22 -75.01,-57.09 -41.49,-20.1 -78.23,-45.97 -108.21,-81.2 -3.38,-3.98 -7.18,-7.29 -2.42,-15.14 22.02,23.71 45.89,44.41 73.12,60.69 26.78,16 53.99,31.29 84.3,48.79 -2.65,-16.28 -6.61,-27.8 -14.08,-37.15 -14.65,-18.33 -29.88,-35.85 -41.79,-56.52 -13.02,-22.6 -34.67,-38.66 -52.48,-57.65 -10.47,-11.18 -17.97,-24.36 -26.39,-36.93 -2.45,-3.67 -2.65,-7.67 -0.52,-14.05 20.13,34.22 55.03,50.54 81.24,78.18 -26.91,-89.21 -22.26,-177.41005 3.87,-266.46005 5.87,8.24 6.75,17.47 8.94,25.84 6.1,23.41 15.68,45.31 27.07,66.43 6.1,11.31 6.06,21.88 2.27,33.92005 -9.72,30.92 -19.06,61.99 -25.13,93.91 -2.94,15.49 2.81,48.16 11.81,58.28 6.42,-46.44 16.65,-90.32 34.1,-132.25 3.99,-1.66 6.5,0.2 8.12,3.63 13.02,27.68 34.97,47.98 56.7,68.41 9.92,9.33 17.21,17.7 15.74,34.11 -4.19,46.74 -5.86,93.73 -7.37,140.66 -0.54,16.58 2.21,33.27 3.47,49.92 1.26,0.13 2.53,0.27 3.8,0.41 4,-20.1 7.75,-40.24 12.06,-60.27 4.43,-20.59 7.09,-41.37 8.11,-62.39 1.02,-20.79 2.2,-41.57 3.39,-63.94 13.48,6.6 21.85,17.56 33.31,24.34 14.06,8.34 27.05,18.46 40.61,27.68 7.35,4.99 11.7,10.88 12.17,20.58 1.73,36.13 -1.41,72.35 0.98,108.34 2.6,39.21 -4.05,78.04 -1.94,117.09 0.49,9.04 2.41,17.95 10.99,24.8 7.23,-76.43 19.81,-152.07 23.1,-230.03 10.6,2.23 15.7,10.75 21.42,16.83 26.03,27.66 48.65,58.32 63.18,93.38 8.9,21.51 10.17,45.68 9.95,69.3 -0.12,12.21 -0.53,24.41 3.35,36.24 9.93,-44.9 18.09,-89.55 7.91,-136.02 -9.96,-45.47 -39.36,-76.57 -72.8,-104.55 -47.87,-40.05 -102.84,-70.41 -152.1,-108.72 -31.11,-24.19 -60.17,-50.19 -82.32,-83.1 -19.82,-29.44005 -43.94,-56.28005 -54.36,-91.37005 -4.91,-16.54 -10.73,-32.81 -15.81,-49.3 -1.67,-5.42 -4.29,-9.91 -8.97,-14.08 -6.59,2.98 -9.48,8.9 -12.19,15.03 -28.1,63.51 -56.91,126.72 -79.78,192.38005 -25.72,73.86 -32.63,149.53 -20.65,226.88"
         style="fill:#60b450;fill-opacity:1;fill-rule:nonzero;stroke:none"
         id="path156"
         inkscape:connector-curvature="0" />
      <path
         d="m 216.63765,1429.429 c 23.4,8.19 44.53,21.62 68.24,29.19 34.65,11.07 70.02,17.33 106.38,19.1 29.73,1.44 59.48,3.06 89.08,6.79 18.34,2.3 36.47,-1.74 56.75,-2.64 -5.37,-9.17 -11.63,-13.76 -17.7,-17.67 -14.31,-9.22 -27.43,-20.05 -39.06,-32.07 -19.96,-20.63 -45.84,-27.26 -71.78,-34.58 -41.64,-11.76 -84.96,-17.37 -125.64,-32.23 -32.34,-11.81 -62.06,-29.38 -89.12,-51.01 6.31,38.63 12.54,77.28 22.85,115.12"
         style="fill:#60b450;fill-opacity:1;fill-rule:nonzero;stroke:none"
         id="path158"
         inkscape:connector-curvature="0" />
      <path
         d="m 638.56765,1516.209 c -0.58,1.54 -0.74,3.99 -1.8,4.48 -11,5.13 -31.1,-1.2 -37.11,-12.09 -3.84,-6.96 -8.98,-10.01 -16.85,-11.17 -26.24,-3.85 -51.79,0.98 -77.37,5.26 -28.51,4.77 -56.86,10.56 -85.37,15.3 -25.75,4.29 -51.68,7.47 -77.79,8.32 -16.65,0.54 -33.34,0.07 -50.01,0.06 23.81,18.7 52.19,26.66 80.78,33.74 44.97,11.14 89.57,4.96 134.29,-3.08 28.65,-5.15 56.89,-12.29 85.56,-16.98 12.72,-2.08 22.52,7.25 32.05,15.1 24.6,20.25 46.89,43.46 73.8,60.71 32.71,20.96 67.88,37.36 104.63,50.01 7.15,2.46 15.24,5.41 23.11,0.9 -0.28,-3.48 -3.97,-5.91 -3.6,-9.3 3.04,-27.92 -18.72,-36.72 -37.29,-46.51 -21.56,-11.36 -44.74,-19.59 -65.82,-32.1 -12.67,-7.52 -25.28,-15.08 -35.43,-26.02 -19.36,-7.09 -34.9,-18.95 -45.78,-36.63"
         style="fill:#60b450;fill-opacity:1;fill-rule:nonzero;stroke:none"
         id="path160"
         inkscape:connector-curvature="0" />
      <path
         d="m 318.06765,1553.699 c 1.69,-8.38 8.31,-5.83 13.2,-5.34 46.81,4.62 93.14,2.09 139.04,-8.28 40.49,-9.15 81.02,-18.15 121.52,-27.26 1.5,-0.34 2.88,-1.18 6.13,-2.55 -10.96,-10.78 -20.92,-18.06 -36.43,-18.51 -37.71,-1.09 -75.43,0.92 -113.21,-2.78 -30.4,-2.98 -61.13,-2.82 -91.57,-6.61 -46.33,-5.76 -88.59,-23.07 -129.46,-44.47 -3.95,-2.07 -7.12,-5.61 -10.65,-8.47 6.84,35.57 25.72,64.2 52.58,87.46 15.37,13.32 31.45,26.02 48.85,36.81"
         style="fill:#60b450;fill-opacity:1;fill-rule:nonzero;stroke:none"
         id="path162"
         inkscape:connector-curvature="0" />
      <path
         d="m 684.35765,1552.849 c 5.32,15.67 20.55,20.05 32.53,27.71 21.93,14.02 46.46,22.99 69.88,34.15 9.33,4.44 17.47,11.52 25.78,17.88 5.64,4.32 7.87,10.2 6.9,17.74 -0.82,6.37 -2.29,13.99 7.04,16.44 10.22,-9.16 14.14,-21.43 16.79,-34.28 1.71,-8.3 -3.11,-13.73 -8.98,-18.21 -25.44,-19.4 -54.37,-32.02 -84.5,-41.88 -21.63,-7.09 -43.61,-13.07 -65.44,-19.55"
         style="fill:#3d8e2b;fill-opacity:1;fill-rule:nonzero;stroke:none"
         id="path164"
         inkscape:connector-curvature="0" />
      <path
         d="m 3292.51,1983.24 c -6.08,2.23 -2.93,6.58 -2.38,10.33 2.67,-3.01 3.1,-6.54 2.38,-10.33"
         style="fill:#60b450;fill-opacity:1;fill-rule:nonzero;stroke:none"
         id="path166"
         inkscape:connector-curvature="0" />
      <path
         d="m 2941.92,2086.22 c -0.29,-4.99 -3.9,-3.32 -6.67,-3.31 1.02,3.52 3.8,3.51 6.67,3.31"
         style="fill:#60b450;fill-opacity:1;fill-rule:nonzero;stroke:none"
         id="path168"
         inkscape:connector-curvature="0" />
      <path
         d="m 3293.76,1974.85 c -3.85,2.16 -3.1,5.06 -1.32,8.14 2.15,-2.44 2.15,-5.22 1.32,-8.14"
         style="fill:#60b450;fill-opacity:1;fill-rule:nonzero;stroke:none"
         id="path170"
         inkscape:connector-curvature="0" />
      <path
         d="m 2830.91,1956.51 c 0.59,-1.39 0.15,-2.37 -1.19,-2.99 -0.59,1.39 -0.33,2.44 1.19,2.99"
         style="fill:#60b450;fill-opacity:1;fill-rule:nonzero;stroke:none"
         id="path172"
         inkscape:connector-curvature="0" />
      <path
         d="m 3891.83,969.73 c 0.15,1.95 1.14,2.731 3.08,2.239 -1.03,-0.75 -2.05,-1.489 -3.08,-2.239"
         style="fill:#60b450;fill-opacity:1;fill-rule:nonzero;stroke:none"
         id="path174"
         inkscape:connector-curvature="0" />
      <path
         d="m 549.57544,378.56131 c 25.22,-3.78 37.6,14.37 51.4,30.09 5.27,5.99 8.76,13.48 15.49,18.23 1.61,3.31 8.34,1.94 7.15,7.82 l 0.23,0.1 c 2.27,1.61 5.96,1.73 5.96,5.71 0.89,0.91 1.78,1.83 2.67,2.74 24.35,17.18 48.86,34.04 76.1,46.59 8.6,3.96 17.35,6.93 26.6,7.77 39.6,3.56 79.21,5.47 118.44,-3.66 4.88,-1.13 10.73,-1.13 12.41,-7.08 1.8,-6.41 -3.97,-8.62 -7.84,-11.58 -47.08,-35.88 -90.2,-76.44 -135.41,-114.52 -8.31,-7 -17.52,-13.01 -26.9,-23.13 14.13,1.7 23.79,7.54 32.29,14.46 36.71,29.9 75.57,56.64 115.5,82.04 18.82,11.97 35.71,26.88 55.33,37.85 8.85,4.95 17.2,5.77 26.59,2.17 24.83,-9.53 49.45,-19.64 75.12996,-26.87 11.72,-3.3 12.52,-8.27 2.96,-16.29 -16.49996,-13.83 -34.58996,-25.59 -51.14996,-39.4 -26.32,-21.96 -49.68,-46.85 -74.92,-73.93 43.35,27.03 82.41,55.28 119.6,86.15 11.04996,9.16 22.94996,17.26 33.80996,26.66 7.33,6.35 15.75,5.58 24.06,3.92 23.61,-4.72 47.09,-9.99 71.31,-10.73 7.19,-0.22 14.3,-0.81 21.47,0.36 4.65,0.76 9.53,1.1 12.6,-3.53 3.27,-4.95 -0.09,-8.91 -2.76,-12.61 -19.81,-27.42 -40.2,-54.35 -65.29,-77.32 -4.03,-3.69 -8,-7.48 -11.2,-12.32 16.97,4.74 32.2,12.62 44.81,25.2 21.59,21.53 40.22,45.62 59.06,69.49 8.65,10.96 18.69,17.71 32.71,19.14 27.89,2.85 54.83,9.83 81.06,19.68 7.66,2.88 7.76,2.62 17.28,0.32 -25.27,-37.6 -57.95,-66.18 -93.34,-92.69 -35.5,-26.6 -72.91,-48.62 -116.42,-60.68 33.8,-8.57 65.89,-22 101.83,-22.08 -3.02,-11.82 -10.59,-12.85 -18.16,-13.22 -19.88,-0.96 -39.6,0.21 -59.25,3.99 -27.34,5.26 -54.73,10.97 -82.9,5.94 -8.4,-1.5 -16.76,0.11 -25.11,1.85 -15.91,3.31 -31.64996,3.1 -47.32996,-5.17 27.88996,-12.77 54.52996,-27.609 82.52996,-39.87 27.87,-12.211 57.82,-17.719 88.57,-25.141 -6.98,-12.297 -14.98,-11.758 -22.95,-10.777 -42.91,5.289 -83.11,18.859 -120.31,40.789 -21.28996,12.55 -44.02996,21.359 -67.29996,29.129 -2.01,0.67 -4.07,1.2 -6.19,1.27 -22.3,0.66 -44.64,-0.42 -69.77,2.71 6.68,-8.04 13.54,-11.36 19.35,-15.62 19.58,-14.349 35.5,-32.548 52.36,-49.642 27.74,-28.09 59.92,-49.199 95.44996,-65.726 4.76,-2.223 10.88,-3.692 10.1,-11.141 -2.95,-1.562 -5.9,-3.121 -8.86,-4.691 -7.29,-0.711 -14.08,0.82 -20.93,3.492 -46.20996,18 -86.76996,44.297 -122.19996,79.219 -24.3,23.961 -50.7,45.759 -77.72,66.689 -5.01,3.88 -10.47,7.36 -16.51,9.25 -27.36,8.53 -55.56,14.15 -82.61,23.8 -1.15,0.41 -2.51,0.34 -4.74,-1.75 6.27,-12.14 12.15,-25.42 21.49,-35.85 27.06,-30.198 50.14,-63.542 76.46,-94.292 28.29,-33.019 61.22,-60.168 99.4,-81.129 7.26,-3.988 17.3,-5.617 19.64,-16.039 -3.22,-1.308 -6.45,-2.621 -9.68,-3.929 -1.04,-0.25 -2.09,-0.493 -3.13,-0.719 l 0.17,0.019 c -8.99,-0.871 -16.91,1.629 -24.96,5.868 -56.76,29.953 -101.61,72.839 -140.01,123.839 -29.42,39.071 -58.56,78.292 -86.84,118.172 -5.72,8.08 -13.59,12.02 -22.55,13.7 -3.33,-3.52 -1.55,-6.3 -0.46,-8.86 19.84,-46.99 36.12,-95.48 59.09,-141.148 13.88,-27.614 31.76,-52.653 50.65,-76.992 3.09,-3.989 7.03,-7.45 8.79,-12.29 1.42,-3.898 3.39,-8.531 -3.61,-9.429 -1.19,0.379 -2.38,0.769 -3.57,1.16 -2.99,-0.27 -2.35,6.019 -6.52,3.609 l 0.52,0.578 -0.62,-0.476 c -26.19,24.75 -42.07,56.348 -58.65,87.558 -23.58,44.399 -41.26,91.54 -64.08,136.25 -5.15,10.09 -12.97,18.69 -20.1,27.57 -5.24,6.53 -12.65,7.86 -20.5,7.98 -15.6,0.23 -22.5,11.7 -29.15,23.12 -2.25,3.86 -1.16,7.43 4.08,8.28"
         style="fill:#3d8e2b;fill-opacity:1;fill-rule:nonzero;stroke:none"
         id="path176"
         inkscape:connector-curvature="0" />
      <path
         d="m 1037.2754,126.00231 c -6.92,9.32 -18.19,11.649 -27.73,16.328 -27.89996,13.699 -52.40996,31.641 -74.78996,53.133 -23.91,22.957 -45.37,48.758 -74.21,66.218 -3.2,1.93 -6.54,4.07 -5.18,10.1 18.6,-1.56 37.33,-3.4 56.15,-2.65 33.44,1.33 61.91,-13.6 89.58996,-29.281 40.12,-22.727 82.29,-38.258 128.31,-42.91 5.2,-0.52 10.08,-1.77 13.84,6.613 -32.03,4.648 -62.63,12.527 -91.49,25.687 -28.39,12.942 -56.42996,26.651 -88.04996,41.641 14.9,7.07 26.64,10.36 38.56996,9.53 23.41,-1.64 46.48,-4.23 70.26,-2.28 25.99,2.12 51.51,-6.57 77.25,-10.43 15.15,-2.27 30.26,-0.95 45.39,-0.73 4.41,0.07 7.81,2.18 11.85,7.55 -39.59,-2.87 -72.86,16.57 -110.49,22.43 88.7,28.55 158.63,82.49 217.06,154.59 -10.11,0.15 -18.21,-4.37 -26.33,-7.33 -22.73,-8.28 -46.2,-12.84 -70.06,-15.47 -12.76,-1.4 -21.44,-7.44 -29.19,-17.4 -19.92,-25.57 -40.18,-50.91 -63.01,-74.04 -11.07,-11.22 -41.22,-25.05 -54.66,-23.4 34.56,31.68 64.86,65.03 89.45,103.21 -0.9,4.22 -3.86,5.24 -7.6,4.62 -30.17,-5.01 -59.35,1.52 -88.51,7.79 -13.32,2.86 -24.34,4.1 -37.01,-6.44 -36.07996,-30 -73.80996,-58.07 -111.55996,-85.98 -13.34,-9.87 -28.64,-17.08 -43.05,-25.51 -0.83,0.97 -1.66,1.93 -2.5,2.9 14.27,14.7 28.71,29.24 42.74,44.16 14.43,15.35 30.02,29.34 46.73,42.13 16.53,12.65 32.96,25.43 50.68996,39.12 -13.08996,7.34 -26.85996,8.01 -38.94996,13.58 -14.85,6.83 -30.57,11.77 -45.85,17.69 -8.28,3.21 -15.61,3.44 -23.85,-1.68 -30.72,-19.1 -58.74,-42.27 -89.71,-60.75 -33.75,-20.14 -61.92,-47.68 -95.25,-68.12 -7.72,-4.73 -16.15,-8.22 -26.65,-5.05 58.78,49.37 113.88,102.71 176.16,149.71 -7.85,7.45 -17.77,6.8 -26.02,8.06 -37.55,5.71 -75.63,6.9 -112.74,-1.07 -22.76,-4.89 -43.37,-17.59 -62.68,-31.19 -9.98,-7.03 -19.79,-14.3 -31.72,-17.83 31.3,33.68 63.41,65.76 107.43,83.79 43.08,17.65 85.38,11.12 127.4,-0.5 60.16,-16.63 116.37,-44.62 175.88996,-63.39 37.58,-11.85 75.49,-20.99 115.16,-20.52 35.47,0.42 71.27,-4.18 106.06,7.19 16.41,5.35 33.1,9.8 49.56,15 5.41,1.7 10.59,2.09 16.69,0.61 1.28,-7.11 -1.94,-12.85 -5.45,-18.57 -36.3,-59.2 -71.94,-118.83 -112.98,-174.95 -46.16,-63.132 -104.51,-111.819 -174.96,-145.909"
         style="fill:#60b450;fill-opacity:1;fill-rule:nonzero;stroke:none"
         id="path178"
         inkscape:connector-curvature="0" />
      <path
         d="m 916.89544,63.80031 c -20.03,14.61 -43.09,24.371 -62.79,39.571 -28.79,22.23 -54.04,47.781 -76.16,76.699 -18.08,23.64 -36.32,47.199 -56.2,69.44 -12.32,13.78 -19.3,31 -30.07,48.2 10.59,0.8 17.93,-1.75 24.59,-4.53 15.72,-6.54 32.09,-11.18 48.59,-13.92 28.32,-4.7 48.47,-22.23 69.23,-39.41 33.34,-27.581 62.58,-60.05 97.92,-85.089 28.09,-19.902 59.44,-34.371 92.60996,-44.351 -35.37996,-16.75 -70.71996,-33.59 -107.71996,-46.61"
         style="fill:#60b450;fill-opacity:1;fill-rule:nonzero;stroke:none"
         id="path180"
         inkscape:connector-curvature="0" />
      <path
         d="m 549.57544,378.56131 c -0.94,-1.36 -2.86,-2.88 -2.67,-4.04 2.04,-11.95 18.67,-24.9 31.04,-23.66 7.91,0.8 13.34,-1.7 18.76,-7.52 18.08,-19.41 28.63,-43.18 39.64,-66.65 12.28,-26.18 23.62,-52.79 35.92,-78.951 11.1,-23.621 23.22,-46.769 37.35,-68.738 9.01,-14.012 18.88,-27.473 28.36,-41.191 -28.91,8.972 -51.59,27.808 -73.66,47.312 -34.72,30.668 -54.98,70.887 -73.77,112.246 -12.04,26.502 -22.2,53.802 -34.64,80.062 -5.51,11.65 -18.76,14.41 -30.63,17.8 -30.64,8.73 -62.41,13.88 -91.89,26.23 -35.84,15 -69.32,34.62 -100.61,57.68 -6.09,4.49 -13.11,9.47 -13.87,18.51 3.02,1.75 7.12,0.09 9.7,2.32 21.25,18.37 40.85,5.46 59.45,-4.26 21.61,-11.29 41.55,-25.69 63.83,-35.93 13.38,-6.15 26.77,-12.23 41.53,-14.37 16.84,-11.89 35.43,-17.94 56.16,-16.85"
         style="fill:#60b450;fill-opacity:1;fill-rule:nonzero;stroke:none"
         id="path182"
         inkscape:connector-curvature="0" />
      <path
         d="m 756.99544,76.65231 c 5.94,6.148 0.08,10.148 -3.1,13.898 -30.4,35.891 -54.64,75.449 -72.19,119.121 -15.48,38.52 -31.1,76.98 -46.61,115.49 -0.58,1.42 -0.67,3.03 -1.39,6.49 15.1,-2.9 26.75,-6.96 35.93,-19.46 22.33,-30.42 42.11,-62.6 66.62,-91.578 19.72,-23.332 37.05,-48.703 57.46,-71.614 31.06,-34.839 69.32,-59.789 110.16,-81.257 3.94,-2.071 8.66,-2.661 13.02,-3.942 -33.16,-14.59 -67.45,-15.32 -101.84,-6.429 -19.7,5.082 -39.29,11.089 -58.06,19.281"
         style="fill:#60b450;fill-opacity:1;fill-rule:nonzero;stroke:none"
         id="path184"
         inkscape:connector-curvature="0" />
      <path
         d="m 724.07544,326.33131 c -15.91,-4.52 -28.17,5.52 -41.28,11.03 -24,10.08 -45.32,25.17 -67.81,38.1 -8.95,5.15 -19.4,7.83 -29.36,11.05 -6.76,2.19 -12.86,0.68 -18.51,-4.4 -4.78,-4.29 -10.22,-9.83 -17.54,-3.55 1.74,13.62 9.61,23.82 18.68,33.3 5.85,6.12 13.06,5.24 20.07,2.96 30.43,-9.92 57.25,-26.55 82.49,-45.74 18.11,-13.77 35.53,-28.47 53.26,-42.75"
         style="fill:#3d8e2b;fill-opacity:1;fill-rule:nonzero;stroke:none"
         id="path186"
         inkscape:connector-curvature="0" />
      <path
         d="m 3335.47,1186.82 c 1.62,-6.26 -3.75,-6.14 -7.15,-7.82 0.96,3.91 3.61,6.27 7.15,7.82"
         style="fill:#60b450;fill-opacity:1;fill-rule:nonzero;stroke:none"
         id="path188"
         inkscape:connector-curvature="0" />
      <path
         d="m 3449.93,839.82 c 4.27,2.59 4.95,-1.32 6.52,-3.609 -3.49,-1.16 -5.05,1.129 -6.52,3.609"
         style="fill:#60b450;fill-opacity:1;fill-rule:nonzero;stroke:none"
         id="path190"
         inkscape:connector-curvature="0" />
      <path
         d="m 3341.66,1192.63 c 0.41,-4.4 -2.4,-5.44 -5.95,-5.72 0.79,3.15 3.08,4.74 5.95,5.72"
         style="fill:#60b450;fill-opacity:1;fill-rule:nonzero;stroke:none"
         id="path192"
         inkscape:connector-curvature="0" />
      <path
         d="m 3619.75,822.172 c 0.81,1.269 1.86,1.469 3.13,0.719 -0.81,-1.282 -1.82,-1.661 -3.13,-0.719"
         style="fill:#60b450;fill-opacity:1;fill-rule:nonzero;stroke:none"
         id="path194"
         inkscape:connector-curvature="0" />
      <path
         d="m 1701.0424,827.3742 c -8.74,23.95 -30.61,26.15 -51,30.76 -7.78,1.76 -16.03,1.25 -23.42,4.88 -3.68,-0.16 -5.7,6.41 -10.29,2.55 l -0.2,0.16 c -2.49,1.23 -4.37,4.4 -7.86,2.5 -1.23,0.35 -2.46,0.69 -3.69,1.03 -26.73,13.18 -53.25,26.65 -77.29,44.58 -7.59,5.66 -14.39,11.92 -19.54,19.64 -22.06,33.09 -42.67,66.96 -53.41,105.79 -1.34,4.82 -4.13,9.96 0.29,14.28 4.77,4.65 9.47,0.64 13.92,-1.35 54.02,-24.2 110.25,-42.68 165.32,-64.19 10.11,-3.95 19.8,-9.17 33.17,-12.57 -8.25,11.59 -17.99,17.29 -28.13,21.44 -43.82,17.96 -85.88,39.3 -127.28,62.24 -19.5,10.81 -40.67,18.51 -59.69,30.5 -8.58,5.41 -13.29,12.35 -14.62,22.32 -3.5,26.37 -6.39,52.82 -12.31,78.84 -2.7,11.87 1.28,14.95 12.9,10.38 20.03,-7.88 39,-18.15 59.05,-26.09 31.87,-12.62 64.9,-21.24 100.74,-30.47 -44.46,25.16 -87.94,45.96 -132.83,63.88 -13.34,5.32 -26.14,11.9 -39.58,16.94 -9.08,3.41 -12.43,11.17 -14.95,19.27 -7.13,22.99 -13.73,46.13 -24.66,67.76 -3.24,6.42 -6.13,12.95 -10.58,18.68 -2.9,3.73 -5.53,7.85 -2.92,12.75 2.78,5.25 7.87,4.19 12.4,3.61 33.55,-4.28 66.95,-9.33 99.11,-20.38 5.18,-1.78 10.4,-3.46 16.18,-3.95 -12.28,12.64 -26.48,22.25 -43.55,27.31 -29.24,8.67 -59.3,13.52 -89.26,18.66 -13.77,2.36 -24.5,7.95 -32.46,19.58 -15.83,23.14 -34.85,43.45 -56.04,61.79 -6.19,5.35 -6,5.56 -8.54,15.02 45.11,-4.21 85.84,-19.26 126.04,-37.67 40.34,-18.47 77.55,-40.8 108.95,-73.25 -8.63,33.78 -12.18,68.39 -29.29,99.99 11.84,3 16.35,-3.16 20.29,-9.63 10.36,-17 18.75,-34.88 24.83,-53.94 8.45,-26.54 16.52,-53.32 34.4,-75.66 5.34,-6.66 7.92,-14.78 10.39,-22.94 4.7,-15.55 12.4,-29.28 27.16,-39.1 -2.12,30.61 -1.81,61.1 -4.43,91.56 -2.6,30.31 -12.08,59.25 -20.26,89.81 14.15,-0.26 17.49,-7.54 20.44,-15.02 15.86,-40.22 23.16,-82.01 21.68,-125.17 -0.84,-24.69 2.29,-48.88 6.59,-73.03 0.37,-2.09 0.89,-4.15 1.85,-6.04 10.07,-19.91 21.7,-39.01 30.97,-62.58 3.87,9.71 3.5,17.32 4.47,24.46 3.24,24.05 11.62,46.74 18.56,69.72 11.42,37.79 14.58,76.14 12.12,115.26 -0.33,5.24 -1.97,11.31 4.95,14.19 2.78,-1.84 5.57,-3.69 8.35,-5.54 4.11,-6.06 6.02,-12.76 6.95,-20.05 6.27,-49.19 2.56,-97.39 -11.17,-145.2 -9.43,-32.8 -15.96,-66.41 -21.43,-100.15 -1.01,-6.26 -1.46,-12.71 -0.23,-18.92 5.58,-28.11 14.13,-55.57 18.59,-83.94 0.19,-1.2 0.9,-2.37 3.8,-3.32 7.67,11.3 16.52,22.82 21.21,36.01 13.59,38.2 31.85,74.41 46.27,112.23 15.49,40.64 23.58,82.54 23.75,126.1 0.03,8.27 -3.33,17.87 4.69,24.91 2.7,-2.21 5.39,-4.41 8.09,-6.62 0.72,-0.8 1.43,-1.6 2.13,-2.41 l -0.11,0.14 c 5.07,-7.48 6.66,-15.63 6.78,-24.73 0.83,-64.17 -15.41,-124.07 -41.85,-182.18 -20.24,-44.51 -40.76,-88.86 -62.28,-132.76 -4.36,-8.88 -4.06,-17.68 -1.25,-26.36 4.69,-1.24 6.28,1.66 8.01,3.83 31.78,39.9 66.59,77.37 95.73,119.38 17.61,25.39 31.05,53.07 43.41,81.29 2.02,4.63 3.18,9.74 6.59,13.6 2.75,3.11 5.87,7.05 10.01,1.34 0.23,-1.23 0.46,-2.46 0.69,-3.7 1.66,-2.49 -4.18,-4.94 -0.05,-7.45 l -0.77,0.19 0.72,-0.33 c -9.22,-34.82 -29.38,-63.88 -48.87,-93.37 -27.73,-41.92 -60.68,-79.99 -89.05,-121.41 -6.4,-9.34 -10.21,-20.33 -14.6,-30.83 -3.23,-7.72 -0.86,-14.87 2.79,-21.83 7.25,-13.8 0.48,-25.35 -6.37,-36.65 -2.32,-3.82 -5.97,-4.57 -9.22,-0.37"
         style="fill:#3d8e2b;fill-opacity:1;fill-rule:nonzero;stroke:none"
         id="path196"
         inkscape:connector-curvature="0" />
      <path
         d="m 1684.8524,1381.0942 c -4.88,-10.53 -1.54,-21.54 -1.09,-32.16 1.3,-31.05 -2.74,-61.16 -10.91,-91.09 -8.74,-31.97 -21.14,-63.15 -22.69,-96.84 -0.17,-3.73 -0.46,-7.68 -6.4,-9.38 -7.52,17.08 -14.86,34.42 -24.51,50.59 -17.16,28.74 -17.65,60.88 -17.11,92.69 0.79,46.1 -5.73,90.57 -23.65,133.21 -2.02,4.82 -3.26,9.7 -12.41,9 11.22,-30.35 18.93,-61 21.17,-92.64 2.2,-31.12 3.56,-62.3 5.51,-97.25 -13.34,9.71 -21.83,18.45 -26.8,29.33 -9.76,21.34 -18.52,42.84 -31.59,62.8 -14.29,21.81 -18.86,48.38 -27.77,72.84 -5.25,14.39 -13.63,27.03 -21.06,40.21 -2.16,3.84 -5.64,5.82 -12.3,6.8 21.45,-33.4 20.28,-71.91 33.12,-107.77 -67.47,64.27 -148.28,99.9 -239.54,116.76 4.7,-8.95 12.54,-13.91 19.02,-19.63 18.14,-16 33.37,-34.44 47.08,-54.14 7.33,-10.54 16.79,-15.27 29.24,-17.32 31.98,-5.27 63.92,-10.95 95.15,-19.95 15.15,-4.36 41.71,-24.23 46.68,-36.82 -44.34,15.21 -88.12,25.88 -133.41,29.23 -3.28,-2.81 -2.76,-5.9 -0.42,-8.88 18.82,-24.11 27.03,-52.86 35.47,-81.47 3.85,-13.07 8.03,-23.34 23.34,-29.44 43.6,-17.35 86.29,-37.06 128.85,-56.88 15.05,-7 28.7,-16.99 42.99,-25.62 -0.45,-1.19 -0.9,-2.38 -1.35,-3.57 -19.74,5.49 -39.41,11.23 -59.23,16.42 -20.37,5.34 -40.11,12.34 -59.34,20.91 -19.01,8.47 -38.09,16.79 -58.59,25.82 -0.19,-15 5.81,-27.42 6.7,-40.7 1.09,-16.31 4.27,-32.48 6.37,-48.73 1.15,-8.81 4.44,-15.36 12.88,-20.15 31.46,-17.84 65.21,-31.38 96.24,-49.75 33.83,-20.02 71.48,-31.6 105.37,-51.1 7.85,-4.52 14.94,-10.25 17.18,-20.99 -71.47,28.03 -144.66,50.92 -215.71,83.16 -2.8,-10.46 2.51,-18.86 5.36,-26.7 12.93,-35.72 30.09,-69.74 54.83,-98.52 15.18,-17.66 36.18,-29.69 57.36,-40.15 10.94,-5.4 22.02,-10.54 30.82,-19.34 -44.55,11.4 -88.07,24.26 -124.95,54.31 -36.09,29.4 -50.58,69.68 -60.46,112.14 -14.15,60.79 -16.44,123.55 -28.4,184.79 -7.56,38.68 -17.65,76.34 -37.03,110.96 -17.33,30.96 -30.4,64.6 -57.01,89.73 -12.55,11.84 -24.44,24.38 -36.87,36.36 -4.08,3.93 -6.9,8.3 -8.52,14.36 5.64,4.53 12.22,4.44 18.92,4.09 69.35,-3.58 138.77,-6.38 207.68,-15.6 77.51,-10.37 148.17,-38.34 211.79,-83.93"
         style="fill:#60b450;fill-opacity:1;fill-rule:nonzero;stroke:none"
         id="path198"
         inkscape:connector-curvature="0" />
      <path
         d="m 1800.7324,1289.5742 c -3.26,-24.58 -0.8,-49.5 -4.74,-74.07 -5.76,-35.92 -16.13,-70.31 -30.95,-103.55 -12.13,-27.19 -24.1,-54.47 -34.13,-82.57 -6.22,-17.41 -18.01,-31.76 -27.97,-49.45 -5.76,8.93 -7.02,16.59 -7.77,23.77 -1.77,16.93 -5.52,33.53 -11,49.33 -9.41,27.12 -3.64,53.2 1.52,79.65 8.29,42.47 22.83,83.67 27.93,126.67 4.05,34.19 1.77,68.64 -5.32,102.55 31.63,-23.06 63.31,-46.06 92.43,-72.33"
         style="fill:#60b450;fill-opacity:1;fill-rule:nonzero;stroke:none"
         id="path200"
         inkscape:connector-curvature="0" />
      <path
         d="m 1689.9824,981.0742 c 1.63,-0.18 3.89,-1.14 4.81,-0.42 9.54,7.51 12.96,28.3 5.95,38.57 -4.48,6.57 -4.88,12.54 -2.36,20.08 8.4,25.15 24.24,45.78 39.6,66.67 17.12,23.3 35.07,45.99 52.17,69.3 15.44,21.04 29.98,42.75 42.52,65.66 8,14.62 15.1,29.72 22.62,44.61 5.94,-29.69 0.24,-58.61 -6.34,-87.32 -10.34,-45.16 -35.98,-82.18 -63.33,-118.45 -17.52,-23.25 -36.64,-45.23 -53.76,-68.7 -7.6,-10.41 -3.69,-23.37 -0.99,-35.42 6.97,-31.09 17.64,-61.45 20.89,-93.25 3.95,-38.65 2.72,-77.43 -2.58,-115.94 -1.03,-7.49 -2.05,-16.04 -9.62,-21.02 -2.98,1.81 -3.48,6.2 -6.68,7.4 -26.28,9.88 -24.32,33.27 -24.68,54.26 -0.41,24.37 2.7,48.77 1.05,73.23 -1,14.7 -2.06,29.36 -7.23,43.35 2.4,20.48 -1.17,39.7 -12.04,57.39"
         style="fill:#60b450;fill-opacity:1;fill-rule:nonzero;stroke:none"
         id="path202"
         inkscape:connector-curvature="0" />
      <path
         d="m 1865.6424,1132.1642 c -8.24,2.27 -8.95,-4.79 -10.73,-9.37 -16.99,-43.86 -40.15,-84.06 -70.12,-120.35 -26.43,-32.01 -52.75,-64.12 -79.15,-96.15 -0.98,-1.18 -2.35,-2.04 -5.04,-4.32 -4.68,14.65 -6.68,26.82 -0.08,40.86 16.04,34.15 34.85,66.91 48.59,102.29 11.05,28.48 25.06,55.83 35.42,84.7 15.76,43.94 19.38,89.47 18.72,135.61 -0.07,4.45 0.96,-4.44 0,0 28.66,-22.15 42.93,-38.6 51.57,-73.06 4.95,-19.73 9.04,-39.81 10.82,-60.21"
         style="fill:#60b450;fill-opacity:1;fill-rule:nonzero;stroke:none"
         id="path204"
         inkscape:connector-curvature="0"
         sodipodi:nodetypes="cccccccccccc" />
      <path
         d="m 4037.3,1579.93 c 4.73,4.42 7.19,-0.36 10.29,-2.54 -3.89,-1.03 -7.23,0.18 -10.29,2.54"
         style="fill:#60b450;fill-opacity:1;fill-rule:nonzero;stroke:none"
         id="path208"
         inkscape:connector-curvature="0" />
      <path
         d="m 4287.38,1846.34 c -4.32,2.52 -1.21,4.98 0.05,7.45 2.68,-2.5 1.42,-4.97 -0.05,-7.45"
         style="fill:#60b450;fill-opacity:1;fill-rule:nonzero;stroke:none"
         id="path210"
         inkscape:connector-curvature="0" />
      <path
         d="m 4029.24,1582.59 c 3.66,2.46 5.92,0.49 7.86,-2.49 -3.14,-0.82 -5.63,0.44 -7.86,2.49"
         style="fill:#60b450;fill-opacity:1;fill-rule:nonzero;stroke:none"
         id="path212"
         inkscape:connector-curvature="0" />
      <path
         d="m 4221.7,2003.94 c -1.51,0.1 -2.19,0.93 -2.13,2.41 1.5,-0.1 2.32,-0.81 2.13,-2.41"
         style="fill:#60b450;fill-opacity:1;fill-rule:nonzero;stroke:none"
         id="path214"
         inkscape:connector-curvature="0" />
      <g
         id="g216"
         transform="matrix(15.306753,0,0,16.063044,-4409.4913,-1690.9214)">
        <text
           xml:space="preserve"
           transform="scale(1,-1)"
           style="font-variant:normal;font-weight:normal;font-size:53.09619904px;font-family:ConcertOne;-inkscape-font-specification:ConcertOne-Regular;writing-mode:lr-tb;fill:#393a31;fill-opacity:1;fill-rule:nonzero;stroke:none"
           id="text220"
           x="326.3284"
           y="-141.66646"><tspan
             x="326.3284"
             y="-141.66646"
             id="tspan218">0</tspan></text>
        <text
           xml:space="preserve"
           transform="scale(1,-1)"
           style="font-variant:normal;font-weight:normal;font-size:33.40539932px;font-family:ConcertOne;-inkscape-font-specification:ConcertOne-Regular;writing-mode:lr-tb;fill:#393a31;fill-opacity:1;fill-rule:nonzero;stroke:none"
           id="text224"
           x="354.24982"
           y="-148.02238"><tspan
             x="354.24982"
             y="-148.02238"
             id="tspan222">%</tspan></text>
      </g>
    </g>
  </g>
</svg>
