<?xml version="1.0" encoding="UTF-8" standalone="no"?>
<svg
   xmlns:dc="http://purl.org/dc/elements/1.1/"
   xmlns:cc="http://creativecommons.org/ns#"
   xmlns:rdf="http://www.w3.org/1999/02/22-rdf-syntax-ns#"
   xmlns:svg="http://www.w3.org/2000/svg"
   xmlns="http://www.w3.org/2000/svg"
   xmlns:xlink="http://www.w3.org/1999/xlink"
   xmlns:sodipodi="http://sodipodi.sourceforge.net/DTD/sodipodi-0.dtd"
   xmlns:inkscape="http://www.inkscape.org/namespaces/inkscape"
   version="1.1"
   id="svg2"
   sodipodi:docname="8899.svg"
   inkscape:version="0.92.4 (5da689c313, 2019-01-14)"
   viewBox="105.87 1174.68 3288.1892 1133.8583"
   width="870mm"
   height="300mm">
  <metadata
     id="metadata1426">
    <rdf:RDF>
      <cc:Work
         rdf:about="">
        <dc:format>image/svg+xml</dc:format>
        <dc:type
           rdf:resource="http://purl.org/dc/dcmitype/StillImage" />
        <dc:title></dc:title>
      </cc:Work>
    </rdf:RDF>
  </metadata>
  <defs
     id="defs6">
    <linearGradient
       inkscape:collect="always"
       id="linearGradient34809">
      <stop
         style="stop-color:#005800;stop-opacity:1;"
         offset="0"
         id="stop34805" />
      <stop
         style="stop-color:#005800;stop-opacity:0;"
         offset="1"
         id="stop34807" />
    </linearGradient>
    <linearGradient
       inkscape:collect="always"
       xlink:href="#linearGradient34809"
       id="linearGradient34813"
       x1="133.81494"
       y1="-1151.4359"
       x2="2834.8899"
       y2="-1151.4359"
       gradientUnits="userSpaceOnUse" />
    <radialGradient
       id="0"
       spreadMethod="pad"
       gradientTransform="matrix(28573.1,0,0,-31243.4,24000,16500)"
       gradientUnits="userSpaceOnUse"
       r="1"
       cy="0"
       cx="0"
       fy="0"
       fx="0">
      <stop
         id="stop12"
         offset="0"
         style="stop-opacity:1;stop-color:#ffffff" />
      <stop
         id="stop14"
         offset="0.301676"
         style="stop-opacity:1;stop-color:#ffffff" />
      <stop
         id="stop16"
         offset="1"
         style="stop-opacity:1;stop-color:#8d9093" />
    </radialGradient>
  </defs>
  <sodipodi:namedview
     id="namedview4"
     pagecolor="#ffffff"
     bordercolor="#000000"
     borderopacity="0.25"
     inkscape:showpageshadow="false"
     inkscape:pageopacity="0.0"
     inkscape:pagecheckerboard="true"
     inkscape:deskcolor="#d1d1d1"
     showgrid="false"
     inkscape:zoom="0.134"
     inkscape:cx="2250.6288"
     inkscape:cy="165.98685"
     inkscape:window-width="1360"
     inkscape:window-height="705"
     inkscape:window-x="-8"
     inkscape:window-y="-8"
     inkscape:window-maximized="1"
     inkscape:current-layer="g8"
     showborder="true"
     borderlayer="false"
     fit-margin-top="0"
     fit-margin-left="0"
     fit-margin-right="0"
     fit-margin-bottom="-1.6"
     height="985.62122px"
     units="mm"
     width="1000mm" />
  <g
     id="g8"
     inkscape:groupmode="layer"
     inkscape:label="ink_ext_XXXXXX"
     transform="matrix(1.3333333,0,0,-1.3333333,0.00103947,3359.7771)">
    <g
       id="g10"
       transform="matrix(0.10539323,0,0,0.11697256,1416.1499,-90.181706)">
      <path
         d="M 16186.438,-5786.7763 H -7372.8324 v 7813.531 H 16186.438 v -7813.531"
         style="fill:#ffffff;fill-opacity:1;fill-rule:nonzero;stroke:none;stroke-width:0.45225492"
         id="path12"
         inkscape:connector-curvature="0" />
      <path
         d="m 838.29949,12114.126 h -627.828 c -23.781,0 -41.315,23.079 -35.737,47.085 l 212.726,919.956 c 9.459,40.828 -42.206,65.251 -65.674,31.05 l -978.728,-1427.923 c -17.312,-25.257 0.05,-60.291 29.936,-60.291 H 0.8224874 c 23.7809996,0 41.2699996,-23.08 35.7369996,-47.086 l -212.725997,-919.956 c -9.458,-40.828 42.206,-65.251 65.63,-31.049 l 978.772,1427.876 c 17.311,25.303 -0.08,60.338 -29.936,60.338"
         style="fill:#ffcc00;fill-opacity:1;fill-rule:nonzero;stroke:none;stroke-width:0.45471048"
         id="path16"
         inkscape:connector-curvature="0"
         inkscape:transform-center-y="149.25373" />
    </g>
    <flowRoot
       xml:space="preserve"
       id="flowRoot1971"
       style="font-style:normal;font-variant:normal;font-weight:normal;font-stretch:normal;font-size:133.33332825px;line-height:1.25;font-family:'Cooper Black';-inkscape-font-specification:'Cooper Black, Normal';font-variant-ligatures:normal;font-variant-caps:normal;font-variant-numeric:normal;font-feature-settings:normal;text-align:start;letter-spacing:0px;word-spacing:0px;writing-mode:lr-tb;text-anchor:start;fill:#000000;fill-opacity:1;stroke:none"
       transform="matrix(0.75000002,0,0,-0.75000002,0,3000.0001)"><flowRegion
         id="flowRegion1973"
         style="font-style:normal;font-variant:normal;font-weight:normal;font-stretch:normal;font-size:133.33332825px;font-family:'Cooper Black';-inkscape-font-specification:'Cooper Black, Normal';font-variant-ligatures:normal;font-variant-caps:normal;font-variant-numeric:normal;font-feature-settings:normal;text-align:start;writing-mode:lr-tb;text-anchor:start"><rect
           id="rect1975"
           width="4372.8813"
           height="1423.7289"
           x="254.23729"
           y="2830.5085"
           style="font-style:normal;font-variant:normal;font-weight:normal;font-stretch:normal;font-size:133.33332825px;font-family:'Cooper Black';-inkscape-font-specification:'Cooper Black, Normal';font-variant-ligatures:normal;font-variant-caps:normal;font-variant-numeric:normal;font-feature-settings:normal;text-align:start;writing-mode:lr-tb;text-anchor:start" /></flowRegion><flowPara
         id="flowPara1977" /></flowRoot>    <flowRoot
       xml:space="preserve"
       id="flowRoot1979"
       style="font-style:normal;font-variant:normal;font-weight:normal;font-stretch:normal;font-size:53.33333206px;line-height:1.25;font-family:'Curlz MT';-inkscape-font-specification:'Curlz MT, Normal';font-variant-ligatures:normal;font-variant-caps:normal;font-variant-numeric:normal;font-feature-settings:normal;text-align:start;letter-spacing:0px;word-spacing:0px;writing-mode:lr-tb;text-anchor:start;fill:#000000;fill-opacity:1;stroke:none"><flowRegion
         id="flowRegion1981"><rect
           id="rect1983"
           width="305.08475"
           height="457.62714"
           x="-50.847458"
           y="2983.0508" /></flowRegion><flowPara
         id="flowPara1985" /></flowRoot>    <flowRoot
       xml:space="preserve"
       id="flowRoot1987"
       style="font-style:normal;font-variant:normal;font-weight:normal;font-stretch:normal;font-size:53.33333206px;line-height:1.25;font-family:'Curlz MT';-inkscape-font-specification:'Curlz MT, Normal';font-variant-ligatures:normal;font-variant-caps:normal;font-variant-numeric:normal;font-feature-settings:normal;text-align:start;letter-spacing:0px;word-spacing:0px;writing-mode:lr-tb;text-anchor:start;fill:#000000;fill-opacity:1;stroke:none"><flowRegion
         id="flowRegion1989"><rect
           id="rect1991"
           width="830.50848"
           height="118.64407"
           x="254.23729"
           y="2966.1018" /></flowRegion><flowPara
         id="flowPara1993" /></flowRoot>    <flowRoot
       xml:space="preserve"
       id="flowRoot34194"
       style="font-style:normal;font-variant:normal;font-weight:normal;font-stretch:normal;font-size:53.33333206px;line-height:1.25;font-family:'Cooper Black';-inkscape-font-specification:'Cooper Black, Normal';font-variant-ligatures:normal;font-variant-caps:normal;font-variant-numeric:normal;font-feature-settings:normal;text-align:end;letter-spacing:0px;word-spacing:0px;writing-mode:lr-tb;text-anchor:end;fill:#000000;fill-opacity:1;stroke:none"><flowRegion
         id="flowRegion34196"><rect
           id="rect34198"
           width="1966.1017"
           height="372.88135"
           x="932.20337"
           y="2830.5085" /></flowRegion><flowPara
         id="flowPara34200" /></flowRoot>    <flowRoot
       xml:space="preserve"
       id="flowRoot34777"
       style="font-style:normal;font-variant:normal;font-weight:normal;font-stretch:normal;font-size:53.33333206px;line-height:1.25;font-family:'Cooper Black';-inkscape-font-specification:'Cooper Black, Normal';font-variant-ligatures:normal;font-variant-caps:normal;font-variant-numeric:normal;font-feature-settings:normal;text-align:end;letter-spacing:0px;word-spacing:0px;writing-mode:lr-tb;text-anchor:end;fill:#000000;fill-opacity:1;stroke:none"><flowRegion
         id="flowRegion34779"><rect
           id="rect34781"
           width="2462.6865"
           height="373.13434"
           x="664.17908"
           y="2888.0598" /></flowRegion><flowPara
         id="flowPara34783" /></flowRoot>    <flowRoot
       xml:space="preserve"
       id="flowRoot34789"
       style="font-style:normal;font-variant:normal;font-weight:normal;font-stretch:normal;font-size:53.33333206px;line-height:1.25;font-family:'Cooper Black';-inkscape-font-specification:'Cooper Black, Normal';font-variant-ligatures:normal;font-variant-caps:normal;font-variant-numeric:normal;font-feature-settings:normal;text-align:end;letter-spacing:0px;word-spacing:0px;writing-mode:lr-tb;text-anchor:end;fill:#000000;fill-opacity:1;stroke:none"><flowRegion
         id="flowRegion34791"><rect
           id="rect34793"
           width="328.35822"
           height="261.19403"
           x="686.56714"
           y="2947.7612" /></flowRegion><flowPara
         id="flowPara34795" /></flowRoot>    <text
       xml:space="preserve"
       style="font-style:normal;font-variant:normal;font-weight:normal;font-stretch:normal;font-size:40px;line-height:1.25;font-family:'Cooper Black';-inkscape-font-specification:'Cooper Black, Normal';font-variant-ligatures:normal;font-variant-caps:normal;font-variant-numeric:normal;font-feature-settings:normal;text-align:end;letter-spacing:0px;word-spacing:0px;writing-mode:lr-tb;text-anchor:end;fill:#000000;fill-opacity:1;stroke:none;stroke-width:0.75"
       x="996.26862"
       y="-861.94031"
       id="text34799"
       transform="scale(1,-1)"><tspan
         sodipodi:role="line"
         id="tspan34797"
         x="996.26862"
         y="-825.86182"
         style="stroke-width:0.75" /></text>
    <text
       xml:space="preserve"
       style="font-style:normal;font-variant:normal;font-weight:normal;font-stretch:normal;font-size:198.66409302px;line-height:1.25;font-family:'Cooper Black';-inkscape-font-specification:'Cooper Black, Normal';font-variant-ligatures:normal;font-variant-caps:normal;font-variant-numeric:normal;font-feature-settings:normal;text-align:end;letter-spacing:0px;word-spacing:0px;writing-mode:lr-tb;text-anchor:end;fill:#003600;fill-opacity:1;stroke:none;stroke-width:0.87645918"
       x="2841.1489"
       y="-715.58362"
       id="text34803"
       transform="scale(0.88058152,-1.1356132)"><tspan
         sodipodi:role="line"
         id="tspan34801"
         x="2841.1489"
         y="-715.58362"
         style="font-style:normal;font-variant:normal;font-weight:normal;font-stretch:normal;font-size:198.66409302px;font-family:'Cooper Black';-inkscape-font-specification:'Cooper Black, Normal';font-variant-ligatures:normal;font-variant-caps:normal;font-variant-numeric:normal;font-feature-settings:normal;text-align:end;writing-mode:lr-tb;text-anchor:end;fill:#003600;fill-opacity:1;stroke-width:0.87645918"> H Y D R I U M   E N E R G Y</tspan></text>
    <path
       d="m 1811.1126,1130.871 -176.8141,-1.9502 c -4.912,25.1066 -32.4133,44.2048 -65.1992,43.8433 -32.7817,-0.3617 -59.6808,-20.0599 -63.8018,-45.2662 l -430.161,-4.745 c -4.9098,25.107 -32.4146,44.2051 -65.1974,43.843 -32.78282,-0.3614 -59.68111,-20.0594 -63.80423,-45.2658 l -57.56113,-0.6351 -2.50797,160.3942 c -0.0275,1.7529 0.80168,3.4046 2.33391,4.6604 l 160.75182,131.5641 c 1.5099,1.2384 3.6173,1.9587 5.7813,1.9827 l 69.5025,0.7665 c 4.5316,0.05 8.2636,-2.8489 8.3204,-6.4617 l 3.491,-223.2598 c 0.064,-4.0853 4.2686,-7.3519 9.3909,-7.2954 l 42.0809,0.4642 c 5.1246,0.056 9.2235,3.4147 9.1596,7.4999 l -3.8759,247.8819 c -0.1095,6.9905 6.9346,12.7518 15.6991,12.8486 l 581.3935,6.413 c 8.7646,0.097 15.9863,-5.5074 16.0955,-12.4978 z m -240.6201,-47.213 c -25.7007,-0.2835 -46.8706,16.1547 -47.191,36.6429 -0.3204,20.4918 20.3283,37.3913 46.029,37.6748 25.705,0.2835 46.8748,-16.1547 47.1953,-36.6463 0.3204,-20.4884 -20.3283,-37.3879 -46.0333,-37.6714 z m -559.1602,-6.1678 c -25.70273,-0.2835 -46.87349,16.1546 -47.19392,36.6431 -0.32044,20.4917 20.3292,37.391 46.03202,37.6745 25.7022,0.2836 46.8735,-16.1544 47.1939,-36.6462 0.3204,-20.4884 -20.3296,-37.3878 -46.032,-37.6714 z m 466.2534,474.0089 -64.1606,-0.7077 -0.5993,38.3132 64.1609,0.7075 c 13.2442,0.1462 24.1599,-8.3264 24.325,-18.8914 0.1652,-10.565 -10.4818,-19.2753 -23.726,-19.4216 z m 391.18,31.1326 -349.4344,-3.8545 c -4.6241,15.2887 -22.0428,26.5777 -42.5843,26.3512 l -73.7692,-0.8135 c -5.3063,-0.058 -9.5505,-3.5358 -9.4844,-7.7661 l 0.1003,-6.4488 -41.3945,-0.4564 c -5.3064,-0.057 -9.5549,-3.5356 -9.4889,-7.7658 0.066,-4.2269 4.4221,-7.6091 9.7284,-7.5503 l 41.3946,0.4564 0.1579,-10.0956 -41.3947,-0.4567 c -5.3063,-0.057 -9.5549,-3.5357 -9.4887,-7.7659 0.066,-4.2267 4.4221,-7.6124 9.7282,-7.5537 l 41.3946,0.4565 0.1002,-6.4487 c 0.066,-4.23 4.4177,-7.6123 9.7241,-7.554 l 73.7692,0.8136 c 20.5417,0.2267 37.6011,11.8998 41.7458,27.2815 l 349.4341,3.8544 c 21.7535,0.2402 39.6719,-13.6696 39.9431,-31.0115 l 4.7693,-304.9923 c 0.2712,-17.3416 -17.2062,-31.6454 -38.9596,-31.8853 l -46.1556,-0.5093 -3.8614,246.9434 c -0.2368,15.1437 -15.8808,27.2911 -34.8772,27.0816 l -581.3936,-6.4131 c -18.9921,-0.2095 -34.2542,-12.6977 -34.0173,-27.8414 l 3.7607,-240.4912 -23.5315,-0.2595 -3.3754,215.8692 c -0.1842,11.7692 -12.342,21.2083 -27.1024,21.0455 l -69.5025,-0.7668 c -7.0472,-0.078 -13.9106,-2.4314 -18.8312,-6.4576 L 875.11817,1296.0631 c -4.99276,-4.0858 -7.69319,-9.475 -7.60405,-15.1786 l 2.62375,-167.7881 c 0.0638,-4.0819 4.26843,-7.3486 9.39087,-7.292 l 66.83676,0.7375 c 4.91022,-25.1036 32.41468,-44.2016 65.1971,-43.8399 32.7824,0.3615 59.6802,20.0595 63.8036,45.2627 l 430.1615,4.7448 c 4.9077,-25.1034 32.4135,-44.2015 65.1951,-43.8399 32.7857,0.3617 59.6807,20.0599 63.8058,45.2628 l 186.0895,2.0527 c 5.1246,0.057 9.2236,3.4147 9.1598,7.4964 l -0.937,59.9192 46.1555,0.5093 c 32.3443,0.3566 58.3357,21.6287 57.9325,47.4136 l -4.769,304.9921 c -0.4032,25.7847 -27.0509,46.4727 -59.3953,46.116"
       style="fill:#3f2e20;fill-opacity:1;fill-rule:nonzero;stroke:none;stroke-width:0.0386476"
       id="path14"
       inkscape:connector-curvature="0" />
  </g>
  <g
     inkscape:groupmode="layer"
     id="layer2"
     inkscape:label="ink_ext_XXXXXX 2"
     transform="translate(0,147.23709)" />
  <g
     inkscape:groupmode="layer"
     id="layer1"
     inkscape:label="ink_ext_XXXXXX 1"
     transform="translate(0,147.23709)" />
</svg>
