<?xml version="1.0" encoding="UTF-8" standalone="no"?>
<!-- Created with Inkscape (http://www.inkscape.org/) -->

<svg
   xmlns:dc="http://purl.org/dc/elements/1.1/"
   xmlns:cc="http://creativecommons.org/ns#"
   xmlns:rdf="http://www.w3.org/1999/02/22-rdf-syntax-ns#"
   xmlns:svg="http://www.w3.org/2000/svg"
   xmlns="http://www.w3.org/2000/svg"
   xmlns:sodipodi="http://sodipodi.sourceforge.net/DTD/sodipodi-0.dtd"
   xmlns:inkscape="http://www.inkscape.org/namespaces/inkscape"
   version="1.1"
   id="svg2"
   width="4000"
   height="4000"
   viewBox="0 0 4000 4000"
   sodipodi:docname="CompanyLogo.svg"
   inkscape:version="0.92.4 (5da689c313, 2019-01-14)">
  <metadata
     id="metadata1426">
    <rdf:RDF>
      <cc:Work
         rdf:about="">
        <dc:format>image/svg+xml</dc:format>
        <dc:type
           rdf:resource="http://purl.org/dc/dcmitype/StillImage" />
        <dc:title></dc:title>
      </cc:Work>
    </rdf:RDF>
  </metadata>
  <defs
     id="defs6" />
  <sodipodi:namedview
     id="namedview4"
     pagecolor="#ffffff"
     bordercolor="#000000"
     borderopacity="0.25"
     inkscape:showpageshadow="2"
     inkscape:pageopacity="0.0"
     inkscape:pagecheckerboard="0"
     inkscape:deskcolor="#d1d1d1"
     showgrid="false"
     inkscape:zoom="0.134"
     inkscape:cx="1057.1968"
     inkscape:cy="2000"
     inkscape:window-width="1360"
     inkscape:window-height="705"
     inkscape:window-x="-8"
     inkscape:window-y="-8"
     inkscape:window-maximized="1"
     inkscape:current-layer="g8" />
  <g
     id="g8"
     inkscape:groupmode="layer"
     inkscape:label="ink_ext_XXXXXX"
     transform="matrix(1.3333333,0,0,-1.3333333,0,4000)">
    <g
       id="g10"
       transform="matrix(0.10254237,0,0,0.09788136,-94.105745,497.84975)">
      <path
         d="M 30000,0 H 0 V 30000 H 30000 V 0"
         style="fill:#ffffff;fill-opacity:1;fill-rule:nonzero;stroke:none"
         id="path12"
         inkscape:connector-curvature="0" />
      <path
         d="m 20875.526,11274.905 h -3414.277 c -87.254,605.923 -612.45,1073.143 -1245.544,1073.143 -633.01,0 -1158.29,-467.22 -1245.46,-1073.143 H 6663.8451 c -87.2123,605.923 -612.4754,1073.143 -1245.5107,1073.143 -633.0353,0 -1158.2984,-467.22 -1245.5107,-1073.143 H 3061.3199 v 3863.248 c 0,42.217 16.5064,81.775 46.4687,111.61 l 3143.2961,3125.602 c 29.5276,29.42 70.4301,46.207 112.2185,46.207 h 1342.092 c 87.5048,0 158.6871,-70.806 158.6871,-157.817 v -5377.432 c 0,-98.397 80.1919,-178.179 179.105,-178.179 h 812.5832 c 98.9548,0 179.1049,79.782 179.1049,178.179 v 5970.473 c 0,168.372 137.7345,305.247 306.9774,305.247 H 20568.549 c 169.243,0 306.977,-136.875 306.977,-305.247 z m -4659.821,-1073.06 c -496.278,0 -900.038,401.484 -900.038,894.965 0,493.564 403.76,895.047 900.038,895.047 496.363,0 900.122,-401.483 900.122,-895.047 0,-493.481 -403.759,-894.965 -900.122,-894.965 z m -10797.3706,0 c -496.3205,0 -900.0964,401.484 -900.0964,894.965 0,493.564 403.7759,895.047 900.0964,895.047 496.3121,0 900.0964,-401.483 900.0964,-895.047 0,-493.481 -403.7843,-894.965 -900.0964,-894.965 z m 9144.8916,11291.144 h -1238.942 v 922.805 h 1238.942 c 255.745,0 463.934,-206.933 463.934,-461.402 0,-254.47 -208.189,-461.403 -463.934,-461.403 z m 7561.773,645.814 h -6747.568 c -84.664,369.405 -417.55,645.897 -814.205,645.897 h -1424.482 c -102.465,0 -185.457,-82.607 -185.457,-184.494 v -155.325 h -799.328 c -102.465,0 -185.54,-82.607 -185.54,-184.494 0,-101.805 83.075,-184.412 185.54,-184.412 h 799.328 v -243.167 h -799.328 c -102.465,0 -185.54,-82.607 -185.54,-184.494 0,-101.805 83.075,-184.495 185.54,-184.495 h 799.328 v -155.324 c 0,-101.887 82.992,-184.494 185.457,-184.494 h 1424.482 c 396.655,0 729.541,276.575 814.205,645.896 h 6747.568 c 420.056,0 761.802,-339.735 761.802,-757.424 v -7346.038 c 0,-417.689 -341.746,-757.507 -761.802,-757.507 h -891.263 v 5947.868 c 0,364.751 -298.369,661.438 -665.187,661.438 H 9341.8528 c -366.7348,0 -665.1622,-296.687 -665.1622,-661.438 v -5792.461 h -454.39 v 5199.42 c 0,283.473 -231.8837,514.008 -516.9054,514.008 h -1342.092 c -136.0797,0 -269.301,-54.85 -365.5146,-150.504 L 2854.5009,15501.656 c -97.626,-97.067 -151.3909,-226.13 -151.3909,-363.503 V 11096.81 c 0,-98.314 80.1919,-178.096 179.105,-178.096 h 1290.617 c 87.2207,-605.84 612.4755,-1073.0593 1245.5024,-1073.0593 633.0269,0 1158.2817,467.2193 1245.5024,1073.0593 h 8306.4082 c 87.17,-605.84 612.45,-1073.0593 1245.46,-1073.0593 633.094,0 1158.29,467.2193 1245.544,1073.0593 h 3593.382 c 98.955,0 179.105,79.782 179.105,178.096 v 1443.212 h 891.263 c 624.569,0 1132.799,505.365 1132.799,1126.413 v 7346.038 c 0,621.048 -508.23,1126.33 -1132.799,1126.33"
         style="fill:#3f2e20;fill-opacity:1;fill-rule:nonzero;stroke:none;stroke-width:0.83340842"
         id="path14"
         inkscape:connector-curvature="0" />
      <path
         d="m 15462.132,16218.477 h -1273.593 c -48.24,0 -83.809,42.989 -72.495,87.704 l 431.53,1713.593 c 19.187,76.05 -85.618,121.542 -133.224,57.836 l -1985.419,-2659.776 c -35.117,-47.046 0.09,-112.306 60.729,-112.306 h 1273.593 c 48.24,0 83.718,-42.989 72.495,-87.704 l -431.53,-1713.593 c -19.187,-76.05 85.618,-121.542 133.133,-57.836 l 1985.51,2659.69 c 35.116,47.132 -0.181,112.392 -60.729,112.392"
         style="fill:#ffcc00;fill-opacity:1;fill-rule:nonzero;stroke:none;stroke-width:0.88389385"
         id="path16"
         inkscape:connector-curvature="0" />
    </g>
    <flowRoot
       xml:space="preserve"
       id="flowRoot1971"
       style="font-style:normal;font-variant:normal;font-weight:normal;font-stretch:normal;font-size:133.33332825px;line-height:1.25;font-family:'Cooper Black';-inkscape-font-specification:'Cooper Black, Normal';font-variant-ligatures:normal;font-variant-caps:normal;font-variant-numeric:normal;font-feature-settings:normal;text-align:start;letter-spacing:0px;word-spacing:0px;writing-mode:lr-tb;text-anchor:start;fill:#000000;fill-opacity:1;stroke:none"
       transform="matrix(0.75000002,0,0,-0.75000002,0,3000.0001)"><flowRegion
         id="flowRegion1973"
         style="font-style:normal;font-variant:normal;font-weight:normal;font-stretch:normal;font-size:133.33332825px;font-family:'Cooper Black';-inkscape-font-specification:'Cooper Black, Normal';font-variant-ligatures:normal;font-variant-caps:normal;font-variant-numeric:normal;font-feature-settings:normal;text-align:start;writing-mode:lr-tb;text-anchor:start"><rect
           id="rect1975"
           width="4372.8813"
           height="1423.7289"
           x="254.23729"
           y="2830.5085"
           style="font-style:normal;font-variant:normal;font-weight:normal;font-stretch:normal;font-size:133.33332825px;font-family:'Cooper Black';-inkscape-font-specification:'Cooper Black, Normal';font-variant-ligatures:normal;font-variant-caps:normal;font-variant-numeric:normal;font-feature-settings:normal;text-align:start;writing-mode:lr-tb;text-anchor:start" /></flowRegion><flowPara
         id="flowPara1977" /></flowRoot>    <flowRoot
       xml:space="preserve"
       id="flowRoot1979"
       style="fill:black;fill-opacity:1;stroke:none;font-family:'Curlz MT';font-style:normal;font-weight:normal;font-size:53.33333333px;line-height:1.25;letter-spacing:0px;word-spacing:0px;-inkscape-font-specification:'Curlz MT, Normal';font-stretch:normal;font-variant:normal;text-anchor:start;text-align:start;writing-mode:lr;font-variant-ligatures:normal;font-variant-caps:normal;font-variant-numeric:normal;font-feature-settings:normal"><flowRegion
         id="flowRegion1981"><rect
           id="rect1983"
           width="305.08475"
           height="457.62714"
           x="-50.847458"
           y="2983.0508" /></flowRegion><flowPara
         id="flowPara1985"></flowPara></flowRoot>    <flowRoot
       xml:space="preserve"
       id="flowRoot1987"
       style="fill:black;fill-opacity:1;stroke:none;font-family:'Curlz MT';font-style:normal;font-weight:normal;font-size:53.33333333px;line-height:1.25;letter-spacing:0px;word-spacing:0px;-inkscape-font-specification:'Curlz MT, Normal';font-stretch:normal;font-variant:normal;text-anchor:start;text-align:start;writing-mode:lr;font-variant-ligatures:normal;font-variant-caps:normal;font-variant-numeric:normal;font-feature-settings:normal"><flowRegion
         id="flowRegion1989"><rect
           id="rect1991"
           width="830.50848"
           height="118.64407"
           x="254.23729"
           y="2966.1018" /></flowRegion><flowPara
         id="flowPara1993"></flowPara></flowRoot>    <flowRoot
       xml:space="preserve"
       id="flowRoot34194"
       style="fill:black;fill-opacity:1;stroke:none;font-family:'Cooper Black';font-style:normal;font-weight:normal;font-size:53.33333333px;line-height:1.25;letter-spacing:0px;word-spacing:0px;-inkscape-font-specification:'Cooper Black, Normal';font-stretch:normal;font-variant:normal;text-anchor:end;text-align:end;writing-mode:lr;font-variant-ligatures:normal;font-variant-caps:normal;font-variant-numeric:normal;font-feature-settings:normal"><flowRegion
         id="flowRegion34196"><rect
           id="rect34198"
           width="1966.1017"
           height="372.88135"
           x="932.20337"
           y="2830.5085" /></flowRegion><flowPara
         id="flowPara34200"></flowPara></flowRoot>    <flowRoot
       xml:space="preserve"
       id="flowRoot34777"
       style="fill:black;fill-opacity:1;stroke:none;font-family:'Cooper Black';font-style:normal;font-weight:normal;font-size:53.33333333px;line-height:1.25;letter-spacing:0px;word-spacing:0px;-inkscape-font-specification:'Cooper Black, Normal';font-stretch:normal;font-variant:normal;text-anchor:end;text-align:end;writing-mode:lr;font-variant-ligatures:normal;font-variant-caps:normal;font-variant-numeric:normal;font-feature-settings:normal"><flowRegion
         id="flowRegion34779"><rect
           id="rect34781"
           width="2462.6865"
           height="373.13434"
           x="664.17908"
           y="2888.0598" /></flowRegion><flowPara
         id="flowPara34783"></flowPara></flowRoot>    <text
       xml:space="preserve"
       style="font-style:normal;font-variant:normal;font-weight:normal;font-stretch:normal;font-size:200px;line-height:1.25;font-family:'Cooper Black';-inkscape-font-specification:'Cooper Black, Normal';font-variant-ligatures:normal;font-variant-caps:normal;font-variant-numeric:normal;font-feature-settings:normal;text-align:end;letter-spacing:0px;word-spacing:0px;writing-mode:lr-tb;text-anchor:end;fill:#000000;fill-opacity:1;stroke:none;stroke-width:0.75"
       x="509.32837"
       y="-789.17914"
       id="text34787"
       transform="scale(1,-1)"><tspan
         sodipodi:role="line"
         id="tspan34785"
         x="559.32837"
         y="-789.17914"
         style="font-style:normal;font-variant:normal;font-weight:normal;font-stretch:normal;font-size:200px;font-family:'Cooper Black';-inkscape-font-specification:'Cooper Black, Normal';font-variant-ligatures:normal;font-variant-caps:normal;font-variant-numeric:normal;font-feature-settings:normal;text-align:end;writing-mode:lr-tb;text-anchor:end;stroke-width:0.75">      </tspan></text>
    <flowRoot
       xml:space="preserve"
       id="flowRoot34789"
       style="fill:black;fill-opacity:1;stroke:none;font-family:'Cooper Black';font-style:normal;font-weight:normal;font-size:53.33333333px;line-height:1.25;letter-spacing:0px;word-spacing:0px;-inkscape-font-specification:'Cooper Black, Normal';font-stretch:normal;font-variant:normal;text-anchor:end;text-align:end;writing-mode:lr;font-variant-ligatures:normal;font-variant-caps:normal;font-variant-numeric:normal;font-feature-settings:normal"><flowRegion
         id="flowRegion34791"><rect
           id="rect34793"
           width="328.35822"
           height="261.19403"
           x="686.56714"
           y="2947.7612" /></flowRegion><flowPara
         id="flowPara34795"></flowPara></flowRoot>    <text
       xml:space="preserve"
       style="font-style:normal;font-variant:normal;font-weight:normal;font-stretch:normal;font-size:40px;line-height:1.25;font-family:'Cooper Black';-inkscape-font-specification:'Cooper Black, Normal';font-variant-ligatures:normal;font-variant-caps:normal;font-variant-numeric:normal;font-feature-settings:normal;text-align:end;letter-spacing:0px;word-spacing:0px;writing-mode:lr-tb;text-anchor:end;fill:#000000;fill-opacity:1;stroke:none;stroke-width:0.75"
       x="996.26862"
       y="-861.94031"
       id="text34799"
       transform="scale(1,-1)"><tspan
         sodipodi:role="line"
         id="tspan34797"
         x="996.26862"
         y="-825.86182"
         style="stroke-width:0.75"></tspan></text>
    <text
       xml:space="preserve"
       style="font-style:normal;font-variant:normal;font-weight:normal;font-stretch:normal;font-size:195.83908081px;line-height:1.25;font-family:'Cooper Black';-inkscape-font-specification:'Cooper Black, Normal';font-variant-ligatures:normal;font-variant-caps:normal;font-variant-numeric:normal;font-feature-settings:normal;text-align:end;letter-spacing:0px;word-spacing:0px;writing-mode:lr-tb;text-anchor:end;fill:#005800;fill-opacity:1;stroke:none;stroke-width:0.86399591"
       x="2798.3152"
       y="-1069.7987"
       id="text34803"
       transform="scale(0.86805964,-1.1519946)"><tspan
         sodipodi:role="line"
         id="tspan34801"
         x="2798.3152"
         y="-1069.7987"
         style="font-style:normal;font-variant:normal;font-weight:normal;font-stretch:normal;font-size:195.83908081px;font-family:'Cooper Black';-inkscape-font-specification:'Cooper Black, Normal';font-variant-ligatures:normal;font-variant-caps:normal;font-variant-numeric:normal;font-feature-settings:normal;text-align:end;writing-mode:lr-tb;text-anchor:end;fill:#005800;fill-opacity:1;stroke-width:0.86399591"> H Y D R I U M   E N E R G Y</tspan></text>
  </g>
</svg>
