<?xml version="1.0" encoding="UTF-8" standalone="no"?>
<!-- Created with Inkscape (http://www.inkscape.org/) -->

<svg
   xmlns:dc="http://purl.org/dc/elements/1.1/"
   xmlns:cc="http://creativecommons.org/ns#"
   xmlns:rdf="http://www.w3.org/1999/02/22-rdf-syntax-ns#"
   xmlns:svg="http://www.w3.org/2000/svg"
   xmlns="http://www.w3.org/2000/svg"
   xmlns:xlink="http://www.w3.org/1999/xlink"
   xmlns:sodipodi="http://sodipodi.sourceforge.net/DTD/sodipodi-0.dtd"
   xmlns:inkscape="http://www.inkscape.org/namespaces/inkscape"
   version="1.1"
   id="svg2"
   width="4000"
   height="4000"
   viewBox="0 0 4000 4000"
   sodipodi:docname="CompanyLogoF.svg"
   inkscape:version="0.92.4 (5da689c313, 2019-01-14)">
  <metadata
     id="metadata1426">
    <rdf:RDF>
      <cc:Work
         rdf:about="">
        <dc:format>image/svg+xml</dc:format>
        <dc:type
           rdf:resource="http://purl.org/dc/dcmitype/StillImage" />
        <dc:title></dc:title>
      </cc:Work>
    </rdf:RDF>
  </metadata>
  <defs
     id="defs6">
    <linearGradient
       inkscape:collect="always"
       id="linearGradient34809">
      <stop
         style="stop-color:#005800;stop-opacity:1;"
         offset="0"
         id="stop34805" />
      <stop
         style="stop-color:#005800;stop-opacity:0;"
         offset="1"
         id="stop34807" />
    </linearGradient>
    <linearGradient
       inkscape:collect="always"
       xlink:href="#linearGradient34809"
       id="linearGradient34813"
       x1="133.81494"
       y1="-1151.4359"
       x2="2834.8899"
       y2="-1151.4359"
       gradientUnits="userSpaceOnUse" />
  </defs>
  <sodipodi:namedview
     id="namedview4"
     pagecolor="#ffffff"
     bordercolor="#000000"
     borderopacity="0.25"
     inkscape:showpageshadow="2"
     inkscape:pageopacity="0.0"
     inkscape:pagecheckerboard="0"
     inkscape:deskcolor="#d1d1d1"
     showgrid="false"
     inkscape:zoom="0.134"
     inkscape:cx="1057.1968"
     inkscape:cy="2000"
     inkscape:window-width="1360"
     inkscape:window-height="705"
     inkscape:window-x="-8"
     inkscape:window-y="-8"
     inkscape:window-maximized="1"
     inkscape:current-layer="g10" />
  <g
     id="g8"
     inkscape:groupmode="layer"
     inkscape:label="ink_ext_XXXXXX"
     transform="matrix(1.3333333,0,0,-1.3333333,0,4000)">
    <g
       id="g10"
       transform="matrix(0.10254237,0,0,0.09788136,-94.105745,497.84975)">
      <path
         d="M 25851.733,8520.0619 H 2292.4634 V 16333.593 H 25851.733 V 8520.0619"
         style="fill:#ffffff;fill-opacity:1;fill-rule:nonzero;stroke:none;stroke-width:0.45225492"
         id="path12"
         inkscape:connector-curvature="0" />
      <path
         d="m 17483.619,12020.411 -1334.795,-16.841 c -37.081,216.801 -244.692,381.717 -492.197,378.595 -247.474,-3.123 -450.539,-173.22 -481.649,-390.883 l -3247.345,-40.973 c -37.065,216.803 -244.703,381.719 -492.185,378.594 -247.482,-3.122 -450.541,-173.218 -481.667,-390.88 l -434.537,-5.483 -18.933,1385.034 c -0.207,15.137 6.052,29.4 17.619,40.244 l 1213.538,1136.083 c 11.399,10.693 27.308,16.914 43.644,17.119 l 524.684,6.621 c 34.21,0.431 62.384,-24.602 62.812,-55.799 l 26.354,-1927.893 c 0.483,-35.277 32.224,-63.485 70.893,-62.997 l 317.675,4.008 c 38.686,0.488 69.629,29.487 69.147,64.764 l -29.26,2140.509 c -0.826,60.365 52.35,110.115 118.515,110.951 l 4389.021,55.377 c 66.165,0.835 120.682,-47.557 121.507,-107.921 z m -1816.475,-407.694 c -194.018,-2.449 -353.833,139.498 -356.251,316.419 -2.419,176.95 153.461,322.88 347.479,325.329 194.05,2.448 353.865,-139.499 356.284,-316.449 2.419,-176.921 -153.461,-322.85 -347.512,-325.299 z m -4221.178,-53.26 c -194.034,-2.448 -353.855,139.498 -356.274,316.419 -2.419,176.951 153.468,322.88 347.502,325.328 194.03,2.449 353.855,-139.498 356.274,-316.448 2.419,-176.921 -153.471,-322.851 -347.502,-325.299 z m 3519.812,4093.162 -484.358,-6.111 -4.523,330.841 484.359,6.111 c 99.982,1.262 182.387,-71.901 183.633,-163.131 1.247,-91.232 -79.129,-166.448 -179.111,-167.71 z m 2953.072,268.835 -2637.929,-33.284 c -34.908,132.021 -166.404,229.505 -321.474,227.548 l -556.895,-7.026 c -40.058,-0.506 -72.098,-30.531 -71.598,-67.06 l 0.761,-55.686 -312.494,-3.942 c -40.058,-0.505 -72.131,-30.531 -71.632,-67.06 0.499,-36.499 33.382,-65.705 73.441,-65.198 l 312.493,3.942 1.192,-87.179 -312.494,-3.942 c -40.058,-0.506 -72.131,-30.532 -71.632,-67.06 0.499,-36.499 33.384,-65.735 73.44,-65.229 l 312.493,3.942 0.761,-55.685 c 0.501,-36.528 33.35,-65.735 73.408,-65.231 l 556.895,7.027 c 155.071,1.957 283.855,102.756 315.144,235.581 l 2637.927,33.283 c 164.22,2.073 299.489,-118.041 301.536,-267.791 l 36.004,-2633.67 c 2.047,-149.748 -129.892,-273.265 -294.111,-275.336 l -348.435,-4.397 -29.151,2132.405 c -1.787,130.77 -119.886,235.664 -263.292,233.855 l -4389.022,-55.378 c -143.374,-1.809 -258.589,-109.648 -256.801,-240.417 l 28.39,-2076.689 -177.642,-2.241 -25.482,1864.074 c -1.39,101.63 -93.172,183.137 -204.6,181.731 l -524.684,-6.62 c -53.2,-0.672 -105.013,-20.995 -142.159,-55.762 l -1213.534,-1136.082 c -37.691,-35.282 -58.077,-81.818 -57.404,-131.07 l 19.807,-1448.885 c 0.482,-35.247 32.223,-63.455 70.893,-62.967 l 504.56,6.367 c 37.068,-216.773 244.703,-381.688 492.182,-378.565 247.479,3.122 450.535,173.218 481.663,390.852 l 3247.349,40.973 c 37.049,-216.773 244.694,-381.688 492.167,-378.566 247.504,3.123 450.537,173.22 481.679,390.853 l 1404.815,17.726 c 38.686,0.487 69.63,29.486 69.148,64.733 l -7.073,517.414 348.435,4.397 c 244.171,3.081 440.384,186.769 437.34,409.426 l -36.002,2633.67 c -3.044,222.655 -204.211,401.3 -448.383,398.219"
         style="fill:#3f2e20;fill-opacity:1;fill-rule:nonzero;stroke:none;stroke-width:0.31203791"
         id="path14"
         inkscape:connector-curvature="0" />
      <path
         d="m 15609.155,13719.799 h -627.828 c -23.781,0 -41.315,23.079 -35.737,47.085 l 212.726,919.956 c 9.459,40.828 -42.206,65.251 -65.674,31.05 l -978.728,-1427.923 c -17.312,-25.257 0.05,-60.291 29.936,-60.291 h 627.828 c 23.781,0 41.27,-23.08 35.737,-47.086 l -212.726,-919.956 c -9.458,-40.828 42.206,-65.251 65.63,-31.049 l 978.772,1427.876 c 17.311,25.303 -0.08,60.338 -29.936,60.338"
         style="fill:#ffcc00;fill-opacity:1;fill-rule:nonzero;stroke:none;stroke-width:0.45471048"
         id="path16"
         inkscape:connector-curvature="0" />
    </g>
    <flowRoot
       xml:space="preserve"
       id="flowRoot1971"
       style="font-style:normal;font-variant:normal;font-weight:normal;font-stretch:normal;font-size:133.33332825px;line-height:1.25;font-family:'Cooper Black';-inkscape-font-specification:'Cooper Black, Normal';font-variant-ligatures:normal;font-variant-caps:normal;font-variant-numeric:normal;font-feature-settings:normal;text-align:start;letter-spacing:0px;word-spacing:0px;writing-mode:lr-tb;text-anchor:start;fill:#000000;fill-opacity:1;stroke:none"
       transform="matrix(0.75000002,0,0,-0.75000002,0,3000.0001)"><flowRegion
         id="flowRegion1973"
         style="font-style:normal;font-variant:normal;font-weight:normal;font-stretch:normal;font-size:133.33332825px;font-family:'Cooper Black';-inkscape-font-specification:'Cooper Black, Normal';font-variant-ligatures:normal;font-variant-caps:normal;font-variant-numeric:normal;font-feature-settings:normal;text-align:start;writing-mode:lr-tb;text-anchor:start"><rect
           id="rect1975"
           width="4372.8813"
           height="1423.7289"
           x="254.23729"
           y="2830.5085"
           style="font-style:normal;font-variant:normal;font-weight:normal;font-stretch:normal;font-size:133.33332825px;font-family:'Cooper Black';-inkscape-font-specification:'Cooper Black, Normal';font-variant-ligatures:normal;font-variant-caps:normal;font-variant-numeric:normal;font-feature-settings:normal;text-align:start;writing-mode:lr-tb;text-anchor:start" /></flowRegion><flowPara
         id="flowPara1977" /></flowRoot>    <flowRoot
       xml:space="preserve"
       id="flowRoot1979"
       style="fill:black;fill-opacity:1;stroke:none;font-family:'Curlz MT';font-style:normal;font-weight:normal;font-size:53.33333333px;line-height:1.25;letter-spacing:0px;word-spacing:0px;-inkscape-font-specification:'Curlz MT, Normal';font-stretch:normal;font-variant:normal;text-anchor:start;text-align:start;writing-mode:lr;font-variant-ligatures:normal;font-variant-caps:normal;font-variant-numeric:normal;font-feature-settings:normal"><flowRegion
         id="flowRegion1981"><rect
           id="rect1983"
           width="305.08475"
           height="457.62714"
           x="-50.847458"
           y="2983.0508" /></flowRegion><flowPara
         id="flowPara1985"></flowPara></flowRoot>    <flowRoot
       xml:space="preserve"
       id="flowRoot1987"
       style="fill:black;fill-opacity:1;stroke:none;font-family:'Curlz MT';font-style:normal;font-weight:normal;font-size:53.33333333px;line-height:1.25;letter-spacing:0px;word-spacing:0px;-inkscape-font-specification:'Curlz MT, Normal';font-stretch:normal;font-variant:normal;text-anchor:start;text-align:start;writing-mode:lr;font-variant-ligatures:normal;font-variant-caps:normal;font-variant-numeric:normal;font-feature-settings:normal"><flowRegion
         id="flowRegion1989"><rect
           id="rect1991"
           width="830.50848"
           height="118.64407"
           x="254.23729"
           y="2966.1018" /></flowRegion><flowPara
         id="flowPara1993"></flowPara></flowRoot>    <flowRoot
       xml:space="preserve"
       id="flowRoot34194"
       style="fill:black;fill-opacity:1;stroke:none;font-family:'Cooper Black';font-style:normal;font-weight:normal;font-size:53.33333333px;line-height:1.25;letter-spacing:0px;word-spacing:0px;-inkscape-font-specification:'Cooper Black, Normal';font-stretch:normal;font-variant:normal;text-anchor:end;text-align:end;writing-mode:lr;font-variant-ligatures:normal;font-variant-caps:normal;font-variant-numeric:normal;font-feature-settings:normal"><flowRegion
         id="flowRegion34196"><rect
           id="rect34198"
           width="1966.1017"
           height="372.88135"
           x="932.20337"
           y="2830.5085" /></flowRegion><flowPara
         id="flowPara34200"></flowPara></flowRoot>    <flowRoot
       xml:space="preserve"
       id="flowRoot34777"
       style="fill:black;fill-opacity:1;stroke:none;font-family:'Cooper Black';font-style:normal;font-weight:normal;font-size:53.33333333px;line-height:1.25;letter-spacing:0px;word-spacing:0px;-inkscape-font-specification:'Cooper Black, Normal';font-stretch:normal;font-variant:normal;text-anchor:end;text-align:end;writing-mode:lr;font-variant-ligatures:normal;font-variant-caps:normal;font-variant-numeric:normal;font-feature-settings:normal"><flowRegion
         id="flowRegion34779"><rect
           id="rect34781"
           width="2462.6865"
           height="373.13434"
           x="664.17908"
           y="2888.0598" /></flowRegion><flowPara
         id="flowPara34783"></flowPara></flowRoot>    <text
       xml:space="preserve"
       style="font-style:normal;font-variant:normal;font-weight:normal;font-stretch:normal;font-size:200px;line-height:1.25;font-family:'Cooper Black';-inkscape-font-specification:'Cooper Black, Normal';font-variant-ligatures:normal;font-variant-caps:normal;font-variant-numeric:normal;font-feature-settings:normal;text-align:end;letter-spacing:0px;word-spacing:0px;writing-mode:lr-tb;text-anchor:end;fill:#000000;fill-opacity:1;stroke:none;stroke-width:0.75"
       x="509.32837"
       y="-789.17914"
       id="text34787"
       transform="scale(1,-1)"><tspan
         sodipodi:role="line"
         id="tspan34785"
         x="559.32837"
         y="-789.17914"
         style="font-style:normal;font-variant:normal;font-weight:normal;font-stretch:normal;font-size:200px;font-family:'Cooper Black';-inkscape-font-specification:'Cooper Black, Normal';font-variant-ligatures:normal;font-variant-caps:normal;font-variant-numeric:normal;font-feature-settings:normal;text-align:end;writing-mode:lr-tb;text-anchor:end;stroke-width:0.75">      </tspan></text>
    <flowRoot
       xml:space="preserve"
       id="flowRoot34789"
       style="fill:black;fill-opacity:1;stroke:none;font-family:'Cooper Black';font-style:normal;font-weight:normal;font-size:53.33333333px;line-height:1.25;letter-spacing:0px;word-spacing:0px;-inkscape-font-specification:'Cooper Black, Normal';font-stretch:normal;font-variant:normal;text-anchor:end;text-align:end;writing-mode:lr;font-variant-ligatures:normal;font-variant-caps:normal;font-variant-numeric:normal;font-feature-settings:normal"><flowRegion
         id="flowRegion34791"><rect
           id="rect34793"
           width="328.35822"
           height="261.19403"
           x="686.56714"
           y="2947.7612" /></flowRegion><flowPara
         id="flowPara34795"></flowPara></flowRoot>    <text
       xml:space="preserve"
       style="font-style:normal;font-variant:normal;font-weight:normal;font-stretch:normal;font-size:40px;line-height:1.25;font-family:'Cooper Black';-inkscape-font-specification:'Cooper Black, Normal';font-variant-ligatures:normal;font-variant-caps:normal;font-variant-numeric:normal;font-feature-settings:normal;text-align:end;letter-spacing:0px;word-spacing:0px;writing-mode:lr-tb;text-anchor:end;fill:#000000;fill-opacity:1;stroke:none;stroke-width:0.75"
       x="996.26862"
       y="-861.94031"
       id="text34799"
       transform="scale(1,-1)"><tspan
         sodipodi:role="line"
         id="tspan34797"
         x="996.26862"
         y="-825.86182"
         style="stroke-width:0.75"></tspan></text>
    <text
       xml:space="preserve"
       style="font-style:normal;font-variant:normal;font-weight:normal;font-stretch:normal;font-size:198.66409302px;line-height:1.25;font-family:'Cooper Black';-inkscape-font-specification:'Cooper Black, Normal';font-variant-ligatures:normal;font-variant-caps:normal;font-variant-numeric:normal;font-feature-settings:normal;text-align:end;letter-spacing:0px;word-spacing:0px;writing-mode:lr-tb;text-anchor:end;fill:#003600;fill-opacity:1;stroke:none;stroke-width:0.87645918"
       x="2841.1489"
       y="-1188.7319"
       id="text34803"
       transform="scale(0.88058152,-1.1356132)"><tspan
         sodipodi:role="line"
         id="tspan34801"
         x="2841.1489"
         y="-1188.7319"
         style="font-style:normal;font-variant:normal;font-weight:normal;font-stretch:normal;font-size:198.66409302px;font-family:'Cooper Black';-inkscape-font-specification:'Cooper Black, Normal';font-variant-ligatures:normal;font-variant-caps:normal;font-variant-numeric:normal;font-feature-settings:normal;text-align:end;writing-mode:lr-tb;text-anchor:end;fill:#003600;fill-opacity:1;stroke-width:0.87645918"> H Y D R I U M   E N E R G Y</tspan></text>
  </g>
</svg>
