<?xml version="1.0" encoding="UTF-8" standalone="no"?>
<!-- Created with Inkscape (http://www.inkscape.org/) -->

<svg
   version="1.1"
   id="svg2"
   width="4000"
   height="4000"
   viewBox="0 0 4000 4000"
   sodipodi:docname="vecteezy_electric-truck-outline-vector-icon-isolated-on-white-background_7629947.eps"
   xmlns:inkscape="http://www.inkscape.org/namespaces/inkscape"
   xmlns:sodipodi="http://sodipodi.sourceforge.net/DTD/sodipodi-0.dtd"
   xmlns="http://www.w3.org/2000/svg"
   xmlns:svg="http://www.w3.org/2000/svg">
  <defs
     id="defs6" />
  <sodipodi:namedview
     id="namedview4"
     pagecolor="#ffffff"
     bordercolor="#000000"
     borderopacity="0.25"
     inkscape:showpageshadow="2"
     inkscape:pageopacity="0.0"
     inkscape:pagecheckerboard="0"
     inkscape:deskcolor="#d1d1d1" />
  <g
     id="g8"
     inkscape:groupmode="layer"
     inkscape:label="ink_ext_XXXXXX"
     transform="matrix(1.3333333,0,0,-1.3333333,0,4000)">
    <g
       id="g10"
       transform="scale(0.1)">
      <path
         d="M 30000,0 H 0 V 30000 H 30000 V 0"
         style="fill:#ffffff;fill-opacity:1;fill-rule:nonzero;stroke:none"
         id="path12" />
      <path
         d="m 24446.5,8935.1 h -4085.2 c -104.4,729.1 -732.8,1291.3 -1490.3,1291.3 -757.4,0 -1385.9,-562.2 -1490.2,-1291.3 H 7442.15 c -104.35,729.1 -732.83,1291.3 -1490.26,1291.3 -757.43,0 -1385.91,-562.2 -1490.26,-1291.3 H 3131.71 v 4648.6 c 0,50.8 19.75,98.4 55.6,134.3 l 3760.97,3761 c 35.33,35.4 84.27,55.6 134.27,55.6 h 1605.82 c 104.7,0 189.87,-85.2 189.87,-189.9 v -6470.6 c 0,-118.4 95.95,-214.4 214.3,-214.4 h 972.26 c 118.4,0 214.3,96 214.3,214.4 v 7184.2 c 0,202.6 164.8,367.3 367.3,367.3 h 13432.8 c 202.5,0 367.3,-164.7 367.3,-367.3 z M 18871,7643.9 c -593.8,0 -1076.9,483.1 -1076.9,1076.9 0,593.9 483.1,1077 1076.9,1077 593.9,0 1077,-483.1 1077,-1077 0,-593.8 -483.1,-1076.9 -1077,-1076.9 z m -12919.11,0 c -593.85,0 -1076.97,483.1 -1076.97,1076.9 0,593.9 483.12,1077 1076.97,1077 593.84,0 1076.97,-483.1 1076.97,-1077 0,-593.8 -483.13,-1076.9 -1076.97,-1076.9 z M 16893.8,21230.4 h -1482.4 v 1110.4 h 1482.4 c 306,0 555.1,-249 555.1,-555.2 0,-306.2 -249.1,-555.2 -555.1,-555.2 z m 9047.7,777.1 H 17868 c -101.3,444.5 -499.6,777.2 -974.2,777.2 h -1704.4 c -122.6,0 -221.9,-99.4 -221.9,-222 v -186.9 h -956.4 c -122.6,0 -222,-99.4 -222,-222 0,-122.5 99.4,-221.9 222,-221.9 h 956.4 v -292.6 h -956.4 c -122.6,0 -222,-99.4 -222,-222 0,-122.5 99.4,-222 222,-222 h 956.4 v -186.9 c 0,-122.6 99.3,-222 221.9,-222 h 1704.4 c 474.6,0 872.9,332.8 974.2,777.2 h 8073.5 c 502.6,0 911.5,-408.8 911.5,-911.4 v -8839.4 c 0,-502.6 -408.9,-911.5 -911.5,-911.5 h -1066.4 v 7157 c 0,438.9 -357,795.9 -795.9,795.9 H 10646.4 c -438.8,0 -795.87,-357 -795.87,-795.9 v -6970 h -543.68 v 6256.4 c 0,341.1 -277.45,618.5 -618.48,618.5 H 7082.55 c -162.82,0 -322.22,-66 -437.34,-181.1 l -3760.96,-3761 c -116.81,-116.8 -181.14,-272.1 -181.14,-437.4 V 8720.8 c 0,-118.3 95.95,-214.3 214.3,-214.3 h 1544.23 c 104.36,-729 732.83,-1291.2 1490.25,-1291.2 757.42,0 1385.89,562.2 1490.25,1291.2 h 9938.66 c 104.3,-729 732.8,-1291.2 1490.2,-1291.2 757.5,0 1385.9,562.2 1490.3,1291.2 h 4299.5 c 118.4,0 214.3,96 214.3,214.3 v 1736.6 h 1066.4 c 747.3,0 1355.4,608.1 1355.4,1355.4 v 8839.4 c 0,747.3 -608.1,1355.3 -1355.4,1355.3"
         style="fill:#7ace03;fill-opacity:1;fill-rule:nonzero;stroke:none"
         id="path14" />
      <path
         d="m 18565.5,14432.4 h -1407.2 c -53.3,0 -92.6,49.8 -80.1,101.6 l 476.8,1985.1 c 21.2,88.1 -94.6,140.8 -147.2,67 l -2193.7,-3081.2 c -38.8,-54.5 0.1,-130.1 67.1,-130.1 h 1407.2 c 53.3,0 92.5,-49.8 80.1,-101.6 l -476.8,-1985.1 c -21.2,-88.1 94.6,-140.8 147.1,-67 l 2193.8,3081.1 c 38.8,54.6 -0.2,130.2 -67.1,130.2"
         style="fill:#7ace03;fill-opacity:1;fill-rule:nonzero;stroke:none"
         id="path16" />
    </g>
  </g>
</svg>
