<?xml version="1.0" encoding="UTF-8" standalone="no"?>
<!-- Created with Inkscape (http://www.inkscape.org/) -->

<svg
   version="1.1"
   id="svg2"
   width="1466.6667"
   height="1066.6667"
   viewBox="0 0 1466.6667 1066.6667"
   sodipodi:docname="66124.eps"
   xmlns:inkscape="http://www.inkscape.org/namespaces/inkscape"
   xmlns:sodipodi="http://sodipodi.sourceforge.net/DTD/sodipodi-0.dtd"
   xmlns="http://www.w3.org/2000/svg"
   xmlns:svg="http://www.w3.org/2000/svg">
  <defs
     id="defs6" />
  <sodipodi:namedview
     id="namedview4"
     pagecolor="#ffffff"
     bordercolor="#000000"
     borderopacity="0.25"
     inkscape:showpageshadow="2"
     inkscape:pageopacity="0.0"
     inkscape:pagecheckerboard="0"
     inkscape:deskcolor="#d1d1d1" />
  <g
     id="g8"
     inkscape:groupmode="layer"
     inkscape:label="ink_ext_XXXXXX"
     transform="matrix(1.3333333,0,0,-1.3333333,0,1066.6667)">
    <g
       id="g10"
       transform="scale(0.1)">
      <path
         d="M 0,0 H 11000 V 8000 H 0 Z"
         style="fill:#ffffff;fill-opacity:1;fill-rule:nonzero;stroke:none"
         id="path12" />
      <path
         d="m 5113.7,1513.25 c -298.75,-0.84 -597.5,-7.68 -895.72,-39.26 -112.44,-11.91 -222.53,-38.1 -335.23,-48.67 -225.11,-21.09 -446.19,-60.46 -672.1,-78.62 -181.92,-14.62 -364.61,-23.25 -546,-41.81 -170.07,-17.39 -358.34,-13.38 -527.1,15.36 -124.93,21.27 -250.44,33.26 -373.27,67.43 -137.41,38.22 -286.69,65.54 -429.86,64.57 -204.15,-1.41 -402.971,-1.58 -598.346,-69.07 C 667.488,1359.49 583.531,1320.55 531.449,1270.82 412.23,1157 396.09,872.992 515.133,754.941 715.637,556.25 1143.57,478.289 1424.61,474.609 c 307.97,-4.027 607.15,17.731 915.57,30.543 286.59,11.879 572.46,28.809 859.52,28.207 586.3,-1.207 1172.67,0 1757.91,37.282 549.85,35.039 1101.07,23.007 1652.13,23.007 565.07,0 1126.32,-4.226 1687.33,-75.726 244.43,-31.152 493.46,-42.063 739.12,-63.891 220.01,-19.551 431.44,0.391 650.57,18.461 184.01,15.168 366.84,60.168 533.94,136.227 132.4,60.211 368.3,247.261 408.8,390.972 113.8,402.909 -1603.24,393.219 -1866.87,392.309 -294.92,-1.01 -592.18,-10.25 -886.87,0.45 -123.96,4.51 -246.1,27.58 -367.08,52.85 -120.51,25.18 -241.92,18.78 -364.13,29.36 -509.61,44.13 -1020.36,37.67 -1531.59,37.67 -166.36,0.01 -332.81,1.4 -499.26,0.92"
         style="fill:#f1f2f2;fill-opacity:1;fill-rule:nonzero;stroke:none"
         id="path14" />
      <path
         d="m 8074.15,5994.11 24.69,166.76 -70.81,13.66 -42.19,-110.45 -30.5,22 -3.74,-145.27 71.69,-24.14 50.86,77.44"
         style="fill:#c67a6d;fill-opacity:1;fill-rule:nonzero;stroke:none"
         id="path16" />
      <path
         d="m 7002.97,5127.65 637.91,165.97 295.5,696.8 139.81,-55.17 -166.54,-899.99 -734.84,-378.52 -171.84,470.91"
         style="fill:#ccd2d9;fill-opacity:1;fill-rule:nonzero;stroke:none"
         id="path18" />
      <path
         d="m 7578.64,964.699 8.5,-83.57 -158.62,-100.527 -92.06,75.046 75.06,92.063 158.63,100.539 8.49,-83.551"
         style="fill:#3b455a;fill-opacity:1;fill-rule:nonzero;stroke:none"
         id="path20" />
      <path
         d="m 7584.79,3513.7 25.79,-253.77 -226.59,-1134.06 200.66,-1133.358 -162.38,-49.992 -525.01,1347.54 -28.8,411.96 71.11,853.38 645.22,-41.7"
         style="fill:#8ec3cb;fill-opacity:1;fill-rule:nonzero;stroke:none"
         id="path22" />
      <path
         d="m 6354.18,3427.3 -5.2,-1072.07 211.28,-1380.832 155.34,1.051 89.54,1276.021 204,1276.77 -654.96,-100.94"
         style="fill:#8ec3cb;fill-opacity:1;fill-rule:nonzero;stroke:none"
         id="path24" />
      <path
         d="m 6715.14,909.941 -167.42,-85.121 -84.55,83.43 83.43,84.551 167.97,1.129 0.57,-83.989"
         style="fill:#3b455a;fill-opacity:1;fill-rule:nonzero;stroke:none"
         id="path26" />
      <path
         d="m 6223.28,3584.64 c 112.05,347.13 124,711.62 156.59,1073.22 9.67,106.69 19.93,215.73 64.34,313.21 50.99,111.95 135.3,171.03 233.52,203.31 125.01,41.08 272.54,38.72 402.52,46.64 123.33,3.88 232.44,-459.75 358.24,-684.49 77.09,-137.73 156.54,-259.54 208.55,-409.79 49.9,-144.19 97.83,-290.92 126.87,-440.94 43.84,-226.51 155.97,-384.68 48.88,-461.73 -9.81,-3.25 -19.26,-6.46 -28.23,-9.68 -175.68,-62.92 -357.42,-109.5 -542.51,-133.93 -164.19,-21.66 -330.94,-25.62 -495.8,-9.36 -225.67,22.24 -444.33,54.11 -643.27,171.81 36.77,113.92 73.53,227.82 110.3,341.73"
         style="fill:#ccd2d9;fill-opacity:1;fill-rule:nonzero;stroke:none"
         id="path28" />
      <path
         d="m 7140.6,5566.08 c -70.26,212.11 -379.81,285.98 -451.77,39.46 -21.62,-74.08 -34.64,-152.67 -19.93,-228.43 14.7,-75.75 60.99,-148.45 131.65,-179.49 l 1.21,-0.51 c -2.77,-19.65 -5.52,-39.32 -8.28,-58.98 -0.59,-4.22 -1.1,-8.88 1.29,-12.43 2.7,-4.03 8.07,-5.08 12.88,-5.8 23.46,-3.51 46.93,-7.01 70.41,-10.51 11.63,-1.73 23.75,-3.44 34.95,0.15 24.52,7.85 34.71,37.24 35.79,62.96 0.25,6.15 0.19,12.37 0.1,18.59 138.9,47.59 237.62,236.34 191.7,374.99"
         style="fill:#c67a6d;fill-opacity:1;fill-rule:nonzero;stroke:none"
         id="path30" />
      <path
         d="m 6763.47,5928.27 c -56.68,8.43 -104.94,-46.53 -157.24,-75.39 -43.51,-24.01 -92.83,-30.38 -137.93,-50.27 -45.1,-19.9 -89.41,-61.44 -90.36,-113.43 -45.7,23.78 -95.2,48.17 -146.4,38.31 -51.2,-9.87 -98.74,-71 -78.34,-121.39 18.27,-45.13 77.13,-55.75 96.72,-100.17 30.99,-70.26 -52.77,-179.38 4.39,-225.98 13.74,-11.21 32.43,-13.91 45.93,-25.45 16.78,-14.32 22.16,-38.93 29.63,-60.8 33.84,-99.15 133.79,-163.91 232.51,-150.66 61.38,28.75 110.33,88.17 132.25,156.18 26.43,81.98 -17.42,110.6 -24.83,187.56 -8.08,84.1 18.66,173.17 71.62,238.48 34.45,42.5 83.76,79.14 135.86,84.11 21.19,2.02 14.52,-15.65 38.35,0.74 10.22,7.03 24.17,33.64 27.08,46.39 -57.02,45.84 -104.67,160.68 -179.24,171.77"
         style="fill:#3b455a;fill-opacity:1;fill-rule:nonzero;stroke:none"
         id="path32" />
      <path
         d="m 7376.47,5819.22 c 29.25,-8.14 61,-6.94 88.85,-19.16 41.85,-18.35 39.31,-61.77 51.15,-99.49 13.11,-41.77 32.17,-97.84 59.72,-130.32 19.85,-23.41 47.64,-36.75 71.82,-54.82 24.18,-18.06 46.41,-44.73 45.9,-77.28 -0.48,-30.85 -21.22,-58.55 -24.26,-89.36 -3.7,-45.93 4.25,-69.45 -9.91,-116.39 -7.32,-24.23 -15.49,-49.88 -33.68,-66.4 -23.95,-21.78 -58.08,-21.35 -88.05,-16.34 -29.97,5.01 -60.95,13.32 -90.5,3.38 -64.1,-21.56 -52.14,-86.38 -69.2,-140.71 -25.96,-82.68 -121.83,-130.93 -195.17,-101.53 -62.18,24.93 -98.18,97.13 -95.37,168.41 1.41,35.68 15.62,68.94 16.65,104.66 0.99,34.45 -18.42,82.16 12.8,109.49 7.6,6.66 17.35,10.17 24.19,17.76 5.52,6.14 8.59,14.36 10.5,22.57 6.65,28.48 0.38,59.53 -16.39,81.32 -12.07,15.67 -29.36,27.11 -36.75,46.02 -8.47,21.66 -1.77,46.98 -0.33,70.91 3.46,57.85 -28.18,114.59 -76.37,136.93 -31.76,14.72 -60.37,23.41 -88.13,45.8 -4.22,3.41 -67.39,59.22 -69.02,47.17 2.84,20.99 15.1,39.35 27.51,56.2 20.41,27.68 43.08,54.66 71.83,71.24 92.96,53.63 97.44,-71.01 172.07,-54.61 18,3.95 31.55,20.46 47.75,30.31 30.61,18.6 68.2,11.95 99.49,-1.99 31.29,-13.95 59.97,-34.6 92.9,-43.77"
         style="fill:#3b455a;fill-opacity:1;fill-rule:nonzero;stroke:none"
         id="path34" />
      <path
         d="m 6375.49,6366.22 92.85,140.71 61.87,-37.06 -42.25,-110.44 37.39,-3.95 -94.12,-110.72 -69.51,29.84 13.77,91.62"
         style="fill:#c67a6d;fill-opacity:1;fill-rule:nonzero;stroke:none"
         id="path36" />
      <path
         d="m 6679.06,5106.73 -448.07,448.61 244.68,716.23 -140.95,52.17 -476.31,-781.58 613.79,-760.77 206.86,325.34"
         style="fill:#ccd2d9;fill-opacity:1;fill-rule:nonzero;stroke:none"
         id="path38" />
      <path
         d="m 8565.55,5071.99 -72.15,68.09 -1.15,87.48 -18.67,9.17 -12.22,-22.52 -21.74,72.33 -51.04,33.96 -76.25,-28.98 -43.73,-72.04 36.8,-72.66 81.13,-52.91 94.73,-97.49 84.29,75.57"
         style="fill:#efbfa5;fill-opacity:1;fill-rule:nonzero;stroke:none"
         id="path40" />
      <path
         d="m 8558.59,5154.06 -129.79,-153.72 348.15,-528.82 129.57,-41.8 551.93,440.14 -147.61,301.37 -411.64,-349.85 -340.61,332.68"
         style="fill:#8ec3cb;fill-opacity:1;fill-rule:nonzero;stroke:none"
         id="path42" />
      <path
         d="m 10310,1002.1 19.3,-88.409 -152.8,-125.91 -105.2,69.668 66.7,107.16 152.7,125.911 19.3,-88.42"
         style="fill:#474ebb;fill-opacity:1;fill-rule:nonzero;stroke:none"
         id="path44" />
      <path
         d="m 9775.86,3720.58 170.43,-392.99 16.06,-1105.71 350.45,-1189.32 -163,-72.271 -715.04,1380.991 -81.39,437.4 -32.34,921.21 454.83,20.69"
         style="fill:#8ec3cb;fill-opacity:1;fill-rule:nonzero;stroke:none"
         id="path46" />
      <path
         d="m 8950.73,3632.51 -13.4,-1158.78 218.36,-1494.058 h 167.91 l 106.05,1378.588 229.76,1378.6 -708.68,-104.35"
         style="fill:#8ec3cb;fill-opacity:1;fill-rule:nonzero;stroke:none"
         id="path48" />
      <path
         d="m 9322.64,999.652 v -90.781 l -181.58,-90.789 -90.79,90.789 90.79,90.781 h 181.58"
         style="fill:#474ebb;fill-opacity:1;fill-rule:nonzero;stroke:none"
         id="path50" />
      <path
         d="m 9281.38,5201.59 446,16.52 c 0,0 266.83,-234.12 404.72,-842.46 140.4,-619.46 -25.9,-1511.22 -25.9,-1511.22 0,0 -1196.62,159.48 -1392.82,184.11 l 299.33,1223.07 268.67,929.98"
         style="fill:#8ec3cb;fill-opacity:1;fill-rule:nonzero;stroke:none"
         id="path52" />
      <path
         d="m 9441.21,5156.02 c 52.08,5.09 104.17,10.19 156.25,15.27 0.57,41.74 -2.22,83.51 -8.29,124.8 43.42,15.2 93.61,38.03 101.23,83.4 2.4,14.29 -0.05,28.9 -2.5,43.19 -10.12,59.05 -20.23,118.1 -30.36,177.14 -3.5,20.43 -7.23,41.45 -18.3,58.96 -19.45,30.73 -57.25,44.21 -93.06,50.47 -91.39,16 -191.04,-3.67 -262.01,-63.45 -18.89,-15.91 -35.97,-35.04 -44.32,-58.29 -12.87,-35.83 -3.33,-75.39 6.29,-112.22 8.88,-34.01 17.76,-68.01 26.64,-102.01 10.21,-39.11 24.97,-83.58 62.62,-98.29 19.99,-7.81 43.61,-5.57 61.7,-17.11 31.91,-20.36 27.54,-67.84 44.11,-101.86"
         style="fill:#efbfa5;fill-opacity:1;fill-rule:nonzero;stroke:none"
         id="path54" />
      <path
         d="m 8932.36,5746.19 c -1.01,40.48 4.68,81.44 12.77,118.35 13.89,63.43 88.73,91.94 153.5,96.44 139.91,9.71 274.93,73.14 411.57,24.18 78.1,-27.99 182.98,-34.71 253.67,-74.16 29.51,-16.47 53.04,-42.2 71.37,-70.59 63.51,-98.39 63.69,-233.93 0.41,-332.47 -14.19,-22.11 -31.17,-42.31 -49,-61.6 -36.92,-39.93 -81.08,-89.25 -131.81,-104 -1.15,45.37 40.37,188.36 5.58,225.58 -55.21,59.08 -180.24,38.67 -248.85,24.23 -74.83,-15.74 -141.59,-68.63 -215.78,-79.85 -53.38,-8.08 -121.46,18.19 -166.81,45.84 -71.06,43.32 -94.79,114.91 -96.62,188.05"
         style="fill:#3b455a;fill-opacity:1;fill-rule:nonzero;stroke:none"
         id="path56" />
      <path
         d="m 9404.39,5146.44 -468.87,-1875.51 -38.44,-245.97 584.18,-76.86 c 0,0 -23.06,898.11 -15.37,1017.86 7.68,119.74 94.32,378.74 107.61,657.79 7.68,161.43 58.96,451.36 23.06,545.75 l -192.17,-23.06"
         style="fill:#ffffff;fill-opacity:1;fill-rule:nonzero;stroke:none"
         id="path58" />
      <path
         d="m 2143.05,5679.31 80.32,-32.36 68.92,126.48 -51.65,74.2 -77.69,-4.3 7.34,-68.21 -15.06,6.07 -8.85,21.36 -21.27,-9.23 17.94,-114.01"
         style="fill:#ebceb1;fill-opacity:1;fill-rule:nonzero;stroke:none"
         id="path60" />
      <path
         d="m 1321.79,5116.63 562.56,116.1 236.19,481.84 124.89,-43.95 -183.13,-618.37 -740.51,-221.06 v 285.44"
         style="fill:#d1e0da;fill-opacity:1;fill-rule:nonzero;stroke:none"
         id="path62" />
      <path
         d="m 871.559,3368.16 171.031,-1230.41 -64.699,-924.1 128.269,-33.26 111.76,846.41 237.95,1500.88 -584.311,-159.52"
         style="fill:#c67a6d;fill-opacity:1;fill-rule:nonzero;stroke:none"
         id="path64" />
      <path
         d="m 1106.16,1180.39 13.75,-92.08 -31.24,-175.029 -102.846,9.739 -19.363,259.25 15.141,41.57 124.558,-43.45"
         style="fill:#3b455a;fill-opacity:1;fill-rule:nonzero;stroke:none"
         id="path66" />
      <path
         d="M 1879.38,3404.76 1824.4,2361.18 1591.83,902.27 l -126.06,1.691 56.04,1352.679 -163.5,1247.01 521.07,-98.89"
         style="fill:#c67a6d;fill-opacity:1;fill-rule:nonzero;stroke:none"
         id="path68" />
      <path
         d="m 1589.75,927.219 161.11,-118.11 -20.11,-88.25 -294.97,70.313 23.99,127.476 129.98,8.571"
         style="fill:#3b455a;fill-opacity:1;fill-rule:nonzero;stroke:none"
         id="path70" />
      <path
         d="m 1907.17,3248.34 -5.26,-1211.33 -148.22,-816.75 -337.69,54.66 9.82,943.93 -70.09,1036.9 34.72,157.02 488.44,-55.45 28.28,-108.98"
         style="fill:#ccd2d9;fill-opacity:1;fill-rule:nonzero;stroke:none"
         id="path72" />
      <path
         d="m 1307.98,2201.03 -104.54,-859.11 -293.67,45.72 67.343,817.83 -108.965,1045.78 63.969,283.19 493.443,-83.06 -117.58,-1250.35"
         style="fill:#ccd2d9;fill-opacity:1;fill-rule:nonzero;stroke:none"
         id="path74" />
      <path
         d="m 722.387,5557.21 c 22.496,213.23 293.633,344.05 409.373,126.71 34.78,-65.32 62.52,-136.58 64.08,-210.67 1.56,-74.1 -26.66,-151.58 -85.71,-194.78 l -1.03,-0.68 c 6.48,-17.93 12.97,-35.87 19.44,-53.81 1.4,-3.84 2.79,-8.13 1.3,-11.92 -1.69,-4.33 -6.43,-6.39 -10.73,-8.02 -20.98,-7.95 -41.95,-15.89 -62.93,-23.84 -10.4,-3.94 -21.25,-7.94 -32.31,-6.8 -24.218,2.52 -39.511,28.1 -45.647,52.06 -1.461,5.73 -2.653,11.58 -3.813,17.45 -137.808,17.15 -266.715,174.91 -252.023,314.3"
         style="fill:#c67a6d;fill-opacity:1;fill-rule:nonzero;stroke:none"
         id="path76" />
      <path
         d="m 1138.22,5620.25 c 40.23,-47.07 48.11,-111 48.93,-170.87 0.79,-58.52 15.72,-113.57 11.13,-172.36 7.45,-7.93 20.15,0.03 27.65,7.84 43.93,45.83 87.24,92.29 129.91,139.34 4.29,4.74 8.69,9.67 10.69,15.79 2.54,7.74 0.86,16.22 -0.96,24.19 -36.02,157.49 -116.12,264.27 -224.61,376.23 -52.68,54.37 -178.772,104.04 -233.269,21.15 -12.41,-18.88 -14.332,-42.79 -14.804,-65.53 -0.285,-13.58 -0.117,-27.56 4.89,-40.18 19.973,-50.33 68.352,-39.94 109.143,-50.77 50.32,-13.35 97.34,-45.09 131.3,-84.83"
         style="fill:#3b455a;fill-opacity:1;fill-rule:nonzero;stroke:none"
         id="path78" />
      <path
         d="m 791.273,5459.59 c 7.047,-45.89 25.77,-96.36 46.188,-137.64 7.07,-14.3 41.23,-44.83 43.691,-54.86 7.125,-29.08 -42.855,-107.62 -54.687,-135.8 -102.875,38.06 -205.75,76.12 -308.629,114.18 -7.879,2.92 -16.152,6.11 -21.484,12.69 -4.836,5.99 -6.524,13.9 -7.969,21.48 -28.348,149.21 -10.438,289.99 25.898,434.49 36.321,144.42 147.571,274.35 299.996,288.1 123.164,11.11 222.313,-65.77 197.013,-198.31 -19.095,-100.06 -134.056,-138.3 -188.352,-213 -34.09,-46.9 -39.426,-89.08 -31.665,-131.33"
         style="fill:#3b455a;fill-opacity:1;fill-rule:nonzero;stroke:none"
         id="path80" />
      <path
         d="m 856.086,5156.87 c -2.352,-1.21 -4.684,-2.43 -6.992,-3.67 C 738.367,5094.01 671.332,4886.35 633.27,4764.49 535.016,4449.93 514.246,4133.15 544,3804.18 c 16.023,-177.14 40.004,-353.51 67.605,-529.2 7.629,-48.53 105.399,-479.13 84.262,-492.58 216.766,137.93 438.123,270.44 675.383,364.47 237.28,94.03 493.57,10.81 747.73,-11.47 -143.66,543.95 -323.53,1231.01 -546.87,1745.21 -26.71,61.5 -47.71,128.07 -83.07,185 -40.73,65.56 -91.45,79.71 -157.41,112.82 -22.61,11.35 -45.37,22.76 -69.51,29.54 -127.24,35.75 -289.132,9.08 -406.034,-51.1"
         style="fill:#7fc5a3;fill-opacity:1;fill-rule:nonzero;stroke:none"
         id="path82" />
      <path
         d="m 3485.51,4831.19 c 0,-654.95 -530.93,-1185.9 -1185.89,-1185.9 -654.95,0 -1185.89,530.95 -1185.89,1185.9 0,654.94 530.94,1185.89 1185.89,1185.89 654.96,0 1185.89,-530.95 1185.89,-1185.89"
         style="fill:#d34e4e;fill-opacity:1;fill-rule:nonzero;stroke:none"
         id="path84" />
      <path
         d="m 2820.77,5664.98 -523.32,31.56 -467.66,-954.48 383.61,-23.14 -354.38,-781.37 878.57,955.44 -424.7,62.66 507.88,709.33"
         style="fill:#ffffff;fill-opacity:1;fill-rule:nonzero;stroke:none"
         id="path86" />
      <path
         d="m 4584.97,924.43 v -78.149 l -200.42,-100.222 -100.2,100.222 100.2,100.199 h 12.93 l 3.22,-22.05 h 184.27"
         style="fill:#474ebb;fill-opacity:1;fill-rule:nonzero;stroke:none"
         id="path88" />
      <path
         d="m 5078.54,946.48 h 13.83 l 100.2,-100.199 -100.2,-100.222 -200.42,100.222 v 78.149 h 184.27 l 2.32,22.05"
         style="fill:#474ebb;fill-opacity:1;fill-rule:nonzero;stroke:none"
         id="path90" />
      <path
         d="m 4317.95,3877.56 c -21.83,-226.12 -47.15,-470.42 -47.15,-470.42 0,0 117.15,-2.81 286.62,-15.67 -12.54,0.3 -25.08,0.63 -37.59,0.75 -117.88,1.05 -240.14,-49.87 -352.99,-82.88 l 6.21,546.52 144.9,21.7"
         style="fill:#667482;fill-opacity:1;fill-rule:nonzero;stroke:none"
         id="path92" />
      <path
         d="m 5108.92,3322.7 c 80.82,-4.28 90.86,10.93 90.86,10.93 0,0 -72.9,297.77 -124.08,556.78 l 230.76,-34.55 2.99,-618.4 c -19.58,12.51 -39.87,24.39 -61.76,35 -43.86,21.23 -90.71,37.42 -138.77,50.24"
         style="fill:#667482;fill-opacity:1;fill-rule:nonzero;stroke:none"
         id="path94" />
      <path
         d="m 4166.83,3309.34 c 112.86,33.01 235.12,83.93 353,82.88 12.51,-0.12 25.05,-0.45 37.59,-0.74 10.49,-0.81 21.18,-1.64 32.05,-2.52 78.99,-6.34 167.74,-14.83 260.39,-26.08 4.55,-0.56 9.08,-1.08 13.65,-1.66 118.52,-25.79 195.46,-35.88 245.41,-38.52 48.06,-12.82 94.91,-29.01 138.77,-50.24 21.89,-10.61 42.18,-22.49 61.76,-35 l 0.62,-128.77 -225.93,-2187.221 h -185.26 v -22.27 h -1.06 l -203.69,1467.091 -0.85,8.26 -111.6,-1475.351 h -1.05 v 22.27 h -186.16 l -236.11,1642.901 8.47,744.97"
         style="fill:#3b455a;fill-opacity:1;fill-rule:nonzero;stroke:none"
         id="path96" />
      <path
         d="m 5551.82,3405.97 c -1.89,56.6 -5.25,103.97 -5.72,120.92 -4.24,153.24 -18.9,307.38 -39.7,461.98 -18.78,139.59 -42.64,279.54 -68.46,420.16 -40.51,220.52 -77.32,414.82 -158.51,624.54 -28.83,74.49 -58.42,150.3 -108.19,212.32 -67.27,83.8 -204.7,143.96 -311.34,140.32 -1.91,-4.38 -9.8,-54.08 -4.47,-53.45 -1.63,-0.19 -3.26,-0.39 -4.88,-0.58 l 22.63,0.22 122.66,-253.86 c 0,0 0.5,-13.12 1.38,-36.24 0.87,-23.12 2.13,-56.22 3.62,-96.19 0.34,-8.88 0.68,-18.11 1.04,-27.63 7.85,-209.55 21.03,-566.42 24.94,-704.57 1.88,-66.82 22.5,-190.02 48.88,-323.5 l 230.76,-34.55 2.99,-618.4 c 55.68,-35.6 105.42,-76.32 168.56,-107.51 8.08,-3.99 16.95,-8.13 26.14,-7.02 49.08,5.92 51.61,164.49 47.67,283.04"
         style="fill:#ebb044;fill-opacity:1;fill-rule:nonzero;stroke:none"
         id="path98" />
      <path
         d="m 4595.87,5227.12 c -2.71,-9.8 -5.58,-20.19 -8.59,-31.1 -3.01,-10.92 -6.16,-22.36 -9.43,-34.29 3.27,11.93 6.42,23.37 9.43,34.29 3.01,10.91 5.88,21.3 8.59,31.1 2.71,9.81 5.27,19.03 7.66,27.62 -2.39,-8.59 -4.95,-17.81 -7.66,-27.62 m -254.84,-1098.9 c 1.53,18.1 2.88,34.72 4.01,49.54 -1.13,-14.82 -2.48,-31.44 -4.01,-49.54 m -3.63,-41.95 c 0.82,9.24 1.61,18.21 2.35,26.9 -0.74,-8.69 -1.53,-17.66 -2.35,-26.9 m -4.11,-45.87 c 0.19,2.16 0.39,4.3 0.58,6.44 -0.19,-2.14 -0.39,-4.28 -0.58,-6.44 m -8.13,-87.36 c 1.46,15.38 2.88,30.52 4.26,45.34 -1.38,-14.82 -2.8,-29.96 -4.26,-45.34 m -2.47,-26.14 c 0.23,2.5 0.47,4.99 0.71,7.49 -0.24,-2.5 -0.48,-4.99 -0.71,-7.49 m 239.63,1178.15 c -79.48,-291.13 -207.71,-774.48 -214.45,-886.85 -0.49,-8.2 -1.14,-17.71 -1.92,-28.31 0.78,10.6 1.43,20.11 1.92,28.31 6.74,112.37 134.97,595.72 214.45,886.85 3.62,13.23 7.13,26.06 10.52,38.45 -3.39,-12.39 -6.9,-25.22 -10.52,-38.45 m 434.9,-62.75 c -0.88,23.12 -1.38,36.24 -1.38,36.24 l -122.66,253.86 -22.63,-0.22 c -31.27,-3.76 -62.54,-7.52 -93.81,-11.29 -8.07,-0.97 -16.46,-1.91 -24.19,0.68 -3.88,1.3 -7.25,3.33 -10.17,5.91 -1.18,1.04 -2.25,2.21 -3.29,3.42 l -94.58,-0.92 94.58,0.92 c -8.63,10.06 -12.52,25.44 -14.19,39.31 -0.39,3.19 -1.01,6.21 -1.69,9.2 -27.92,-5.1 -55,-12.06 -80.74,-21.08 -144.11,-50.51 -226.4,-152.24 -275.16,-296.65 -39.23,-116.18 -78.46,-232.36 -117.7,-348.55 -32.21,-95.42 -64.45,-190.87 -92.38,-287.66 -73.13,-253.38 -116.36,-514.49 -148.11,-776.23 -15.92,-131.23 -28.95,-262.8 -41.51,-394.4 -7.69,-80.64 17.05,-65.01 73.46,-25.54 38.2,26.73 75.6,60.8 121.57,73.21 8.02,2.16 16.08,4.45 24.19,6.83 l 6.22,546.52 144.9,21.7 c 0.56,5.74 1.11,11.48 1.66,17.21 -0.55,-5.73 -1.1,-11.47 -1.66,-17.22 -21.83,-226.11 -47.15,-470.41 -47.15,-470.41 0,0 117.15,-2.81 286.62,-15.66 10.49,-0.81 21.18,-1.64 32.05,-2.52 78.99,-6.35 167.74,-14.83 260.39,-26.08 4.55,-0.56 9.08,-1.08 13.65,-1.66 118.52,-25.79 195.46,-35.88 245.41,-38.52 80.82,-4.28 90.86,10.93 90.86,10.93 0,0 -72.9,297.77 -124.08,556.78 -26.38,133.48 -47,256.68 -48.88,323.5 -3.91,138.15 -17.08,495.02 -24.94,704.57 -0.36,9.52 -0.7,18.75 -1.04,27.63 -1.49,39.97 -2.75,73.07 -3.62,96.19"
         style="fill:#ebb044;fill-opacity:1;fill-rule:nonzero;stroke:none"
         id="path100" />
      <path
         d="m 4547.65,5936.93 c -23.74,-47.86 -33.6,-102.09 -33.21,-155.69 0.11,-14.26 -0.02,-30.73 -10.9,-39.72 -11.65,-9.62 -0.01,-28.79 -9.82,-17.24 -9.82,11.54 -43.2,51.67 -45.37,66.76 -5.09,35.38 -6.86,71.25 -5.27,106.96 1.39,31.06 5.96,63.68 24.66,88.29 11.08,14.59 26.32,25.23 41.33,35.57 21.77,14.98 44.23,30.12 69.79,36.36 44.06,10.76 72.18,-4.04 34.51,-37.65 -26.97,-24.07 -49.46,-50.84 -65.72,-83.64"
         style="fill:#3b455a;fill-opacity:1;fill-rule:nonzero;stroke:none"
         id="path102" />
      <path
         d="m 4854.84,5344.4 c -60.9,-9.02 -121.82,-18.04 -182.73,-27.07 -12.03,53.28 -20.26,107.61 -24.58,162.3 -53.77,6.51 -117.35,20.75 -138.45,76.59 -6.65,17.58 -7.83,37.02 -8.93,56.05 -4.55,78.64 -9.11,157.28 -13.66,235.92 -1.57,27.2 -3.05,55.24 4.83,80.97 13.84,45.15 53.35,73.69 92.57,92.41 100.08,47.76 219.32,52.31 316.73,-3.06 25.92,-14.74 50.67,-34.14 66.55,-61.42 24.5,-42.04 24.39,-95.55 23.46,-145.6 -0.87,-46.19 -1.74,-92.39 -2.6,-138.58 -1,-53.14 -5.74,-114.49 -44.74,-144.57 -20.72,-15.97 -48.31,-20.14 -65.84,-40.33 -30.91,-35.59 -12.96,-95.09 -22.61,-143.61"
         style="fill:#efbfa5;fill-opacity:1;fill-rule:nonzero;stroke:none"
         id="path104" />
      <path
         d="m 4688.08,5562.62 c 23.93,-14.6 48.15,-13.54 73.4,-4.34 12.98,4.72 19.7,-17.45 6.74,-22.16 -30.47,-11.1 -61.13,-11.68 -89.87,5.86 -11.96,7.3 -2.31,27.98 9.73,20.64 z m -199.5,3.13 c 12.04,-48.47 37.69,-94.02 78.28,-119.47 46,-28.84 101.86,-28.15 154.66,-26.65 28.89,0.81 57.77,1.63 86.65,2.45 73.06,2.08 145.19,15.47 178.79,95.6 15.49,36.94 18.87,79.14 14.26,119.64 -1.26,11.13 -3.24,22.54 -8.92,31.9 -5.68,9.35 -15.91,16.21 -25.96,14.25 -12.84,-2.52 -19.89,-17.09 -27.66,-28.54 -16.96,-24.97 -48.39,-40.05 -74.97,-28.57 -7.88,3.41 -14.82,8.81 -21.73,14.26 -2.83,2.23 -5.65,4.47 -8.53,6.6 -28.58,21.02 -62.69,29.57 -96.49,32.27 -29.33,2.34 -72.77,11 -93.11,-15.36 -11.83,-15.34 -23.67,-30.67 -35.5,-46.01 -4.88,-6.32 -9.87,-12.75 -16.37,-16.98 -6.69,-4.35 -14.56,-6.07 -22.35,-6.61 -19.58,-1.39 -42.05,6.66 -49.72,26.53 -3.35,8.65 -3.42,18.31 -4.24,27.64 -0.82,9.34 -2.71,19.2 -8.71,25.92 -22.94,25.74 -27.04,-17.33 -27.17,-31.97 -0.21,-25.86 2.58,-51.88 8.79,-76.9"
         style="fill:#3b455a;fill-opacity:1;fill-rule:nonzero;stroke:none"
         id="path106" />
      <path
         d="m 4447.19,6068.37 c -6.06,18.8 -10.8,38.03 -14.2,57.51 18.18,-5.43 37.7,-6.1 56.19,-1.94 -0.53,11.31 -1.06,22.63 -1.59,33.94 -0.39,9.41 124.44,22.56 134.56,23.94 94.81,12.93 181.49,25.05 270.22,-22.41 75.79,-40.53 126.29,-104.35 141.95,-190.04 14.95,-81.86 -6.12,-190.9 -49.53,-261.77 -0.84,21.96 8.95,74.37 2.81,94.96 -4.18,20.74 -12.3,40.52 -23.04,58.61 -21.44,36.12 -53.32,65.8 -89.45,86.28 -57.61,32.64 -123.44,48.04 -188.7,53.83 -59.8,5.3 -132.54,9.27 -190.38,-9.8 -27.81,-9.16 -32.12,-16.6 -50.66,11.44 -3.27,4.95 -30.16,63.28 -27.83,63.44 9.89,0.67 19.77,1.34 29.65,2.01"
         style="fill:#3b455a;fill-opacity:1;fill-rule:nonzero;stroke:none"
         id="path108" />
      <path
         d="m 7802.28,2925.43 -299.63,340.62 -9.84,0.82 c -15.24,40.06 -30.49,80.12 -45.73,120.18 -80.48,211.47 -160.95,422.92 -241.43,634.39 -70.78,185.99 -121.51,497.89 -362.19,519.94 l -2287.73,209.46 c -254.1,23.27 -499.59,-109.53 -630.67,-341.16 l -456.43,-806.54 -38.13,3.2 -788.51,-171.26 c -281.02,-106.95 -476.59,-364.6 -504,-664.03 l -41.19,-449.93 5808.55,-531.82 58.61,640.11 c 16.53,180.53 -41.94,359.91 -161.68,496.02"
         style="fill:#474ebb;fill-opacity:1;fill-rule:nonzero;stroke:none"
         id="path110" />
      <path
         d="M 5602.69,3505.24 7129.01,3365.49 6860.54,4251 c -13.37,44.09 -50.53,75.29 -94.45,79.32 l -1078.8,98.77 -84.6,-923.85"
         style="fill:#acd9dd;fill-opacity:1;fill-rule:nonzero;stroke:none"
         id="path112" />
      <path
         d="m 5426.19,4453 -874.32,80.05 c -185.28,16.96 -364.28,-79.87 -459.86,-248.76 l -344.74,-609.17 1594.34,-145.98 84.58,923.86"
         style="fill:#acd9dd;fill-opacity:1;fill-rule:nonzero;stroke:none"
         id="path114" />
      <path
         d="m 6941.43,4002.39 c -2.3,1.52 -4.6,3.03 -6.9,4.55 L 6860.54,4251 c -6.11,20.14 -17.18,37.59 -31.59,50.99 18.04,-14.01 31.9,-33.83 39.02,-57.31 l 73.46,-242.29"
         style="fill:#6c71c6;fill-opacity:1;fill-rule:nonzero;stroke:none"
         id="path116" />
      <path
         d="m 6934.53,4006.94 c -16.99,11.23 -33.98,22.46 -50.97,33.66 -161.1,106.09 -323.2,210.73 -483.76,317.61 L 6773.52,4324 c 20.53,-1.88 39.59,-9.71 55.43,-22.01 14.41,-13.4 25.48,-30.85 31.59,-50.99 l 73.99,-244.06"
         style="fill:#bde1e1;fill-opacity:1;fill-rule:nonzero;stroke:none"
         id="path118" />
      <path
         d="m 7129.53,3371.13 c -0.9,0.51 -1.79,1.01 -2.68,1.51 l -116.34,383.72 c 0.93,-0.64 1.87,-1.27 2.8,-1.9 l 116.22,-383.33 m -1043.15,1021.42 -0.22,0.02 0.22,-0.02 v 0"
         style="fill:#6c71c6;fill-opacity:1;fill-rule:nonzero;stroke:none"
         id="path120" />
      <path
         d="m 7126.85,3372.64 c -54.74,30.63 -109.32,61.03 -161.16,93.74 -160.76,101.44 -316.82,210.23 -468.99,324.13 -253.15,189.49 -540.02,400.44 -761.45,628.55 l 350.91,-26.49 0.22,-0.02 c 262.93,-182.14 541.84,-381.12 808.11,-558.38 38.75,-25.8 77.43,-51.74 116.02,-77.81 l 116.34,-383.72"
         style="fill:#bde1e1;fill-opacity:1;fill-rule:nonzero;stroke:none"
         id="path122" />
      <path
         d="m 4092.01,4284.29 c 0.51,0.91 1.03,1.82 1.55,2.73 -0.52,-0.91 -1.03,-1.82 -1.55,-2.73"
         style="fill:#6c71c6;fill-opacity:1;fill-rule:nonzero;stroke:none"
         id="path124" />
      <path
         d="m 5341.61,3529.14 v 0 l -297.87,27.28 c -199.04,130.75 -403.39,254.39 -584.62,409.6 -122.51,104.91 -246.98,208.08 -370.46,312.35 l 3.35,5.92 v 0 c 0.52,0.91 1.03,1.82 1.55,2.73 43.82,76.34 104.88,137.54 175.7,180.15 41.74,-21.54 83.62,-42.9 124.88,-65.52 125.18,-68.62 245,-149 363.14,-228.96 116.64,-78.95 232.3,-160.37 343.15,-247.32 90.25,-70.79 171.07,-152.42 256.5,-228.82 l -15.32,-167.41"
         style="fill:#bde1e1;fill-opacity:1;fill-rule:nonzero;stroke:none"
         id="path126" />
      <path
         d="m 4295.73,2119.78 -1.04,0.11 1.04,-0.1 c 0,0 0,0 0,-0.01"
         style="fill:#353e51;fill-opacity:1;fill-rule:nonzero;stroke:none"
         id="path128" />
      <path
         d="m 4295.73,2119.79 -1.04,0.1 -176.27,17.26 c 3.61,17.94 6.29,36.25 8,54.89 24.11,263.37 -155.42,498.43 -408.95,549.4 0.47,0.01 0.94,0.01 1.41,0.01 20.57,0 41.4,-0.94 62.39,-2.87 317.09,-29.03 554.17,-270.5 529.56,-539.34 -2.5,-27.3 -7.61,-53.84 -15.1,-79.45"
         style="fill:#4046a8;fill-opacity:1;fill-rule:nonzero;stroke:none"
         id="path130" />
      <path
         d="m 7303.49,1844.41 -167.63,16.43 c 3.6,17.95 6.29,36.29 8,54.93 24.04,262.5 -154.24,496.88 -406.46,548.9 1.83,0.02 3.66,0.02 5.5,0.02 19.64,0 39.51,-0.89 59.53,-2.73 309.58,-28.34 540.59,-269.25 515.97,-538.09 -2.5,-27.31 -7.54,-53.85 -14.91,-79.46"
         style="fill:#4046a8;fill-opacity:1;fill-rule:nonzero;stroke:none"
         id="path132" />
      <path
         d="m 4126.42,2192.04 c -25.83,-282.02 -275.39,-489.72 -557.42,-463.89 -282.02,25.81 -489.72,275.37 -463.9,557.41 25.82,282.02 275.39,489.71 557.41,463.89 282.03,-25.82 489.73,-275.38 463.91,-557.41"
         style="fill:#3b455a;fill-opacity:1;fill-rule:nonzero;stroke:none"
         id="path134" />
      <path
         d="m 3486.28,1978.14 c -143.96,71.51 -202.7,246.19 -131.18,390.14 71.51,143.97 246.19,202.7 390.14,131.18 143.96,-71.51 202.69,-246.19 131.18,-390.14 -71.51,-143.97 -246.19,-202.7 -390.14,-131.18"
         style="fill:#fffff1;fill-opacity:1;fill-rule:nonzero;stroke:none"
         id="path136" />
      <path
         d="m 3640.91,1982.97 c -4.31,0 -8.61,0.07 -12.9,0.17 -19.3,0.47 -38.69,1.7 -57.47,6.18 -50.58,12.06 -94.61,48.9 -115.39,96.56 6.82,-15.45 62.7,-31.01 76.58,-34.85 37.94,-10.52 76.96,-18.19 116.43,-18.79 1.55,-0.03 3.1,-0.04 4.64,-0.04 54.29,0 109.9,14.59 151.47,49.37 -21.8,-49.04 -68.93,-85.97 -121.76,-95.44 -13.71,-2.45 -27.65,-3.16 -41.6,-3.16"
         style="fill:#e5e5d8;fill-opacity:1;fill-rule:nonzero;stroke:none"
         id="path138" />
      <path
         d="m 7143.86,1915.77 c -25.82,-282.03 -275.38,-489.73 -557.42,-463.9 -282.02,25.81 -489.71,275.37 -463.89,557.41 25.82,282.03 275.38,489.72 557.41,463.91 282.03,-25.83 489.73,-275.4 463.9,-557.42"
         style="fill:#3b455a;fill-opacity:1;fill-rule:nonzero;stroke:none"
         id="path140" />
      <path
         d="m 6503.72,1701.87 c -143.96,71.51 -202.68,246.18 -131.17,390.14 71.51,143.96 246.18,202.69 390.14,131.17 143.96,-71.51 202.69,-246.19 131.18,-390.14 -71.52,-143.96 -246.19,-202.69 -390.15,-131.17"
         style="fill:#fffff1;fill-opacity:1;fill-rule:nonzero;stroke:none"
         id="path142" />
      <path
         d="m 6658.34,1706.69 c -4.3,0 -8.6,0.07 -12.89,0.17 -19.29,0.48 -38.69,1.7 -57.46,6.18 -50.58,12.06 -94.61,48.91 -115.39,96.57 6.82,-15.46 62.69,-31.02 76.58,-34.86 37.93,-10.52 76.96,-18.19 116.43,-18.79 1.54,-0.02 3.09,-0.04 4.63,-0.04 54.29,0 109.9,14.59 151.47,49.37 -21.8,-49.03 -68.92,-85.97 -121.75,-95.43 -13.71,-2.46 -27.67,-3.17 -41.62,-3.17"
         style="fill:#e5e5d8;fill-opacity:1;fill-rule:nonzero;stroke:none"
         id="path144" />
      <path
         d="m 5143.03,3163.85 c -1.13,0 -2.26,0.05 -3.4,0.15 l -204.44,18.72 c -20.21,1.85 -35.09,19.73 -33.24,39.95 l 4.23,46.16 c 1.74,19.07 17.77,33.41 36.56,33.41 1.12,0 2.25,-0.05 3.38,-0.16 l 204.44,-18.72 c 20.21,-1.85 35.09,-19.74 33.24,-39.95 l -4.23,-46.16 c -1.74,-19.07 -17.76,-33.4 -36.54,-33.4"
         style="fill:#4046a8;fill-opacity:1;fill-rule:nonzero;stroke:none"
         id="path146" />
      <path
         d="m 5304.46,4249.75 -15.9,-81.22 -61.27,-38.9 1.85,-17.33 21.36,1.06 -41.39,-47.02 -1.2,-51.26 54.51,-41.91 70.41,0.1 34.9,57.93 1.16,81.03 26.57,110.15 -91,27.37"
         style="fill:#efbfa5;fill-opacity:1;fill-rule:nonzero;stroke:none"
         id="path148" />
      <path
         d="m 5259.29,4212.45 c -0.65,90.96 -1.3,181.92 -1.96,272.88 -0.42,58.72 0.35,117.59 -1.26,176.28 -2.01,73.8 -53.16,73.65 -94.34,133.09 -92.65,133.73 -189.4,281.44 -178.5,443.77 1.09,16.21 3.53,33.07 12.85,46.38 17.64,25.2 55.16,29.24 83.52,17.35 28.36,-11.88 49.65,-35.78 69.7,-59.1 108.71,-126.42 245.16,-266.1 322.78,-414.47 34.9,-66.7 -0.24,-177.46 -9.61,-252.25 -18.94,-151.3 -37.89,-302.6 -56.84,-453.9 l -146.34,89.97"
         style="fill:#ebb044;fill-opacity:1;fill-rule:nonzero;stroke:none"
         id="path150" />
      <path
         d="m 1338.58,4048.91 -22.2,-86.14 138.03,-53.27 68.67,62.53 -14.78,78.56 -68.49,-16.61 4.16,16.16 20.58,11.86 -12.25,20.44 -113.72,-33.53"
         style="fill:#c67a6d;fill-opacity:1;fill-rule:nonzero;stroke:none"
         id="path152" />
      <path
         d="m 685.645,4709.94 c 3.707,24.69 7.523,49.36 11.429,73.97 5.614,35.36 12.621,72.97 37.395,98.82 29.926,31.24 77.094,36.72 120.203,40.34 38.418,3.22 83.449,3.81 107.75,-26.11 16.152,-19.89 17.777,-47.51 18.473,-73.12 3.168,-117.33 1.683,-234.77 -4.45,-351.98 -4.836,-92.34 -49.691,-218.52 23.317,-270 93.698,-66.08 261.228,-88.06 371.718,-125.31 l -28.05,-133.08 c -178.85,28.37 -357.508,58.71 -536.657,85.13 -147.886,21.81 -182.687,33.31 -173.714,195.85 8.953,162.19 28.433,324.63 52.586,485.49"
         style="fill:#71b592;fill-opacity:1;fill-rule:nonzero;stroke:none"
         id="path154" />
      <path
         d="m 6788.3,6722.96 c 0,0 -268.64,-177.36 -532.59,-800.62 l 161.41,-74.79 c 0,0 196.03,560.43 445.78,813.33 l -74.6,62.08"
         style="fill:#3b455a;fill-opacity:1;fill-rule:nonzero;stroke:none"
         id="path156" />
      <path
         d="m 8015.29,7268.11 c 0,0 -592.44,152.16 -914.47,-5.18 -322.03,-157.36 -318.68,-597.35 -318.68,-597.35 0,0 345.05,-273.05 667.08,-115.7 322.03,157.35 566.07,718.23 566.07,718.23"
         style="fill:#7fc5a3;fill-opacity:1;fill-rule:nonzero;stroke:none"
         id="path158" />
      <path
         d="m 6782.14,6665.58 c 0,0 19.93,-15.71 54.39,-37.34 l 720.85,416.13 -771.27,-312.94 c -4.12,-40.48 -3.97,-65.85 -3.97,-65.85"
         style="fill:#3b455a;fill-opacity:1;fill-rule:nonzero;stroke:none"
         id="path160" />
      <path
         d="m 6047.55,7556.03 c 0,0 -133.79,-529.23 7.72,-816.09 141.52,-286.87 534.18,-282.38 534.18,-282.38 0,0 242.51,308.86 101,595.72 -141.52,286.86 -642.9,502.75 -642.9,502.75"
         style="fill:#7fc5a3;fill-opacity:1;fill-rule:nonzero;stroke:none"
         id="path162" />
      <path
         d="m 6589.45,6457.56 c 0,0 13.95,17.84 33.14,48.67 l -373.81,641.9 281.89,-687.25 c 36.15,-3.54 58.78,-3.32 58.78,-3.32"
         style="fill:#3b455a;fill-opacity:1;fill-rule:nonzero;stroke:none"
         id="path164" />
      <path
         d="m 7211.46,6496.9 c -112.91,0 -239.74,36.53 -378.68,131.74 0.37,0.42 0.73,0.82 1.1,1.24 76.57,-48.4 229.5,-128.86 399.9,-128.86 27.42,0 55.29,2.08 83.37,6.72 -33.72,-6.98 -68.94,-10.84 -105.69,-10.84 m 340.38,117.8 c 95.61,73.86 181.64,177.4 252.89,280.32 -2.17,-3.88 -92.27,-164.32 -252.89,-280.32"
         style="fill:#d4d4db;fill-opacity:1;fill-rule:nonzero;stroke:none"
         id="path166" />
      <path
         d="m 6832.78,6628.64 c -15.89,10.89 -31.87,22.5 -48.08,34.96 6.17,-4.69 23.33,-17.38 49.18,-33.72 -0.37,-0.42 -0.73,-0.82 -1.1,-1.24"
         style="fill:#373f57;fill-opacity:1;fill-rule:nonzero;stroke:none"
         id="path168" />
      <path
         d="m 7233.78,6501.02 c -170.4,0 -323.33,80.46 -399.9,128.86 -25.85,16.34 -43.01,29.03 -49.18,33.72 -0.23,0.18 -0.54,0.42 -0.77,0.6 5.6,-4.28 24.15,-18.1 52.6,-35.96 l 34.51,19.93 c 56.5,-8.86 136.19,-17.77 228,-17.77 215.96,0 499.09,49.31 705.73,264.69 0,0 -0.02,-0.02 -0.04,-0.07 -71.25,-102.92 -157.28,-206.46 -252.89,-280.32 -66.52,-48.03 -145.19,-88.43 -234.69,-106.96 -28.08,-4.64 -55.95,-6.72 -83.37,-6.72"
         style="fill:#6ea691;fill-opacity:1;fill-rule:nonzero;stroke:none"
         id="path170" />
      <path
         d="m 6836.53,6628.24 c -28.45,17.86 -47,31.68 -52.6,35.96 -0.62,0.47 -1.18,0.9 -1.79,1.38 0,0 33.16,-8.68 88.9,-17.41 l -34.51,-19.93"
         style="fill:#373f57;fill-opacity:1;fill-rule:nonzero;stroke:none"
         id="path172" />
      <path
         d="m 8472,3261.89 h -491.37 c -28.66,0 -51.89,23.24 -51.89,51.9 v 1.04 c 0,28.67 23.23,51.9 51.89,51.9 H 8472 v -104.84"
         style="fill:#3b455a;fill-opacity:1;fill-rule:nonzero;stroke:none"
         id="path174" />
      <path
         d="m 9310.73,2995.02 h -609.44 c -210.85,0 -381.78,170.93 -381.78,381.78 v 361.1 c 0,210.85 170.93,381.78 381.78,381.78 h 609.44 V 2995.02"
         style="fill:#3b455a;fill-opacity:1;fill-rule:nonzero;stroke:none"
         id="path176" />
      <path
         d="m 8472,3719.37 h -491.37 c -28.66,0 -51.89,23.24 -51.89,51.9 v 1.05 c 0,28.67 23.23,51.9 51.89,51.9 H 8472 v -104.85"
         style="fill:#3b455a;fill-opacity:1;fill-rule:nonzero;stroke:none"
         id="path178" />
      <path
         d="M 10998.1,3463.45 H 9199.44 v 187.92 h 1798.66 v -187.92"
         style="fill:#3b455a;fill-opacity:1;fill-rule:nonzero;stroke:none"
         id="path180" />
      <path
         d="m 9050.34,3860.68 -187.38,11.3 -167.44,-341.77 137.35,-8.28 -126.89,-279.77 314.58,342.1 -152.07,22.44 181.85,253.98"
         style="fill:#ffffff;fill-opacity:1;fill-rule:nonzero;stroke:none"
         id="path182" />
      <path
         d="m 9387.72,3970.45 -77.74,-77.27 -96.64,1.82 -10.79,-20.28 24.43,-14.29 -80.64,-21.46 -39.31,-55.15 29.31,-85.24 78.02,-50.84 81.54,38.08 61.3,87.72 111,101.17 -80.48,95.74"
         style="fill:#efbfa5;fill-opacity:1;fill-rule:nonzero;stroke:none"
         id="path184" />
      <path
         d="m 9312.06,3923.28 c 126.82,108.22 253.63,216.45 380.45,324.67 34.13,29.13 73.4,51.86 107.38,81.28 49.7,43.03 56.78,54.12 42.83,114.1 -52.07,223.88 -168.85,338.64 -227.18,483.35 54.05,35.05 102.1,76.92 160.65,106.15 95.63,47.72 121.08,-21.86 163.96,-91.9 50.86,-83.06 99.25,-167.72 144.55,-253.98 37.5,-71.48 221.6,-370.39 127.9,-447.49 -66.9,-55.5 -807.05,-488.48 -798.67,-503.92 -3.38,6.21 -101.87,187.74 -101.87,187.74"
         style="fill:#8ec3cb;fill-opacity:1;fill-rule:nonzero;stroke:none"
         id="path186" />
    </g>
  </g>
</svg>
