<?xml version="1.0" encoding="UTF-8" standalone="no"?>
<!-- Created with Inkscape (http://www.inkscape.org/) -->

<svg
   version="1.1"
   id="svg2"
   width="1226.0267"
   height="858"
   viewBox="0 0 1226.0267 858"
   sodipodi:docname="Hydrium Energy final.eps"
   xmlns:inkscape="http://www.inkscape.org/namespaces/inkscape"
   xmlns:sodipodi="http://sodipodi.sourceforge.net/DTD/sodipodi-0.dtd"
   xmlns="http://www.w3.org/2000/svg"
   xmlns:svg="http://www.w3.org/2000/svg">
  <defs
     id="defs6" />
  <sodipodi:namedview
     id="namedview4"
     pagecolor="#ffffff"
     bordercolor="#000000"
     borderopacity="0.25"
     inkscape:showpageshadow="2"
     inkscape:pageopacity="0.0"
     inkscape:pagecheckerboard="0"
     inkscape:deskcolor="#d1d1d1" />
  <g
     id="g8"
     inkscape:groupmode="layer"
     inkscape:label="ink_ext_XXXXXX"
     transform="matrix(1.3333333,0,0,-1.3333333,0,858)">
    <g
       id="g10"
       transform="scale(0.1)">
      <path
         d="m 4584.93,2128.44 h -817.89 c -39.18,0 -70.95,31.77 -70.95,70.96 v 2751.33 c 0,39.19 31.77,70.95 70.95,70.95 h 1922.7 l 173.35,184.21 c -43.23,38.37 -99.96,61.87 -162.31,61.87 h -510.57 v 142.46 c 0,71.51 -57.97,129.49 -129.49,129.49 h -664.51 c -71.51,0 -129.48,-57.98 -129.48,-129.49 v -142.46 h -510.58 c -135.23,0 -244.86,-109.63 -244.86,-244.87 V 2127.23 c 0,-135.24 109.63,-244.86 244.86,-244.86 h 714.88 l 113.9,246.07"
         style="fill:#323590;fill-opacity:1;fill-rule:nonzero;stroke:none"
         id="path12" />
      <path
         d="M 5507.76,4828.32 H 3874.27 c -15.54,0 -28.14,-12.6 -28.14,-28.13 v -698.81 c 0,-15.55 12.6,-28.15 28.14,-28.15 h 922.86 l 710.63,755.09"
         style="fill:#323590;fill-opacity:1;fill-rule:nonzero;stroke:none"
         id="path14" />
      <path
         d="m 4141.8,3376.9 541.81,575.7 h -809.34 c -15.54,0 -28.14,-12.59 -28.14,-28.12 v -698.82 c 0,-15.54 12.6,-28.14 28.14,-28.14 h 926.67 L 4141.8,3376.9"
         style="fill:#323590;fill-opacity:1;fill-rule:nonzero;stroke:none"
         id="path16" />
      <path
         d="M 5023.96,3076.89 H 3874.27 c -15.54,0 -28.14,-12.6 -28.14,-28.13 v -698.81 c 0,-15.55 12.6,-28.15 28.14,-28.15 h 800.17 l 349.52,755.09"
         style="fill:#323590;fill-opacity:1;fill-rule:nonzero;stroke:none"
         id="path18" />
      <path
         d="m 6308.27,5558.16 -2011.74,-2137.6 868.34,-236.3 -828.59,-1790.03 1565.77,2025.15 -746.31,237.09 1152.53,1901.69"
         style="fill:#09a54d;fill-opacity:1;fill-rule:nonzero;stroke:none"
         id="path20" />
      <path
         d="m 5926.89,5237.86 c 9.13,9.65 17.72,19.64 26.66,29.41 l -1050.3,1050.29 c -156.53,156.53 -410.31,156.53 -566.84,0 L 2274.9,4256.05 c -156.53,-156.53 -156.53,-410.31 0,-566.85 L 3407,2557.1 v 151.32 l -980.79,980.79 c -156.53,156.53 -156.53,410.31 0,566.84 l 1910.2,1910.2 c 156.53,156.53 410.31,156.53 566.84,0 l 878,-878 c 45.43,-16.46 84.86,-44.09 117.4,-80.24 9.4,9.96 18.82,19.9 28.24,29.85"
         style="fill:#09a54d;fill-opacity:1;fill-rule:nonzero;stroke:none"
         id="path22" />
      <path
         d="m 6964.76,4256.05 -820.78,820.78 c -14.8,-34.34 -31.96,-67.81 -51.66,-99.65 l 721.13,-721.13 c 156.53,-156.53 156.53,-410.31 0,-566.84 l -1910.2,-1910.2 c -52.61,-52.62 -116.25,-87.15 -183.44,-104.29 -46.46,-55.93 -96.18,-108.88 -146.93,-160.99 117.6,-13.99 240.1,23.69 330.37,113.97 l 2061.51,2061.5 c 156.54,156.54 156.54,410.32 0,566.85"
         style="fill:#09a54d;fill-opacity:1;fill-rule:nonzero;stroke:none"
         id="path24" />
      <path
         d="M 513.91,379.398 H 365.266 v 338.711 l 106.175,57.34 v 29.723 L 365.266,747.832 148.656,645.898 v -266.5 H 0 V 1122.65 H 148.656 V 818.98 L 42.4766,761.641 v -29.719 l 106.1794,57.34 216.61,101.929 V 1122.65 H 513.91 V 379.398"
         style="fill:#323590;fill-opacity:1;fill-rule:nonzero;stroke:none"
         id="path26" />
      <path
         d="m 906.684,379.398 v 272.883 h 54.156 v 29.731 H 906.684 L 640.168,1122.65 H 810.059 L 981.012,844.469 1150.9,1122.65 h 169.89 L 1055.34,682.012 h -54.15 v -29.731 h 54.15 V 379.398 H 906.684"
         style="fill:#323590;fill-opacity:1;fill-rule:nonzero;stroke:none"
         id="path28" />
      <path
         d="M 1489.52,984.629 V 954.891 H 1595.7 V 547.16 h -106.18 v -29.719 h 289.88 c 39.28,0 59.45,20.168 59.45,59.457 v 348.274 c 0,39.269 -20.17,59.457 -59.45,59.457 z m -42.47,138.021 h 374.81 c 111.49,0 165.65,-54.15 165.65,-165.63 V 545.031 c 0,-111.48 -54.16,-165.633 -165.65,-165.633 h -374.81 v 743.252"
         style="fill:#323590;fill-opacity:1;fill-rule:nonzero;stroke:none"
         id="path30" />
      <path
         d="M 2337.8,984.629 V 805.172 h -106.17 v -29.723 h 263.32 c 39.29,0 59.46,19.102 59.46,59.473 v 90.25 c 0,40.34 -20.17,59.457 -59.46,59.457 z m -148.65,138.021 h 148.65 l 199.61,-1.06 c 110.45,-1.05 165.66,-56.28 165.66,-166.699 v -67.95 c 0,-110.429 -55.21,-165.64 -165.66,-165.64 h -114.65 v -29.742 h 114.65 c 110.45,0 165.66,-55.207 165.66,-165.637 V 379.398 h -148.66 v 198.543 c 0,39.301 -20.17,59.469 -59.46,59.469 H 2231.63 V 607.691 H 2337.8 V 379.398 h -148.65 v 743.252"
         style="fill:#323590;fill-opacity:1;fill-rule:nonzero;stroke:none"
         id="path32" />
      <path
         d="m 3008.78,379.398 h -148.65 v 743.252 h 148.65 V 379.398"
         style="fill:#323590;fill-opacity:1;fill-rule:nonzero;stroke:none"
         id="path34" />
      <path
         d="m 3369.75,576.898 c 0,-40.359 19.1,-59.457 59.44,-59.457 h 144.42 c 40.34,0 59.45,20.168 59.45,59.457 v 545.752 h 148.65 V 545.031 c 0,-111.48 -54.14,-165.633 -165.63,-165.633 h -229.36 c -111.48,0 -165.63,54.153 -165.63,165.633 v 577.619 h 148.66 V 576.898"
         style="fill:#323590;fill-opacity:1;fill-rule:nonzero;stroke:none"
         id="path36" />
      <path
         d="m 4671.43,379.398 h -148.66 v 544.704 h -32.91 V 745.73 L 4414.48,379.398 H 4246.7 l -75.38,366.332 v 178.372 h -28.66 V 379.398 H 3994 v 743.252 h 161.38 c 48.85,0 77.53,-23.36 88.15,-70.06 l 71.12,-337.668 V 528.051 h 29.75 v 186.871 l 73.25,335.538 c 11.68,48.83 39.29,72.19 89.19,72.19 h 164.59 V 379.398"
         style="fill:#323590;fill-opacity:1;fill-rule:nonzero;stroke:none"
         id="path38" />
      <path
         d="M 5544.08,847.66 V 709.621 L 5297.72,667.148 V 405.949 h 29.75 v 111.492 h 313.22 V 379.398 h -491.6 v 743.252 h 491.6 V 984.629 h -449.13 v -29.738 h 106.16 V 805.172 l 246.36,42.488"
         style="fill:#323590;fill-opacity:1;fill-rule:nonzero;stroke:none"
         id="path40" />
      <path
         d="m 5797.77,379.398 v 743.252 h 148.64 L 6210.81,684.129 6317,504.691 v 61.598 L 6210.81,745.73 v 376.92 h 148.66 V 379.398 h -148.66 l -264.4,458.711 -106.16,187.931 V 964.441 L 5946.41,776.512 V 379.398 h -148.64"
         style="fill:#323590;fill-opacity:1;fill-rule:nonzero;stroke:none"
         id="path42" />
      <path
         d="M 6966.72,847.66 V 709.621 L 6720.37,667.148 V 405.949 h 29.74 v 111.492 h 313.22 V 379.398 h -491.6 v 743.252 h 491.6 V 984.629 H 6614.2 v -29.738 h 106.17 V 805.172 l 246.35,42.488"
         style="fill:#323590;fill-opacity:1;fill-rule:nonzero;stroke:none"
         id="path44" />
      <path
         d="M 7369.05,984.629 V 805.172 h -106.17 v -29.723 h 263.33 c 39.28,0 59.45,19.102 59.45,59.473 v 90.25 c 0,40.34 -20.17,59.457 -59.45,59.457 z m -148.64,138.021 h 148.64 l 199.63,-1.06 c 110.42,-1.05 165.63,-56.28 165.63,-166.699 v -67.95 c 0,-110.429 -55.21,-165.64 -165.63,-165.64 H 7454 v -29.742 h 114.68 c 110.42,0 165.63,-55.207 165.63,-165.637 V 379.398 h -148.65 v 198.543 c 0,39.301 -20.17,59.469 -59.45,59.469 h -263.33 v -29.719 h 106.17 V 379.398 h -148.64 v 743.252"
         style="fill:#323590;fill-opacity:1;fill-rule:nonzero;stroke:none"
         id="path46" />
      <path
         d="m 8259.83,850.828 v 74.344 c 0,40.34 -20.17,59.457 -59.47,59.457 h -111.49 c -39.27,0 -59.46,-20.188 -59.46,-59.457 V 576.898 c 0,-39.289 20.19,-59.457 59.46,-59.457 h 111.49 c 39.3,0 59.47,19.098 59.47,59.457 v 81.743 h -167.77 v 118.941 h 317.48 V 545.031 c 0,-111.48 -58.4,-165.633 -165.63,-165.633 h -197.5 c -111.49,0 -165.64,54.153 -165.64,165.633 V 957.02 c 0,111.48 54.15,165.63 165.64,165.63 h 197.5 c 111.49,0 165.63,-54.15 165.63,-165.63 v -31.848 l -149.71,-74.344"
         style="fill:#323590;fill-opacity:1;fill-rule:nonzero;stroke:none"
         id="path48" />
      <path
         d="m 8781.11,379.398 v 272.883 h 54.14 v 29.731 h -54.14 l -266.53,440.638 h 169.89 l 170.95,-278.181 169.89,278.181 H 9195.2 L 8929.76,682.012 h -54.17 v -29.731 h 54.17 V 379.398 h -148.65"
         style="fill:#323590;fill-opacity:1;fill-rule:nonzero;stroke:none"
         id="path50" />
      <path
         d="M 254.949,153.262 V 27.4219 h 15.61 c 4.351,0 7.793,1.2578 10.312,3.7773 2.52,2.5196 3.777,6.9727 3.777,13.3321 v 91.5977 c 0,6.383 -1.257,10.832 -3.777,13.351 -2.519,2.52 -5.961,3.782 -10.312,3.782 z m -27.683,25.16 h 43.793 c 13.925,0 24.285,-3.692 31.078,-11.07 6.797,-7.391 10.195,-18.223 10.195,-32.481 V 45.7891 c 0,-14.2696 -3.398,-25.0782 -10.195,-32.461 C 295.344,5.94922 284.984,2.26172 271.059,2.26172 H 227.266 V 178.422"
         style="fill:#09a54d;fill-opacity:1;fill-rule:nonzero;stroke:none"
         id="path52" />
      <path
         d="m 357.621,104.172 h 38.004 V 79 H 357.621 V 27.4219 h 47.817 V 2.26172 h -75.5 V 178.422 h 75.5 v -25.16 h -47.817 v -49.09"
         style="fill:#09a54d;fill-opacity:1;fill-rule:nonzero;stroke:none"
         id="path54" />
      <path
         d="M 502.82,67.9297 V 44.5313 c 0,-14.2696 -3.48,-25.211 -10.441,-32.8321 -6.957,-7.64061 -17.238,-11.457012 -30.828,-11.457012 -13.582,0 -23.86,3.816402 -30.821,11.457012 -6.968,7.6211 -10.441,18.5625 -10.441,32.8321 v 91.5977 c 0,14.262 3.473,25.203 10.441,32.851 6.961,7.641 17.239,11.442 30.821,11.442 13.59,0 23.871,-3.801 30.828,-11.442 6.961,-7.648 10.441,-18.589 10.441,-32.851 V 119.02 h -26.172 v 18.89 c 0,6.36 -1.289,10.852 -3.894,13.461 -2.606,2.578 -6.078,3.879 -10.445,3.879 -4.364,0 -7.848,-1.301 -10.442,-3.879 -2.605,-2.609 -3.898,-7.101 -3.898,-13.461 V 42.7695 c 0,-6.3789 1.293,-10.8086 3.898,-13.3281 2.594,-2.5195 6.078,-3.7812 10.442,-3.7812 4.367,0 7.839,1.2617 10.445,3.7812 2.605,2.5195 3.894,6.9492 3.894,13.3281 v 25.1602 h 26.172"
         style="fill:#09a54d;fill-opacity:1;fill-rule:nonzero;stroke:none"
         id="path56" />
      <path
         d="m 546.102,58.1211 h 26.683 l -13.34,89.0779 z M 609.27,2.26172 H 581.34 L 576.555,34.2188 H 542.586 L 537.801,2.26172 H 512.387 L 540.566,178.422 H 581.09 L 609.27,2.26172"
         style="fill:#09a54d;fill-opacity:1;fill-rule:nonzero;stroke:none"
         id="path58" />
      <path
         d="M 649.785,153.262 V 99.1484 h 10.82 c 5.204,0 9.274,1.3316 12.204,4.0236 2.941,2.687 4.406,7.547 4.406,14.59 v 17.367 c 0,6.383 -1.129,10.98 -3.399,13.851 -2.257,2.84 -5.828,4.282 -10.691,4.282 z M 679.984,2.26172 c -0.336,1.16797 -0.671,2.25 -1.011,3.26953 -0.336,1 -0.629,2.25781 -0.879,3.77734 -0.25,1.50001 -0.41,3.43361 -0.496,5.78121 -0.09,2.3399 -0.133,5.3008 -0.133,8.8086 V 51.582 c 0,8.2071 -1.422,14.0078 -4.277,17.3672 -2.856,3.3516 -7.469,5.0196 -13.84,5.0196 h -9.563 V 2.26172 H 622.102 V 178.422 h 41.773 c 14.426,0 24.879,-3.371 31.34,-10.07 6.445,-6.711 9.683,-16.872 9.683,-30.442 v -13.851 c 0,-18.129 -6.035,-30.0277 -18.121,-35.7387 7.047,-2.8398 11.868,-7.5117 14.473,-13.9609 2.594,-6.4688 3.898,-14.3086 3.898,-23.5391 V 23.6406 c 0,-4.3593 0.172,-8.1601 0.508,-11.4414 0.328,-3.27732 1.172,-6.59764 2.52,-9.93748 h -28.192"
         style="fill:#09a54d;fill-opacity:1;fill-rule:nonzero;stroke:none"
         id="path60" />
      <path
         d="M 750.945,81.5195 V 27.4219 h 15.86 c 4.691,0 8.261,1.2578 10.695,3.7773 2.43,2.5196 3.645,7.0508 3.645,13.5899 v 15.3515 c 0,8.211 -1.379,13.8282 -4.145,16.8711 -2.77,3.0196 -7.352,4.5078 -13.723,4.5078 z m 0,71.7425 v -46.571 h 10.825 c 5.199,0 9.269,1.34 12.203,4.028 2.937,2.679 4.406,7.543 4.406,14.59 v 9.82 c 0,6.383 -1.129,10.98 -3.399,13.851 -2.257,2.84 -5.828,4.282 -10.691,4.282 z m 14.09,25.16 c 14.43,0 24.883,-3.371 31.34,-10.07 6.449,-6.711 9.684,-16.872 9.684,-30.442 v -6.301 c 0,-9.07 -1.422,-16.519 -4.278,-22.41 -2.855,-5.859 -7.379,-10.2185 -13.59,-13.0896 7.555,-2.8399 12.875,-7.4883 15.981,-13.961 3.101,-6.4492 4.656,-14.3867 4.656,-23.7695 V 44.0313 c 0,-13.5899 -3.519,-23.9493 -10.562,-31.0704 C 791.211,5.82031 780.723,2.26172 766.805,2.26172 H 723.266 V 178.422 h 41.769"
         style="fill:#09a54d;fill-opacity:1;fill-rule:nonzero;stroke:none"
         id="path62" />
      <path
         d="m 850.848,42.7695 c 0,-6.3789 1.293,-10.8593 3.898,-13.4609 2.594,-2.6094 6.078,-3.9102 10.442,-3.9102 4.367,0 7.839,1.3008 10.445,3.9102 2.605,2.6016 3.894,7.082 3.894,13.4609 V 137.91 c 0,6.36 -1.289,10.852 -3.894,13.461 -2.606,2.578 -6.078,3.879 -10.445,3.879 -4.364,0 -7.848,-1.301 -10.442,-3.879 -2.605,-2.609 -3.898,-7.101 -3.898,-13.461 z m -27.68,93.3595 c 0,14.262 3.605,25.203 10.812,32.851 7.219,7.641 17.618,11.442 31.208,11.442 13.593,0 23.992,-3.801 31.21,-11.442 7.207,-7.648 10.813,-18.589 10.813,-32.851 V 44.5313 c 0,-14.2696 -3.606,-25.211 -10.813,-32.8321 -7.218,-7.64061 -17.617,-11.457012 -31.21,-11.457012 -13.59,0 -23.989,3.816402 -31.208,11.457012 -7.207,7.6211 -10.812,18.5625 -10.812,32.8321 v 91.5977"
         style="fill:#09a54d;fill-opacity:1;fill-rule:nonzero;stroke:none"
         id="path64" />
      <path
         d="M 949.742,129.852 V 2.26172 H 924.828 V 178.422 h 34.727 L 987.996,72.9688 V 178.422 h 24.664 V 2.26172 H 984.219 L 949.742,129.852"
         style="fill:#09a54d;fill-opacity:1;fill-rule:nonzero;stroke:none"
         id="path66" />
      <path
         d="m 1032.54,178.422 h 27.68 V 2.26172 h -27.68 V 178.422"
         style="fill:#09a54d;fill-opacity:1;fill-rule:nonzero;stroke:none"
         id="path68" />
      <path
         d="m 1076.83,136.129 c 0,14.262 3.4,25.203 10.19,32.851 6.8,7.641 16.98,11.442 30.57,11.442 13.59,0 23.78,-3.801 30.58,-11.442 6.8,-7.648 10.19,-18.589 10.19,-32.851 v -5.539 h -26.17 v 7.32 c 0,6.36 -1.23,10.852 -3.65,13.461 -2.44,2.578 -5.84,3.879 -10.19,3.879 -4.36,0 -7.76,-1.301 -10.19,-3.879 -2.44,-2.609 -3.65,-7.101 -3.65,-13.461 0,-6.058 1.33,-11.379 4.03,-15.98 2.68,-4.629 6.03,-8.989 10.06,-13.09 4.03,-4.129 8.35,-8.231 12.96,-12.34 4.61,-4.1211 8.94,-8.5898 12.96,-13.4609 4.03,-4.8789 7.38,-10.418 10.07,-16.6094 2.68,-6.2109 4.02,-13.5 4.02,-21.8984 0,-14.2696 -3.48,-25.211 -10.44,-32.8321 -6.97,-7.64061 -17.24,-11.457012 -30.83,-11.457012 -13.59,0 -23.87,3.816402 -30.83,11.457012 -6.96,7.6211 -10.44,18.5625 -10.44,32.8321 v 10.8281 h 26.17 V 42.7695 c 0,-6.3789 1.3,-10.8086 3.9,-13.3281 2.6,-2.5195 6.08,-3.7812 10.44,-3.7812 4.36,0 7.85,1.2617 10.45,3.7812 2.6,2.5195 3.9,6.9492 3.9,13.3281 0,6.0391 -1.34,11.3789 -4.03,15.9805 -2.68,4.6211 -6.03,8.9688 -10.06,13.0898 -4.03,4.1016 -8.35,8.211 -12.96,12.3321 -4.61,4.1094 -8.93,8.5976 -12.96,13.457 -4.03,4.8711 -7.38,10.4021 -10.06,16.6091 -2.7,6.211 -4.03,13.512 -4.03,21.891"
         style="fill:#09a54d;fill-opacity:1;fill-rule:nonzero;stroke:none"
         id="path70" />
      <path
         d="m 1174.46,178.422 h 27.68 V 2.26172 h -27.68 V 178.422"
         style="fill:#09a54d;fill-opacity:1;fill-rule:nonzero;stroke:none"
         id="path72" />
      <path
         d="M 1246.93,129.852 V 2.26172 h -24.91 V 178.422 h 34.73 L 1285.19,72.9688 V 178.422 h 24.66 V 2.26172 h -28.44 L 1246.93,129.852"
         style="fill:#09a54d;fill-opacity:1;fill-rule:nonzero;stroke:none"
         id="path74" />
      <path
         d="m 1371.24,100.391 h 38.75 V 44.5313 c 0,-14.2696 -3.48,-25.211 -10.44,-32.8321 -6.96,-7.64061 -17.24,-11.457012 -30.83,-11.457012 -13.58,0 -23.86,3.816402 -30.82,11.457012 -6.97,7.6211 -10.44,18.5625 -10.44,32.8321 v 91.5977 c 0,14.262 3.47,25.203 10.44,32.851 6.96,7.641 17.24,11.442 30.82,11.442 13.59,0 23.87,-3.801 30.83,-11.442 6.96,-7.648 10.44,-18.589 10.44,-32.851 V 119.02 h -26.17 v 18.89 c 0,6.36 -1.29,10.852 -3.9,13.461 -2.6,2.578 -6.08,3.879 -10.44,3.879 -4.36,0 -7.85,-1.301 -10.44,-3.879 -2.61,-2.609 -3.9,-7.101 -3.9,-13.461 V 42.7695 c 0,-6.3789 1.29,-10.8086 3.9,-13.3281 2.59,-2.5195 6.08,-3.7812 10.44,-3.7812 4.36,0 7.84,1.2617 10.44,3.7812 2.61,2.5195 3.9,6.9492 3.9,13.3281 v 32.461 h -12.58 v 25.1605"
         style="fill:#09a54d;fill-opacity:1;fill-rule:nonzero;stroke:none"
         id="path76" />
      <path
         d="m 1466.88,178.422 h 27.68 V 27.4219 h 45.55 V 2.26172 h -73.23 V 178.422"
         style="fill:#09a54d;fill-opacity:1;fill-rule:nonzero;stroke:none"
         id="path78" />
      <path
         d="m 1577.6,42.7695 c 0,-6.3789 1.29,-10.8593 3.9,-13.4609 2.59,-2.6094 6.08,-3.9102 10.44,-3.9102 4.37,0 7.84,1.3008 10.44,3.9102 2.61,2.6016 3.9,7.082 3.9,13.4609 V 137.91 c 0,6.36 -1.29,10.852 -3.9,13.461 -2.6,2.578 -6.07,3.879 -10.44,3.879 -4.36,0 -7.85,-1.301 -10.44,-3.879 -2.61,-2.609 -3.9,-7.101 -3.9,-13.461 z m -27.68,93.3595 c 0,14.262 3.6,25.203 10.81,32.851 7.22,7.641 17.62,11.442 31.21,11.442 13.59,0 23.99,-3.801 31.21,-11.442 7.21,-7.648 10.81,-18.589 10.81,-32.851 V 44.5313 c 0,-14.2696 -3.6,-25.211 -10.81,-32.8321 -7.22,-7.64061 -17.62,-11.457012 -31.21,-11.457012 -13.59,0 -23.99,3.816402 -31.21,11.457012 -7.21,7.6211 -10.81,18.5625 -10.81,32.8321 v 91.5977"
         style="fill:#09a54d;fill-opacity:1;fill-rule:nonzero;stroke:none"
         id="path80" />
      <path
         d="m 1693.35,100.391 h 38.76 V 44.5313 c 0,-14.2696 -3.49,-25.211 -10.45,-32.8321 -6.95,-7.64061 -17.23,-11.457012 -30.82,-11.457012 -13.58,0 -23.87,3.816402 -30.82,11.457012 -6.97,7.6211 -10.45,18.5625 -10.45,32.8321 v 91.5977 c 0,14.262 3.48,25.203 10.45,32.851 6.95,7.641 17.24,11.442 30.82,11.442 13.59,0 23.87,-3.801 30.82,-11.442 6.96,-7.648 10.45,-18.589 10.45,-32.851 V 119.02 h -26.17 v 18.89 c 0,6.36 -1.3,10.852 -3.9,13.461 -2.61,2.578 -6.08,3.879 -10.44,3.879 -4.37,0 -7.85,-1.301 -10.45,-3.879 -2.6,-2.609 -3.89,-7.101 -3.89,-13.461 V 42.7695 c 0,-6.3789 1.29,-10.8086 3.89,-13.3281 2.6,-2.5195 6.08,-3.7812 10.45,-3.7812 4.36,0 7.83,1.2617 10.44,3.7812 2.6,2.5195 3.9,6.9492 3.9,13.3281 v 32.461 h -12.59 v 25.1605"
         style="fill:#09a54d;fill-opacity:1;fill-rule:nonzero;stroke:none"
         id="path82" />
      <path
         d="m 1749.98,178.422 h 27.68 V 2.26172 h -27.68 V 178.422"
         style="fill:#09a54d;fill-opacity:1;fill-rule:nonzero;stroke:none"
         id="path84" />
      <path
         d="m 1794.27,136.129 c 0,14.262 3.39,25.203 10.19,32.851 6.8,7.641 16.98,11.442 30.57,11.442 13.59,0 23.78,-3.801 30.58,-11.442 6.79,-7.648 10.19,-18.589 10.19,-32.851 v -5.539 h -26.17 v 7.32 c 0,6.36 -1.23,10.852 -3.65,13.461 -2.44,2.578 -5.84,3.879 -10.19,3.879 -4.37,0 -7.76,-1.301 -10.19,-3.879 -2.44,-2.609 -3.65,-7.101 -3.65,-13.461 0,-6.058 1.33,-11.379 4.03,-15.98 2.68,-4.629 6.03,-8.989 10.06,-13.09 4.03,-4.129 8.35,-8.231 12.96,-12.34 4.61,-4.1211 8.93,-8.5898 12.96,-13.4609 4.03,-4.8789 7.38,-10.418 10.06,-16.6094 2.69,-6.2109 4.03,-13.5 4.03,-21.8984 0,-14.2696 -3.48,-25.211 -10.44,-32.8321 -6.97,-7.64061 -17.24,-11.457012 -30.83,-11.457012 -13.59,0 -23.87,3.816402 -30.83,11.457012 -6.96,7.6211 -10.44,18.5625 -10.44,32.8321 v 10.8281 h 26.17 V 42.7695 c 0,-6.3789 1.3,-10.8086 3.9,-13.3281 2.6,-2.5195 6.08,-3.7812 10.44,-3.7812 4.36,0 7.85,1.2617 10.45,3.7812 2.6,2.5195 3.9,6.9492 3.9,13.3281 0,6.0391 -1.35,11.3789 -4.03,15.9805 -2.68,4.6211 -6.03,8.9688 -10.06,13.0898 -4.03,4.1016 -8.35,8.211 -12.96,12.3321 -4.62,4.1094 -8.94,8.5976 -12.96,13.457 -4.03,4.8711 -7.38,10.4021 -10.07,16.6091 -2.69,6.211 -4.02,13.512 -4.02,21.891"
         style="fill:#09a54d;fill-opacity:1;fill-rule:nonzero;stroke:none"
         id="path86" />
      <path
         d="m 1883.85,178.422 h 85.56 v -25.16 h -28.94 V 2.26172 h -27.68 V 153.262 h -28.94 v 25.16"
         style="fill:#09a54d;fill-opacity:1;fill-rule:nonzero;stroke:none"
         id="path88" />
      <path
         d="m 1981.49,178.422 h 27.68 V 2.26172 h -27.68 V 178.422"
         style="fill:#09a54d;fill-opacity:1;fill-rule:nonzero;stroke:none"
         id="path90" />
      <path
         d="M 2109.57,67.9297 V 44.5313 c 0,-14.2696 -3.48,-25.211 -10.44,-32.8321 -6.96,-7.64061 -17.24,-11.457012 -30.83,-11.457012 -13.58,0 -23.86,3.816402 -30.82,11.457012 -6.97,7.6211 -10.44,18.5625 -10.44,32.8321 v 91.5977 c 0,14.262 3.47,25.203 10.44,32.851 6.96,7.641 17.24,11.442 30.82,11.442 13.59,0 23.87,-3.801 30.83,-11.442 6.96,-7.648 10.44,-18.589 10.44,-32.851 V 119.02 h -26.17 v 18.89 c 0,6.36 -1.29,10.852 -3.9,13.461 -2.6,2.578 -6.07,3.879 -10.44,3.879 -4.36,0 -7.85,-1.301 -10.44,-3.879 -2.61,-2.609 -3.9,-7.101 -3.9,-13.461 V 42.7695 c 0,-6.3789 1.29,-10.8086 3.9,-13.3281 2.59,-2.5195 6.08,-3.7812 10.44,-3.7812 4.37,0 7.84,1.2617 10.44,3.7812 2.61,2.5195 3.9,6.9492 3.9,13.3281 v 25.1602 h 26.17"
         style="fill:#09a54d;fill-opacity:1;fill-rule:nonzero;stroke:none"
         id="path92" />
      <path
         d="m 2122.92,136.129 c 0,14.262 3.39,25.203 10.19,32.851 6.79,7.641 16.98,11.442 30.57,11.442 13.59,0 23.78,-3.801 30.58,-11.442 6.79,-7.648 10.19,-18.589 10.19,-32.851 v -5.539 h -26.17 v 7.32 c 0,6.36 -1.23,10.852 -3.65,13.461 -2.44,2.578 -5.84,3.879 -10.19,3.879 -4.37,0 -7.76,-1.301 -10.2,-3.879 -2.43,-2.609 -3.64,-7.101 -3.64,-13.461 0,-6.058 1.33,-11.379 4.02,-15.98 2.69,-4.629 6.04,-8.989 10.07,-13.09 4.03,-4.129 8.35,-8.231 12.96,-12.34 4.61,-4.1211 8.93,-8.5898 12.96,-13.4609 4.03,-4.8789 7.38,-10.418 10.06,-16.6094 2.68,-6.2109 4.03,-13.5 4.03,-21.8984 0,-14.2696 -3.48,-25.211 -10.44,-32.8321 -6.97,-7.64061 -17.24,-11.457012 -30.83,-11.457012 -13.59,0 -23.87,3.816402 -30.83,11.457012 -6.96,7.6211 -10.44,18.5625 -10.44,32.8321 v 10.8281 h 26.17 V 42.7695 c 0,-6.3789 1.3,-10.8086 3.9,-13.3281 2.6,-2.5195 6.07,-3.7812 10.44,-3.7812 4.36,0 7.85,1.2617 10.45,3.7812 2.6,2.5195 3.9,6.9492 3.9,13.3281 0,6.0391 -1.35,11.3789 -4.03,15.9805 -2.68,4.6211 -6.03,8.9688 -10.06,13.0898 -4.03,4.1016 -8.35,8.211 -12.96,12.3321 -4.62,4.1094 -8.94,8.5976 -12.96,13.457 -4.03,4.8711 -7.39,10.4021 -10.07,16.6091 -2.69,6.211 -4.02,13.512 -4.02,21.891"
         style="fill:#09a54d;fill-opacity:1;fill-rule:nonzero;stroke:none"
         id="path94" />
      <path
         d="m 2259.55,178.422 h 27.69 V 2.26172 h -27.69 V 178.422"
         style="fill:#09a54d;fill-opacity:1;fill-rule:nonzero;stroke:none"
         id="path96" />
      <path
         d="M 2332.02,129.852 V 2.26172 h -24.91 V 178.422 h 34.73 L 2370.28,72.9688 V 178.422 h 24.66 V 2.26172 H 2366.5 L 2332.02,129.852"
         style="fill:#09a54d;fill-opacity:1;fill-rule:nonzero;stroke:none"
         id="path98" />
      <path
         d="M 2442.49,153.262 V 27.4219 h 15.61 c 4.35,0 7.79,1.2578 10.31,3.7773 2.52,2.5196 3.78,6.9727 3.78,13.3321 v 91.5977 c 0,6.383 -1.26,10.832 -3.78,13.351 -2.52,2.52 -5.96,3.782 -10.31,3.782 z m -27.68,25.16 h 43.79 c 13.93,0 24.28,-3.692 31.08,-11.07 6.79,-7.391 10.19,-18.223 10.19,-32.481 V 45.7891 c 0,-14.2696 -3.4,-25.0782 -10.19,-32.461 -6.8,-7.37888 -17.15,-11.06638 -31.08,-11.06638 h -43.79 V 178.422"
         style="fill:#09a54d;fill-opacity:1;fill-rule:nonzero;stroke:none"
         id="path100" />
      <path
         d="M 2543.9,178.422 V 42.5313 c 0,-6.379 1.3,-10.8321 3.91,-13.3516 2.59,-2.5195 6.08,-3.7813 10.44,-3.7813 4.36,0 7.84,1.2618 10.45,3.7813 2.59,2.5195 3.89,6.9726 3.89,13.3516 V 178.422 h 26.18 V 44.2891 c 0,-14.2578 -3.49,-25.2071 -10.45,-32.8477 C 2581.36,3.80078 2571.08,0 2557.49,0 c -13.59,0 -23.86,3.80078 -30.83,11.4414 -6.95,7.6406 -10.44,18.5899 -10.44,32.8477 V 178.422 h 27.68"
         style="fill:#09a54d;fill-opacity:1;fill-rule:nonzero;stroke:none"
         id="path102" />
      <path
         d="m 2614.13,136.129 c 0,14.262 3.39,25.203 10.19,32.851 6.8,7.641 16.98,11.442 30.57,11.442 13.59,0 23.78,-3.801 30.58,-11.442 6.79,-7.648 10.19,-18.589 10.19,-32.851 v -5.539 h -26.17 v 7.32 c 0,6.36 -1.23,10.852 -3.65,13.461 -2.44,2.578 -5.84,3.879 -10.19,3.879 -4.37,0 -7.76,-1.301 -10.19,-3.879 -2.44,-2.609 -3.65,-7.101 -3.65,-13.461 0,-6.058 1.33,-11.379 4.03,-15.98 2.68,-4.629 6.03,-8.989 10.06,-13.09 4.03,-4.129 8.35,-8.231 12.96,-12.34 4.61,-4.1211 8.93,-8.5898 12.96,-13.4609 4.03,-4.8789 7.38,-10.418 10.06,-16.6094 2.69,-6.2109 4.03,-13.5 4.03,-21.8984 0,-14.2696 -3.48,-25.211 -10.44,-32.8321 -6.97,-7.64061 -17.24,-11.457012 -30.83,-11.457012 -13.59,0 -23.87,3.816402 -30.83,11.457012 -6.96,7.6211 -10.44,18.5625 -10.44,32.8321 v 10.8281 h 26.17 V 42.7695 c 0,-6.3789 1.3,-10.8086 3.9,-13.3281 2.6,-2.5195 6.08,-3.7812 10.44,-3.7812 4.36,0 7.85,1.2617 10.45,3.7812 2.6,2.5195 3.9,6.9492 3.9,13.3281 0,6.0391 -1.35,11.3789 -4.03,15.9805 -2.68,4.6211 -6.03,8.9688 -10.06,13.0898 -4.03,4.1016 -8.35,8.211 -12.96,12.3321 -4.62,4.1094 -8.94,8.5976 -12.96,13.457 -4.03,4.8711 -7.39,10.4021 -10.07,16.6091 -2.69,6.211 -4.02,13.512 -4.02,21.891"
         style="fill:#09a54d;fill-opacity:1;fill-rule:nonzero;stroke:none"
         id="path104" />
      <path
         d="m 2703.7,178.422 h 85.56 v -25.16 h -28.94 V 2.26172 h -27.68 V 153.262 h -28.94 v 25.16"
         style="fill:#09a54d;fill-opacity:1;fill-rule:nonzero;stroke:none"
         id="path106" />
      <path
         d="M 2829.02,153.262 V 99.1484 h 10.82 c 5.2,0 9.27,1.3316 12.21,4.0236 2.94,2.687 4.4,7.547 4.4,14.59 v 17.367 c 0,6.383 -1.13,10.98 -3.39,13.851 -2.26,2.84 -5.83,4.282 -10.7,4.282 z m 30.2,-151.00028 c -0.34,1.16797 -0.67,2.25 -1.01,3.26953 -0.33,1 -0.63,2.25781 -0.88,3.77734 -0.25,1.50001 -0.41,3.43361 -0.5,5.78121 -0.08,2.3399 -0.13,5.3008 -0.13,8.8086 V 51.582 c 0,8.2071 -1.42,14.0078 -4.27,17.3672 -2.86,3.3516 -7.47,5.0196 -13.84,5.0196 h -9.57 V 2.26172 h -27.68 V 178.422 h 41.77 c 14.43,0 24.88,-3.371 31.34,-10.07 6.45,-6.711 9.68,-16.872 9.68,-30.442 v -13.851 c 0,-18.129 -6.03,-30.0277 -18.11,-35.7387 7.04,-2.8398 11.86,-7.5117 14.47,-13.9609 2.59,-6.4688 3.89,-14.3086 3.89,-23.5391 V 23.6406 c 0,-4.3593 0.18,-8.1601 0.51,-11.4414 0.33,-3.27732 1.18,-6.59764 2.52,-9.93748 h -28.19"
         style="fill:#09a54d;fill-opacity:1;fill-rule:nonzero;stroke:none"
         id="path108" />
      <path
         d="m 2925.91,60.6406 -34.98,117.7814 h 28.94 l 21.14,-80.2931 21.13,80.2931 h 26.42 L 2953.59,60.6406 V 2.26172 h -27.68 V 60.6406"
         style="fill:#09a54d;fill-opacity:1;fill-rule:nonzero;stroke:none"
         id="path110" />
      <path
         d="M 3066.32,81.5195 V 27.4219 h 15.86 c 4.69,0 8.26,1.2578 10.69,3.7773 2.44,2.5196 3.65,7.0508 3.65,13.5899 v 15.3515 c 0,8.211 -1.38,13.8282 -4.14,16.8711 -2.77,3.0196 -7.35,4.5078 -13.73,4.5078 z m 0,71.7425 v -46.571 h 10.83 c 5.19,0 9.27,1.34 12.2,4.028 2.94,2.679 4.4,7.543 4.4,14.59 v 9.82 c 0,6.383 -1.12,10.98 -3.39,13.851 -2.26,2.84 -5.83,4.282 -10.7,4.282 z m 14.09,25.16 c 14.43,0 24.88,-3.371 31.34,-10.07 6.45,-6.711 9.69,-16.872 9.69,-30.442 v -6.301 c 0,-9.07 -1.43,-16.519 -4.28,-22.41 -2.86,-5.859 -7.38,-10.2185 -13.59,-13.0896 7.55,-2.8399 12.87,-7.4883 15.98,-13.961 3.1,-6.4492 4.65,-14.3867 4.65,-23.7695 V 44.0313 c 0,-13.5899 -3.51,-23.9493 -10.56,-31.0704 -7.05,-7.14059 -17.54,-10.69918 -31.46,-10.69918 h -43.54 V 178.422 h 41.77"
         style="fill:#09a54d;fill-opacity:1;fill-rule:nonzero;stroke:none"
         id="path112" />
      <path
         d="m 3162.96,60.6406 -34.98,117.7814 h 28.94 l 21.14,-80.2931 21.13,80.2931 h 26.43 L 3190.64,60.6406 V 2.26172 h -27.68 V 60.6406"
         style="fill:#09a54d;fill-opacity:1;fill-rule:nonzero;stroke:none"
         id="path114" />
      <path
         d="m 3275.69,178.422 h 27.68 V 27.4219 h 45.55 V 2.26172 h -73.23 V 178.422"
         style="fill:#09a54d;fill-opacity:1;fill-rule:nonzero;stroke:none"
         id="path116" />
      <path
         d="m 3388.69,104.172 h 38 V 79 h -38 V 27.4219 h 47.81 V 2.26172 H 3361 V 178.422 h 75.5 v -25.16 h -47.81 v -49.09"
         style="fill:#09a54d;fill-opacity:1;fill-rule:nonzero;stroke:none"
         id="path118" />
      <path
         d="m 3495.39,34.7109 21.14,143.7111 h 25.41 L 3514.76,2.26172 H 3473.5 L 3446.32,178.422 h 27.93 l 21.14,-143.7111"
         style="fill:#09a54d;fill-opacity:1;fill-rule:nonzero;stroke:none"
         id="path120" />
      <path
         d="m 3582.46,104.172 h 38 V 79 h -38 V 27.4219 h 47.82 V 2.26172 h -75.5 V 178.422 h 75.5 v -25.16 h -47.82 v -49.09"
         style="fill:#09a54d;fill-opacity:1;fill-rule:nonzero;stroke:none"
         id="path122" />
      <path
         d="M 3675.07,153.262 V 99.1484 h 10.82 c 5.2,0 9.27,1.3316 12.2,4.0236 2.94,2.687 4.41,7.547 4.41,14.59 v 17.367 c 0,6.383 -1.13,10.98 -3.4,13.851 -2.26,2.84 -5.83,4.282 -10.69,4.282 z M 3705.26,2.26172 c -0.33,1.16797 -0.67,2.25 -1,3.26953 -0.34,1 -0.63,2.25781 -0.88,3.77734 -0.25,1.50001 -0.42,3.43361 -0.5,5.78121 -0.09,2.3399 -0.13,5.3008 -0.13,8.8086 V 51.582 c 0,8.2071 -1.43,14.0078 -4.28,17.3672 -2.86,3.3516 -7.47,5.0196 -13.84,5.0196 h -9.56 V 2.26172 h -27.69 V 178.422 h 41.78 c 14.42,0 24.88,-3.371 31.33,-10.07 6.45,-6.711 9.69,-16.872 9.69,-30.442 v -13.851 c 0,-18.129 -6.04,-30.0277 -18.12,-35.7387 7.05,-2.8398 11.87,-7.5117 14.47,-13.9609 2.6,-6.4688 3.9,-14.3086 3.9,-23.5391 V 23.6406 c 0,-4.3593 0.17,-8.1601 0.51,-11.4414 0.32,-3.27732 1.17,-6.59764 2.52,-9.93748 h -28.2"
         style="fill:#09a54d;fill-opacity:1;fill-rule:nonzero;stroke:none"
         id="path124" />
      <path
         d="m 3774.97,58.1211 h 26.68 l -13.34,89.0779 z m 63.17,-55.85938 h -27.94 l -4.78,31.95708 h -33.97 l -4.79,-31.95708 h -25.41 l 28.18,176.16028 h 40.53 L 3838.14,2.26172"
         style="fill:#09a54d;fill-opacity:1;fill-rule:nonzero;stroke:none"
         id="path126" />
      <path
         d="m 3892.24,100.391 h 38.75 V 44.5313 c 0,-14.2696 -3.48,-25.211 -10.44,-32.8321 -6.96,-7.64061 -17.24,-11.457012 -30.83,-11.457012 -13.58,0 -23.86,3.816402 -30.82,11.457012 -6.97,7.6211 -10.44,18.5625 -10.44,32.8321 v 91.5977 c 0,14.262 3.47,25.203 10.44,32.851 6.96,7.641 17.24,11.442 30.82,11.442 13.59,0 23.87,-3.801 30.83,-11.442 6.96,-7.648 10.44,-18.589 10.44,-32.851 V 119.02 h -26.17 v 18.89 c 0,6.36 -1.29,10.852 -3.9,13.461 -2.6,2.578 -6.08,3.879 -10.44,3.879 -4.36,0 -7.85,-1.301 -10.44,-3.879 -2.61,-2.609 -3.9,-7.101 -3.9,-13.461 V 42.7695 c 0,-6.3789 1.29,-10.8086 3.9,-13.3281 2.59,-2.5195 6.08,-3.7812 10.44,-3.7812 4.36,0 7.84,1.2617 10.44,3.7812 2.61,2.5195 3.9,6.9492 3.9,13.3281 v 32.461 h -12.58 v 25.1605"
         style="fill:#09a54d;fill-opacity:1;fill-rule:nonzero;stroke:none"
         id="path128" />
      <path
         d="m 3948.86,178.422 h 27.68 V 2.26172 h -27.68 V 178.422"
         style="fill:#09a54d;fill-opacity:1;fill-rule:nonzero;stroke:none"
         id="path130" />
      <path
         d="M 4021.33,129.852 V 2.26172 h -24.91 V 178.422 h 34.73 L 4059.59,72.9688 V 178.422 h 24.66 V 2.26172 h -28.44 L 4021.33,129.852"
         style="fill:#09a54d;fill-opacity:1;fill-rule:nonzero;stroke:none"
         id="path132" />
      <path
         d="m 4145.64,100.391 h 38.75 V 44.5313 c 0,-14.2696 -3.48,-25.211 -10.44,-32.8321 -6.96,-7.64061 -17.24,-11.457012 -30.83,-11.457012 -13.58,0 -23.86,3.816402 -30.82,11.457012 -6.97,7.6211 -10.44,18.5625 -10.44,32.8321 v 91.5977 c 0,14.262 3.47,25.203 10.44,32.851 6.96,7.641 17.24,11.442 30.82,11.442 13.59,0 23.87,-3.801 30.83,-11.442 6.96,-7.648 10.44,-18.589 10.44,-32.851 V 119.02 h -26.17 v 18.89 c 0,6.36 -1.29,10.852 -3.9,13.461 -2.6,2.578 -6.08,3.879 -10.44,3.879 -4.36,0 -7.85,-1.301 -10.44,-3.879 -2.61,-2.609 -3.9,-7.101 -3.9,-13.461 V 42.7695 c 0,-6.3789 1.29,-10.8086 3.9,-13.3281 2.59,-2.5195 6.08,-3.7812 10.44,-3.7812 4.36,0 7.84,1.2617 10.44,3.7812 2.61,2.5195 3.9,6.9492 3.9,13.3281 v 32.461 h -12.58 v 25.1605"
         style="fill:#09a54d;fill-opacity:1;fill-rule:nonzero;stroke:none"
         id="path134" />
      <path
         d="m 4233.21,178.422 h 85.56 v -25.16 h -28.94 V 2.26172 h -27.68 V 153.262 h -28.94 v 25.16"
         style="fill:#09a54d;fill-opacity:1;fill-rule:nonzero;stroke:none"
         id="path136" />
      <path
         d="m 4358.54,2.26172 h -27.68 V 178.422 h 27.68 V 102.91 H 4390 v 75.512 h 28.18 V 2.26172 H 4390 V 77.75 h -31.46 V 2.26172"
         style="fill:#09a54d;fill-opacity:1;fill-rule:nonzero;stroke:none"
         id="path138" />
      <path
         d="m 4465.98,104.172 h 38.01 V 79 h -38.01 V 27.4219 h 47.82 V 2.26172 h -75.5 V 178.422 h 75.5 v -25.16 h -47.82 v -49.09"
         style="fill:#09a54d;fill-opacity:1;fill-rule:nonzero;stroke:none"
         id="path140" />
      <path
         d="M 4597.6,153.262 V 93.6211 h 13.09 c 4.35,0 7.71,1.1484 10.06,3.5078 2.35,2.3516 3.53,6.7111 3.53,13.1011 v 26.418 c 0,6.364 -1.18,10.723 -3.53,13.071 -2.35,2.34 -5.71,3.543 -10.06,3.543 z m 13.09,25.16 c 13.91,0 24.28,-3.692 31.08,-11.07 6.79,-7.391 10.19,-18.223 10.19,-32.481 V 111.98 c 0,-14.2612 -3.4,-25.0894 -10.19,-32.48 -6.8,-7.3789 -17.17,-11.0703 -31.08,-11.0703 H 4597.6 V 2.26172 h -27.69 V 178.422 h 40.78"
         style="fill:#09a54d;fill-opacity:1;fill-rule:nonzero;stroke:none"
         id="path142" />
      <path
         d="m 4690.22,42.7695 c 0,-6.3789 1.29,-10.8593 3.89,-13.4609 2.6,-2.6094 6.08,-3.9102 10.45,-3.9102 4.36,0 7.83,1.3008 10.44,3.9102 2.6,2.6016 3.9,7.082 3.9,13.4609 V 137.91 c 0,6.36 -1.3,10.852 -3.9,13.461 -2.61,2.578 -6.08,3.879 -10.44,3.879 -4.37,0 -7.85,-1.301 -10.45,-3.879 -2.6,-2.609 -3.89,-7.101 -3.89,-13.461 z m -27.69,93.3595 c 0,14.262 3.61,25.203 10.82,32.851 7.21,7.641 17.61,11.442 31.21,11.442 13.59,0 23.99,-3.801 31.2,-11.442 7.21,-7.648 10.82,-18.589 10.82,-32.851 V 44.5313 c 0,-14.2696 -3.61,-25.211 -10.82,-32.8321 -7.21,-7.64061 -17.61,-11.457012 -31.2,-11.457012 -13.6,0 -24,3.816402 -31.21,11.457012 -7.21,7.6211 -10.82,18.5625 -10.82,32.8321 v 91.5977"
         style="fill:#09a54d;fill-opacity:1;fill-rule:nonzero;stroke:none"
         id="path144" />
      <path
         d="M 4825.85,96.1094 4815.78,2.26172 h -37.99 L 4758.16,178.422 h 26.92 l 14.85,-138.9298 13.34,138.9298 h 26.67 l 13.85,-139.9298 14.34,139.9298 h 24.16 L 4872.66,2.26172 h -36.74 l -10.07,93.84768"
         style="fill:#09a54d;fill-opacity:1;fill-rule:nonzero;stroke:none"
         id="path146" />
      <path
         d="m 4933.8,104.172 h 38.01 V 79 H 4933.8 V 27.4219 h 47.82 V 2.26172 h -75.5 V 178.422 h 75.5 v -25.16 h -47.82 v -49.09"
         style="fill:#09a54d;fill-opacity:1;fill-rule:nonzero;stroke:none"
         id="path148" />
      <path
         d="M 5026.41,153.262 V 99.1484 h 10.82 c 5.2,0 9.27,1.3316 12.2,4.0236 2.95,2.687 4.41,7.547 4.41,14.59 v 17.367 c 0,6.383 -1.13,10.98 -3.4,13.851 -2.25,2.84 -5.83,4.282 -10.69,4.282 z m 30.2,-151.00028 c -0.34,1.16797 -0.67,2.25 -1.01,3.26953 -0.34,1 -0.63,2.25781 -0.88,3.77734 -0.25,1.50001 -0.41,3.43361 -0.5,5.78121 -0.09,2.3399 -0.13,5.3008 -0.13,8.8086 V 51.582 c 0,8.2071 -1.42,14.0078 -4.28,17.3672 -2.85,3.3516 -7.47,5.0196 -13.84,5.0196 h -9.56 V 2.26172 h -27.68 V 178.422 h 41.77 c 14.43,0 24.88,-3.371 31.34,-10.07 6.45,-6.711 9.68,-16.872 9.68,-30.442 v -13.851 c 0,-18.129 -6.03,-30.0277 -18.12,-35.7387 7.05,-2.8398 11.87,-7.5117 14.48,-13.9609 2.59,-6.4688 3.89,-14.3086 3.89,-23.5391 V 23.6406 c 0,-4.3593 0.18,-8.1601 0.51,-11.4414 0.33,-3.27732 1.17,-6.59764 2.52,-9.93748 h -28.19"
         style="fill:#09a54d;fill-opacity:1;fill-rule:nonzero;stroke:none"
         id="path150" />
      <path
         d="m 5164.32,42.7695 c 0,-6.3789 1.29,-10.8593 3.89,-13.4609 2.6,-2.6094 6.08,-3.9102 10.45,-3.9102 4.36,0 7.83,1.3008 10.44,3.9102 2.61,2.6016 3.9,7.082 3.9,13.4609 V 137.91 c 0,6.36 -1.29,10.852 -3.9,13.461 -2.61,2.578 -6.08,3.879 -10.44,3.879 -4.37,0 -7.85,-1.301 -10.45,-3.879 -2.6,-2.609 -3.89,-7.101 -3.89,-13.461 z m -27.68,93.3595 c 0,14.262 3.6,25.203 10.81,32.851 7.22,7.641 17.62,11.442 31.21,11.442 13.59,0 23.99,-3.801 31.21,-11.442 7.2,-7.648 10.81,-18.589 10.81,-32.851 V 44.5313 c 0,-14.2696 -3.61,-25.211 -10.81,-32.8321 -7.22,-7.64061 -17.62,-11.457012 -31.21,-11.457012 -13.59,0 -23.99,3.816402 -31.21,11.457012 -7.21,7.6211 -10.81,18.5625 -10.81,32.8321 v 91.5977"
         style="fill:#09a54d;fill-opacity:1;fill-rule:nonzero;stroke:none"
         id="path152" />
      <path
         d="m 5266.23,100.148 h 35.73 V 74.9883 h -35.73 V 2.26172 h -27.68 V 178.422 h 73.23 v -25.16 h -45.55 v -53.114"
         style="fill:#09a54d;fill-opacity:1;fill-rule:nonzero;stroke:none"
         id="path154" />
      <path
         d="m 5364.11,178.422 h 27.68 V 27.4219 h 45.55 V 2.26172 h -73.23 V 178.422"
         style="fill:#09a54d;fill-opacity:1;fill-rule:nonzero;stroke:none"
         id="path156" />
      <path
         d="m 5475.85,58.1211 h 26.68 l -13.34,89.0779 z m 63.17,-55.85938 h -27.94 l -4.78,31.95708 h -33.97 l -4.79,-31.95708 h -25.41 l 28.18,176.16028 h 40.52 L 5539.02,2.26172"
         style="fill:#09a54d;fill-opacity:1;fill-rule:nonzero;stroke:none"
         id="path158" />
      <path
         d="m 5534.23,178.422 h 85.56 v -25.16 h -28.94 V 2.26172 h -27.68 V 153.262 h -28.94 v 25.16"
         style="fill:#09a54d;fill-opacity:1;fill-rule:nonzero;stroke:none"
         id="path160" />
      <path
         d="m 5659.56,104.172 h 38 V 79 h -38 V 27.4219 h 47.81 V 2.26172 h -75.5 V 178.422 h 75.5 v -25.16 h -47.81 v -49.09"
         style="fill:#09a54d;fill-opacity:1;fill-rule:nonzero;stroke:none"
         id="path162" />
      <path
         d="m 5720.95,136.129 c 0,14.262 3.4,25.203 10.2,32.851 6.79,7.641 16.98,11.442 30.57,11.442 13.59,0 23.77,-3.801 30.57,-11.442 6.79,-7.648 10.2,-18.589 10.2,-32.851 v -5.539 h -26.18 v 7.32 c 0,6.36 -1.22,10.852 -3.65,13.461 -2.43,2.578 -5.82,3.879 -10.18,3.879 -4.37,0 -7.78,-1.301 -10.21,-3.879 -2.43,-2.609 -3.65,-7.101 -3.65,-13.461 0,-6.058 1.35,-11.379 4.04,-15.98 2.69,-4.629 6.04,-8.989 10.05,-13.09 4.04,-4.129 8.36,-8.231 12.97,-12.34 4.62,-4.1211 8.94,-8.5898 12.96,-13.4609 4.04,-4.8789 7.38,-10.418 10.07,-16.6094 2.67,-6.2109 4.02,-13.5 4.02,-21.8984 0,-14.2696 -3.48,-25.211 -10.44,-32.8321 -6.95,-7.64061 -17.24,-11.457012 -30.81,-11.457012 -13.59,0 -23.88,3.816402 -30.84,11.457012 -6.96,7.6211 -10.45,18.5625 -10.45,32.8321 v 10.8281 h 26.18 V 42.7695 c 0,-6.3789 1.3,-10.8086 3.9,-13.3281 2.61,-2.5195 6.08,-3.7812 10.45,-3.7812 4.36,0 7.83,1.2617 10.44,3.7812 2.58,2.5195 3.89,6.9492 3.89,13.3281 0,6.0391 -1.35,11.3789 -4.02,15.9805 -2.69,4.6211 -6.04,8.9688 -10.07,13.0898 -4.02,4.1016 -8.34,8.211 -12.94,12.3321 -4.63,4.1094 -8.95,8.5976 -12.98,13.457 -4.02,4.8711 -7.38,10.4021 -10.06,16.6091 -2.69,6.211 -4.03,13.512 -4.03,21.891"
         style="fill:#09a54d;fill-opacity:1;fill-rule:nonzero;stroke:none"
         id="path164" />
      <path
         d="m 5810.54,178.422 h 85.57 v -25.16 h -28.94 V 2.26172 h -27.69 V 153.262 h -28.94 v 25.16"
         style="fill:#09a54d;fill-opacity:1;fill-rule:nonzero;stroke:none"
         id="path166" />
      <path
         d="m 5974.87,2.26172 h -27.68 V 178.422 h 27.68 V 102.91 h 31.46 v 75.512 h 28.18 V 2.26172 h -28.18 V 77.75 h -31.46 V 2.26172"
         style="fill:#09a54d;fill-opacity:1;fill-rule:nonzero;stroke:none"
         id="path168" />
      <path
         d="m 6080.56,60.6406 -34.99,117.7814 h 28.94 l 21.14,-80.2931 21.15,80.2931 h 26.42 L 6108.24,60.6406 V 2.26172 h -27.68 V 60.6406"
         style="fill:#09a54d;fill-opacity:1;fill-rule:nonzero;stroke:none"
         id="path170" />
      <path
         d="M 6181.98,153.262 V 27.4219 h 15.58 c 4.37,0 7.82,1.2578 10.34,3.7773 2.49,2.5196 3.75,6.9727 3.75,13.3321 v 91.5977 c 0,6.383 -1.26,10.832 -3.75,13.351 -2.52,2.52 -5.97,3.782 -10.34,3.782 z m -27.69,25.16 h 43.77 c 13.94,0 24.3,-3.692 31.09,-11.07 6.8,-7.391 10.19,-18.223 10.19,-32.481 V 45.7891 c 0,-14.2696 -3.39,-25.0782 -10.19,-32.461 C 6222.36,5.94922 6212,2.26172 6198.06,2.26172 h -43.77 V 178.422"
         style="fill:#09a54d;fill-opacity:1;fill-rule:nonzero;stroke:none"
         id="path172" />
      <path
         d="M 6284.65,153.262 V 99.1484 h 10.81 c 5.19,0 9.27,1.3316 12.2,4.0236 2.93,2.687 4.41,7.547 4.41,14.59 v 17.367 c 0,6.383 -1.13,10.98 -3.39,13.851 -2.28,2.84 -5.84,4.282 -10.7,4.282 z m 30.2,-151.00028 c -0.35,1.16797 -0.68,2.25 -1.02,3.26953 -0.33,1 -0.63,2.25781 -0.87,3.77734 -0.26,1.50001 -0.44,3.43361 -0.52,5.78121 -0.09,2.3399 -0.11,5.3008 -0.11,8.8086 V 51.582 c 0,8.2071 -1.44,14.0078 -4.28,17.3672 -2.87,3.3516 -7.47,5.0196 -13.85,5.0196 h -9.55 V 2.26172 h -27.69 V 178.422 h 41.78 c 14.41,0 24.86,-3.371 31.33,-10.07 6.44,-6.711 9.68,-16.872 9.68,-30.442 v -13.851 c 0,-18.129 -6.04,-30.0277 -18.11,-35.7387 7.04,-2.8398 11.86,-7.5117 14.46,-13.9609 2.61,-6.4688 3.91,-14.3086 3.91,-23.5391 V 23.6406 c 0,-4.3593 0.15,-8.1601 0.5,-11.4414 0.32,-3.27732 1.17,-6.59764 2.52,-9.93748 h -28.18"
         style="fill:#09a54d;fill-opacity:1;fill-rule:nonzero;stroke:none"
         id="path174" />
      <path
         d="m 6383.54,42.7695 c 0,-6.3789 1.3,-10.8593 3.91,-13.4609 2.6,-2.6094 6.08,-3.9102 10.44,-3.9102 4.36,0 7.84,1.3008 10.44,3.9102 2.61,2.6016 3.91,7.082 3.91,13.4609 V 137.91 c 0,6.36 -1.3,10.852 -3.91,13.461 -2.6,2.578 -6.08,3.879 -10.44,3.879 -4.36,0 -7.84,-1.301 -10.44,-3.879 -2.61,-2.609 -3.91,-7.101 -3.91,-13.461 z m -27.68,93.3595 c 0,14.262 3.6,25.203 10.83,32.851 7.21,7.641 17.61,11.442 31.2,11.442 13.59,0 23.99,-3.801 31.2,-11.442 7.21,-7.648 10.83,-18.589 10.83,-32.851 V 44.5313 c 0,-14.2696 -3.62,-25.211 -10.83,-32.8321 -7.21,-7.64061 -17.61,-11.457012 -31.2,-11.457012 -13.59,0 -23.99,3.816402 -31.2,11.457012 -7.23,7.6211 -10.83,18.5625 -10.83,32.8321 v 91.5977"
         style="fill:#09a54d;fill-opacity:1;fill-rule:nonzero;stroke:none"
         id="path176" />
      <path
         d="m 6499.3,100.391 h 38.76 V 44.5313 c 0,-14.2696 -3.48,-25.211 -10.45,-32.8321 -6.97,-7.64061 -17.24,-11.457012 -30.83,-11.457012 -13.59,0 -23.86,3.816402 -30.83,11.457012 -6.94,7.6211 -10.44,18.5625 -10.44,32.8321 v 91.5977 c 0,14.262 3.5,25.203 10.44,32.851 6.97,7.641 17.24,11.442 30.83,11.442 13.59,0 23.86,-3.801 30.83,-11.442 6.97,-7.648 10.45,-18.589 10.45,-32.851 V 119.02 h -26.17 v 18.89 c 0,6.36 -1.3,10.852 -3.9,13.461 -2.61,2.578 -6.08,3.879 -10.45,3.879 -4.36,0 -7.83,-1.301 -10.44,-3.879 -2.6,-2.609 -3.91,-7.101 -3.91,-13.461 V 42.7695 c 0,-6.3789 1.31,-10.8086 3.91,-13.3281 2.61,-2.5195 6.08,-3.7812 10.44,-3.7812 4.37,0 7.84,1.2617 10.45,3.7812 2.6,2.5195 3.9,6.9492 3.9,13.3281 v 32.461 h -12.59 v 25.1605"
         style="fill:#09a54d;fill-opacity:1;fill-rule:nonzero;stroke:none"
         id="path178" />
      <path
         d="m 6583.61,104.172 h 37.99 V 79 h -37.99 V 27.4219 h 47.8 V 2.26172 h -75.49 V 178.422 h 75.49 v -25.16 h -47.8 v -49.09"
         style="fill:#09a54d;fill-opacity:1;fill-rule:nonzero;stroke:none"
         id="path180" />
      <path
         d="M 6673.21,129.852 V 2.26172 h -24.93 V 178.422 h 34.74 L 6711.44,72.9688 V 178.422 h 24.66 V 2.26172 h -28.42 L 6673.21,129.852"
         style="fill:#09a54d;fill-opacity:1;fill-rule:nonzero;stroke:none"
         id="path182" />
      <path
         d="m 6821.41,58.1211 h 26.66 l -13.33,89.0779 z m 63.15,-55.85938 h -27.94 l -4.77,31.95708 h -33.98 l -4.78,-31.95708 h -25.4 l 28.18,176.16028 h 40.51 L 6884.56,2.26172"
         style="fill:#09a54d;fill-opacity:1;fill-rule:nonzero;stroke:none"
         id="path184" />
      <path
         d="M 6922.08,129.852 V 2.26172 h -24.92 V 178.422 h 34.73 L 6960.31,72.9688 V 178.422 h 24.67 V 2.26172 h -28.42 L 6922.08,129.852"
         style="fill:#09a54d;fill-opacity:1;fill-rule:nonzero;stroke:none"
         id="path186" />
      <path
         d="M 7032.55,153.262 V 27.4219 h 15.58 c 4.37,0 7.82,1.2578 10.34,3.7773 2.49,2.5196 3.75,6.9727 3.75,13.3321 v 91.5977 c 0,6.383 -1.26,10.832 -3.75,13.351 -2.52,2.52 -5.97,3.782 -10.34,3.782 z m -27.69,25.16 h 43.77 c 13.94,0 24.3,-3.692 31.09,-11.07 6.8,-7.391 10.19,-18.223 10.19,-32.481 V 45.7891 c 0,-14.2696 -3.39,-25.0782 -10.19,-32.461 -6.79,-7.37888 -17.15,-11.06638 -31.09,-11.06638 h -43.77 V 178.422"
         style="fill:#09a54d;fill-opacity:1;fill-rule:nonzero;stroke:none"
         id="path188" />
      <path
         d="m 7146.55,178.422 h 27.68 V 27.4219 h 45.55 V 2.26172 h -73.23 V 178.422"
         style="fill:#09a54d;fill-opacity:1;fill-rule:nonzero;stroke:none"
         id="path190" />
      <path
         d="m 7231.85,178.422 h 27.68 V 2.26172 h -27.68 V 178.422"
         style="fill:#09a54d;fill-opacity:1;fill-rule:nonzero;stroke:none"
         id="path192" />
      <path
         d="m 7271.6,178.422 h 85.57 v -25.16 h -28.94 V 2.26172 h -27.68 V 153.262 h -28.95 v 25.16"
         style="fill:#09a54d;fill-opacity:1;fill-rule:nonzero;stroke:none"
         id="path194" />
      <path
         d="m 7396.92,2.26172 h -27.68 V 178.422 h 27.68 V 102.91 h 31.46 v 75.512 h 28.18 V 2.26172 h -28.18 V 77.75 h -31.46 V 2.26172"
         style="fill:#09a54d;fill-opacity:1;fill-rule:nonzero;stroke:none"
         id="path196" />
      <path
         d="m 7476.69,178.422 h 27.68 V 2.26172 h -27.68 V 178.422"
         style="fill:#09a54d;fill-opacity:1;fill-rule:nonzero;stroke:none"
         id="path198" />
      <path
         d="M 7550.92,178.422 V 42.5313 c 0,-6.379 1.28,-10.8321 3.88,-13.3516 2.61,-2.5195 6.08,-3.7813 10.45,-3.7813 4.36,0 7.85,1.2618 10.44,3.7813 2.6,2.5195 3.91,6.9726 3.91,13.3516 V 178.422 h 26.18 V 44.2891 c 0,-14.2578 -3.5,-25.2071 -10.44,-32.8477 C 7588.37,3.80078 7578.1,0 7564.51,0 c -13.59,0 -23.88,3.80078 -30.83,11.4414 -6.97,7.6406 -10.45,18.5899 -10.45,32.8477 V 178.422 h 27.69"
         style="fill:#09a54d;fill-opacity:1;fill-rule:nonzero;stroke:none"
         id="path200" />
      <path
         d="m 7683.29,53.3398 18.89,125.0822 h 38.49 V 2.26172 h -26.16 V 128.59 L 7695.38,2.26172 H 7669.2 L 7648.57,126.832 V 2.26172 h -24.16 V 178.422 h 38.49 l 20.39,-125.0822"
         style="fill:#09a54d;fill-opacity:1;fill-rule:nonzero;stroke:none"
         id="path202" />
      <path
         d="m 7799.81,178.422 h 27.68 V 2.26172 h -27.68 V 178.422"
         style="fill:#09a54d;fill-opacity:1;fill-rule:nonzero;stroke:none"
         id="path204" />
      <path
         d="m 7873.02,42.7695 c 0,-6.3789 1.3,-10.8593 3.91,-13.4609 2.6,-2.6094 6.08,-3.9102 10.44,-3.9102 4.36,0 7.84,1.3008 10.44,3.9102 2.61,2.6016 3.91,7.082 3.91,13.4609 V 137.91 c 0,6.36 -1.3,10.852 -3.91,13.461 -2.6,2.578 -6.08,3.879 -10.44,3.879 -4.36,0 -7.84,-1.301 -10.44,-3.879 -2.61,-2.609 -3.91,-7.101 -3.91,-13.461 z m -27.68,93.3595 c 0,14.262 3.6,25.203 10.83,32.851 7.21,7.641 17.61,11.442 31.2,11.442 13.59,0 23.99,-3.801 31.2,-11.442 7.21,-7.648 10.83,-18.589 10.83,-32.851 V 44.5313 c 0,-14.2696 -3.62,-25.211 -10.83,-32.8321 -7.21,-7.64061 -17.61,-11.457012 -31.2,-11.457012 -13.59,0 -23.99,3.816402 -31.2,11.457012 -7.23,7.6211 -10.83,18.5625 -10.83,32.8321 v 91.5977"
         style="fill:#09a54d;fill-opacity:1;fill-rule:nonzero;stroke:none"
         id="path206" />
      <path
         d="M 7971.93,129.852 V 2.26172 h -24.92 V 178.422 h 34.74 L 8010.17,72.9688 V 178.422 h 24.66 V 2.26172 h -28.42 L 7971.93,129.852"
         style="fill:#09a54d;fill-opacity:1;fill-rule:nonzero;stroke:none"
         id="path208" />
      <path
         d="m 8085.68,178.422 h 85.56 v -25.16 H 8142.3 V 2.26172 h -27.68 V 153.262 h -28.94 v 25.16"
         style="fill:#09a54d;fill-opacity:1;fill-rule:nonzero;stroke:none"
         id="path210" />
      <path
         d="m 8210.99,104.172 h 38 V 79 h -38 V 27.4219 h 47.81 V 2.26172 h -75.49 V 178.422 h 75.49 v -25.16 h -47.81 v -49.09"
         style="fill:#09a54d;fill-opacity:1;fill-rule:nonzero;stroke:none"
         id="path212" />
      <path
         d="M 8356.18,67.9297 V 44.5313 c 0,-14.2696 -3.48,-25.211 -10.45,-32.8321 -6.97,-7.64061 -17.24,-11.457012 -30.83,-11.457012 -13.59,0 -23.86,3.816402 -30.83,11.457012 -6.94,7.6211 -10.44,18.5625 -10.44,32.8321 v 91.5977 c 0,14.262 3.5,25.203 10.44,32.851 6.97,7.641 17.24,11.442 30.83,11.442 13.59,0 23.86,-3.801 30.83,-11.442 6.97,-7.648 10.45,-18.589 10.45,-32.851 V 119.02 h -26.17 v 18.89 c 0,6.36 -1.3,10.852 -3.9,13.461 -2.61,2.578 -6.08,3.879 -10.45,3.879 -4.36,0 -7.83,-1.301 -10.44,-3.879 -2.61,-2.609 -3.91,-7.101 -3.91,-13.461 V 42.7695 c 0,-6.3789 1.3,-10.8086 3.91,-13.3281 2.61,-2.5195 6.08,-3.7812 10.44,-3.7812 4.37,0 7.84,1.2617 10.45,3.7812 2.6,2.5195 3.9,6.9492 3.9,13.3281 v 25.1602 h 26.17"
         style="fill:#09a54d;fill-opacity:1;fill-rule:nonzero;stroke:none"
         id="path214" />
      <path
         d="m 8400.73,2.26172 h -27.69 V 178.422 h 27.69 V 102.91 h 31.46 v 75.512 h 28.18 V 2.26172 h -28.18 V 77.75 h -31.46 V 2.26172"
         style="fill:#09a54d;fill-opacity:1;fill-rule:nonzero;stroke:none"
         id="path216" />
      <path
         d="M 8505.16,129.852 V 2.26172 h -24.93 V 178.422 h 34.74 L 8543.39,72.9688 V 178.422 h 24.66 V 2.26172 h -28.42 L 8505.16,129.852"
         style="fill:#09a54d;fill-opacity:1;fill-rule:nonzero;stroke:none"
         id="path218" />
      <path
         d="m 8613.36,42.7695 c 0,-6.3789 1.31,-10.8593 3.91,-13.4609 2.61,-2.6094 6.08,-3.9102 10.44,-3.9102 4.37,0 7.84,1.3008 10.45,3.9102 2.6,2.6016 3.91,7.082 3.91,13.4609 V 137.91 c 0,6.36 -1.31,10.852 -3.91,13.461 -2.61,2.578 -6.08,3.879 -10.45,3.879 -4.36,0 -7.83,-1.301 -10.44,-3.879 -2.6,-2.609 -3.91,-7.101 -3.91,-13.461 z m -27.68,93.3595 c 0,14.262 3.61,25.203 10.84,32.851 7.2,7.641 17.6,11.442 31.19,11.442 13.6,0 24,-3.801 31.2,-11.442 7.21,-7.648 10.84,-18.589 10.84,-32.851 V 44.5313 c 0,-14.2696 -3.63,-25.211 -10.84,-32.8321 -7.2,-7.64061 -17.6,-11.457012 -31.2,-11.457012 -13.59,0 -23.99,3.816402 -31.19,11.457012 -7.23,7.6211 -10.84,18.5625 -10.84,32.8321 v 91.5977"
         style="fill:#09a54d;fill-opacity:1;fill-rule:nonzero;stroke:none"
         id="path220" />
      <path
         d="m 8687.61,178.422 h 27.69 V 27.4219 h 45.55 V 2.26172 h -73.24 V 178.422"
         style="fill:#09a54d;fill-opacity:1;fill-rule:nonzero;stroke:none"
         id="path222" />
      <path
         d="m 8798.32,42.7695 c 0,-6.3789 1.3,-10.8593 3.91,-13.4609 2.6,-2.6094 6.08,-3.9102 10.44,-3.9102 4.36,0 7.84,1.3008 10.44,3.9102 2.61,2.6016 3.91,7.082 3.91,13.4609 V 137.91 c 0,6.36 -1.3,10.852 -3.91,13.461 -2.6,2.578 -6.08,3.879 -10.44,3.879 -4.36,0 -7.84,-1.301 -10.44,-3.879 -2.61,-2.609 -3.91,-7.101 -3.91,-13.461 z m -27.68,93.3595 c 0,14.262 3.6,25.203 10.83,32.851 7.21,7.641 17.61,11.442 31.2,11.442 13.59,0 23.99,-3.801 31.2,-11.442 7.21,-7.648 10.83,-18.589 10.83,-32.851 V 44.5313 c 0,-14.2696 -3.62,-25.211 -10.83,-32.8321 -7.21,-7.64061 -17.61,-11.457012 -31.2,-11.457012 -13.59,0 -23.99,3.816402 -31.2,11.457012 -7.23,7.6211 -10.83,18.5625 -10.83,32.8321 v 91.5977"
         style="fill:#09a54d;fill-opacity:1;fill-rule:nonzero;stroke:none"
         id="path224" />
      <path
         d="m 8914.08,100.391 h 38.76 V 44.5313 c 0,-14.2696 -3.48,-25.211 -10.45,-32.8321 -6.97,-7.64061 -17.24,-11.457012 -30.83,-11.457012 -13.59,0 -23.86,3.816402 -30.83,11.457012 -6.94,7.6211 -10.44,18.5625 -10.44,32.8321 v 91.5977 c 0,14.262 3.5,25.203 10.44,32.851 6.97,7.641 17.24,11.442 30.83,11.442 13.59,0 23.86,-3.801 30.83,-11.442 6.97,-7.648 10.45,-18.589 10.45,-32.851 V 119.02 h -26.17 v 18.89 c 0,6.36 -1.3,10.852 -3.9,13.461 -2.61,2.578 -6.08,3.879 -10.45,3.879 -4.36,0 -7.83,-1.301 -10.44,-3.879 -2.61,-2.609 -3.91,-7.101 -3.91,-13.461 V 42.7695 c 0,-6.3789 1.3,-10.8086 3.91,-13.3281 2.61,-2.5195 6.08,-3.7812 10.44,-3.7812 4.37,0 7.84,1.2617 10.45,3.7812 2.6,2.5195 3.9,6.9492 3.9,13.3281 v 32.461 h -12.59 v 25.1605"
         style="fill:#09a54d;fill-opacity:1;fill-rule:nonzero;stroke:none"
         id="path226" />
      <path
         d="m 8970.7,178.422 h 27.69 V 2.26172 H 8970.7 V 178.422"
         style="fill:#09a54d;fill-opacity:1;fill-rule:nonzero;stroke:none"
         id="path228" />
      <path
         d="m 9046.19,104.172 h 38 V 79 h -38 V 27.4219 H 9094 V 2.26172 h -75.49 V 178.422 H 9094 v -25.16 h -47.81 v -49.09"
         style="fill:#09a54d;fill-opacity:1;fill-rule:nonzero;stroke:none"
         id="path230" />
      <path
         d="m 9107.59,136.129 c 0,14.262 3.41,25.203 10.21,32.851 6.79,7.641 16.97,11.442 30.56,11.442 13.6,0 23.78,-3.801 30.57,-11.442 6.8,-7.648 10.21,-18.589 10.21,-32.851 v -5.539 h -26.19 v 7.32 c 0,6.36 -1.21,10.852 -3.64,13.461 -2.43,2.578 -5.82,3.879 -10.19,3.879 -4.36,0 -7.77,-1.301 -10.2,-3.879 -2.43,-2.609 -3.65,-7.101 -3.65,-13.461 0,-6.058 1.35,-11.379 4.04,-15.98 2.67,-4.629 6.04,-8.989 10.05,-13.09 4.04,-4.129 8.36,-8.231 12.96,-12.34 4.63,-4.1211 8.95,-8.5898 12.97,-13.4609 4.03,-4.8789 7.38,-10.418 10.07,-16.6094 2.67,-6.2109 4.02,-13.5 4.02,-21.8984 0,-14.2696 -3.48,-25.211 -10.45,-32.8321 -6.94,-7.64061 -17.23,-11.457012 -30.8,-11.457012 -13.6,0 -23.89,3.816402 -30.83,11.457012 -6.97,7.6211 -10.45,18.5625 -10.45,32.8321 v 10.8281 h 26.17 V 42.7695 c 0,-6.3789 1.3,-10.8086 3.9,-13.3281 2.59,-2.5195 6.08,-3.7812 10.45,-3.7812 4.36,0 7.83,1.2617 10.44,3.7812 2.58,2.5195 3.89,6.9492 3.89,13.3281 0,6.0391 -1.35,11.3789 -4.02,15.9805 -2.69,4.6211 -6.04,8.9688 -10.08,13.0898 -4.01,4.1016 -8.33,8.211 -12.96,12.3321 -4.6,4.1094 -8.92,8.5976 -12.96,13.457 -4.01,4.8711 -7.38,10.4021 -10.05,16.6091 -2.69,6.211 -4.04,13.512 -4.04,21.891"
         style="fill:#09a54d;fill-opacity:1;fill-rule:nonzero;stroke:none"
         id="path232" />
      <path
         d="M 0,2.26172 H 148.656 V 645.898 H 0 V 2.26172"
         style="fill:#323590;fill-opacity:1;fill-rule:nonzero;stroke:none"
         id="path234" />
    </g>
  </g>
</svg>
