<?xml version="1.0" encoding="UTF-8" standalone="no"?>
<!-- Created with Inkscape (http://www.inkscape.org/) -->

<svg
   xmlns:dc="http://purl.org/dc/elements/1.1/"
   xmlns:cc="http://creativecommons.org/ns#"
   xmlns:rdf="http://www.w3.org/1999/02/22-rdf-syntax-ns#"
   xmlns:svg="http://www.w3.org/2000/svg"
   xmlns="http://www.w3.org/2000/svg"
   xmlns:sodipodi="http://sodipodi.sourceforge.net/DTD/sodipodi-0.dtd"
   xmlns:inkscape="http://www.inkscape.org/namespaces/inkscape"
   version="1.1"
   id="svg2"
   width="1600"
   height="1600"
   viewBox="0 0 1600 1600"
   sodipodi:docname="LowCostVehicle.svg"
   inkscape:version="0.92.4 (5da689c313, 2019-01-14)">
  <metadata
     id="metadata5586">
    <rdf:RDF>
      <cc:Work
         rdf:about="">
        <dc:format>image/svg+xml</dc:format>
        <dc:type
           rdf:resource="http://purl.org/dc/dcmitype/StillImage" />
        <dc:title></dc:title>
      </cc:Work>
    </rdf:RDF>
  </metadata>
  <defs
     id="defs6" />
  <sodipodi:namedview
     id="namedview4"
     pagecolor="#ffffff"
     bordercolor="#000000"
     borderopacity="0.25"
     inkscape:showpageshadow="2"
     inkscape:pageopacity="0.0"
     inkscape:pagecheckerboard="0"
     inkscape:deskcolor="#d1d1d1"
     showgrid="false"
     inkscape:zoom="0.1475"
     inkscape:cx="-328.81356"
     inkscape:cy="800"
     inkscape:window-width="1360"
     inkscape:window-height="705"
     inkscape:window-x="-8"
     inkscape:window-y="-8"
     inkscape:window-maximized="1"
     inkscape:current-layer="g10" />
  <g
     id="g8"
     inkscape:groupmode="layer"
     inkscape:label="ink_ext_XXXXXX"
     transform="matrix(1.3333333,0,0,-1.3333333,0,1600)">
    <g
       id="g10"
       transform="scale(0.1)">
      <path
         d="M 0,0 H 12000 V 12000 H 0 Z"
         style="fill:#ffffff;fill-opacity:0;fill-rule:nonzero;stroke:none"
         id="path12" />
      <path
         d="m 4305.74,7368.01 c 77.25,-305.68 386.59,-956.75 764.64,-453.75 185.5,246.83 -156.29,343.18 -234.57,590.65 -88.5,279.77 364.63,703.09 609.81,817.64 245.18,114.55 1249.84,92.03 1351.77,-213.15 82.92,-248.34 -191.41,-705.6 109.69,-862.3 445.57,-231.97 632.49,646.53 335.96,1086.74 -210.54,312.5 -1046.41,479.87 -1046.41,479.87 234.62,163.53 513.22,208.23 794.04,195.7 842.63,-37.62 1099.34,-445.97 1212.69,-171.59 243.97,590.23 -708.98,762.41 -1270.17,624.5 -392.56,-96.48 -709.08,-277.2 -709.08,-277.2 157.57,169.2 349.61,265.85 541.48,355.38 634.93,296.05 1031.32,-45.13 1122.65,206.12 159.23,438.08 -485.05,527.98 -1259.44,68.57 -367.15,-217.78 -629.83,-505.11 -629.83,-505.11 75.69,179.27 210.18,326.34 333.5,427.26 405.86,332.16 893.81,306.36 701.94,632.36 -142.06,241.4 -666.09,-79.8 -1011.41,-447.18 -296.22,-315.12 -452.96,-685.79 -452.96,-685.79 l -882.9,368.45 -415.36,-1216.2 369.52,-110.77 c -251.46,-298.09 -445.81,-473.95 -335.56,-910.2"
         style="fill:#f7d4b0;fill-opacity:1;fill-rule:nonzero;stroke:none"
         id="path14" />
      <path
         d="m 4917.16,9665.54 -532.44,-1413.07 -434.53,155.98 568.27,1407.58 398.7,-150.49"
         style="fill:#f9fafa;fill-opacity:1;fill-rule:nonzero;stroke:none"
         id="path16" />
      <path
         d="M 4681.01,9812.54 4108.12,8220.7 0,9356.48 V 11716.7 L 4681.01,9812.54"
         style="fill:#392e22;fill-opacity:1;fill-rule:nonzero;stroke:none"
         id="path18" />
      <path
         d="m 4003.55,9646.16 c 17.19,-80.17 96.14,-131.24 176.32,-114 80.18,17.18 131.22,96.1 114.03,176.27 -17.19,80.18 -96.13,131.23 -176.29,114.04 -80.18,-17.15 -131.25,-96.1 -114.06,-176.31"
         style="fill:#f9fafa;fill-opacity:1;fill-rule:nonzero;stroke:none"
         id="path20" />
      <path
         d="m 3417.09,9868.63 c 17.21,-80.19 96.12,-131.23 176.3,-114.05 80.19,17.17 131.26,96.15 114.08,176.27 -17.19,80.25 -96.15,131.35 -176.31,114.05 -80.19,-17.2 -131.25,-96.09 -114.07,-176.27"
         style="fill:#f9fafa;fill-opacity:1;fill-rule:nonzero;stroke:none"
         id="path22" />
      <path
         d="m 2818.13,10106 c 17.21,-80.2 96.13,-131.22 176.33,-114.06 80.16,17.16 131.22,96.16 114.05,176.26 -17.18,80.2 -96.13,131.3 -176.33,114.1 -80.17,-17.2 -131.22,-96.1 -114.05,-176.3"
         style="fill:#f9fafa;fill-opacity:1;fill-rule:nonzero;stroke:none"
         id="path24" />
      <path
         d="M 6482.26,7538.37 C 5803.07,7945.94 4721.34,7077.96 5296.9,6371.8 6170.27,5300.22 7607.33,6841.93 6482.26,7538.37"
         style="fill:#b0883d;fill-opacity:1;fill-rule:nonzero;stroke:none"
         id="path26" />
      <path
         d="M 6482.26,7628.67 C 5803.07,8036.24 4721.34,7168.25 5296.9,6462.11 6170.27,5390.54 7607.33,6932.23 6482.26,7628.67"
         style="fill:#f0b64c;fill-opacity:1;fill-rule:nonzero;stroke:none"
         id="path28" />
      <path
         d="m 6166.47,6853.13 c 0,17.36 -3.89,33.33 -11.64,47.9 -7.74,14.56 -17.82,27.44 -30.22,38.6 -12.4,11.16 -26.51,20 -42.32,26.52 -15.82,6.5 -31.49,10.06 -46.97,10.69 0,-27.91 -0.16,-50.22 -0.46,-66.97 -0.32,-16.73 -0.63,-31.15 -0.95,-43.25 -0.29,-12.1 -0.78,-23.57 -1.38,-34.42 -0.63,-10.86 -1.09,-24.49 -1.4,-40.93 -0.31,-16.42 -0.62,-37.19 -0.92,-62.31 -0.34,-25.11 -0.46,-57.83 -0.46,-98.12 20.44,8.67 39.05,20.31 55.8,34.88 16.75,14.55 31.14,31.16 43.23,49.75 12.11,18.62 21.4,38.61 27.91,60 6.52,21.4 9.78,42.93 9.78,64.64 z m -197.19,285.54 c -11.78,-12.4 -22.79,-25.28 -33.01,-38.59 -10.23,-13.35 -16.91,-27.15 -20,-41.39 8.67,-3.12 17.34,-5.59 26.04,-7.45 8.68,-1.86 17.36,-3.71 26.03,-5.58 1.25,19.86 2.48,36.74 3.74,50.69 1.23,13.95 2.46,30.55 3.71,49.77 -3.09,-3.11 -5.28,-5.59 -6.51,-7.45 z m 65.12,312.51 c 1.23,-21.08 2.62,-39.05 4.18,-53.93 1.53,-14.88 2.77,-28.83 3.72,-41.87 0.93,-13 1.69,-26.03 2.32,-39.05 0.6,-13.04 0.94,-28.54 0.94,-46.51 8.67,3.09 17.33,5.41 26.04,6.97 8.67,1.54 17.05,2.33 25.12,2.33 33.48,0 63.84,-13.65 91.12,-40.92 v 0.92 c 5.61,-5.58 8.39,-13.01 8.39,-22.31 0,-7.44 -2.65,-13.83 -7.89,-19.07 -5.29,-5.28 -11.33,-7.91 -18.15,-7.91 -8.71,0 -16.44,3.39 -23.27,10.22 h 0.96 c -16.76,14.88 -34.75,22.34 -53.98,22.34 -16.12,0 -33.15,-5.58 -51.16,-16.76 0,-21.71 -0.29,-40.44 -0.9,-56.26 -0.63,-15.81 -1.25,-30.24 -1.87,-43.24 -0.62,-13.03 -1.39,-25.43 -2.32,-37.21 -0.93,-11.79 -1.7,-24.17 -2.33,-37.21 29.13,-3.72 55.66,-10.55 79.51,-20.45 23.89,-9.93 44.21,-22.97 60.94,-39.08 16.73,-16.13 29.75,-35.65 39.05,-58.59 9.32,-22.94 13.97,-49.31 13.97,-79.05 0,-29.76 -4.98,-58.44 -14.89,-86.04 -9.93,-27.6 -23.59,-53.01 -40.92,-76.28 -17.38,-23.24 -38.13,-43.57 -62.31,-60.92 -24.19,-17.37 -50.55,-30.69 -79.07,-39.99 0.61,-14.88 1.24,-27.13 1.87,-36.74 0.59,-9.61 1.39,-19.98 2.32,-31.17 0.93,-11.15 2.47,-24.93 4.64,-41.37 2.17,-16.43 5.13,-38.9 8.83,-67.44 0,-6.18 0.63,-11.78 1.88,-16.74 1.23,-4.95 1.86,-10.53 1.86,-16.74 0,-6.19 -3.41,-10.99 -10.26,-14.42 -6.79,-3.4 -12.7,-5.13 -17.66,-5.13 -4.97,0 -9.92,1.88 -14.87,5.6 -4.97,3.72 -7.76,9.93 -8.36,18.6 -3.72,28.54 -6.68,52.4 -8.84,71.61 -2.19,19.22 -4.05,35.8 -5.59,49.77 -1.56,13.95 -2.96,26.37 -4.19,37.21 -1.26,10.84 -2.79,22.47 -4.65,34.86 -3.12,-0.61 -6.82,-1.08 -11.16,-1.37 -4.35,-0.33 -8.38,-0.47 -12.1,-0.47 -22.31,0 -41.7,3.86 -58.11,11.61 -16.45,7.77 -30.86,17.51 -43.27,29.31 -12.41,11.77 -23.41,24.95 -33.02,39.52 -9.61,14.57 -18.44,28.98 -26.5,43.25 v -0.93 c -3.73,6.2 -7.29,12.24 -10.69,18.15 -3.43,5.88 -6.68,11.3 -9.76,16.26 v 1.86 c -3.12,3.09 -5.91,6.99 -8.37,11.63 -2.5,4.65 -3.72,8.51 -3.72,11.63 0,5.59 2.15,10.38 6.51,14.42 4.33,4.03 9.6,6.05 15.79,6.05 5.6,0 10.7,-1.72 15.36,-5.13 4.65,-3.41 8.98,-7.59 13.02,-12.54 4.03,-4.98 7.75,-10.25 11.16,-15.82 3.4,-5.58 6.67,-10.24 9.77,-13.96 9.29,-13.02 18.28,-25.27 26.97,-36.72 8.67,-11.49 18.44,-21.4 29.3,-29.77 10.85,-8.38 22.79,-15.2 35.81,-20.47 13.04,-5.28 28.51,-8.22 46.51,-8.84 -1.26,13.64 -2.04,28.68 -2.33,45.12 -0.32,16.42 -0.64,37.98 -0.94,64.64 -0.3,26.66 -0.47,60.59 -0.47,101.84 0,41.25 0,93.49 0,156.72 h -0.92 c -7.44,1.25 -18.13,3.09 -32.09,5.58 -13.96,2.48 -27.76,5.75 -41.38,9.77 -13.64,4.03 -25.58,8.98 -35.82,14.89 -10.22,5.89 -15.35,13.17 -15.35,21.85 0,15.5 3.57,31.16 10.71,46.98 7.11,15.81 16.27,31.14 27.43,46.02 11.17,14.9 23.4,28.98 36.74,42.34 13.33,13.31 26.18,25.88 38.6,37.67 h -0.94 l 22.34,22.31 c 0,22.31 0,41.24 0,56.74 0,15.48 -0.16,30.23 -0.47,44.18 -0.34,13.94 -0.63,28.68 -0.94,44.19 -0.3,15.49 -0.79,34.72 -1.39,57.64 v 6.52 c 0,10.53 3.24,18.45 9.76,23.73 6.52,5.26 13.8,7.9 21.85,7.9 6.2,0 11.8,-1.7 16.76,-5.11 4.95,-3.42 8.67,-9.16 11.17,-17.22"
         style="fill:#b0883d;fill-opacity:1;fill-rule:nonzero;stroke:none"
         id="path30" />
      <path
         d="m 6447.85,7577.89 c -521.21,301.78 -1372.47,-183.31 -1234.65,-817.85 64.6,-297.41 371.16,-546.38 662.73,-597.8 257.34,-45.41 516.65,62.37 700.73,239.46 158.11,152.03 259.8,366.9 254.21,587.93 -6.37,254.97 -176.32,457.48 -383.02,588.26 -22.22,14.06 -42.63,-21.12 -20.54,-35.07 272.08,-172.14 429.07,-455.39 331.83,-775.66 -81.77,-269.18 -321.61,-482.39 -590.52,-552.69 -337.91,-88.38 -675.24,106.53 -849.96,393.14 -201.51,330.57 10.6,700.25 302.22,886.51 239.67,153.07 554.26,194.71 806.43,48.7 22.72,-13.16 43.18,21.96 20.54,35.07"
         style="fill:#b0883d;fill-opacity:1;fill-rule:nonzero;stroke:none"
         id="path32" />
      <path
         d="M 9619.54,1291.1 H 3233.23 c -162.12,0 -293.43,131.6 -293.43,293.4 0,162 131.31,293.6 293.43,293.6 h 6386.31 c 161.94,0 293.32,-131.6 293.32,-293.6 0,-161.8 -131.38,-293.4 -293.32,-293.4"
         style="fill:#2a4a5e;fill-opacity:1;fill-rule:nonzero;stroke:none"
         id="path34" />
      <path
         d="m 9481.42,3087.73 c 0,55.4 44.93,100.31 100.33,100.31 55.4,0 100.33,-44.91 100.33,-100.31 v -443.5 c 0,-55.4 -44.93,-100.32 -100.33,-100.32 -55.4,0 -100.33,44.92 -100.33,100.32 v 443.5"
         style="fill:#f9fafa;fill-opacity:1;fill-rule:nonzero;stroke:none"
         id="path36" />
      <path
         d="m 3757.14,3678.75 458.06,1548.93 h 3136.1 l 633.58,-1548.93 h 1104.71 c 271.82,0 492.2,-220.36 492.2,-492.23 l 2.42,-986.59 H 3264.92 v 986.59 c 0,271.87 220.38,492.23 492.22,492.23"
         style="fill:#c24b39;fill-opacity:1;fill-rule:nonzero;stroke:none"
         id="path38" />
      <path
         d="M 9581.75,3188.04 H 3264.96 l -0.04,-1.52 v -986.59 h 6319.29 l -2.42,986.59 -0.04,1.52"
         style="fill:#b24434;fill-opacity:1;fill-rule:nonzero;stroke:none"
         id="path40" />
      <path
         d="m 7771.39,2199.9 c 0,-393.6 319.13,-712.7 712.75,-712.7 393.62,0 712.76,319.1 712.76,712.7 0,393.63 -319.14,712.78 -712.76,712.78 -393.62,0 -712.75,-319.15 -712.75,-712.78"
         style="fill:#392e22;fill-opacity:1;fill-rule:nonzero;stroke:none"
         id="path42" />
      <path
         d="m 3695.48,2199.9 c 0,-393.6 319.13,-712.7 712.76,-712.7 393.62,0 712.74,319.1 712.74,712.7 0,393.63 -319.12,712.78 -712.74,712.78 -393.63,0 -712.76,-319.15 -712.76,-712.78"
         style="fill:#392e22;fill-opacity:1;fill-rule:nonzero;stroke:none"
         id="path44" />
      <path
         d="m 8151.52,2199.9 c 0,-183.68 148.93,-332.6 332.62,-332.6 183.69,0 332.62,148.92 332.62,332.6 0,183.71 -148.93,332.64 -332.62,332.64 -183.69,0 -332.62,-148.93 -332.62,-332.64"
         style="fill:#f9fafa;fill-opacity:1;fill-rule:nonzero;stroke:none"
         id="path46" />
      <path
         d="m 4075.62,2199.9 c 0,-183.68 148.95,-332.6 332.62,-332.6 183.66,0 332.61,148.92 332.61,332.6 0,183.71 -148.95,332.64 -332.61,332.64 -183.67,0 -332.62,-148.93 -332.62,-332.64"
         style="fill:#f9fafa;fill-opacity:1;fill-rule:nonzero;stroke:none"
         id="path48" />
      <path
         d="m 4186.49,5132.64 h 3199.47 c 69.98,0 126.71,56.72 126.71,126.69 0,69.98 -56.73,126.72 -126.71,126.72 H 4186.49 c -69.97,0 -126.72,-56.74 -126.72,-126.72 0,-69.97 56.75,-126.69 126.72,-126.69"
         style="fill:#f9fafa;fill-opacity:1;fill-rule:nonzero;stroke:none"
         id="path50" />
      <path
         d="m 3267.9,2326.63 h 262.54 c 61.69,429.27 431.73,760.27 877.8,760.27 446.05,0 816.1,-331 877.79,-760.27 h 2320.32 c 61.68,429.27 431.73,760.27 877.79,760.27 446.06,0 816.11,-331 877.79,-760.27 h 222.84 c 69.97,0 126.7,-56.75 126.7,-126.73 0,-69.97 -56.73,-126.69 -126.7,-126.69 h -340.36 c -69.98,0 -126.71,56.72 -126.71,126.69 0,349.37 -284.24,633.58 -633.56,633.58 -349.35,0 -633.56,-284.21 -633.56,-633.58 0,-69.97 -56.73,-126.69 -126.72,-126.69 H 5168.51 c -69.98,0 -126.72,56.72 -126.72,126.69 0,349.37 -284.2,633.58 -633.55,633.58 -349.36,0 -633.57,-284.21 -633.57,-633.58 0,-69.97 -56.73,-126.69 -126.7,-126.69 H 3267.9 c -69.99,0 -126.72,56.72 -126.72,126.69 0,69.98 56.73,126.73 126.72,126.73"
         style="fill:#f9fafa;fill-opacity:1;fill-rule:nonzero;stroke:none"
         id="path52" />
      <path
         d="m 4149.77,3678.72 c -87.11,0 -138.19,68.35 -113.47,151.89 l 302.6,1023.41 c 24.72,83.56 116.2,151.89 203.32,151.89 h 614.47 c 87.11,0 165.17,-70.97 173.45,-157.67 l 96.59,-1011.83 c 8.29,-86.73 -56.21,-157.69 -143.33,-157.69 H 4149.77"
         style="fill:#f9fafa;fill-opacity:1;fill-rule:nonzero;stroke:none"
         id="path54" />
      <path
         d="m 5902.43,3423.15 c 0,-85.65 69.45,-155.11 155.1,-155.11 85.66,0 155.11,69.46 155.11,155.11 0,85.68 -69.45,155.11 -155.11,155.11 -85.65,0 -155.1,-69.43 -155.1,-155.11"
         style="fill:#b24434;fill-opacity:1;fill-rule:nonzero;stroke:none"
         id="path56" />
      <path
         d="m 3588.73,3423.15 c 0,-85.65 69.45,-155.11 155.11,-155.11 85.66,0 155.11,69.46 155.11,155.11 0,85.68 -69.45,155.11 -155.11,155.11 -85.66,0 -155.11,-69.43 -155.11,-155.11"
         style="fill:#b24434;fill-opacity:1;fill-rule:nonzero;stroke:none"
         id="path58" />
      <path
         d="m 7589.88,3678.72 c 87.12,0 131.43,65.95 98.41,146.6 l -422.93,1034.01 c -32.96,80.62 -131.2,146.58 -218.33,146.58 H 5718.98 c -87.13,0 -151.62,-70.97 -143.33,-157.67 l 96.58,-1011.83 c 8.29,-86.73 86.34,-157.69 173.46,-157.69 h 1744.19"
         style="fill:#f9fafa;fill-opacity:1;fill-rule:nonzero;stroke:none"
         id="path60" />
      <path
         d="m 5837.77,3423.15 c 0,-29.5 23.94,-53.44 53.44,-53.44 h 332.63 c 29.5,0 53.45,23.94 53.45,53.44 0,29.53 -23.95,53.47 -53.45,53.47 h -332.63 c -29.5,0 -53.44,-23.94 -53.44,-53.47"
         style="fill:#f9fafa;fill-opacity:1;fill-rule:nonzero;stroke:none"
         id="path62" />
      <path
         d="m 3164.59,3086.21 c 0,55.4 44.93,100.31 100.33,100.31 55.41,0 100.32,-44.91 100.32,-100.31 v -443.5 c 0,-55.4 -44.91,-100.33 -100.32,-100.33 -55.4,0 -100.33,44.93 -100.33,100.33 v 443.5"
         style="fill:#f9fafa;fill-opacity:1;fill-rule:nonzero;stroke:none"
         id="path64" />
      <path
         d="m 7688.29,3825.32 -422.93,1034.01 c -24.37,59.63 -84.48,111.15 -149.37,133.99 L 5806.42,3683.73 c 12.74,-3.15 25.87,-5.01 39.27,-5.01 h 1744.19 c 87.12,0 131.43,65.95 98.41,146.6"
         style="fill:#f5f5f5;fill-opacity:1;fill-rule:nonzero;stroke:none"
         id="path66" />
      <path
         d="m 5330.14,4848.24 c -1.64,17.21 -6.13,33.75 -12.79,49.28 L 4105.29,3685.46 c 13.43,-4.37 28.32,-6.74 44.48,-6.74 H 5283.4 c 87.12,0 151.62,70.96 143.33,157.69 l -96.59,1011.83"
         style="fill:#f5f5f5;fill-opacity:1;fill-rule:nonzero;stroke:none"
         id="path68" />
    </g>
  </g>
</svg>
