<?xml version="1.0" encoding="UTF-8" standalone="no"?>
<!-- Created with Inkscape (http://www.inkscape.org/) -->

<svg
   version="1.1"
   id="svg2"
   width="4266.6665"
   height="4266.6665"
   viewBox="0 0 4266.6665 4266.6665"
   sodipodi:docname="vecteezy_zero-emission-logo-template-illustration-suitable-for_5412359.eps"
   xmlns:inkscape="http://www.inkscape.org/namespaces/inkscape"
   xmlns:sodipodi="http://sodipodi.sourceforge.net/DTD/sodipodi-0.dtd"
   xmlns="http://www.w3.org/2000/svg"
   xmlns:svg="http://www.w3.org/2000/svg">
  <defs
     id="defs6" />
  <sodipodi:namedview
     id="namedview4"
     pagecolor="#ffffff"
     bordercolor="#000000"
     borderopacity="0.25"
     inkscape:showpageshadow="2"
     inkscape:pageopacity="0.0"
     inkscape:pagecheckerboard="0"
     inkscape:deskcolor="#d1d1d1" />
  <g
     id="g8"
     inkscape:groupmode="layer"
     inkscape:label="ink_ext_XXXXXX"
     transform="matrix(1.3333333,0,0,-1.3333333,0,4266.6667)">
    <g
       id="g10"
       transform="scale(0.1)">
      <path
         d="M 16255.3,25919.4 C 12164.5,26024.7 8428.66,23607.6 6848.18,19833 5831.89,17405.7 5821.43,14674.2 6819.1,12239.3 c 997.67,-2434.93 2921.75,-4373.81 5349,-5390.1 2427.2,-1016.29 5158.7,-1026.75 7593.6,-29.08 2435,997.67 4373.8,2921.75 5390.1,5348.98 1016.3,2427.2 1026.8,5158.7 29.1,7593.7 -997.7,2434.9 -2921.7,4373.7 -5349,5390 -1134.4,475 -2347.2,735 -3576.6,766.6 z m -77.6,-3017.1 c 855.4,-22 1699.3,-202.9 2488.6,-533.4 1688.9,-707.1 3027.7,-2056.2 3721.9,-3750.4 694.2,-1694.3 686.9,-3594.9 -20.3,-5283.8 -707.1,-1688.9 -2056.2,-3027.7 -3750.5,-3721.85 -1694.2,-694.19 -3594.8,-686.91 -5283.7,20.24 -1688.9,707.11 -3027.7,2056.21 -3721.87,3750.51 -694.19,1694.2 -686.91,3594.8 20.24,5283.7 1099.73,2626.5 3699.13,4308.3 6545.63,4235"
         style="fill:#008000;fill-opacity:1;fill-rule:nonzero;stroke:none"
         id="path12" />
      <path
         d="M 16274.8,26678.9 C 11871.4,26792.2 7848.73,24189.6 6147.46,20126.4 3869.91,14687 6435.18,8426.09 11874.6,6148.54 17314.1,3871 23575,6436.27 25852.5,11875.7 c 2277.6,5439.5 -287.7,11700.4 -5727.1,13977.9 -1221.3,511.4 -2527,791.2 -3850.6,825.3 z m -9.1,-356.4 c 1279.3,-33 2541.5,-303.5 3722,-797.7 5261.7,-2203.2 7739.1,-8249.7 5536,-13511.4 C 23320.6,6751.69 17274.1,4274.28 12012.3,6477.41 6750.6,8680.54 4273.2,14727 6476.33,19988.8 8121.24,23917.3 12008.1,26432 16265.7,26322.5"
         style="fill:#008000;fill-opacity:1;fill-rule:nonzero;stroke:none"
         id="path14" />
      <path
         d="m 16167.3,22502.6 c -2681,69 -5130.7,-1515.9 -6166.5,-3989.7 -1386.45,-3311.3 176,-7124.7 3487.3,-8511.1 3311.3,-1386.5 7124.6,176 8511.1,3487.3 1386.5,3311.2 -176,7124.6 -3487.3,8511 -743.6,311.4 -1538.7,481.7 -2344.6,502.5 z m -9.1,-356.4 c 761.7,-19.6 1513.2,-180.7 2216,-474.9 3133.6,-1312.1 4608.2,-4911 3296.1,-8044.6 -1312,-3133.5 -4911,-4608.11 -8044.5,-3296.1 -3133.6,1312.1 -4608.16,4911 -3296.1,8044.6 979.5,2339.2 3293.4,3836.2 5828.5,3771"
         style="fill:#008000;fill-opacity:1;fill-rule:nonzero;stroke:none"
         id="path16" />
      <path
         d="m 15329.2,19517.6 c -1924.8,0 -3481.5,-1556.7 -3481.5,-3481.5 0,-1924.8 1556.7,-3481.4 3481.5,-3481.4 h 1720.3 c 125.3,0 226.9,101.6 226.9,226.9 v 6509.2 c 0,125.3 -101.6,226.8 -226.9,226.8 z m 0,-453.7 h 1493.4 v -6055.5 h -1493.4 c -1681.3,0 -3027.8,1346.4 -3027.8,3027.7 0,1681.3 1346.5,3027.8 3027.8,3027.8"
         style="fill:#008000;fill-opacity:1;fill-rule:nonzero;stroke:none"
         id="path18" />
      <path
         d="m 17043.7,18511.2 c -81.8,1.2 -157.9,-41.8 -199.1,-112.5 -41.3,-70.7 -41.3,-158.1 0,-228.7 41.2,-70.7 117.3,-113.7 199.1,-112.6 h 2312.7 c 240.4,0 426.8,-186.4 426.8,-426.8 0,-240.3 -186.4,-426.8 -426.8,-426.8 h -2312.7 c -81.8,1.2 -157.9,-41.8 -199.1,-112.5 -41.3,-70.6 -41.3,-158 0,-228.7 41.2,-70.7 117.3,-113.7 199.1,-112.5 h 2312.7 c 483.9,0 880.6,396.6 880.6,880.5 0,483.9 -396.7,880.6 -880.6,880.6 h -2312.7"
         style="fill:#008000;fill-opacity:1;fill-rule:nonzero;stroke:none"
         id="path20" />
      <path
         d="m 17043.7,15322.2 c -81.8,1.1 -157.9,-41.9 -199.1,-112.5 -41.3,-70.7 -41.3,-158.1 0,-228.8 41.2,-70.7 117.3,-113.7 199.1,-112.5 h 2312.7 c 240.4,0 426.8,-186.4 426.8,-426.7 0,-240.4 -186.4,-426.8 -426.8,-426.8 h -2312.7 c -81.8,1.1 -157.9,-41.9 -199.1,-112.5 -41.3,-70.7 -41.3,-158.1 0,-228.8 41.2,-70.7 117.3,-113.7 199.1,-112.5 h 2312.7 c 483.9,0 880.6,396.7 880.6,880.6 0,483.9 -396.7,880.5 -880.6,880.5 h -2312.7"
         style="fill:#008000;fill-opacity:1;fill-rule:nonzero;stroke:none"
         id="path22" />
      <path
         d="m 9671.01,16263 v -453.8 H 12125.1 V 16263 H 9671.01"
         style="fill:#008000;fill-opacity:1;fill-rule:nonzero;stroke:none"
         id="path24" />
      <path
         d="m 13663.4,15634.8 985.7,2152.7 1298.4,4.1 -766.8,-1300.1 834.4,1.6 -2448.6,-2516.6 729.5,1677.6 -632.6,-19.3"
         style="fill:#008000;fill-opacity:1;fill-rule:nonzero;stroke:none"
         id="path26" />
      <path
         d="m 15597.9,25152.6 -265.1,-1653.7 346.7,-12.8 181.5,1174 330.9,-1193 163.2,-6 408.9,1155.5 102.2,-1174.4 341.7,-12.6 -151.2,1669.1 -411.1,15.1 -348.2,-984.2 -274.4,1007.3 z m -789,-86.9 -919.8,-171.8 305.2,-1634.1 919.7,171.7 -60.4,323.6 -567.6,-105.9 -63.1,338.5 567.5,105.9 -59.5,318.6 -567.6,-105.9 -61.5,329.8 567.5,106 z m 3002.1,-114.3 -364.3,-1621.9 348.3,-78.3 364.4,1622 z m 1117.1,-314.2 c -67,0 -131,-13.7 -191.9,-40.6 -121.9,-53.6 -207.9,-149.8 -258.4,-288.6 -22.7,-62.7 -31.2,-129.2 -25.3,-199.6 7,-69.9 25.3,-128.2 55,-174.9 30.1,-46 87.8,-104.6 173.2,-176 149.7,-124.4 209.7,-227.5 180,-309.2 -14.4,-39.7 -46.8,-71 -97.3,-94 -50.3,-22.1 -95.7,-25.8 -136.2,-11.2 -86.4,31.4 -160.6,116.3 -222.7,254.7 l -315.1,-177.9 c 102.6,-209.7 234.8,-343.9 396.6,-402.6 147.6,-53.6 293.4,-50.4 437.3,9.6 144.7,59.7 241.3,156.6 290,290.7 26.5,73 33.3,147.3 20.3,222.9 -12.1,75.4 -38,140 -77.7,193.9 -39.4,54.7 -102.3,122.5 -188.8,203.3 -119.2,107 -164.8,199.1 -136.9,276 14.1,38.9 39.7,67.3 76.7,85.3 37.4,18.8 74.7,21.3 112,7.8 48.4,-17.6 115.9,-78.9 202.6,-184 l 292.8,153.6 c -77.9,151.4 -203.4,258.4 -376.3,321.2 -73,26.5 -143,39.7 -209.9,39.6 z m -6819.7,-455.6 c -136.2,-0.4 -272.5,-36.5 -408.9,-108.1 -197.2,-103.6 -330.7,-264.3 -400.4,-482.1 -69.2,-216.6 -46.8,-433.5 67.5,-651 115,-218.9 278.9,-363.1 491.7,-432.4 213.6,-69 427.6,-47.2 642.1,65.5 214.4,112.6 354.8,277.4 421.1,494.3 66.2,216.9 42.6,433.3 -70.8,649.3 -114.2,217.4 -280,359.7 -497.3,426.7 -81.7,25.4 -163.3,38 -245,37.8 z m 8101.5,-137.4 c -32.6,-1.4 -65,-6.3 -97.3,-14.5 -128.9,-33.1 -229.6,-114 -302,-242.8 -32.7,-58.1 -51.8,-122.4 -57.5,-192.8 -4.5,-70 4.1,-130.5 25.8,-181.4 22.1,-50.2 69.5,-117.6 142.1,-202 127.4,-147.1 169.8,-258.6 127.3,-334.4 -20.7,-36.8 -57.9,-62.3 -111.5,-76.8 -53.2,-13.6 -98.5,-9.9 -136.1,11.2 -80.2,45.1 -139.6,140.9 -178.2,287.5 l -339.9,-124.1 c 67,-223.6 175.6,-377.5 325.7,-461.9 136.8,-76.9 281.2,-97.5 432.9,-61.8 152.5,35.3 263.7,115.2 333.6,239.5 38,67.7 56.8,139.9 56.4,216.6 0.3,76.4 -14.7,144.4 -45.1,204.1 -29.9,60.4 -81,137.5 -153.2,231.3 -100.1,125 -130.1,223.2 -90,294.6 20.3,36.1 50.1,59.9 89.6,71.6 39.9,12.4 77.2,8.9 111.8,-10.5 44.8,-25.2 101.4,-96.8 169.8,-214.6 l 314,103.9 c -52.2,162 -158.5,288.1 -318.9,378.2 -101.6,57.1 -201.3,83.5 -299.3,79.1 z m -8112.2,-202 c 45,-1.5 89.6,-10.5 133.7,-27.1 118.3,-43.6 213.3,-133.9 285.2,-270.6 73,-139 93.8,-271.1 62.3,-396.3 -31.1,-124.1 -108.3,-218.6 -231.6,-283.3 -117.3,-61.7 -237,-69.7 -359.1,-24.2 -122.2,45.5 -217.6,133.7 -286.2,264.4 -72.7,138.3 -94.2,270.9 -64.7,398 29.6,127 106.6,221.9 231.1,284.4 77.8,39.1 154.2,57.3 229.3,54.7 z m 9212,-411.5 -993.1,-1333.1 286.3,-213.3 993.2,1333.1 z m -10871,-346 c -130.2,4.3 -258.5,-47.5 -385,-155.4 l -415.93,-355.2 1079.33,-1264.3 272.5,232.6 -417.6,489.2 30.8,26.3 745,-209.7 312,266.3 -803,225.1 c 56.5,117 71.6,224.8 45.2,323.3 -25.7,99 -66.2,180.9 -121.6,245.8 -97,113.6 -210.9,172.3 -341.7,176 z m -59.9,-359.5 c 50.9,-2 94.2,-23.8 129.7,-65.4 99.2,-116.2 77.8,-234.8 -64.1,-355.9 l -58.7,-50.2 -281.2,329.4 62.6,53.4 c 65.5,55.9 128.6,85.4 189.3,88.3 7.6,0.6 15.1,0.7 22.4,0.4 z m 11645.9,-173.7 c -210.2,-2.3 -399.1,-82.5 -566.7,-240.4 -179.9,-169.6 -274.8,-366.3 -284.4,-589.9 -9,-224.2 69.5,-424.4 235.6,-600.8 166.2,-176.3 362.6,-267.2 589.3,-272.7 226.8,-5.6 428.9,75.3 606.4,242.6 178.8,168.5 271.3,366.3 277.4,593.6 6.8,227.9 -74.3,431.5 -243.4,610.9 -152.8,162.2 -343.4,247.6 -571.9,256.1 -14.2,0.6 -28.3,0.8 -42.3,0.6 z m 48.1,-350 c 130.3,5.7 242.3,-43 336,-146.1 93.6,-103.1 135,-217.2 124.2,-342.3 -10.3,-125.7 -71.6,-241.5 -184.1,-347.4 -114.2,-107.7 -235.9,-163.2 -365,-166.5 -127.9,-3.4 -239.6,45.6 -335.1,147 -90.9,96.4 -130.8,209.6 -119.8,339.4 11,129.9 70.3,245.5 177.8,346.8 113.7,107 235.7,163.4 366,169.1 z m -12852.52,-65.4 -589.75,-726.3 1290.6,-1047.9 589.77,726.3 -255.6,207.5 -363.93,-448.2 -267.33,217.1 363.93,448.2 -251.63,204.3 -363.94,-448.2 -260.44,211.5 363.88,448.2 z m 14394.92,-1045.9 -1452.8,-808.2 173.6,-312 940.4,523.2 -569.3,-1190.4 168.7,-303.1 1452.7,808.1 -170.5,306.5 -933.8,-519.4 562.1,1187.7 z m -15332.22,-169.5 -574.61,-1059.6 299.36,-162.3 312.67,576.5 802.14,-1293.5 609.05,1122.9 -302.72,164.2 -344.64,-635.5 z m 14469.42,-8646.6 -197.4,-289.9 883.2,-601.4 -1313.6,-30.7 -198.2,-290.9 1374.1,-935.7 201,295.1 -889.5,605.8 1319.2,25.3 195.3,286.7 z m -13460.72,-48.4 -283.92,-188.1 362.29,-546.7 -1518.68,-101.2 705.66,-1064.8 287.09,190.2 -399.33,602.6 1512.67,103.3 z m 806.02,-1157.2 -1212.05,-1137.62 640.33,-682.24 240.05,225.31 -395.15,420.91 251.13,235.64 395.09,-420.87 236.3,221.82 -395.07,420.95 244.57,229.6 395.2,-420.9 240,225.3 z m 11695.5,-429.9 c -210.8,-3.3 -400.5,-83.9 -569.2,-241.9 -162.6,-152.3 -248.6,-342.6 -257.9,-571.03 -9.2,-227.22 70.1,-430.47 238,-609.76 169,-180.51 365.4,-275.94 589,-286.26 224.2,-9.74 424.7,68.2 601.5,233.79 176.9,165.58 268.3,361.76 274.6,588.48 6.2,226.72 -74,429.08 -240.8,607.18 -167.8,179.3 -365.4,272.3 -592.7,279.1 -14.3,0.5 -28.4,0.7 -42.5,0.4 z m -34.1,-347.8 c 15.3,0.3 30.7,-0.4 46.3,-1.8 125.7,-10.7 241.3,-72.4 346.8,-185.1 107.4,-114.61 162.5,-236.45 165.4,-365.54 3,-127.89 -46.3,-239.43 -148,-334.63 -96.7,-90.58 -210,-130.19 -339.8,-118.76 -129.8,11.42 -245.2,71.02 -346.2,178.84 -106.7,113.97 -162.7,236.17 -168,366.53 -5.3,130.36 43.8,242.16 147.2,335.56 90.5,81.6 189.2,123.3 296.3,124.9 z m -10862.4,-56.3 -1006.41,-1323.14 285.11,-216.95 389.4,511.95 32.3,-24.57 -46.8,-772.5 326.5,-248.35 49.5,832.52 c 126.4,-30.4 234.9,-22.28 325.5,24.38 91.3,46.14 162.8,103.13 214.4,170.98 90.5,118.91 123.6,242.71 99.5,371.35 -23.4,128.12 -101.4,242.5 -233.7,343.17 z m 107.8,-454.29 65.5,-49.82 c 68.6,-52.12 110.7,-107.55 126.5,-166.23 17,-58.53 6.6,-112.61 -31.2,-162.32 -92.5,-121.6 -213,-125.97 -361.5,-13.04 l -61.4,46.79 z m 9433.6,-46.53 -296.1,-199.4 928.4,-1378.97 296.2,199.4 z m -642.6,-465.41 c -102.4,-1.49 -204.9,-28.33 -307.4,-80.52 -138.4,-70.5 -229.5,-168.59 -273.5,-294.25 -44,-125.65 -32.5,-254.29 34.6,-385.9 30.2,-59.42 73.1,-110.97 128.5,-154.72 55.8,-42.61 110.9,-69.03 165.4,-79.19 54,-9.41 136.3,-7.27 246.8,6.39 193.1,24.47 309.4,-2.04 348.8,-79.51 19.2,-37.61 19.9,-82.68 2.2,-135.28 -18.1,-51.86 -46.4,-87.58 -84.7,-107.11 -82,-41.77 -194.7,-38.06 -338.1,11.07 l -85.2,-351.72 c 223.2,-68.17 411.6,-63.15 565,15.01 139.9,71.25 237.1,179.9 291.5,326.01 55.1,146.5 50.3,283.31 -14.5,410.41 -35.2,69.2 -84.9,124.88 -149,167.06 -63.4,42.56 -128.3,67.78 -194.8,75.59 -66.9,8.55 -159.4,8.82 -277.5,0.74 -159.5,-14.03 -257.9,15.42 -295,88.38 -18.8,36.85 -22.1,74.98 -10,114.32 11.8,40.11 35.4,69.11 70.8,87.11 45.8,23.38 136.8,30.9 272.7,22.48 l 87.7,318.86 c -61.5,17.38 -122.9,25.64 -184.3,24.76 z m -7530,-54.32 c -91.7,0.52 -184.8,-15.25 -279.6,-47.35 -215.3,-72.99 -376.5,-220.02 -483.5,-441.1 -107.8,-222.61 -126.3,-440.11 -55.6,-652.49 71.4,-212.75 216.1,-371.9 434.2,-477.45 218,-105.54 433.9,-120.49 647.8,-44.88 213.8,75.61 373.9,223.19 480.1,442.75 107.1,221.09 123,438.91 47.7,653.5 -74.9,215.35 -223.2,376.71 -445.1,484.09 -112.8,54.61 -228.1,82.26 -346,82.93 z m 31.6,-337.22 c 61,-2.79 122.6,-19.99 184.7,-51.47 124.3,-62.96 203.6,-154.76 238,-275.5 35.2,-121.1 19.1,-251.18 -48.2,-390.21 -68.4,-141.31 -162.3,-236.53 -281.7,-285.64 -118.3,-48.7 -240.1,-42.7 -365.5,17.98 -119.3,57.74 -196.9,149.18 -232.9,274.43 -35.9,125.25 -21.7,254.34 42.6,387.3 68.1,140.55 162,236.73 281.7,288.48 59.9,25.87 120.3,37.43 181.3,34.63 z m 6365.2,-104.77 c -82.4,3.26 -167.2,-9.55 -254.6,-38.36 -147.5,-48.65 -252.6,-131.72 -315.1,-249.24 -62.6,-117.51 -70.7,-246.38 -24.5,-386.66 20.9,-63.32 55.5,-120.84 103.6,-172.51 48.7,-50.6 99.2,-85.06 151.4,-103.37 52,-17.52 133.7,-27.92 245,-31.21 194.5,-5.16 305.4,-48.99 332.6,-131.55 13.2,-40.08 7.1,-84.78 -18.4,-134.08 -25.8,-48.5 -59.1,-79.52 -100,-92.99 -87.3,-28.83 -198.2,-8.01 -332.5,62.35 l -137.6,-334.69 c 210.3,-101.29 397.2,-124.96 560.7,-71.03 149.1,49.18 261.7,141.82 337.6,277.97 76.8,136.42 92.8,272.34 48.1,407.81 -24.3,73.75 -64.9,136.33 -121.9,187.76 -56.1,51.7 -116.5,86.45 -181,104.27 -64.8,18.62 -156.2,32.93 -274.1,42.92 -159.9,10.38 -252.6,54.49 -278.3,132.24 -12.9,39.28 -10.4,77.41 7.6,114.46 17.7,37.84 45.4,62.97 83.1,75.39 48.9,16.13 139.9,9.74 273,-19.24 l 135.1,301.83 c -77.4,35.35 -157.4,54.66 -239.8,57.93 z m -4401.1,-261.89 -281.8,-1638.33 922.1,-158.58 55.8,324.44 -568.9,97.86 58.3,339.38 569,-97.87 55,319.44 -569,97.87 56.8,330.64 569,-97.87 55.8,324.44 z m 3390.3,-10.7 -350.2,-69.07 321.6,-1630.98 350.3,69.06 z m -719.6,-154.98 -411.4,-11.01 -284.6,-1004.45 -338,987.74 -425.3,-11.46 -159.2,-1667.26 346.8,9.31 106.3,1183.29 406.3,-1169.49 163.3,4.37 334.3,1179.24 177,-1165.51 341.7,9.12 -257.2,1656.11"
         style="fill:#ffffff;fill-opacity:1;fill-rule:nonzero;stroke:none"
         id="path28" />
      <path
         d="m 8173.63,15188.9 -526.79,376.7 -527.24,-376.1 195.54,617.4 -520.66,385.2 647.64,4.8 205.45,614.2 204.73,-614.4 647.63,-5.6 -521.11,-384.6 194.81,-617.6"
         style="fill:#ffffff;fill-opacity:1;fill-rule:nonzero;stroke:none"
         id="path30" />
      <path
         d="m 25004.6,15188.9 -526.8,376.7 -527.3,-376.1 195.6,617.4 -520.7,385.2 647.6,4.8 205.5,614.2 204.7,-614.4 647.7,-5.6 -521.1,-384.6 194.8,-617.6"
         style="fill:#ffffff;fill-opacity:1;fill-rule:nonzero;stroke:none"
         id="path32" />
    </g>
  </g>
</svg>
