<?xml version="1.0" encoding="UTF-8" standalone="no"?>
<!-- Created with Inkscape (http://www.inkscape.org/) -->

<svg
   xmlns:dc="http://purl.org/dc/elements/1.1/"
   xmlns:cc="http://creativecommons.org/ns#"
   xmlns:rdf="http://www.w3.org/1999/02/22-rdf-syntax-ns#"
   xmlns:svg="http://www.w3.org/2000/svg"
   xmlns="http://www.w3.org/2000/svg"
   xmlns:sodipodi="http://sodipodi.sourceforge.net/DTD/sodipodi-0.dtd"
   xmlns:inkscape="http://www.inkscape.org/namespaces/inkscape"
   version="1.1"
   id="svg2"
   width="1000"
   height="666.66669"
   viewBox="0 0 1000 666.66669"
   sodipodi:docname="ZeroEmission.svg"
   inkscape:version="0.92.4 (5da689c313, 2019-01-14)">
  <metadata
     id="metadata4971">
    <rdf:RDF>
      <cc:Work
         rdf:about="">
        <dc:format>image/svg+xml</dc:format>
        <dc:type
           rdf:resource="http://purl.org/dc/dcmitype/StillImage" />
        <dc:title></dc:title>
      </cc:Work>
    </rdf:RDF>
  </metadata>
  <defs
     id="defs6" />
  <sodipodi:namedview
     id="namedview4"
     pagecolor="#ffffff"
     bordercolor="#000000"
     borderopacity="0.25"
     inkscape:showpageshadow="2"
     inkscape:pageopacity="0.0"
     inkscape:pagecheckerboard="0"
     inkscape:deskcolor="#d1d1d1"
     showgrid="false"
     inkscape:zoom="0.34"
     inkscape:cx="10.294118"
     inkscape:cy="333.33334"
     inkscape:window-width="1360"
     inkscape:window-height="705"
     inkscape:window-x="-8"
     inkscape:window-y="-8"
     inkscape:window-maximized="1"
     inkscape:current-layer="g10" />
  <g
     id="g8"
     inkscape:groupmode="layer"
     inkscape:label="ink_ext_XXXXXX"
     transform="matrix(1.3333333,0,0,-1.3333333,0,666.66667)">
    <g
       id="g10"
       transform="scale(0.1)">
      <path
         d="M 0,0 H 7500 V 5000 H 0 Z"
         style="fill:#ffffff;fill-opacity:1;fill-rule:nonzero;stroke:none"
         id="path12" />
      <path
         d="m 1971.68,4182.16 c 0,166.7 -135.13,301.84 -301.83,301.84 -166.7,0 -301.84,-135.14 -301.84,-301.84 0,-166.7 135.14,-301.84 301.84,-301.84 166.7,0 301.83,135.14 301.83,301.84"
         style="fill:#bfeaf4;fill-opacity:1;fill-rule:nonzero;stroke:none"
         id="path14" />
      <path
         d="m 6730.44,3272.13 c 0,184.87 -149.88,334.74 -334.75,334.74 -184.86,0 -334.74,-149.87 -334.74,-334.74 0,-184.87 149.88,-334.74 334.74,-334.74 184.87,0 334.75,149.87 334.75,334.74"
         style="fill:#bfeaf4;fill-opacity:1;fill-rule:nonzero;stroke:none"
         id="path16" />
      <path
         d="m 4212.84,4483.35 c 0,100.56 -181.23,182.08 -404.8,182.08 -223.55,0 -404.78,-81.52 -404.78,-182.08 0,-100.55 181.23,-182.07 404.78,-182.07 223.57,0 404.8,81.52 404.8,182.07"
         style="fill:#bfeaf4;fill-opacity:1;fill-rule:nonzero;stroke:none"
         id="path18" />
      <path
         d="m 1262.37,561.039 h 4870.8 c 401.49,215.223 466.19,638.761 466.19,1126.171 0,368.71 -156.3,700.89 -406.22,933.98 -135.17,126.07 -209.12,304.44 -208.07,489.28 0.01,4.08 0.02,8.16 0.01,12.25 -2.64,700.31 -576.07,1271.8 -1276.38,1272.15 -153.75,0.08 -301.16,-27.02 -437.69,-76.75 -294.19,-107.15 -618.09,-109.01 -907.11,11.4 -153.19,63.82 -321.48,98.66 -498.03,97.66 -683.1,-3.89 -1260.92,-577.59 -1269.51,-1260.64 -0.06,-4.72 -0.1,-9.43 -0.1,-14.13 -0.49,-282.56 -115.29,-553.84 -320.43,-748.18 -246.12,-233.15 -399.475,-563.24 -398.92,-929.16 0.551,-359.47 147.9,-682.84 385.46,-914.031"
         style="fill:#bfeaf4;fill-opacity:1;fill-rule:nonzero;stroke:none"
         id="path20" />
      <path
         d="m 1473.4,2794.74 c 0,92.63 -75.08,167.71 -167.71,167.71 -92.62,0 -167.71,-75.08 -167.71,-167.71 0,-92.62 75.09,-167.71 167.71,-167.71 92.63,0 167.71,75.09 167.71,167.71"
         style="fill:#bfeaf4;fill-opacity:1;fill-rule:nonzero;stroke:none"
         id="path22" />
      <path
         d="m 6548.68,2685.84 c 0,63.07 -51.13,114.2 -114.2,114.2 -63.07,0 -114.2,-51.13 -114.2,-114.2 0,-63.07 51.13,-114.2 114.2,-114.2 63.07,0 114.2,51.13 114.2,114.2"
         style="fill:#9ddfe5;fill-opacity:1;fill-rule:nonzero;stroke:none"
         id="path24" />
      <path
         d="m 943.352,2953.57 c 0,47.98 -38.907,86.89 -86.895,86.89 -47.988,0 -86.891,-38.91 -86.891,-86.89 0,-47.99 38.903,-86.9 86.891,-86.9 47.988,0 86.895,38.91 86.895,86.9"
         style="fill:#9ddfe5;fill-opacity:1;fill-rule:nonzero;stroke:none"
         id="path26" />
      <path
         d="m 2146.52,3749.49 c 0,-244.52 -198.23,-442.75 -442.75,-442.75 -244.53,0 -442.75,198.23 -442.75,442.75 0,244.53 198.22,442.75 442.75,442.75 244.52,0 442.75,-198.22 442.75,-442.75"
         style="fill:#fab60a;fill-opacity:1;fill-rule:nonzero;stroke:none"
         id="path28" />
      <path
         d="m 1703.77,4192.24 c -35.05,0 -69.11,-4.2 -101.81,-11.89 195.43,-46.01 340.95,-221.38 340.95,-430.86 0,-209.47 -145.52,-384.84 -340.95,-430.85 32.7,-7.7 66.76,-11.9 101.81,-11.9 244.52,0 442.75,198.23 442.75,442.75 0,244.53 -198.23,442.75 -442.75,442.75"
         style="fill:#f57c14;fill-opacity:1;fill-rule:nonzero;stroke:none"
         id="path30" />
      <path
         d="m 2059.93,3341.79 c -19.81,0 -38.9,-3.03 -56.86,-8.63 -22.73,-7.1 -47.17,2.92 -59.02,23.57 -38.3,66.76 -110.26,111.75 -192.76,111.75 -10.08,0 -20,-0.68 -29.72,-1.97 -20.6,-2.76 -40.36,7.27 -50.66,25.32 -29.8,52.3 -86.05,87.56 -150.55,87.56 -95.65,0 -173.19,-77.54 -173.19,-173.2 0,-8.31 0.62,-16.47 1.75,-24.46 l -1.75,0.04 c -48.98,0 -93.2,-20.34 -124.69,-53.02 -16.3,-16.91 -42.66,-19.67 -62.49,-7.09 -26.79,16.97 -58.54,26.8 -92.59,26.8 -57.2,0 -107.896,-27.73 -139.42,-70.48 -24.57,-33.32 0.118,-80.51 41.516,-80.51 H 2160.26 c 45.41,0 67.8,54.59 36.03,87.02 -34.65,35.36 -82.94,57.3 -136.36,57.3"
         style="fill:#ffffff;fill-opacity:1;fill-rule:nonzero;stroke:none"
         id="path32" />
      <path
         d="m 6101.89,3342.19 c -18.53,0 -36.4,-2.83 -53.22,-8.08 -21.27,-6.64 -44.14,2.73 -55.24,22.06 -35.85,62.49 -103.2,104.59 -180.42,104.59 -9.43,0 -18.71,-0.63 -27.81,-1.84 -19.29,-2.59 -37.78,6.8 -47.41,23.71 -27.9,48.94 -80.55,81.94 -140.91,81.94 -89.53,0 -162.11,-72.57 -162.11,-162.1 0,-7.78 0.59,-15.42 1.64,-22.9 l -1.64,0.04 c -45.84,0 -87.22,-19.04 -116.71,-49.63 -15.25,-15.82 -39.93,-18.4 -58.48,-6.63 -25.07,15.89 -54.79,25.08 -86.66,25.08 -53.54,0 -100.99,-25.95 -130.49,-65.96 -23,-31.19 0.11,-75.35 38.86,-75.35 h 1114.52 c 42.49,0 63.45,51.08 33.71,81.44 -32.43,33.09 -77.63,53.63 -127.63,53.63"
         style="fill:#ffffff;fill-opacity:1;fill-rule:nonzero;stroke:none"
         id="path34" />
      <path
         d="m 3086.74,4445.7 c -12.07,0 -23.7,-1.84 -34.64,-5.26 -13.85,-4.32 -28.74,1.78 -35.96,14.36 -23.35,40.68 -67.19,68.09 -117.46,68.09 -6.14,0 -12.19,-0.41 -18.11,-1.2 -12.56,-1.68 -24.6,4.44 -30.87,15.44 -18.16,31.86 -52.44,53.35 -91.73,53.35 -58.29,0 -105.54,-47.25 -105.54,-105.54 0,-5.06 0.38,-10.04 1.07,-14.91 l -1.07,0.03 c -29.85,0 -56.79,-12.39 -75.98,-32.31 -9.94,-10.3 -26,-11.98 -38.08,-4.32 -16.32,10.34 -35.67,16.33 -56.42,16.33 -34.85,0 -65.75,-16.9 -84.96,-42.94 -14.97,-20.31 0.08,-49.06 25.3,-49.06 h 725.6 c 27.66,0 41.31,33.26 21.95,53.03 -21.12,21.54 -50.54,34.91 -83.1,34.91"
         style="fill:#ffffff;fill-opacity:1;fill-rule:nonzero;stroke:none"
         id="path36" />
      <path
         d="m 5684.07,4212.92 c -14.37,0 -28.22,-2.2 -41.24,-6.26 -16.49,-5.14 -34.21,2.12 -42.8,17.1 -27.79,48.42 -79.98,81.04 -139.81,81.04 -7.3,0 -14.5,-0.49 -21.55,-1.43 -14.94,-2 -29.27,5.27 -36.74,18.37 -21.61,37.92 -62.4,63.49 -109.18,63.49 -69.37,0 -125.61,-56.23 -125.61,-125.6 0,-6.02 0.45,-11.95 1.27,-17.74 l -1.27,0.03 c -35.52,0 -67.59,-14.75 -90.43,-38.46 -11.82,-12.26 -30.94,-14.26 -45.33,-5.14 -19.42,12.31 -42.45,19.44 -67.15,19.44 -41.48,0 -78.25,-20.11 -101.11,-51.11 -17.82,-24.17 0.09,-58.39 30.11,-58.39 h 863.6 c 32.93,0 49.17,39.58 26.13,63.1 -25.13,25.65 -60.15,41.56 -98.89,41.56"
         style="fill:#ffffff;fill-opacity:1;fill-rule:nonzero;stroke:none"
         id="path38" />
      <path
         d="m 2170.5,2191.35 0.72,-0.11 c 16.03,-2.48 297.67,-51.62 767.94,-518.83 1.96,-1.95 5.13,-1.94 7.07,0.02 1.95,1.96 1.94,5.12 -0.02,7.07 -486.59,483.48 -773.19,521.62 -774.41,521.76 -2.74,0.36 -5.25,-1.57 -5.61,-4.3 -0.36,-2.74 1.57,-5.25 4.31,-5.61"
         style="fill:#15233c;fill-opacity:1;fill-rule:nonzero;stroke:none"
         id="path40" />
      <path
         d="m 2899.04,1719.78 c 0,0 -295.72,95.86 -312.65,18.52 -13.06,-59.66 292.9,-36.96 312.65,-18.52"
         style="fill:#58ab34;fill-opacity:1;fill-rule:nonzero;stroke:none"
         id="path42" />
      <path
         d="m 2785.96,1823.12 c 0,0 -269.82,87.46 -285.26,16.9 -11.91,-54.44 267.24,-33.71 285.26,-16.9"
         style="fill:#7acc42;fill-opacity:1;fill-rule:nonzero;stroke:none"
         id="path44" />
      <path
         d="m 2658.54,1930.6 c 0,0 -241.39,78.24 -255.21,15.12 -10.66,-48.7 239.09,-30.17 255.21,-15.12"
         style="fill:#58ab34;fill-opacity:1;fill-rule:nonzero;stroke:none"
         id="path46" />
      <path
         d="m 2521.59,2031.42 c 0,0 -226.02,66.76 -237.31,7.81 -8.71,-45.46 222.7,-22.17 237.31,-7.81"
         style="fill:#58ab34;fill-opacity:1;fill-rule:nonzero;stroke:none"
         id="path48" />
      <path
         d="m 2390.45,2110.54 c 0,0 -204.3,45.73 -210.8,-7.19 -5.01,-40.81 198.71,-6.41 210.8,7.19"
         style="fill:#7acc42;fill-opacity:1;fill-rule:nonzero;stroke:none"
         id="path50" />
      <path
         d="m 2273.09,2167.9 c 0,0 -182.24,103.04 -203.82,54.28 -16.65,-37.6 188.3,-63.79 203.82,-54.28"
         style="fill:#58ab34;fill-opacity:1;fill-rule:nonzero;stroke:none"
         id="path52" />
      <path
         d="m 2896.65,1719.56 c 0,0 -137.26,278.93 -63.14,306.77 57.17,21.48 78.55,-284.58 63.14,-306.77"
         style="fill:#7acc42;fill-opacity:1;fill-rule:nonzero;stroke:none"
         id="path54" />
      <path
         d="m 2782.76,1826.63 c 0,0 -149.25,241.19 -84.4,273.01 50.02,24.55 96.44,-251.5 84.4,-273.01"
         style="fill:#58ab34;fill-opacity:1;fill-rule:nonzero;stroke:none"
         id="path56" />
      <path
         d="m 2657.37,1931.32 c 0,0 -163.31,194.22 -110.01,230.78 41.11,28.2 117.9,-210.17 110.01,-230.78"
         style="fill:#7acc42;fill-opacity:1;fill-rule:nonzero;stroke:none"
         id="path58" />
      <path
         d="m 2520.34,2031.09 c 0,0 -155.57,177.03 -106.82,212.05 37.59,27.01 113.72,-192.76 106.82,-212.05"
         style="fill:#7acc42;fill-opacity:1;fill-rule:nonzero;stroke:none"
         id="path60" />
      <path
         d="m 2385.14,2110.91 c 0,0 -148.36,147.71 -107.22,181.63 31.73,26.17 112.2,-164.13 107.22,-181.63"
         style="fill:#58ab34;fill-opacity:1;fill-rule:nonzero;stroke:none"
         id="path62" />
      <path
         d="m 2068.53,1677.32 1.05,0.09 c 2.24,0.19 8.04,0.57 17.43,0.57 71.68,-0.01 352.44,-22.09 850.92,-323.59 2.36,-1.43 5.44,-0.67 6.87,1.69 1.43,2.36 0.67,5.44 -1.69,6.87 -499.69,302.24 -782.33,325.03 -856.1,325.03 -12.87,0 -19.38,-0.7 -19.56,-0.72 -2.74,-0.29 -4.73,-2.76 -4.43,-5.51 0.3,-2.74 2.76,-4.73 5.51,-4.43"
         style="fill:#15233c;fill-opacity:1;fill-rule:nonzero;stroke:none"
         id="path64" />
      <path
         d="m 2887.77,1390.96 c 0,0 -310,23.37 -308.2,-55.78 1.39,-61.05 293.35,33.21 308.2,55.78"
         style="fill:#58ab34;fill-opacity:1;fill-rule:nonzero;stroke:none"
         id="path66" />
      <path
         d="m 2753.49,1464.71 c 0,0 -282.83,21.32 -281.18,-50.9 1.26,-55.7 267.64,30.3 281.18,50.9"
         style="fill:#7acc42;fill-opacity:1;fill-rule:nonzero;stroke:none"
         id="path68" />
      <path
         d="m 2604.31,1539.09 c 0,0 -253.03,19.07 -251.56,-45.54 1.13,-49.83 239.44,27.11 251.56,45.54"
         style="fill:#58ab34;fill-opacity:1;fill-rule:nonzero;stroke:none"
         id="path70" />
      <path
         d="m 2447.44,1604.74 c 0,0 -235.39,11.56 -232.45,-48.4 2.26,-46.24 221.65,31 232.45,48.4"
         style="fill:#58ab34;fill-opacity:1;fill-rule:nonzero;stroke:none"
         id="path72" />
      <path
         d="m 2301.33,1650.69 c 0,0 -209.31,-3.77 -203.15,-56.73 4.76,-40.85 194.61,40.66 203.15,56.73"
         style="fill:#7acc42;fill-opacity:1;fill-rule:nonzero;stroke:none"
         id="path74" />
      <path
         d="m 2173.76,1678.73 c 0,0 -201.41,57.14 -210.88,4.67 -7.3,-40.47 198.04,-17.57 210.88,-4.67"
         style="fill:#58ab34;fill-opacity:1;fill-rule:nonzero;stroke:none"
         id="path76" />
      <path
         d="m 2885.49,1390.18 c 0,0 -199.19,238.67 -133.74,283.21 50.49,34.36 143.49,-258 133.74,-283.21"
         style="fill:#7acc42;fill-opacity:1;fill-rule:nonzero;stroke:none"
         id="path78" />
      <path
         d="m 2749.56,1467.36 c 0,0 -201.94,199.16 -146.43,245.38 42.81,35.65 153.05,-221.63 146.43,-245.38"
         style="fill:#58ab34;fill-opacity:1;fill-rule:nonzero;stroke:none"
         id="path80" />
      <path
         d="m 2603.01,1539.52 c 0,0 -204.52,150.19 -161.36,198.3 33.3,37.1 164.16,-176.43 161.36,-198.3"
         style="fill:#7acc42;fill-opacity:1;fill-rule:nonzero;stroke:none"
         id="path82" />
      <path
         d="m 2446.3,1604.13 c 0,0 -192.94,135.32 -153.84,180.86 30.17,35.12 156,-160.49 153.84,-180.86"
         style="fill:#7acc42;fill-opacity:1;fill-rule:nonzero;stroke:none"
         id="path84" />
      <path
         d="m 2296.09,1649.79 c 0,0 -179.02,108.54 -147.05,151.2 24.66,32.92 147.76,-133.01 147.05,-151.2"
         style="fill:#58ab34;fill-opacity:1;fill-rule:nonzero;stroke:none"
         id="path86" />
      <path
         d="m 2205.56,2743.17 0.67,-0.3 c 14.79,-6.63 273.41,-128.52 603.33,-703.51 1.37,-2.39 4.43,-3.22 6.82,-1.84 2.4,1.37 3.22,4.43 1.85,6.82 -341.36,594.99 -607.66,707.58 -608.79,708.04 -2.55,1.08 -5.48,-0.12 -6.55,-2.67 -1.07,-2.54 0.12,-5.47 2.67,-6.54"
         style="fill:#15233c;fill-opacity:1;fill-rule:nonzero;stroke:none"
         id="path88" />
      <path
         d="m 2783.4,2095.67 c 0,0 -259.83,170.67 -296.62,100.56 -28.38,-54.07 272.69,-113.12 296.62,-100.56"
         style="fill:#58ab34;fill-opacity:1;fill-rule:nonzero;stroke:none"
         id="path90" />
      <path
         d="m 2701.69,2225.25 c 0,0 -237.07,155.71 -270.63,91.75 -25.89,-49.35 248.79,-103.2 270.63,-91.75"
         style="fill:#7acc42;fill-opacity:1;fill-rule:nonzero;stroke:none"
         id="path92" />
      <path
         d="m 2607.24,2362.6 c 0,0 -212.1,139.32 -242.12,82.08 -23.17,-44.14 222.59,-92.33 242.12,-82.08"
         style="fill:#58ab34;fill-opacity:1;fill-rule:nonzero;stroke:none"
         id="path94" />
      <path
         d="m 2501.83,2496.06 c 0,0 -200.3,124.17 -226.78,70.31 -20.43,-41.54 208.9,-80.3 226.78,-70.31"
         style="fill:#58ab34;fill-opacity:1;fill-rule:nonzero;stroke:none"
         id="path96" />
      <path
         d="m 2396.3,2607.05 c 0,0 -184.93,98.15 -205.2,48.83 -15.63,-38.04 189.94,-58.74 205.2,-48.83"
         style="fill:#7acc42;fill-opacity:1;fill-rule:nonzero;stroke:none"
         id="path98" />
      <path
         d="m 2298.29,2693.41 c 0,0 -148.49,147.58 -182.2,106.27 -26,-31.87 164.72,-111.34 182.2,-106.27"
         style="fill:#58ab34;fill-opacity:1;fill-rule:nonzero;stroke:none"
         id="path100" />
      <path
         d="m 2781.03,2096.09 c 0,0 -58.58,305.3 20.27,312.55 60.81,5.59 0.47,-295.23 -20.27,-312.55"
         style="fill:#7acc42;fill-opacity:1;fill-rule:nonzero;stroke:none"
         id="path102" />
      <path
         d="m 2699.53,2229.47 c 0,0 -80.13,272.08 -9.18,285.61 54.73,10.44 26.48,-268.04 9.18,-285.61"
         style="fill:#58ab34;fill-opacity:1;fill-rule:nonzero;stroke:none"
         id="path104" />
      <path
         d="m 2606.3,2363.61 c 0,0 -106.11,230.5 -45.04,251.66 47.1,16.31 58.09,-233.88 45.04,-251.66"
         style="fill:#7acc42;fill-opacity:1;fill-rule:nonzero;stroke:none"
         id="path106" />
      <path
         d="m 2500.54,2496.07 c 0,0 -103.2,211.88 -46.92,232.76 43.4,16.1 58.68,-215.98 46.92,-232.76"
         style="fill:#7acc42;fill-opacity:1;fill-rule:nonzero;stroke:none"
         id="path108" />
      <path
         d="m 2391.28,2608.81 c 0,0 -104,181.69 -55.36,203.52 37.52,16.84 64.78,-187.96 55.36,-203.52"
         style="fill:#58ab34;fill-opacity:1;fill-rule:nonzero;stroke:none"
         id="path110" />
      <path
         d="m 5319.78,2203.05 c -1.17,-0.39 -262.37,-90.45 -626.44,-635.46 -1.54,-2.3 -0.92,-5.4 1.38,-6.94 2.3,-1.53 5.4,-0.91 6.93,1.38 181.58,271.8 337.23,429.79 447.32,519.78 55.05,44.99 98.7,72.98 128.53,89.7 14.91,8.37 26.36,13.91 34.05,17.35 3.84,1.72 6.75,2.91 8.67,3.67 0.97,0.38 1.68,0.65 2.15,0.82 l 0.65,0.24 c 2.61,0.89 4.01,3.74 3.11,6.35 -0.89,2.61 -3.74,4 -6.35,3.11"
         style="fill:#15233c;fill-opacity:1;fill-rule:nonzero;stroke:none"
         id="path112" />
      <path
         d="m 4730.05,1614.13 c 0,0 258.78,145.81 289.29,76.58 23.54,-53.39 -267.28,-90.11 -289.29,-76.58"
         style="fill:#58ab34;fill-opacity:1;fill-rule:nonzero;stroke:none"
         id="path114" />
      <path
         d="m 4816.37,1732.34 c 0,0 236.1,133.03 263.94,69.87 21.47,-48.72 -243.87,-82.21 -263.94,-69.87"
         style="fill:#7acc42;fill-opacity:1;fill-rule:nonzero;stroke:none"
         id="path116" />
      <path
         d="m 4915.33,1857.14 c 0,0 211.23,119.01 236.13,62.51 19.21,-43.59 -218.18,-73.56 -236.13,-62.51"
         style="fill:#58ab34;fill-opacity:1;fill-rule:nonzero;stroke:none"
         id="path118" />
      <path
         d="m 5024.48,1977.5 c 0,0 199,105.35 220.75,52.29 16.77,-40.94 -204.35,-62.98 -220.75,-52.29"
         style="fill:#58ab34;fill-opacity:1;fill-rule:nonzero;stroke:none"
         id="path120" />
      <path
         d="m 5132.29,2076.44 c 0,0 182.65,81.55 198.77,33.22 12.43,-37.28 -184.87,-43.66 -198.77,-33.22"
         style="fill:#7acc42;fill-opacity:1;fill-rule:nonzero;stroke:none"
         id="path122" />
      <path
         d="m 5231.32,2152.39 c 0,0 151.14,131.03 180.58,89.47 22.72,-32.07 -164.24,-95.43 -180.58,-89.47"
         style="fill:#58ab34;fill-opacity:1;fill-rule:nonzero;stroke:none"
         id="path124" />
      <path
         d="m 4732.35,1614.37 c 0,0 75.67,287.22 0.99,299.25 -57.61,9.28 -19.63,-281.39 -0.99,-299.25"
         style="fill:#7acc42;fill-opacity:1;fill-rule:nonzero;stroke:none"
         id="path126" />
      <path
         d="m 4818.71,1736.22 c 0,0 94.05,254.15 27.29,271.66 -51.49,13.5 -42.64,-253.79 -27.29,-271.66"
         style="fill:#58ab34;fill-opacity:1;fill-rule:nonzero;stroke:none"
         id="path128" />
      <path
         d="m 4916.29,1858.02 c 0,0 116.12,212.84 59.28,236.97 -43.84,18.61 -70.57,-219.16 -59.28,-236.97"
         style="fill:#7acc42;fill-opacity:1;fill-rule:nonzero;stroke:none"
         id="path130" />
      <path
         d="m 5025.71,1977.43 c 0,0 112.13,195.26 59.85,218.82 -40.33,18.17 -69.97,-202.06 -59.85,-218.82"
         style="fill:#7acc42;fill-opacity:1;fill-rule:nonzero;stroke:none"
         id="path132" />
      <path
         d="m 5137.18,2077.79 c 0,0 110.95,166.44 66,190.41 -34.68,18.5 -73.96,-174.96 -66,-190.41"
         style="fill:#58ab34;fill-opacity:1;fill-rule:nonzero;stroke:none"
         id="path134" />
      <path
         d="m 5571.93,2022.35 c -1.13,-0.49 -209.35,-94.95 -467.07,-571.83 -1.32,-2.43 -0.41,-5.46 2.02,-6.78 2.43,-1.31 5.46,-0.41 6.77,2.02 128.47,237.7 244.37,379.7 327.98,462.2 41.81,41.25 75.55,67.63 98.77,83.67 11.61,8.01 20.58,13.45 26.63,16.86 3.02,1.71 5.3,2.91 6.82,3.67 l 1.69,0.84 0.5,0.23 c 2.51,1.14 3.63,4.1 2.5,6.61 -1.14,2.52 -4.1,3.64 -6.61,2.51"
         style="fill:#15233c;fill-opacity:1;fill-rule:nonzero;stroke:none"
         id="path136" />
      <path
         d="m 5132.26,1491.26 c 0,0 201.77,139.99 232.23,85.36 23.49,-42.13 -213.08,-94.8 -232.23,-85.36"
         style="fill:#58ab34;fill-opacity:1;fill-rule:nonzero;stroke:none"
         id="path138" />
      <path
         d="m 5194.19,1595.22 c 0,0 184.1,127.74 211.88,77.89 21.44,-38.45 -194.4,-86.49 -211.88,-77.89"
         style="fill:#7acc42;fill-opacity:1;fill-rule:nonzero;stroke:none"
         id="path140" />
      <path
         d="m 5266.02,1705.59 c 0,0 164.71,114.27 189.56,69.68 19.18,-34.39 -173.92,-77.38 -189.56,-69.68"
         style="fill:#58ab34;fill-opacity:1;fill-rule:nonzero;stroke:none"
         id="path142" />
      <path
         d="m 5346.59,1813.1 c 0,0 155.69,102.08 177.68,60.08 16.98,-32.4 -163.36,-67.61 -177.68,-60.08"
         style="fill:#58ab34;fill-opacity:1;fill-rule:nonzero;stroke:none"
         id="path144" />
      <path
         d="m 5427.7,1902.87 c 0,0 144.07,81.22 161.08,42.68 13.1,-29.72 -148.82,-50.2 -161.08,-42.68"
         style="fill:#7acc42;fill-opacity:1;fill-rule:nonzero;stroke:none"
         id="path146" />
      <path
         d="m 5503.38,1973.03 c 0,0 114.29,119.54 141.74,87.58 21.18,-24.64 -127.84,-91.23 -141.74,-87.58"
         style="fill:#58ab34;fill-opacity:1;fill-rule:nonzero;stroke:none"
         id="path148" />
      <path
         d="m 5134.13,1491.63 c 0,0 40.12,242.28 -22.28,246.42 -48.13,3.2 5.55,-233.15 22.28,-246.42"
         style="fill:#7acc42;fill-opacity:1;fill-rule:nonzero;stroke:none"
         id="path150" />
      <path
         d="m 5195.82,1598.6 c 0,0 57.81,216.47 1.51,225.74 -43.44,7.14 -15.54,-212.21 -1.51,-225.74"
         style="fill:#58ab34;fill-opacity:1;fill-rule:nonzero;stroke:none"
         id="path152" />
      <path
         d="m 5266.74,1706.4 c 0,0 79.17,184.16 30.53,199.64 -37.53,11.94 -41.19,-185.86 -30.53,-199.64"
         style="fill:#7acc42;fill-opacity:1;fill-rule:nonzero;stroke:none"
         id="path154" />
      <path
         d="m 5347.6,1813.13 c 0,0 77.25,169.4 32.4,184.76 -34.6,11.84 -42.02,-171.74 -32.4,-184.76"
         style="fill:#7acc42;fill-opacity:1;fill-rule:nonzero;stroke:none"
         id="path156" />
      <path
         d="m 5431.64,1904.35 c 0,0 78.48,145.58 39.63,161.85 -29.97,12.55 -47.39,-149.74 -39.63,-161.85"
         style="fill:#58ab34;fill-opacity:1;fill-rule:nonzero;stroke:none"
         id="path158" />
      <path
         d="m 5250.41,2714.94 c -1.16,-0.4 -239.74,-85.32 -568.47,-587.94 -1.51,-2.31 -0.86,-5.41 1.45,-6.92 2.31,-1.51 5.41,-0.86 6.92,1.45 163.92,250.6 305.08,396.7 405.1,480.09 50.01,41.7 89.74,67.72 116.89,83.29 13.58,7.79 24.01,12.96 31.01,16.18 3.5,1.6 6.14,2.72 7.9,3.43 l 1.95,0.77 0.58,0.22 c 2.61,0.92 3.97,3.78 3.05,6.38 -0.92,2.6 -3.78,3.97 -6.38,3.05"
         style="fill:#15233c;fill-opacity:1;fill-rule:nonzero;stroke:none"
         id="path160" />
      <path
         d="m 4715.52,2169.74 c 0,0 235.78,135.89 264.35,72.75 22.03,-48.71 -244.07,-84.94 -264.35,-72.75"
         style="fill:#58ab34;fill-opacity:1;fill-rule:nonzero;stroke:none"
         id="path162" />
      <path
         d="m 4793.55,2278.81 c 0,0 215.12,123.98 241.18,66.36 20.11,-44.43 -222.69,-77.49 -241.18,-66.36"
         style="fill:#7acc42;fill-opacity:1;fill-rule:nonzero;stroke:none"
         id="path164" />
      <path
         d="m 4883.09,2394.02 c 0,0 192.46,110.92 215.78,59.38 17.98,-39.76 -199.23,-69.33 -215.78,-59.38"
         style="fill:#58ab34;fill-opacity:1;fill-rule:nonzero;stroke:none"
         id="path166" />
      <path
         d="m 4982.02,2505.27 c 0,0 181.37,98.29 201.78,49.87 15.73,-37.35 -186.66,-59.51 -201.78,-49.87"
         style="fill:#58ab34;fill-opacity:1;fill-rule:nonzero;stroke:none"
         id="path168" />
      <path
         d="m 5079.91,2596.88 c 0,0 166.61,76.33 181.81,32.2 11.71,-34.04 -168.99,-41.65 -181.81,-32.2"
         style="fill:#7acc42;fill-opacity:1;fill-rule:nonzero;stroke:none"
         id="path170" />
      <path
         d="m 5169.97,2667.34 c 0,0 137.28,121.4 164.64,83.58 21.09,-29.18 -149.63,-88.9 -164.64,-83.58"
         style="fill:#58ab34;fill-opacity:1;fill-rule:nonzero;stroke:none"
         id="path172" />
      <path
         d="m 4717.61,2169.99 c 0,0 66.77,263.81 -1.75,274.16 -52.87,7.99 -15.48,-257.97 1.75,-274.16"
         style="fill:#7acc42;fill-opacity:1;fill-rule:nonzero;stroke:none"
         id="path174" />
      <path
         d="m 4795.65,2282.39 c 0,0 83.91,233.68 22.59,249.13 -47.3,11.91 -36.82,-232.9 -22.59,-249.13"
         style="fill:#58ab34;fill-opacity:1;fill-rule:nonzero;stroke:none"
         id="path176" />
      <path
         d="m 4883.96,2394.85 c 0,0 104.49,196.02 52.21,217.62 -40.33,16.67 -62.71,-201.41 -52.21,-217.62"
         style="fill:#7acc42;fill-opacity:1;fill-rule:nonzero;stroke:none"
         id="path178" />
      <path
         d="m 4983.14,2505.21 c 0,0 101,179.89 52.89,201.01 -37.12,16.29 -62.3,-185.74 -52.89,-201.01"
         style="fill:#7acc42;fill-opacity:1;fill-rule:nonzero;stroke:none"
         id="path180" />
      <path
         d="m 5084.38,2598.16 c 0,0 100.16,153.47 58.76,175.04 -31.92,16.63 -66.2,-160.96 -58.76,-175.04"
         style="fill:#58ab34;fill-opacity:1;fill-rule:nonzero;stroke:none"
         id="path182" />
      <path
         d="m 2359.08,507 h 90.4766 V 3218.27 H 2359.08 Z"
         style="fill:#c5c0bc;fill-opacity:1;fill-rule:nonzero;stroke:none"
         id="path184" />
      <path
         d="m 2449.61,3218.26 v -221.22 c -14.48,-2.92 -29.45,-4.53 -44.83,-4.53 -15.68,0 -30.96,1.61 -45.74,4.73 v 221.02 h 90.57"
         style="fill:#c5c0bc;fill-opacity:1;fill-rule:nonzero;stroke:none"
         id="path186" />
      <path
         d="m 2436.87,3293.71 v 201.99 c 0,17.28 14,31.28 31.28,31.28 h 30.65 c 22.14,0 40.08,17.94 40.08,40.08 v 513.58 c 0,10.7 -3.88,21.03 -10.92,29.07 l -76.51,87.44 c -26.84,30.68 -77.36,11.69 -77.36,-29.07 v -874.37 h 62.78"
         style="fill:#dddbd9;fill-opacity:1;fill-rule:nonzero;stroke:none"
         id="path188" />
      <path
         d="m 2436.87,3293.71 h 5 v 201.99 c 0.02,14.51 11.76,26.25 26.28,26.28 h 30.65 c 24.9,0 45.08,20.18 45.08,45.08 v 513.58 c 0,11.91 -4.32,23.41 -12.16,32.37 l -76.51,87.43 c -10.09,11.58 -23.55,16.9 -36.6,16.88 -12.59,-0.01 -24.89,-4.82 -34.15,-13.39 -9.25,-8.56 -15.39,-21.05 -15.37,-35.85 v -879.37 h 72.78 v 5 h -5 v 5 h -57.78 v 869.37 c 0.02,12.04 4.83,21.67 12.18,28.52 7.35,6.83 17.31,10.72 27.34,10.72 10.42,-0.03 20.84,-4.07 29.08,-13.46 l 76.51,-87.44 c 6.24,-7.13 9.68,-16.29 9.68,-25.78 v -513.58 c -0.03,-19.37 -15.7,-35.05 -35.08,-35.08 h -30.65 c -20.04,0 -36.28,-16.24 -36.28,-36.28 v -201.99 h 5 v 5 -5"
         style="fill:#d2d7cc;fill-opacity:1;fill-rule:nonzero;stroke:none"
         id="path190" />
      <path
         d="m 2325.59,3198.39 -174.92,-101 c -14.97,-8.64 -34.1,-3.51 -42.73,11.45 l -15.33,26.55 c -11.07,19.17 -35.59,25.74 -54.76,14.67 l -444.77,-256.79 c -9.26,-5.35 -16.27,-13.87 -19.71,-24 l -37.48,-109.97 c -13.14,-38.59 28.56,-72.85 63.86,-52.47 l 757.23,437.19 -31.39,54.37"
         style="fill:#dddbd9;fill-opacity:1;fill-rule:nonzero;stroke:none"
         id="path192" />
      <path
         d="m 2325.59,3198.39 -2.5,4.33 -174.92,-101 c -4.16,-2.4 -8.66,-3.52 -13.12,-3.53 -9.09,0.01 -17.91,4.71 -22.78,13.15 l -15.33,26.55 c -8.35,14.45 -23.52,22.55 -39.09,22.55 -7.64,0 -15.41,-1.96 -22.5,-6.05 L 1590.58,2897.6 c -10.31,-5.95 -18.11,-15.44 -21.95,-26.71 l -37.47,-109.98 c -1.87,-5.49 -2.75,-10.95 -2.75,-16.23 0.09,-27.28 22.98,-48.87 49.24,-48.93 8.14,0 16.59,2.12 24.6,6.75 l 761.56,439.69 -36.39,63.03 -4.33,-2.5 2.5,-4.33 -4.33,-2.5 28.89,-50.04 -752.9,-434.69 c -6.53,-3.77 -13.17,-5.4 -19.6,-5.41 -10.34,0 -20.19,4.33 -27.43,11.41 -7.24,7.08 -11.8,16.78 -11.81,27.52 0.01,4.17 0.69,8.53 2.22,13.01 l 37.47,109.97 c 3.06,8.98 9.27,16.54 17.48,21.28 l 444.77,256.79 c 5.54,3.2 11.55,4.71 17.5,4.71 12.14,-0.01 23.93,-6.29 30.43,-17.55 l 15.33,-26.55 c 6.71,-11.63 18.92,-18.15 31.44,-18.15 6.16,0 12.42,1.58 18.12,4.87 l 174.92,101 -2.5,4.33 -4.33,-2.5 4.33,2.5"
         style="fill:#d2d7cc;fill-opacity:1;fill-rule:nonzero;stroke:none"
         id="path194" />
      <path
         d="m 2463.78,3149.68 174.93,-101 c 14.96,-8.63 20.08,-27.76 11.45,-42.72 l -15.33,-26.55 c -11.07,-19.17 -4.5,-43.69 14.67,-54.76 l 444.78,-256.79 c 9.26,-5.34 20.14,-7.14 30.63,-5.07 l 113.98,22.54 c 39.99,7.9 48.81,61.15 13.51,81.53 l -757.23,437.19 -31.39,-54.37"
         style="fill:#dddbd9;fill-opacity:1;fill-rule:nonzero;stroke:none"
         id="path196" />
      <path
         d="m 2463.78,3149.68 -2.5,-4.33 174.93,-101 c 8.44,-4.87 13.14,-13.69 13.14,-22.78 0,-4.46 -1.13,-8.96 -3.52,-13.11 l -15.33,-26.55 c -4.09,-7.08 -6.05,-14.86 -6.05,-22.5 0,-15.57 8.1,-30.74 22.55,-39.08 l 444.78,-256.8 c 7.51,-4.34 16,-6.58 24.56,-6.58 3.19,0 6.38,0.31 9.54,0.94 l 113.98,22.53 c 12.64,2.49 22.68,9.21 29.4,18 6.73,8.79 10.23,19.6 10.23,30.47 0.05,16.16 -7.93,32.72 -24.59,42.3 l -761.56,439.69 -36.39,-63.03 4.33,-2.5 2.5,4.33 4.33,-2.5 28.89,50.04 752.9,-434.69 c 13.47,-7.81 19.55,-20.62 19.59,-33.64 0.01,-8.73 -2.83,-17.43 -8.17,-24.39 -5.35,-6.96 -13.11,-12.22 -23.4,-14.27 l -113.98,-22.53 c -2.52,-0.5 -5.06,-0.75 -7.6,-0.75 -6.82,0 -13.58,1.79 -19.56,5.24 L 2652,2928.99 c -11.26,6.5 -17.54,18.28 -17.55,30.42 0.01,5.95 1.51,11.96 4.71,17.5 l 15.33,26.55 c 3.29,5.7 4.87,11.96 4.86,18.11 0.01,12.52 -6.51,24.73 -18.14,31.44 l -174.93,101 -2.5,-4.33 4.33,-2.5 -4.33,2.5"
         style="fill:#d2d7cc;fill-opacity:1;fill-rule:nonzero;stroke:none"
         id="path198" />
      <path
         d="m 2513.38,3212.62 c 0,-59.96 -48.6,-108.56 -108.56,-108.56 -59.95,0 -108.55,48.6 -108.55,108.56 0,59.95 48.6,108.55 108.55,108.55 59.96,0 108.56,-48.6 108.56,-108.55"
         style="fill:#c5c0bc;fill-opacity:1;fill-rule:nonzero;stroke:none"
         id="path200" />
      <path
         d="m 2452.14,3212.62 c 0,-26.13 -21.19,-47.32 -47.32,-47.32 -26.13,0 -47.31,21.19 -47.31,47.32 0,26.13 21.18,47.31 47.31,47.31 26.13,0 47.32,-21.18 47.32,-47.31"
         style="fill:#ffffff;fill-opacity:1;fill-rule:nonzero;stroke:none"
         id="path202" />
      <path
         d="m 2449.61,3113.73 v -116.69 c -14.48,-2.92 -29.45,-4.53 -44.83,-4.53 -15.68,0 -30.96,1.61 -45.74,4.73 v 116.89 c 13.88,-6.43 29.35,-10.05 45.74,-10.05 15.98,0 31.16,3.42 44.83,9.65"
         style="fill:#a3a09c;fill-opacity:1;fill-rule:nonzero;stroke:none"
         id="path204" />
      <path
         d="m 2874.98,1577.48 h -951.03 l -91.99,-646.082 h 1134.01 l -90.99,646.082"
         style="fill:#2186ab;fill-opacity:1;fill-rule:nonzero;stroke:none"
         id="path206" />
      <path
         d="m 2840.58,1313.98 h -246.85 l -8.93,192.72 h 228.66 l 3.26,-23.04 16.89,-120.07 6.97,-49.61"
         style="fill:#211f1d;fill-opacity:1;fill-rule:nonzero;stroke:none"
         id="path208" />
      <path
         d="m 2522.82,1313.98 h -247.17 l 1.63,34.46 7.63,158.26 h 228.98 l 2.56,-55.22 6.37,-137.5"
         style="fill:#211f1d;fill-opacity:1;fill-rule:nonzero;stroke:none"
         id="path210" />
      <path
         d="m 2537.31,1002.21 h -276.58 l 9.74,203.29 1.8,37.68 h 253.88 l 2.23,-47.86 6.05,-130.92 2.88,-62.19"
         style="fill:#211f1d;fill-opacity:1;fill-rule:nonzero;stroke:none"
         id="path212" />
      <path
         d="m 2214.06,1506.7 -9.26,-192.72 h -246.85 l 27.45,192.72 h 228.66"
         style="fill:#211f1d;fill-opacity:1;fill-rule:nonzero;stroke:none"
         id="path214" />
      <path
         d="m 2201.37,1243.18 -5.39,-112.18 -6.16,-128.79 h -276.25 l 34.31,240.97 h 253.49"
         style="fill:#211f1d;fill-opacity:1;fill-rule:nonzero;stroke:none"
         id="path216" />
      <path
         d="m 2884.52,1002.21 h -276.31 l -6.04,129.93 -5.18,111.04 h 253.61 l 4.02,-28.75 29.9,-212.22"
         style="fill:#211f1d;fill-opacity:1;fill-rule:nonzero;stroke:none"
         id="path218" />
      <path
         d="m 2608.9,563.988 h -408.58 l 87.07,370.403 h 234.43 l 87.08,-370.403"
         style="fill:#2186ab;fill-opacity:1;fill-rule:nonzero;stroke:none"
         id="path220" />
      <path
         d="m 2608.9,563.988 h -408.58 l 38.11,162.121 h 332.36 l 38.11,-162.121"
         style="fill:#185273;fill-opacity:1;fill-rule:nonzero;stroke:none"
         id="path222" />
      <path
         d="m 2688.75,660.352 h -620.08 c -19.18,0 -37,-9.891 -47.14,-26.172 l -43.7,-70.192 h 801.77 l -43.71,70.192 c -10.14,16.281 -27.96,26.172 -47.14,26.172"
         style="fill:#2186ab;fill-opacity:1;fill-rule:nonzero;stroke:none"
         id="path224" />
      <path
         d="M 2965.99,931.422 V 838.629 H 1831.94 v 92.793 h 1134.05"
         style="fill:#3ec0de;fill-opacity:1;fill-rule:nonzero;stroke:none"
         id="path226" />
      <path
         d="m 1931.05,1002.21 h -17.48 l 34.31,240.97 h 224.14 l -240.97,-240.97"
         style="fill:#2f2b2a;fill-opacity:1;fill-rule:nonzero;stroke:none"
         id="path228" />
      <path
         d="m 2204.8,1313.98 h -187.11 l 192.77,192.72 h 3.6 l -9.26,-192.72"
         style="fill:#2f2b2a;fill-opacity:1;fill-rule:nonzero;stroke:none"
         id="path230" />
      <path
         d="m 2522.82,1313.98 h -143.87 l 137.5,137.5 6.37,-137.5"
         style="fill:#2f2b2a;fill-opacity:1;fill-rule:nonzero;stroke:none"
         id="path232" />
      <path
         d="m 2335.28,1002.21 h -74.55 l 9.74,203.29 37.69,37.68 h 217.99 l 2.23,-47.86 -193.1,-193.11"
         style="fill:#2f2b2a;fill-opacity:1;fill-rule:nonzero;stroke:none"
         id="path234" />
      <path
         d="m 2647.04,1313.98 h -53.31 l -8.93,192.72 h 228.66 l 3.26,-23.04 -169.68,-169.68"
         style="fill:#2f2b2a;fill-opacity:1;fill-rule:nonzero;stroke:none"
         id="path236" />
      <path
         d="m 2642.41,1002.21 h -34.2 l -6.04,129.93 111.03,111.04 h 137.4 l 4.02,-28.75 -212.21,-212.22"
         style="fill:#2f2b2a;fill-opacity:1;fill-rule:nonzero;stroke:none"
         id="path238" />
      <path
         d="m 5877.37,1289.22 c 43.54,-94.63 152.44,-137.48 152.44,-137.48 0,0 38.33,110.58 -5.2,205.22 -43.53,94.63 -152.45,137.47 -152.45,137.47 0,0 -38.33,-110.58 5.21,-205.21"
         style="fill:#58ab34;fill-opacity:1;fill-rule:nonzero;stroke:none"
         id="path240" />
      <path
         d="m 6155.23,1448.5 c -56.12,-87.75 -33.34,-202.56 -33.34,-202.56 0,0 113.76,27.48 169.88,115.24 56.12,87.75 33.34,202.56 33.34,202.56 0,0 -113.77,-27.48 -169.88,-115.24"
         style="fill:#58ab34;fill-opacity:1;fill-rule:nonzero;stroke:none"
         id="path242" />
      <path
         d="m 6297.94,1218.12 c -88.15,-55.49 -116.44,-169.05 -116.44,-169.05 0,0 114.63,-23.59 202.78,31.89 88.15,55.49 116.44,169.06 116.44,169.06 0,0 -114.63,23.59 -202.78,-31.9"
         style="fill:#58ab34;fill-opacity:1;fill-rule:nonzero;stroke:none"
         id="path244" />
      <path
         d="m 6021.32,560.152 c 0,0.008 -0.06,4.028 -0.06,11.629 0,39.891 1.81,177.391 24.35,335.16 22.51,157.759 65.93,335.799 148.31,456.359 1.56,2.28 0.97,5.39 -1.31,6.95 -2.28,1.56 -5.39,0.97 -6.95,-1.31 -83.91,-123 -127.26,-302.08 -149.95,-460.581 -22.64,-158.488 -24.45,-296.379 -24.45,-336.578 0,-7.66 0.07,-11.769 0.07,-11.801 0.04,-2.761 2.32,-4.96 5.08,-4.91 2.76,0.039 4.96,2.321 4.91,5.082"
         style="fill:#15233c;fill-opacity:1;fill-rule:nonzero;stroke:none"
         id="path246" />
      <path
         d="m 6063.93,1019.46 c -21.97,119.89 -56.5,236.04 -110.17,329.61 -1.38,2.39 -4.43,3.22 -6.83,1.85 -2.39,-1.38 -3.22,-4.43 -1.85,-6.83 52.84,-92.06 87.19,-207.24 109.01,-326.43 0.5,-2.72 3.1,-4.51 5.82,-4.02 2.72,0.5 4.52,3.11 4.02,5.82"
         style="fill:#15233c;fill-opacity:1;fill-rule:nonzero;stroke:none"
         id="path248" />
      <path
         d="m 6054.01,951.672 c 95.37,74.728 197.48,138.148 298.08,172.018 2.62,0.88 4.02,3.71 3.14,6.33 -0.88,2.62 -3.71,4.02 -6.33,3.14 -102.23,-34.43 -205.11,-98.46 -301.06,-173.621 -2.17,-1.699 -2.55,-4.848 -0.85,-7.019 1.7,-2.18 4.84,-2.559 7.02,-0.848"
         style="fill:#15233c;fill-opacity:1;fill-rule:nonzero;stroke:none"
         id="path250" />
      <path
         d="m 1769.98,1289.22 c -43.53,-94.63 -152.44,-137.48 -152.44,-137.48 0,0 -38.33,110.58 5.21,205.22 43.53,94.63 152.44,137.47 152.44,137.47 0,0 38.33,-110.58 -5.21,-205.21"
         style="fill:#58ab34;fill-opacity:1;fill-rule:nonzero;stroke:none"
         id="path252" />
      <path
         d="m 1492.13,1448.5 c 56.11,-87.75 33.34,-202.56 33.34,-202.56 0,0 -113.76,27.48 -169.88,115.24 -56.12,87.75 -33.35,202.56 -33.35,202.56 0,0 113.77,-27.48 169.89,-115.24"
         style="fill:#58ab34;fill-opacity:1;fill-rule:nonzero;stroke:none"
         id="path254" />
      <path
         d="m 1349.42,1218.12 c 88.15,-55.49 116.44,-169.05 116.44,-169.05 0,0 -114.63,-23.59 -202.78,31.89 -88.16,55.49 -116.45,169.06 -116.45,169.06 0,0 114.63,23.59 202.79,-31.9"
         style="fill:#58ab34;fill-opacity:1;fill-rule:nonzero;stroke:none"
         id="path256" />
      <path
         d="m 1636.04,559.98 c 0,0.032 0.06,4.141 0.06,11.79 0,40.179 -1.81,178.07 -24.45,336.562 -22.69,158.508 -66.04,337.598 -149.96,460.608 -1.56,2.28 -4.67,2.87 -6.95,1.31 -2.28,-1.56 -2.87,-4.67 -1.31,-6.95 82.39,-120.57 125.81,-298.62 148.32,-456.378 22.54,-157.781 24.35,-295.281 24.35,-335.152 0,-7.598 -0.06,-11.61 -0.06,-11.618 -0.05,-2.773 2.15,-5.043 4.92,-5.082 2.76,-0.05 5.03,2.149 5.08,4.91"
         style="fill:#15233c;fill-opacity:1;fill-rule:nonzero;stroke:none"
         id="path258" />
      <path
         d="m 1593.26,1017.66 c 21.82,119.19 56.17,234.37 109.01,326.43 1.38,2.4 0.55,5.45 -1.85,6.83 -2.39,1.37 -5.45,0.54 -6.82,-1.85 -53.68,-93.57 -88.21,-209.72 -110.18,-329.61 -0.49,-2.71 1.3,-5.32 4.02,-5.82 2.72,-0.49 5.32,1.3 5.82,4.02"
         style="fill:#15233c;fill-opacity:1;fill-rule:nonzero;stroke:none"
         id="path260" />
      <path
         d="m 1599.52,959.539 c -95.96,75.161 -198.83,139.191 -301.06,173.621 -2.62,0.88 -5.46,-0.52 -6.34,-3.14 -0.88,-2.62 0.53,-5.45 3.15,-6.33 100.61,-33.87 202.7,-97.29 298.08,-172.018 2.17,-1.711 5.31,-1.332 7.02,0.848 1.7,2.171 1.32,5.32 -0.85,7.019"
         style="fill:#15233c;fill-opacity:1;fill-rule:nonzero;stroke:none"
         id="path262" />
      <path
         d="m 3614.43,4105.74 c 14.31,-72.31 -32.71,-142.52 -105.01,-156.82 -72.3,-14.31 -142.52,32.71 -156.83,105.01 -14.3,72.31 32.72,142.52 105.02,156.83 72.31,14.3 142.52,-32.72 156.82,-105.02"
         style="fill:#7acc42;fill-opacity:1;fill-rule:nonzero;stroke:none"
         id="path264" />
      <path
         d="m 3489.58,4213.04 c 28.94,-18.97 50.57,-49.06 57.81,-85.69 14.31,-72.31 -32.71,-142.52 -105.01,-156.83 -10.77,-2.13 -21.47,-2.74 -31.96,-2.27 28.19,-18.47 63.33,-26.39 99,-19.33 72.3,14.3 119.32,84.51 105.01,156.82 -12.17,61.54 -64.86,104.6 -124.85,107.3"
         style="fill:#58ab34;fill-opacity:1;fill-rule:nonzero;stroke:none"
         id="path266" />
      <path
         d="m 3557.44,3726.94 c -2.28,-0.45 -4.49,1.03 -4.94,3.31 l -74.53,376.71 c -0.45,2.29 1.02,4.5 3.31,4.95 2.28,0.45 4.48,-1.03 4.94,-3.31 l 74.53,-376.72 c 0.45,-2.28 -1.03,-4.49 -3.31,-4.94"
         style="fill:#15233c;fill-opacity:1;fill-rule:nonzero;stroke:none"
         id="path268" />
      <path
         d="m 3500.19,4007.46 c -1.06,-0.2 -2.19,-0.01 -3.16,0.64 l -56.9,38.11 c -1.94,1.29 -2.45,3.9 -1.16,5.83 1.29,1.93 3.91,2.45 5.84,1.16 l 56.9,-38.11 c 1.93,-1.3 2.45,-3.91 1.16,-5.84 -0.65,-0.97 -1.63,-1.58 -2.68,-1.79"
         style="fill:#15233c;fill-opacity:1;fill-rule:nonzero;stroke:none"
         id="path270" />
      <path
         d="m 3495.81,4042.86 c -1.05,-0.21 -2.19,-0.02 -3.16,0.63 -1.93,1.29 -2.44,3.9 -1.15,5.83 l 23.1,34.5 c 1.29,1.93 3.9,2.45 5.83,1.16 1.93,-1.3 2.45,-3.91 1.16,-5.84 l -23.1,-34.5 c -0.65,-0.96 -1.62,-1.57 -2.68,-1.78"
         style="fill:#15233c;fill-opacity:1;fill-rule:nonzero;stroke:none"
         id="path272" />
      <path
         d="m 4752.29,3689.08 c -46.83,-56.91 -130.94,-65.08 -187.85,-18.24 -56.91,46.84 -65.08,130.94 -18.24,187.85 46.83,56.92 130.94,65.08 187.86,18.25 56.9,-46.84 65.08,-130.95 18.23,-187.86"
         style="fill:#7acc42;fill-opacity:1;fill-rule:nonzero;stroke:none"
         id="path274" />
      <path
         d="m 4756.08,3853.67 c 3.69,-34.41 -5.86,-70.22 -29.59,-99.05 -46.84,-56.91 -130.95,-65.08 -187.85,-18.24 -8.48,6.98 -15.73,14.85 -22.03,23.27 3.59,-33.51 19.75,-65.7 47.83,-88.81 56.91,-46.84 141.02,-38.67 187.85,18.24 39.86,48.44 39.75,116.49 3.79,164.59"
         style="fill:#58ab34;fill-opacity:1;fill-rule:nonzero;stroke:none"
         id="path276" />
      <path
         d="m 4423.26,3492.95 c -1.8,1.48 -2.05,4.13 -0.58,5.92 l 244.03,296.51 c 1.47,1.8 4.12,2.05 5.91,0.58 1.8,-1.48 2.05,-4.13 0.58,-5.92 l -244.02,-296.51 c -1.49,-1.8 -4.13,-2.05 -5.92,-0.58"
         style="fill:#15233c;fill-opacity:1;fill-rule:nonzero;stroke:none"
         id="path278" />
      <path
         d="m 4603.86,3715.1 c -0.83,0.69 -1.4,1.69 -1.51,2.85 l -6.62,68.16 c -0.23,2.31 1.46,4.37 3.78,4.59 2.31,0.23 4.36,-1.46 4.59,-3.77 l 6.62,-68.17 c 0.22,-2.31 -1.47,-4.37 -3.78,-4.59 -1.16,-0.12 -2.25,0.25 -3.08,0.93"
         style="fill:#15233c;fill-opacity:1;fill-rule:nonzero;stroke:none"
         id="path280" />
      <path
         d="m 4628.45,3740.93 c -0.83,0.69 -1.4,1.69 -1.51,2.85 -0.22,2.31 1.46,4.36 3.78,4.59 l 41.32,4.01 c 2.31,0.22 4.36,-1.47 4.59,-3.77 0.22,-2.32 -1.47,-4.37 -3.78,-4.6 l -41.32,-4.01 c -1.15,-0.12 -2.25,0.25 -3.08,0.93"
         style="fill:#15233c;fill-opacity:1;fill-rule:nonzero;stroke:none"
         id="path282" />
      <path
         d="m 4241.05,4011.61 c -18.2,-57.16 -79.3,-88.75 -136.45,-70.55 -57.17,18.2 -88.75,79.29 -70.55,136.46 18.19,57.16 79.29,88.75 136.45,70.54 57.16,-18.19 88.75,-79.29 70.55,-136.45"
         style="fill:#7acc42;fill-opacity:1;fill-rule:nonzero;stroke:none"
         id="path284" />
      <path
         d="m 4194.18,4137.14 c 13.19,-24.9 16.78,-54.84 7.56,-83.8 -18.2,-57.16 -79.29,-88.75 -136.45,-70.55 -8.52,2.71 -16.38,6.47 -23.68,10.93 12.85,-24.24 34.78,-43.68 62.99,-52.66 57.15,-18.2 118.25,13.39 136.45,70.55 15.49,48.65 -5.16,100.05 -46.87,125.53"
         style="fill:#58ab34;fill-opacity:1;fill-rule:nonzero;stroke:none"
         id="path286" />
      <path
         d="m 4052.34,3763.03 -0.93,0.19 c -2.21,0.7 -3.44,3.07 -2.73,5.28 l 94.82,297.82 c 0.71,2.2 3.03,3.46 5.28,2.73 2.21,-0.7 3.43,-3.07 2.73,-5.28 l -94.81,-297.82 c -0.61,-1.91 -2.45,-3.07 -4.36,-2.92"
         style="fill:#15233c;fill-opacity:1;fill-rule:nonzero;stroke:none"
         id="path288" />
      <path
         d="m 4121.71,3985.49 c -1.4,0.12 -2.71,0.93 -3.39,2.26 l -25.61,49.52 c -1.06,2.07 -0.26,4.6 1.81,5.67 2.08,1.06 4.61,0.26 5.66,-1.8 l 25.61,-49.53 c 1.06,-2.06 0.26,-4.6 -1.81,-5.67 l -2.27,-0.45"
         style="fill:#15233c;fill-opacity:1;fill-rule:nonzero;stroke:none"
         id="path290" />
      <path
         d="m 4132.48,4012.45 c -1.4,0.11 -2.71,0.92 -3.39,2.25 -1.07,2.07 -0.27,4.6 1.8,5.68 l 30.02,15.51 c 2.08,1.06 4.61,0.25 5.68,-1.8 1.06,-2.07 0.25,-4.61 -1.81,-5.67 l -30.03,-15.52 -2.27,-0.45"
         style="fill:#15233c;fill-opacity:1;fill-rule:nonzero;stroke:none"
         id="path292" />
      <path
         d="m 3952.21,4021.3 -119.74,353.68 c -5.77,17.06 -29.97,16.83 -35.42,-0.32 l -113.21,-355.84 c -12.8,-40.24 17.46,-81.23 59.68,-80.84 l 150.5,1.39 c 42.23,0.39 71.73,41.93 58.19,81.93"
         style="fill:#7acc42;fill-opacity:1;fill-rule:nonzero;stroke:none"
         id="path294" />
      <path
         d="m 3907.61,3941.04 -96.35,446.23 c 8.42,1.67 17.87,-2.47 21.22,-12.26 l 119.72,-353.7 c 12.02,-35.53 -9.92,-72.33 -44.59,-80.27"
         style="fill:#58ab34;fill-opacity:1;fill-rule:nonzero;stroke:none"
         id="path296" />
      <path
         d="m 3818.85,3738.07 c -2.3,0 -4.18,1.85 -4.2,4.17 l -4.5,487.9 c -0.02,2.32 1.86,4.22 4.17,4.25 h 0.04 c 2.31,0 4.18,-1.86 4.2,-4.17 l 4.49,-487.91 c 0.03,-2.32 -1.84,-4.22 -4.16,-4.24 h -0.04"
         style="fill:#15233c;fill-opacity:1;fill-rule:nonzero;stroke:none"
         id="path298" />
      <path
         d="m 3816.71,3984.03 c -1.06,0 -2.12,0.4 -2.94,1.2 l -49.04,48.14 c -1.65,1.62 -1.68,4.29 -0.06,5.94 1.63,1.67 4.3,1.68 5.95,0.06 l 49.03,-48.13 c 1.65,-1.63 1.68,-4.29 0.05,-5.95 -0.82,-0.84 -1.9,-1.26 -2.99,-1.26"
         style="fill:#15233c;fill-opacity:1;fill-rule:nonzero;stroke:none"
         id="path300" />
      <path
         d="m 3815.19,4148.55 c -1.06,0 -2.13,0.41 -2.95,1.21 l -30.53,29.98 c -1.66,1.62 -1.68,4.29 -0.06,5.94 1.63,1.67 4.28,1.69 5.94,0.07 l 30.55,-29.99 c 1.65,-1.62 1.67,-4.29 0.05,-5.94 -0.82,-0.84 -1.9,-1.27 -3,-1.27"
         style="fill:#15233c;fill-opacity:1;fill-rule:nonzero;stroke:none"
         id="path302" />
      <path
         d="m 3816.96,4071.03 c -1.06,0 -2.12,0.4 -2.94,1.2 -1.65,1.63 -1.68,4.29 -0.05,5.95 l 36.48,37.16 c 1.62,1.66 4.28,1.68 5.94,0.06 1.65,-1.63 1.67,-4.29 0.05,-5.95 l -36.48,-37.16 c -0.82,-0.84 -1.91,-1.26 -3,-1.26"
         style="fill:#15233c;fill-opacity:1;fill-rule:nonzero;stroke:none"
         id="path304" />
      <path
         d="m 3907.61,3941.04 -96.35,446.23 c 8.42,1.67 17.87,-2.47 21.22,-12.26 l 119.72,-353.7 c 12.02,-35.53 -9.92,-72.33 -44.59,-80.27"
         style="fill:#58ab34;fill-opacity:1;fill-rule:nonzero;stroke:none"
         id="path306" />
      <path
         d="m 4441.83,3803.59 53.5,308.42 c 2.58,14.87 -15.32,24.39 -26.21,13.95 l -225.9,-216.69 c -25.55,-24.5 -19.68,-66.81 11.56,-83.43 l 111.39,-59.27 c 31.25,-16.63 69.62,2.15 75.66,37.02"
         style="fill:#58ab34;fill-opacity:1;fill-rule:nonzero;stroke:none"
         id="path308" />
      <path
         d="m 4376.84,3762.36 107.8,367.19 c 6.87,-2.14 12.17,-8.98 10.71,-17.53 l -53.52,-308.41 c -5.38,-30.98 -36.28,-49.3 -64.99,-41.25"
         style="fill:#58ab34;fill-opacity:1;fill-rule:nonzero;stroke:none"
         id="path310" />
      <path
         d="m 4231.19,3647.39 -1.31,0.44 c -2.04,1.09 -2.82,3.64 -1.73,5.69 l 192.13,361.09 c 1.1,2.05 3.63,2.82 5.69,1.73 2.04,-1.09 2.82,-3.63 1.74,-5.68 l -192.14,-361.09 c -0.87,-1.63 -2.65,-2.46 -4.38,-2.18"
         style="fill:#15233c;fill-opacity:1;fill-rule:nonzero;stroke:none"
         id="path312" />
      <path
         d="m 4328.13,3829.38 c -1.53,0.25 -2.86,1.33 -3.34,2.92 l -16.82,55.08 c -0.69,2.22 0.56,4.57 2.79,5.25 2.19,0.68 4.57,-0.58 5.24,-2.79 l 16.83,-55.08 c 0.67,-2.23 -0.58,-4.58 -2.79,-5.26 l -1.91,-0.12"
         style="fill:#15233c;fill-opacity:1;fill-rule:nonzero;stroke:none"
         id="path314" />
      <path
         d="m 4392.93,3951.14 c -1.53,0.25 -2.87,1.34 -3.35,2.92 l -10.48,34.31 c -0.68,2.22 0.56,4.57 2.79,5.24 2.2,0.68 4.57,-0.57 5.25,-2.78 l 10.47,-34.31 c 0.69,-2.22 -0.56,-4.57 -2.79,-5.25 l -1.89,-0.13"
         style="fill:#15233c;fill-opacity:1;fill-rule:nonzero;stroke:none"
         id="path316" />
      <path
         d="m 4363.18,3893.34 c -1.53,0.25 -2.86,1.34 -3.35,2.92 -0.67,2.22 0.58,4.58 2.79,5.25 l 41.75,12.75 c 2.2,0.68 4.57,-0.58 5.25,-2.79 0.68,-2.23 -0.57,-4.58 -2.8,-5.26 l -41.75,-12.74 -1.89,-0.13"
         style="fill:#15233c;fill-opacity:1;fill-rule:nonzero;stroke:none"
         id="path318" />
      <path
         d="m 4376.84,3762.36 107.8,367.19 c 6.87,-2.14 12.17,-8.98 10.71,-17.53 l -53.52,-308.41 c -5.38,-30.98 -36.28,-49.3 -64.99,-41.25"
         style="fill:#448f35;fill-opacity:1;fill-rule:nonzero;stroke:none"
         id="path320" />
      <path
         d="m 3311.56,3928.86 -262.2,244.26 c -12.64,11.77 -32.97,0.57 -29.77,-16.41 l 66.39,-352.13 c 7.51,-39.82 51.74,-60.67 87.23,-41.12 l 126.5,69.7 c 35.49,19.56 41.5,68.08 11.85,95.7"
         style="fill:#58ab34;fill-opacity:1;fill-rule:nonzero;stroke:none"
         id="path322" />
      <path
         d="m 3310.43,3840.76 -284.58,333.08 c 6.36,5.25 16.23,6.05 23.51,-0.7 l 262.18,-244.27 c 26.34,-24.53 24.56,-65.62 -1.11,-88.11"
         style="fill:#58ab34;fill-opacity:1;fill-rule:nonzero;stroke:none"
         id="path324" />
      <path
         d="m 3326.42,3628.26 c -1.64,-0.18 -3.3,0.61 -4.15,2.15 l -225.95,410.11 c -1.12,2.03 -0.38,4.59 1.65,5.71 2.05,1.12 4.59,0.38 5.72,-1.65 l 225.95,-410.11 c 1.12,-2.04 0.38,-4.59 -1.65,-5.71 l -1.57,-0.5"
         style="fill:#15233c;fill-opacity:1;fill-rule:nonzero;stroke:none"
         id="path326" />
      <path
         d="m 3212.61,3835.06 -1.63,0.14 -63.33,18.34 c -2.23,0.64 -3.51,2.97 -2.87,5.2 0.65,2.23 2.99,3.51 5.21,2.87 l 63.33,-18.33 c 2.23,-0.65 3.51,-2.98 2.87,-5.21 -0.49,-1.69 -1.94,-2.83 -3.58,-3.01"
         style="fill:#15233c;fill-opacity:1;fill-rule:nonzero;stroke:none"
         id="path328" />
      <path
         d="m 3136.42,3973.35 -1.63,0.14 -39.45,11.43 c -2.23,0.64 -3.52,2.97 -2.87,5.2 0.65,2.24 2.99,3.5 5.21,2.87 l 39.44,-11.42 c 2.24,-0.65 3.52,-2.97 2.87,-5.21 -0.49,-1.69 -1.93,-2.83 -3.57,-3.01"
         style="fill:#15233c;fill-opacity:1;fill-rule:nonzero;stroke:none"
         id="path330" />
      <path
         d="m 3173.21,3908.67 -1.63,0.15 c -2.23,0.64 -3.51,2.97 -2.86,5.2 l 13.89,48 c 0.65,2.23 2.98,3.51 5.21,2.87 2.23,-0.65 3.51,-2.97 2.86,-5.21 l -13.89,-48 c -0.49,-1.68 -1.94,-2.83 -3.58,-3.01"
         style="fill:#15233c;fill-opacity:1;fill-rule:nonzero;stroke:none"
         id="path332" />
      <path
         d="m 3310.43,3840.76 -284.58,333.08 c 6.36,5.25 16.23,6.05 23.51,-0.7 l 262.18,-244.27 c 26.34,-24.53 24.56,-65.62 -1.11,-88.11"
         style="fill:#448f35;fill-opacity:1;fill-rule:nonzero;stroke:none"
         id="path334" />
      <path
         d="m 3090.95,3683.9 -293.75,205.24 c -14.16,9.89 -32.73,-4.04 -27.18,-20.4 l 114.92,-339.42 c 13,-38.38 59.7,-52.84 92.11,-28.52 l 115.53,86.68 c 32.42,24.32 31.59,73.22 -1.63,96.42"
         style="fill:#7acc42;fill-opacity:1;fill-rule:nonzero;stroke:none"
         id="path336" />
      <path
         d="m 3102.14,3596.51 -328.32,290.06 c 5.57,6.08 15.22,8.27 23.38,2.59 l 293.73,-205.25 c 29.51,-20.62 33.49,-61.55 11.21,-87.4"
         style="fill:#58ab34;fill-opacity:1;fill-rule:nonzero;stroke:none"
         id="path338" />
      <path
         d="m 3147.27,3388.24 c -1.49,-0.24 -3.06,0.34 -4.03,1.63 l -281.02,374.53 c -1.4,1.86 -1.02,4.5 0.84,5.89 1.86,1.4 4.49,1.02 5.88,-0.84 l 281.03,-374.53 c 1.39,-1.86 1.02,-4.5 -0.84,-5.89 l -1.86,-0.79"
         style="fill:#15233c;fill-opacity:1;fill-rule:nonzero;stroke:none"
         id="path340" />
      <path
         d="m 3005.68,3577.12 -1.25,-0.01 -65.27,9.31 c -2.29,0.32 -3.89,2.45 -3.57,4.75 0.33,2.31 2.44,3.92 4.76,3.57 l 65.27,-9.3 c 2.3,-0.34 3.9,-2.46 3.57,-4.76 -0.27,-1.87 -1.73,-3.28 -3.51,-3.56"
         style="fill:#15233c;fill-opacity:1;fill-rule:nonzero;stroke:none"
         id="path342" />
      <path
         d="m 2910.92,3703.41 -1.25,-0.01 -40.66,5.8 c -2.29,0.33 -3.89,2.46 -3.56,4.76 0.32,2.3 2.44,3.91 4.75,3.57 l 40.66,-5.8 c 2.3,-0.33 3.9,-2.46 3.57,-4.76 -0.27,-1.87 -1.73,-3.28 -3.51,-3.56"
         style="fill:#15233c;fill-opacity:1;fill-rule:nonzero;stroke:none"
         id="path344" />
      <path
         d="m 2956.4,3644.51 -1.26,-0.02 c -2.29,0.34 -3.89,2.46 -3.57,4.76 l 7.06,49.47 c 0.33,2.3 2.44,3.92 4.76,3.57 2.3,-0.33 3.9,-2.46 3.57,-4.76 l -7.06,-49.47 c -0.26,-1.87 -1.72,-3.27 -3.5,-3.55"
         style="fill:#15233c;fill-opacity:1;fill-rule:nonzero;stroke:none"
         id="path346" />
      <path
         d="m 3102.14,3596.51 -328.32,290.06 c 5.57,6.08 15.22,8.27 23.38,2.59 l 293.73,-205.25 c 29.51,-20.62 33.49,-61.55 11.21,-87.4"
         style="fill:#58ab34;fill-opacity:1;fill-rule:nonzero;stroke:none"
         id="path348" />
      <path
         d="m 3540.66,3156.62 c 48.4,14.79 105.04,-33.39 123.49,-86.57 l 180.43,-493.02 c 3.88,-10.62 16.33,-15.27 26.23,-9.8 7.72,4.27 11.34,13.4 8.63,21.79 l -209.22,682.15 c -16.46,52.36 2.57,106.34 54.93,122.8 52.36,16.46 100.22,-15.5 116.68,-67.85 l 213.71,-660.77 c 2.83,-9.06 12.78,-13.79 21.58,-10.27 7.58,3.04 11.74,11.22 9.73,19.13 l -195.14,759.27 c -13.44,54.66 11.83,131.88 69.11,142.51 56.28,0 94.05,-9.79 126.76,-99.38 l 184.47,-750.19 c 2.78,-11.31 14.29,-18.16 25.56,-15.2 10.64,2.79 17.28,13.35 15.2,24.14 l -122.99,638.15 c -10.56,55.48 27.23,108.96 83.79,116.99 52.98,7.52 101.98,-30.02 111.98,-82.59 l 146.36,-769.04 5.99,-30.38 64.52,-180.04 c 0,0 -45.58,328.94 -9.48,421 36.1,92.04 161.54,139.87 163.34,83.92 1.81,-55.95 112.81,-565.82 110.1,-698.49 C 4863.72,2102.22 4629.99,1799 4629.99,1799 V 511.852 H 4054.22 V 1716.88 c -268.24,139.09 -340.46,652.29 -350.55,736.11 L 3498.6,3027.7 c -17.26,47.62 -11.83,116.66 42.06,128.92"
         style="fill:#f5d789;fill-opacity:1;fill-rule:nonzero;stroke:none"
         id="path350" />
      <path
         d="M 4629.99,1799.01 V 511.852 H 4384.52 V 1826.08 c -196.51,326.66 169.91,588.36 212.59,617.31 l 5.35,-14.94 c 0,0 -0.85,6.16 -2.24,17.03 -0.41,3.25 -0.87,6.92 -1.37,10.98 -10.02,81.45 -35.54,317.3 -5.88,392.99 36.11,92.04 161.55,139.87 163.35,83.92 1.81,-55.95 112.81,-565.83 110.1,-698.49 -2.7,-132.66 -236.43,-435.87 -236.43,-435.87"
         style="fill:#f5d789;fill-opacity:1;fill-rule:nonzero;stroke:none"
         id="path352" />
      <path
         d="m 4372.11,1891.99 c -24.14,315.82 224.94,532.4 224.94,532.4 l -0.89,-0.57 c -0.68,-0.44 -1.52,-1.57 -3.12,-2.08 -108.35,-35.25 -316.26,-245.47 -220.93,-529.75"
         style="fill:#e5bc5c;fill-opacity:1;fill-rule:nonzero;stroke:none"
         id="path354" />
      <path
         d="m 4757.91,2919.16 c 0,0 -36.39,-45.3 -34.11,-70 2.28,-24.7 72.38,-146.21 72.38,-146.21 0,0 5.3,123.8 -38.27,216.21"
         style="fill:#f4eddf;fill-opacity:1;fill-rule:nonzero;stroke:none"
         id="path356" />
      <path
         d="m 4629.99,511.852 h -95.22 V 1612.83 c 0,27.32 -20.07,50.4 -47.11,54.26 -55.88,7.97 -130.53,26.23 -70.65,33.1 82.57,9.47 212.98,98.82 212.98,98.82 V 1799 511.852"
         style="fill:#e5bc5c;fill-opacity:1;fill-rule:nonzero;stroke:none"
         id="path358" />
      <path
         d="m 3974.03,3158.37 c -48.4,14.79 -105.04,-33.4 -123.48,-86.58 l -180.43,-493.01 c -3.89,-10.62 -16.34,-15.28 -26.23,-9.8 -7.72,4.26 -11.34,13.39 -8.63,21.79 l 209.22,682.14 c 16.46,52.35 -2.58,106.35 -54.93,122.8 -52.36,16.46 -100.22,-15.49 -116.68,-67.85 l -213.72,-660.77 c -2.82,-9.06 -12.77,-13.79 -21.58,-10.26 -7.58,3.03 -11.74,11.21 -9.72,19.12 l 195.14,759.27 c 13.44,54.66 -11.84,131.88 -69.11,142.51 -56.28,0 -94.05,-9.78 -126.76,-99.37 l -184.47,-750.19 c -2.79,-11.32 -14.29,-18.16 -25.57,-15.21 -10.63,2.79 -17.27,13.35 -15.19,24.14 l 122.98,638.16 c 10.57,55.47 -27.22,108.96 -83.78,116.98 -52.98,7.52 -101.98,-30.02 -111.99,-82.59 l -146.35,-769.03 -5.99,-30.38 -64.52,-180.04 c 0,0 45.57,328.94 9.47,420.98 -36.09,92.06 -161.53,139.89 -163.33,83.93 -1.81,-55.95 -112.81,-565.83 -110.1,-698.48 2.7,-132.66 236.43,-435.88 236.43,-435.88 V 513.59 h 575.76 v 1205.04 c 268.24,139.08 340.45,652.27 350.56,736.1 l 205.06,574.71 c 17.27,47.62 11.84,116.67 -42.06,128.93"
         style="fill:#f5d789;fill-opacity:1;fill-rule:nonzero;stroke:none"
         id="path360" />
      <path
         d="M 2884.71,1800.75 V 513.59 h 245.47 v 1314.23 c 196.51,326.66 -169.91,588.37 -212.59,617.31 l -5.35,-14.93 c 0,0 0.85,6.15 2.23,17.02 0.41,3.25 0.88,6.92 1.37,10.98 10.02,81.45 35.55,317.3 5.88,392.98 -36.1,92.06 -161.54,139.88 -163.35,83.93 -1.8,-55.95 -112.8,-565.83 -110.09,-698.48 2.7,-132.67 236.43,-435.88 236.43,-435.88"
         style="fill:#f5d789;fill-opacity:1;fill-rule:nonzero;stroke:none"
         id="path362" />
      <path
         d="m 3142.59,1893.74 c 24.13,315.81 -224.94,532.4 -224.94,532.4 l 0.89,-0.58 c 0.67,-0.45 1.51,-1.56 3.11,-2.08 108.36,-35.24 316.26,-245.47 220.94,-529.74"
         style="fill:#e5bc5c;fill-opacity:1;fill-rule:nonzero;stroke:none"
         id="path364" />
      <path
         d="m 2756.79,2920.9 c 0,0 36.39,-45.3 34.11,-69.99 -2.28,-24.7 -72.38,-146.22 -72.38,-146.22 0,0 -5.31,123.8 38.27,216.21"
         style="fill:#f4eddf;fill-opacity:1;fill-rule:nonzero;stroke:none"
         id="path366" />
      <path
         d="m 2884.71,513.59 h 95.21 v 1100.99 c 0,27.31 20.07,50.4 47.11,54.24 55.89,7.98 130.53,26.24 70.66,33.11 -82.57,9.47 -212.98,98.82 -212.98,98.82 V 513.59"
         style="fill:#e5bc5c;fill-opacity:1;fill-rule:nonzero;stroke:none"
         id="path368" />
      <path
         d="m 4705.58,2876.92 c 0,-519.53 -421.14,-940.61 -940.6,-940.61 -117.1,0 -229.22,21.39 -332.65,60.53 -87.98,33.26 -169.71,79.37 -242.81,136.06 -180.12,139.38 -308.19,342.8 -350.21,576.16 -9.83,54.47 -14.94,110.59 -14.94,167.86 0,223.98 78.28,429.63 208.98,591.1 81.46,100.75 183.36,184.33 299.38,244.41 129.41,67.1 276.39,105.03 432.25,105.03 41.81,0 82.99,-2.75 123.35,-8.04 63.01,-8.24 124.06,-22.73 182.53,-42.85 365.35,-125.52 628.97,-469.72 634.65,-876.37 0.07,-4.41 0.07,-8.81 0.07,-13.28"
         style="fill:#57c7f4;fill-opacity:1;fill-rule:nonzero;stroke:none"
         id="path370" />
      <path
         d="m 4705.58,2876.92 c 0,-519.53 -421.14,-940.61 -940.6,-940.61 -117.1,0 -229.22,21.39 -332.65,60.53 -87.98,33.26 -169.71,79.37 -242.81,136.06 -180.12,139.38 -308.19,342.8 -350.21,576.16 -9.83,54.47 -14.94,110.59 -14.94,167.86 0,223.98 78.28,429.63 208.98,591.1 81.46,100.75 183.36,184.33 299.38,244.41 129.41,67.1 276.39,105.03 432.25,105.03 41.81,0 82.99,-2.75 123.35,-8.04 63.01,-8.24 124.06,-22.73 182.53,-42.85 365.35,-125.52 628.97,-469.72 634.65,-876.37 0.07,-4.41 0.07,-8.81 0.07,-13.28"
         style="fill:#57c7f4;fill-opacity:1;fill-rule:nonzero;stroke:none"
         id="path372" />
      <path
         d="m 4705.51,2890.2 c -3.77,270.53 -121.74,513.4 -307.86,682.65 50.78,-113.41 79.78,-238.71 81.62,-370.59 0.07,-4.41 0.07,-8.81 0.07,-13.28 0,-519.53 -421.14,-940.6 -940.61,-940.6 -117.09,0 -229.21,21.38 -332.64,60.52 -87.98,33.26 -169.71,79.36 -242.82,136.06 -19.72,15.26 -38.79,31.35 -57.22,48.1 63.69,-142.3 161.65,-265.89 283.47,-360.16 73.1,-56.69 154.83,-102.8 242.81,-136.06 103.43,-39.14 215.55,-60.53 332.65,-60.53 519.46,0 940.6,421.08 940.6,940.61 0,4.47 0,8.87 -0.07,13.28"
         style="fill:#3abef2;fill-opacity:1;fill-rule:nonzero;stroke:none"
         id="path374" />
      <path
         d="m 4705.51,2890.2 c -3.48,249.81 -104.34,476.02 -266.3,642.48 82.7,-137.73 131.15,-298.38 133.55,-470.18 0.07,-4.41 0.07,-8.81 0.07,-13.28 0,-519.53 -421.14,-940.61 -940.61,-940.61 -117.1,0 -229.22,21.4 -332.65,60.54 -87.98,33.26 -169.7,79.35 -242.81,136.05 -34.94,27.04 -67.9,56.52 -98.67,88.13 60.41,-100.58 139.05,-188.94 231.43,-260.43 73.1,-56.69 154.83,-102.8 242.81,-136.06 103.43,-39.14 215.55,-60.53 332.65,-60.53 519.46,0 940.6,421.08 940.6,940.61 0,4.47 0,8.87 -0.07,13.28"
         style="fill:#447ec9;fill-opacity:1;fill-rule:nonzero;stroke:none"
         id="path376" />
      <path
         d="m 3056.78,3171.38 c -6.58,-6.51 -9.77,-15.7 -8.56,-24.83 l 15.96,-123.68 c 1.92,-14.81 -7.6,-28.73 -22.09,-32.37 l -215.87,-54.52 c 8.24,133.19 44.19,258.9 102.22,371.34 l 139.12,7.98 c 14.56,0.83 27.59,-9.13 30.59,-23.43 l 10.53,-50.38 c 2.11,-9.83 -1.02,-20.05 -8.17,-27.14 l -43.73,-42.97"
         style="fill:#c6e895;fill-opacity:1;fill-rule:nonzero;stroke:none"
         id="path378" />
      <path
         d="m 3929,3803.16 -93.09,-266.69 c -13.15,-37.67 -37.93,-70.17 -70.81,-92.84 -64.29,-44.38 -167.85,-115.18 -173.6,-115.18 -1.15,0 -3.12,4.34 -5.75,11.87 37.36,24.65 92.01,62.13 131.72,89.52 32.82,22.67 57.59,55.17 70.75,92.9 l 100.11,286.68 c 13.66,-1.79 27.19,-3.9 40.67,-6.26"
         style="fill:#57c7f4;fill-opacity:1;fill-rule:nonzero;stroke:none"
         id="path380" />
      <path
         d="m 3709.24,2520.87 -99.85,58.99 c -6.45,3.83 -11.69,9.38 -15.2,16.03 l -14.5,28.02 c -6.13,11.81 -17.75,19.86 -30.96,21.33 l -43.42,4.98 c -6.26,0.7 -12.19,2.87 -17.43,6.32 l -115.18,75.6 c -7.91,5.17 -17.43,7.4 -26.82,6.25 l -182.53,-22.15 c -1.6,-0.19 -3.26,-0.32 -4.86,-0.32 -15.57,0 -30.01,9.13 -36.52,23.69 -11.49,25.73 6.45,54.97 34.61,56.31 l 79.94,3.96 c 19.15,0.96 34.92,15.32 37.67,34.29 l 13.85,95.64 c 1.66,11.3 7.98,21.26 17.43,27.58 l 118.82,79.24 c 3.96,2.62 7.41,5.93 10.15,9.76 l 75.53,103.82 c 12.33,16.92 9.52,40.48 -6.44,54.08 l -120.74,102.48 c -3.58,3.06 -6.64,6.7 -8.94,10.85 l -74.25,131.2 c -7.98,14.12 -23.75,22.04 -39.84,19.99 -45.21,-5.75 -138.11,-17.62 -201.7,-25.86 -130.7,-161.47 -208.97,-367.12 -208.97,-591.1 0,-57.27 5.11,-113.39 14.94,-167.85 l 241.72,-149.92 c 9.9,-6.19 16.67,-16.34 18.45,-27.9 l 20.57,-131.85 c 1.27,-8.36 5.23,-16.09 11.23,-22.09 l 82.11,-82.17 c 10.22,-10.22 14.18,-25.09 10.28,-39.01 l -32.64,-117.74 c 66.25,-47.78 138.97,-87.13 216.58,-116.48 10.35,-3.91 20.81,-7.6 31.32,-11.16 l 78.82,165.82 c 4.02,8.5 10.98,15.33 19.54,19.22 l 61.81,28.1 c 11.36,5.17 19.66,15.32 22.47,27.45 l 26.49,115.06 c 0.52,2.1 1.22,4.2 2.05,6.26 l 51.01,123.54 c 7.67,18.38 0.58,39.58 -16.6,49.74"
         style="fill:#447ec9;fill-opacity:1;fill-rule:nonzero;stroke:none"
         id="path382" />
      <path
         d="m 3701.13,2496.19 -51.02,-123.54 c -0.83,-2.05 -1.53,-4.15 -2.04,-6.26 l -26.5,-115.06 c -2.81,-12.12 -11.11,-22.27 -22.47,-27.45 l -61.8,-28.09 c -8.56,-3.89 -15.52,-10.72 -19.55,-19.22 l -85.42,-179.73 c -87.98,33.26 -169.71,79.37 -242.81,136.06 l 34.15,123.23 c 3.9,13.92 -0.06,28.79 -10.27,39 l -82.12,82.18 c -6,6 -9.95,13.73 -11.23,22.09 l -20.56,131.85 c -1.79,11.56 -8.56,21.71 -18.45,27.9 l -241.73,149.91 c -9.83,54.47 -14.94,110.59 -14.94,167.86 0,223.98 78.28,429.63 208.98,591.1 63.58,8.24 156.49,20.11 201.69,25.86 16.09,2.04 31.86,-5.88 39.84,-19.99 l 74.26,-131.2 c 2.29,-4.15 5.36,-7.79 8.93,-10.86 l 120.74,-102.47 c 15.96,-13.6 18.77,-37.16 6.45,-54.08 l -75.53,-103.82 c -2.75,-3.83 -6.19,-7.15 -10.15,-9.76 l -118.83,-79.24 c -9.45,-6.32 -15.76,-16.28 -17.42,-27.58 l -13.86,-95.64 c -2.74,-18.97 -18.52,-33.33 -37.67,-34.29 l -79.94,-3.96 c -28.15,-1.34 -46.1,-30.58 -34.6,-56.32 6.51,-14.55 20.94,-23.68 36.52,-23.68 1.59,0 3.25,0.13 4.85,0.31 l 182.54,22.16 c 9.39,1.15 18.9,-1.09 26.82,-6.26 l 115.17,-75.59 c 5.24,-3.45 11.18,-5.62 17.44,-6.32 l 43.41,-4.98 c 13.22,-1.47 24.84,-9.52 30.97,-21.33 l 14.49,-28.03 c 3.51,-6.64 8.75,-12.19 15.2,-16.02 l 99.86,-59 c 17.17,-10.15 24.26,-31.35 16.6,-49.74"
         style="fill:#a3da6b;fill-opacity:1;fill-rule:nonzero;stroke:none"
         id="path384" />
      <path
         d="m 3701.13,2496.19 -51.02,-123.54 c -0.83,-2.05 -1.53,-4.15 -2.04,-6.26 l -26.5,-115.06 c -2.81,-12.12 -11.11,-22.27 -22.47,-27.45 l -61.8,-28.09 c -8.56,-3.89 -15.52,-10.72 -19.55,-19.22 l -85.42,-179.73 c -21.01,7.92 -41.69,16.6 -62,26.05 -49.92,23.05 -97.49,50.44 -142.18,81.6 -13.16,9.13 -25.99,18.64 -38.63,28.41 l 34.15,123.23 c 3.9,13.92 -0.06,28.79 -10.27,39 l -82.12,82.18 c -6,6 -9.95,13.73 -11.23,22.09 l -20.56,131.85 c -1.79,11.56 -8.56,21.71 -18.45,27.9 l -241.73,149.91 c -3.96,22.03 -7.21,44.38 -9.58,66.91 -3.57,33.14 -5.36,66.85 -5.36,100.95 0,196.2 60.08,378.42 162.88,529.1 14.55,21.33 29.94,42.02 46.1,62 63.58,8.24 156.49,20.11 201.69,25.86 16.09,2.04 31.86,-5.88 39.84,-19.99 l 74.26,-131.2 c 2.29,-4.15 5.36,-7.79 8.93,-10.86 l 120.74,-102.47 c 15.96,-13.6 18.77,-37.16 6.45,-54.08 l -75.53,-103.82 c -2.75,-3.83 -6.19,-7.15 -10.15,-9.76 l -118.83,-79.24 c -9.45,-6.32 -15.76,-16.28 -17.42,-27.58 l -13.86,-95.64 c -2.74,-18.97 -18.52,-33.33 -37.67,-34.29 l -79.94,-3.96 c -28.15,-1.34 -46.1,-30.58 -34.6,-56.32 6.51,-14.55 20.94,-23.68 36.52,-23.68 1.59,0 3.25,0.13 4.85,0.31 l 182.54,22.16 c 9.39,1.15 18.9,-1.09 26.82,-6.26 l 115.17,-75.59 c 5.24,-3.45 11.18,-5.62 17.44,-6.32 l 43.41,-4.98 c 13.22,-1.47 24.84,-9.52 30.97,-21.33 l 14.49,-28.03 c 3.51,-6.64 8.75,-12.19 15.2,-16.02 l 99.86,-59 c 17.17,-10.15 24.26,-31.35 16.6,-49.74"
         style="fill:#7acc42;fill-opacity:1;fill-rule:nonzero;stroke:none"
         id="path386" />
      <path
         d="m 3370.33,2022.89 v 0 c -49.92,23.05 -97.49,50.44 -142.18,81.6 l 57.08,134.59 c 10.02,35.89 -0.2,74.71 -26.69,101.2 l -76.62,76.68 -19.35,124.12 c -4.6,29.75 -21.96,56.12 -47.69,72.21 l -217.28,134.72 c -11.23,4.98 -35.49,14.81 -67.87,27.96 v 0 c -3.57,33.14 -5.36,66.85 -5.36,100.95 0,196.2 60.08,378.42 162.88,529.1 24.04,1.36 48.69,2.06 73.87,2.06 2.11,0 4.21,0 6.32,-0.01 53.38,6.89 118.12,15.13 159.75,20.43 l 66.4,-117.29 c 5.61,-10.15 13.47,-19.73 22.92,-27.83 l 104.14,-88.37 -60.09,-82.56 -115.24,-76.87 c -24.45,-16.34 -40.93,-42.39 -45.14,-71.45 l -11.11,-76.35 -60.34,-3.01 c -34.22,-1.66 -65.44,-20.05 -83.38,-49.29 -18,-29.31 -20.43,-65.51 -6.39,-96.85 16.73,-37.36 53.96,-61.49 94.82,-61.49 4.08,0 8.17,0.26 12.51,0.77 l 173.98,21.13 107.85,-70.81 c 13.53,-8.87 29.24,-14.62 45.39,-16.41 l 30.65,-3.51 8.62,-16.66 c 9.26,-17.63 22.79,-31.8 39.26,-41.63 l 82.18,-48.52 -43.1,-104.46 c -2.24,-5.43 -3.9,-10.54 -5.11,-15.58 l -24.01,-104.32 -51.14,-23.25 c -22.34,-10.15 -40.35,-27.9 -50.82,-49.99 l -89.71,-181.01"
         style="fill:#88d04c;fill-opacity:1;fill-rule:nonzero;stroke:none"
         id="path388" />
      <path
         d="m 4520.1,2954.15 c 7.12,9.9 21.23,11.49 30.37,3.44 l 35.79,-31.5 42.33,16.91 76.94,-57.22 c -0.01,1.47 0,2.96 -0.02,4.42 -3.67,263.04 -115.3,499.92 -292.55,668.43 -91.47,80.81 -198.75,144.12 -316.67,184.64 l -70.19,-203.48 c -6.32,-18.33 7.85,-37.25 27.22,-36.33 l 92.9,4.4 116.33,25.41 -29.62,-46.54 -262.34,-175.45 c -29.03,-19.42 -27.3,-62.67 3.19,-79.71 l 63.72,-35.58 c 8.77,-4.9 18.91,-6.85 28.89,-5.54 l 239.64,31.47 c 18.03,2.36 33.73,-12.31 32.58,-30.46 l -4.14,-65.62 c -1.11,-17.34 -17.15,-29.8 -34.23,-26.55 l -328.75,62.55 c -17.53,3.33 -35.5,-3.03 -47.02,-16.64 l -133.18,-157.33 c -7.19,-8.51 -11.31,-19.2 -11.69,-30.33 l -4.45,-134.37 c -0.76,-22.8 14.15,-43.15 36.12,-49.31 l 180.55,-50.56 c 26.23,-7.35 42.37,-33.66 37.02,-60.36 l -13.82,-69.06 57.13,-145.95 6.33,-344.85 57.14,12.65 230.33,134.82 c 19.76,11.58 37.13,26.8 51.19,44.88 l 190.17,244.54 c 16.75,21.54 28.03,46.8 32.89,73.64 l 23.47,129.56 c 5.61,31.05 -8.77,62.3 -36.02,78.21 l -123.39,72.07 c -10.5,6.13 -13.44,19.98 -6.34,29.85 l 22.18,30.85"
         style="fill:#447ec9;fill-opacity:1;fill-rule:nonzero;stroke:none"
         id="path390" />
      <path
         d="m 3888.33,3809.42 -100.1,-286.7 c -13.16,-37.69 -37.92,-70.19 -70.77,-92.86 -64.34,-44.39 -167.87,-115.2 -173.66,-115.2 -6.9,0 -47.39,167.99 -62.26,230.69 -3.62,15.27 -11.29,29.22 -22.27,40.43 -30.01,30.68 -92.84,94.6 -126.54,126.65 129.41,67.1 276.39,105.03 432.25,105.03 41.81,0 82.99,-2.75 123.35,-8.04"
         style="fill:#7acc42;fill-opacity:1;fill-rule:nonzero;stroke:none"
         id="path392" />
      <path
         d="m 3929,3803.16 -93.09,-266.69 c -13.15,-37.67 -37.93,-70.17 -70.81,-92.84 -64.29,-44.38 -212.77,-130.06 -218.52,-130.06 -1.15,0 1.75,-5.9 -0.88,1.64 37.36,24.64 132.06,87.24 171.77,114.63 32.82,22.67 57.59,55.17 70.75,92.9 l 100.11,286.68 c 13.66,-1.79 27.19,-3.9 40.67,-6.26"
         style="fill:#447ec9;fill-opacity:1;fill-rule:nonzero;stroke:none"
         id="path394" />
      <path
         d="m 4478.83,2916.75 123.4,-72.07 c 27.25,-15.91 41.63,-47.16 36.02,-78.2 l -23.47,-129.57 c -4.86,-26.84 -16.14,-52.1 -32.89,-73.64 l -190.17,-244.53 c -14.06,-18.08 -31.43,-33.31 -51.19,-44.88 l -230.33,-134.83 -57.15,-12.64 -6.32,344.84 -57.13,145.95 13.81,69.06 c 5.35,26.71 -10.78,53.01 -37.01,60.36 l -180.55,50.57 c -21.97,6.15 -36.88,26.5 -36.12,49.3 l 4.46,134.37 c 0.37,11.14 4.49,21.83 11.68,30.33 l 133.17,157.33 c 11.53,13.62 29.5,19.98 47.03,16.64 l 328.75,-62.54 c 17.07,-3.25 33.13,9.2 34.22,26.54 l 4.15,65.62 c 1.15,18.15 -14.55,32.83 -32.58,30.46 l -239.65,-31.47 c -9.97,-1.31 -20.1,0.64 -28.88,5.54 l -63.71,35.59 c -30.5,17.03 -32.23,60.28 -3.2,79.7 l 262.34,175.45 29.62,46.55 -116.33,-25.41 -92.9,-4.41 c -19.37,-0.92 -33.55,18 -27.22,36.33 l 70.18,203.48 c 365.35,-125.52 628.97,-469.72 634.65,-876.37 l -102.34,76.11 -42.33,-16.92 -35.79,31.5 c -9.14,8.06 -23.25,6.46 -30.37,-3.44 l -22.18,-30.85 c -7.1,-9.87 -4.16,-23.72 6.33,-29.85"
         style="fill:#7acc42;fill-opacity:1;fill-rule:nonzero;stroke:none"
         id="path396" />
      <path
         d="m 4167.29,2259.73 c -27.24,0 -52.04,23.08 -49.4,53.82 l 22.96,266.91 c 1.93,22.39 -11.49,43.28 -32.66,50.84 -15.46,5.52 -27.17,18.34 -31.27,34.23 l -21.95,85.07 c -3.87,14.99 -14.53,27.31 -28.82,33.29 l -152.77,63.91 c -21.48,8.99 -33.79,31.73 -29.57,54.62 l 18.71,101.66 c 2.77,14.96 12.27,27.84 25.77,34.89 l 106.42,55.59 c 7.13,3.73 15,5.63 22.91,5.63 4.43,0 8.86,-0.6 13.2,-1.79 l 272.82,-56.31 c 7.53,-2.09 14.46,-5.93 20.22,-11.21 l 46.65,-71.04 c 32.22,-49.07 74.92,-90.39 125,-120.99 l 56.17,-34.32 c 14.27,-13.08 19.61,-33.28 13.66,-51.71 l -56.97,-176.23 c -1.69,-5.26 -4.26,-10.19 -7.59,-14.6 L 4357.64,2372.5 c -3.71,-4.91 -8.29,-9.09 -13.53,-12.31 l -150.96,-93 c -8.33,-5.14 -17.22,-7.46 -25.86,-7.46"
         style="fill:#88d04c;fill-opacity:1;fill-rule:nonzero;stroke:none"
         id="path398" />
      <path
         d="m 4538.49,3032.16 c -4.18,0 -8.36,0.99 -12.18,2.97 l -93.52,48.43 c -7.89,4.08 -13.2,11.86 -14.15,20.7 l -19.29,180.61 c -1.42,13.36 -12.64,23.53 -26.07,23.67 l -187.15,1.87 -2.25,0.12 -48.51,4.62 c -25.79,2.45 -33.08,36.67 -10.52,49.42 l 68.32,38.61 c 3,1.7 5.64,3.96 7.77,6.67 l 97.46,123.7 c 5.86,7.44 7.31,17.44 3.79,26.23 l -9.76,24.41 c -3.55,8.86 -11.59,15.13 -21.05,16.41 l -113.24,15.3 c -15.24,2.06 -25.53,16.63 -22.37,31.68 l 16.17,77.15 c 0.63,2.99 1.84,5.69 3.32,8.16 277.54,-126.69 482.7,-384.39 536.45,-694.07 l -67.4,25.75 c -3.05,1.17 -6.26,1.75 -9.45,1.75 -4.37,0 -8.71,-1.08 -12.64,-3.21 l -51.09,-27.74 c -3.94,-2.14 -8.29,-3.21 -12.64,-3.21"
         style="fill:#88d04c;fill-opacity:1;fill-rule:nonzero;stroke:none"
         id="path400" />
      <path
         d="m 3758.12,3817.43 c 0.07,0 0.15,0 0.22,0 -0.06,0 -0.15,0 -0.22,0"
         style="fill:#aadf9d;fill-opacity:1;fill-rule:nonzero;stroke:none"
         id="path402" />
      <path
         d="m 3759.65,3817.44 c 0.23,0 0.45,0.01 0.67,0.01 -0.23,0 -0.44,-0.01 -0.67,-0.01"
         style="fill:#aadf9d;fill-opacity:1;fill-rule:nonzero;stroke:none"
         id="path404" />
      <path
         d="m 3760.65,3817.45 c 0.17,0 0.33,0 0.5,0 -0.17,0 -0.32,0 -0.5,0"
         style="fill:#aadf9d;fill-opacity:1;fill-rule:nonzero;stroke:none"
         id="path406" />
      <path
         d="m 3761.46,3817.45 c 0.2,0 0.4,0 0.6,0 -0.2,0 -0.4,0 -0.6,0"
         style="fill:#aadf9d;fill-opacity:1;fill-rule:nonzero;stroke:none"
         id="path408" />
      <path
         d="m 3762.28,3817.45 c 0.26,0 0.53,0.01 0.79,0.01 -0.25,0 -0.53,-0.01 -0.79,-0.01"
         style="fill:#aadf9d;fill-opacity:1;fill-rule:nonzero;stroke:none"
         id="path410" />
      <path
         d="m 3763.31,3817.46 c 0.2,0 0.4,0 0.6,0 -0.2,0 -0.4,0 -0.6,0"
         style="fill:#aadf9d;fill-opacity:1;fill-rule:nonzero;stroke:none"
         id="path412" />
      <path
         d="m 3764.16,3817.46 c 0.27,0 0.54,0 0.82,0 -0.28,0 -0.54,0 -0.82,0"
         style="fill:#aadf9d;fill-opacity:1;fill-rule:nonzero;stroke:none"
         id="path414" />
      <path
         d="m 3602.22,3442.75 c -16.11,0 -31.58,11.52 -33.88,29.79 l -16.33,129.7 c -0.74,5.9 -3.01,11.5 -6.6,16.24 l -103.82,137.41 c -0.87,1.15 -1.62,2.34 -2.32,3.54 99.47,36.74 206.81,57.2 318.85,58 0.07,0 0.16,0 0.22,0 0.17,0.01 0.33,0.01 0.5,0.01 0.1,0 0.21,0 0.32,0 0.17,0 0.33,0 0.49,0 0.23,0 0.44,0.01 0.67,0.01 0.11,0 0.22,0 0.33,0 0.18,0 0.33,0 0.5,0 0.1,0 0.21,0 0.31,0 0.2,0 0.4,0 0.6,0 0.08,0 0.15,0 0.22,0 0.26,0 0.54,0.01 0.79,0.01 0.08,0 0.16,0 0.24,0 0.2,0 0.4,0 0.6,0 0.09,0 0.17,0 0.25,0 0.28,0 0.54,0 0.82,0 v 0 c 20.82,0 41.47,-0.69 61.95,-2.02 -0.25,-1.15 -0.51,-2.29 -0.89,-3.43 l -82.99,-251.23 c -1.91,-5.8 -5.35,-10.97 -9.95,-14.98 l -108.72,-94.66 c -6.63,-5.77 -14.46,-8.39 -22.16,-8.39"
         style="fill:#88d04c;fill-opacity:1;fill-rule:nonzero;stroke:none"
         id="path416" />
      <path
         d="m 3662.72,1941.84 c -21.84,-41.48 -46.63,-80.55 -74.89,-115.32 -245.88,6.72 -444.71,284.32 -444.71,284.32 l -19.43,78.15 c 21.11,-19.75 43.06,-38.45 65.86,-56.09 73.1,-56.72 154.82,-102.83 242.73,-136.02 72.89,-27.63 150.2,-46.42 230.44,-55.04"
         style="fill:#e5bc5c;fill-opacity:1;fill-rule:nonzero;stroke:none"
         id="path418" />
      <path
         d="m 3851.98,1940.1 c 21.84,-41.49 46.63,-80.56 74.88,-115.33 245.89,6.72 444.72,284.33 444.72,284.33 l 19.43,78.14 c -21.11,-19.74 -43.06,-38.43 -65.86,-56.08 -73.1,-56.72 -154.82,-102.83 -242.73,-136.03 -72.89,-27.61 -150.2,-46.42 -230.44,-55.03"
         style="fill:#e5bc5c;fill-opacity:1;fill-rule:nonzero;stroke:none"
         id="path420" />
      <path
         d="M 2884.71,1800.75 V 513.59 h 245.47 v 1314.23 c 142.79,403.29 -169.91,588.37 -212.59,617.31 l -5.35,-14.93 c 0,0 0.85,6.15 2.23,17.02 0.41,3.25 0.88,6.92 1.37,10.98 10.02,81.46 35.55,317.3 5.88,392.98 -36.1,92.05 -161.54,139.88 -163.35,83.93 -1.8,-55.95 -112.8,-565.83 -110.09,-698.48 2.7,-132.67 236.43,-435.88 236.43,-435.88"
         style="fill:#f5d789;fill-opacity:1;fill-rule:nonzero;stroke:none"
         id="path422" />
      <path
         d="m 3142.59,1893.74 c 24.13,315.81 -227.12,549.08 -227.12,549.08 l 0.88,-0.58 c 0.67,-0.45 1.52,-1.56 3.11,-2.08 108.36,-35.24 318.45,-262.15 223.13,-546.42"
         style="fill:#e5bc5c;fill-opacity:1;fill-rule:nonzero;stroke:none"
         id="path424" />
      <path
         d="m 2756.79,2920.9 c 0,0 36.39,-45.3 34.11,-69.99 -2.28,-24.7 -72.38,-146.22 -72.38,-146.22 0,0 -5.31,123.8 38.27,216.21"
         style="fill:#f4eddf;fill-opacity:1;fill-rule:nonzero;stroke:none"
         id="path426" />
      <path
         d="m 2884.71,513.59 h 95.21 v 1100.99 c 0,27.31 20.07,50.4 47.11,54.24 55.89,7.98 130.53,26.24 70.66,33.11 -82.57,9.47 -212.98,98.82 -212.98,98.82 V 513.59"
         style="fill:#e5bc5c;fill-opacity:1;fill-rule:nonzero;stroke:none"
         id="path428" />
      <path
         d="M 4629.99,1799.01 V 511.852 H 4384.52 V 1826.08 c -142.79,403.28 169.91,588.36 212.59,617.31 l 5.35,-14.94 c 0,0 -0.85,6.16 -2.24,17.03 -0.41,3.25 -0.87,6.92 -1.37,10.98 -10.02,81.45 -35.54,317.3 -5.88,392.99 36.11,92.04 161.55,139.87 163.35,83.92 1.81,-55.95 112.81,-565.83 110.1,-698.49 -2.7,-132.66 -236.43,-435.87 -236.43,-435.87"
         style="fill:#f5d789;fill-opacity:1;fill-rule:nonzero;stroke:none"
         id="path430" />
      <path
         d="m 4372.11,1891.99 c -24.14,315.82 227.12,549.08 227.12,549.08 l -0.88,-0.58 c -0.68,-0.43 -1.52,-1.56 -3.12,-2.08 -108.35,-35.24 -318.45,-262.14 -223.12,-546.42"
         style="fill:#e5bc5c;fill-opacity:1;fill-rule:nonzero;stroke:none"
         id="path432" />
      <path
         d="m 4757.91,2919.16 c 0,0 -36.39,-45.3 -34.11,-70 2.28,-24.7 72.38,-146.21 72.38,-146.21 0,0 5.3,123.8 -38.27,216.21"
         style="fill:#f4eddf;fill-opacity:1;fill-rule:nonzero;stroke:none"
         id="path434" />
      <path
         d="m 4629.99,511.852 h -95.22 V 1612.83 c 0,27.32 -20.07,50.4 -47.11,54.26 -55.88,7.97 -130.53,26.23 -70.65,33.1 82.57,9.47 212.98,98.82 212.98,98.82 V 1799 511.852"
         style="fill:#e5bc5c;fill-opacity:1;fill-rule:nonzero;stroke:none"
         id="path436" />
      <path
         d="m 5822.44,898.582 h -237.4 v 21.008 h 237.4 c 49.69,0 90.1,40.41 90.1,90.09 v 820.88 h 21 v -820.88 c 0,-61.27 -49.83,-111.098 -111.1,-111.098"
         style="fill:#3e3c3c;fill-opacity:1;fill-rule:nonzero;stroke:none"
         id="path438" />
      <path
         d="m 5872.61,1737.01 h 97.58 v -111.06 c 0,-13.67 -11.07,-24.75 -24.74,-24.75 h -48.08 c -13.67,0 -24.76,11.08 -24.76,24.75 v 111.06"
         style="fill:#fab60a;fill-opacity:1;fill-rule:nonzero;stroke:none"
         id="path440" />
      <path
         d="m 5872.61,1676.15 v 60.86 h 97.59 v -60.86 h -97.59"
         style="fill:#f57c14;fill-opacity:1;fill-rule:nonzero;stroke:none"
         id="path442" />
      <path
         d="m 5765.78,2000.02 h 312.76 v -219.29 c 0,-43.59 -35.33,-78.94 -78.93,-78.94 h -154.9 c -43.59,0 -78.93,35.35 -78.93,78.94 v 219.29"
         style="fill:#fab60a;fill-opacity:1;fill-rule:nonzero;stroke:none"
         id="path444" />
      <path
         d="m 5765.78,1962.89 h 312.758 v 37.1289 H 5765.78 Z"
         style="fill:#f57c14;fill-opacity:1;fill-rule:nonzero;stroke:none"
         id="path446" />
      <path
         d="m 5834.87,2000.02 v -219.29 c 0,-43.59 35.34,-78.94 78.94,-78.94 h -69.1 c -43.59,0 -78.93,35.35 -78.93,78.94 v 219.29 h 69.09"
         style="fill:#f57c14;fill-opacity:1;fill-rule:nonzero;stroke:none"
         id="path448" />
      <path
         d="m 5900.52,1903.34 h 57.88 l -17.93,-38.47 h 51.98 c 0,0 -53.54,-109.69 -53.02,-108.13 0.52,1.57 10.92,75.9 10.92,75.9 h -71.74 l 21.91,70.7"
         style="fill:#ffffff;fill-opacity:1;fill-rule:nonzero;stroke:none"
         id="path450" />
      <path
         d="m 5973.73,2000.02 v 0 153.4 c 0,11.15 9.04,20.18 20.19,20.18 11.16,0 20.2,-9.03 20.2,-20.18 v -121.16 h -40.39 v -32.24"
         style="fill:#afced0;fill-opacity:1;fill-rule:nonzero;stroke:none"
         id="path452" />
      <path
         d="m 5973.73,2000.02 h 40.3906 v 32.2422 H 5973.73 Z"
         style="fill:#a9b7b6;fill-opacity:1;fill-rule:nonzero;stroke:none"
         id="path454" />
      <path
         d="m 5973.73,1999.22 h 40.3906 v 0.8008 H 5973.73 Z"
         style="fill:#c49052;fill-opacity:1;fill-rule:nonzero;stroke:none"
         id="path456" />
      <path
         d="m 5830.2,2000.02 v 0 153.4 c 0,11.15 9.04,20.18 20.2,20.18 11.15,0 20.19,-9.03 20.19,-20.18 v -121.16 h -40.39 v -32.24"
         style="fill:#afced0;fill-opacity:1;fill-rule:nonzero;stroke:none"
         id="path458" />
      <path
         d="m 5830.2,2000.02 h 40.3906 v 32.2422 H 5830.2 Z"
         style="fill:#a9b7b6;fill-opacity:1;fill-rule:nonzero;stroke:none"
         id="path460" />
      <path
         d="m 5870.59,1999.22 h -35.72 v 0.8 h -4.67 40.39 v -0.8"
         style="fill:#c49052;fill-opacity:1;fill-rule:nonzero;stroke:none"
         id="path462" />
      <path
         d="m 5830.2,1999.22 h 4.6719 v 0.8008 H 5830.2 Z"
         style="fill:#c49052;fill-opacity:1;fill-rule:nonzero;stroke:none"
         id="path464" />
      <path
         d="M 5745.49,1147.12 5731.1,972.648 5712.61,748.93 H 3562.05 l -78.46,211.64 c -2.31,6.41 -3.25,13.34 -2.52,20.282 0.21,6.617 2,13.019 5.15,18.898 l 19.43,36.98 15.44,29.41 53.04,101.25 7.67,14.6 3.04,5.67 8.2,15.86 c 11.76,22.27 34.87,36.45 60.29,36.45 h 324.65 c 31.3,0 61.45,8.92 87.6,25.62 12.08,7.14 23.32,16.39 33.3,27.1 l 282.44,304.49 3.35,3.58 c 30.46,33.08 73.53,51.78 118.38,51.78 h 959.16 c 50.32,0 98,-23.64 128.46,-63.55 l 144.74,-371.92 c 4.62,-12.29 7.77,-24.79 9.23,-37.6 1.59,-10.82 1.79,-21.53 0.85,-32.35"
         style="fill:#fab60a;fill-opacity:1;fill-rule:nonzero;stroke:none"
         id="path466" />
      <path
         d="m 3528.78,838.852 33.31,-89.84 h 2150.59 l 7.39,89.84 H 3528.78"
         style="fill:#f57c14;fill-opacity:1;fill-rule:nonzero;stroke:none"
         id="path468" />
      <path
         d="m 4422.91,797.461 c 0,-16.492 -1.37,-32.781 -4.1,-48.531 h -587.24 c -2.74,15.75 -4.09,32.039 -4.09,48.531 0,164.168 133.6,297.659 297.76,297.659 164.06,0 297.67,-133.491 297.67,-297.659"
         style="fill:#f57c14;fill-opacity:1;fill-rule:nonzero;stroke:none"
         id="path470" />
      <path
         d="m 5618.92,797.461 c 0,-16.492 -1.37,-32.781 -4.09,-48.531 h -587.14 c -2.73,15.75 -4.1,32.039 -4.1,48.531 0,164.168 133.51,297.659 297.67,297.659 164.17,0 297.66,-133.491 297.66,-297.659"
         style="fill:#f57c14;fill-opacity:1;fill-rule:nonzero;stroke:none"
         id="path472" />
      <path
         d="m 3758.35,1150.48 -83.54,-76.36 c -26.4,-24.09 -61,-37.41 -96.87,-37.41 h -72.27 l 15.38,29.46 53.04,101.23 7.69,14.61 3.08,5.63 H 3744 c 19.22,0 28.45,-24.09 14.35,-37.16"
         style="fill:#fefefe;fill-opacity:1;fill-rule:nonzero;stroke:none"
         id="path474" />
      <path
         d="m 3627.66,1167.4 -47.93,-81.24 c -7.18,-12.3 -21.01,-19.99 -35.62,-19.99 h -23.06 l 53.04,101.23 h 53.57"
         style="fill:#d6eff1;fill-opacity:1;fill-rule:nonzero;stroke:none"
         id="path476" />
      <path
         d="m 3639.64,1157.83 v -52.71 c 0,-10.17 12.09,-15.5 19.61,-8.64 l 57.68,52.71 c 7.89,7.2 2.79,20.35 -7.9,20.35 h -57.68 c -6.47,0 -11.71,-5.25 -11.71,-11.71"
         style="fill:#fab60a;fill-opacity:1;fill-rule:nonzero;stroke:none"
         id="path478" />
      <path
         d="m 4430.53,1597.15 -95.58,-257.54 c -16.66,-44.59 -59.2,-74.07 -106.86,-74.07 h -162.48 c 12.05,7.18 23.32,16.41 33.32,27.17 l 282.4,304.44 h 49.2"
         style="fill:#211f1d;fill-opacity:1;fill-rule:nonzero;stroke:none"
         id="path480" />
      <path
         d="m 4970.49,1595.1 v -333.91 h -544.05 l 97.64,333.91 h 446.41"
         style="fill:#211f1d;fill-opacity:1;fill-rule:nonzero;stroke:none"
         id="path482" />
      <path
         d="m 5610.39,1261.19 h -544.31 v 333.91 h 446.42 l 12.29,-41.76 43.06,-146.85 42.54,-145.3"
         style="fill:#211f1d;fill-opacity:1;fill-rule:nonzero;stroke:none"
         id="path484" />
      <path
         d="m 4782.56,1202.27 h -138.52 c -11.18,0 -20.25,-9.06 -20.25,-20.24 0,-11.18 9.07,-20.25 20.25,-20.25 h 138.52 c 11.2,0 20.26,9.07 20.26,20.25 0,11.18 -9.06,20.24 -20.26,20.24"
         style="fill:#211f1d;fill-opacity:1;fill-rule:nonzero;stroke:none"
         id="path486" />
      <path
         d="M 5745.44,1147.15 5731.09,972.629 H 5717 c -36.65,0 -68.68,24.601 -77.91,60.231 l -32.03,123.01 c -3.08,12.04 5.9,23.57 18.19,23.57 h 119.42 c 1.54,-10.76 1.79,-21.52 0.77,-32.29"
         style="fill:#e32024;fill-opacity:1;fill-rule:nonzero;stroke:none"
         id="path488" />
      <path
         d="m 4693.46,1261.19 h -174.25 l 209.11,333.91 h 174.26 l -209.12,-333.91"
         style="fill:#2d2a29;fill-opacity:1;fill-rule:nonzero;stroke:none"
         id="path490" />
      <path
         d="m 5189.6,1261.19 h -123.52 v 81.24 l 158.37,252.67 h 174.27 L 5189.6,1261.19"
         style="fill:#2d2a29;fill-opacity:1;fill-rule:nonzero;stroke:none"
         id="path492" />
      <path
         d="m 5476.62,1261.19 h -135.05 l 183.22,292.15 43.06,-146.85 -91.23,-145.3"
         style="fill:#2d2a29;fill-opacity:1;fill-rule:nonzero;stroke:none"
         id="path494" />
      <path
         d="m 4370.35,797.469 c 0,135.402 -109.76,245.151 -245.16,245.151 -135.4,0 -245.16,-109.749 -245.16,-245.151 0,-135.399 109.76,-245.168 245.16,-245.168 135.4,0 245.16,109.769 245.16,245.168"
         style="fill:#3e3c3c;fill-opacity:1;fill-rule:nonzero;stroke:none"
         id="path496" />
      <path
         d="m 4253.86,797.469 c 0,71.062 -57.6,128.66 -128.67,128.66 -71.06,0 -128.67,-57.598 -128.67,-128.66 0,-71.067 57.61,-128.668 128.67,-128.668 71.07,0 128.67,57.601 128.67,128.668"
         style="fill:#fefefe;fill-opacity:1;fill-rule:nonzero;stroke:none"
         id="path498" />
      <path
         d="m 4186,797.469 c 0,33.582 -27.22,60.812 -60.81,60.812 -33.58,0 -60.81,-27.23 -60.81,-60.812 0,-33.59 27.23,-60.809 60.81,-60.809 33.59,0 60.81,27.219 60.81,60.809"
         style="fill:#a1a1a0;fill-opacity:1;fill-rule:nonzero;stroke:none"
         id="path500" />
      <path
         d="m 5566.41,797.469 c 0,135.402 -109.75,245.151 -245.15,245.151 -135.4,0 -245.16,-109.749 -245.16,-245.151 0,-135.399 109.76,-245.168 245.16,-245.168 135.4,0 245.15,109.769 245.15,245.168"
         style="fill:#3e3c3c;fill-opacity:1;fill-rule:nonzero;stroke:none"
         id="path502" />
      <path
         d="m 5449.93,797.469 c 0,71.062 -57.61,128.66 -128.67,128.66 -71.07,0 -128.68,-57.598 -128.68,-128.66 0,-71.067 57.61,-128.668 128.68,-128.668 71.06,0 128.67,57.601 128.67,128.668"
         style="fill:#fefefe;fill-opacity:1;fill-rule:nonzero;stroke:none"
         id="path504" />
      <path
         d="m 5382.07,797.469 c 0,33.582 -27.23,60.812 -60.81,60.812 -33.59,0 -60.81,-27.23 -60.81,-60.812 0,-33.59 27.22,-60.809 60.81,-60.809 33.58,0 60.81,27.219 60.81,60.809"
         style="fill:#a1a1a0;fill-opacity:1;fill-rule:nonzero;stroke:none"
         id="path506" />
      <path
         d="M 6524.98,564.129 H 951.297 c -35.906,0 -65.012,-29.098 -65.012,-65.008 0,-35.902 29.106,-65.012 65.012,-65.012 H 6524.98 c 35.9,0 65.01,29.11 65.01,65.012 0,35.91 -29.11,65.008 -65.01,65.008"
         style="fill:#58ab34;fill-opacity:1;fill-rule:nonzero;stroke:none"
         id="path508" />
      <path
         d="M 6524.98,564.129 H 951.297 c -35.906,0 -65.012,-29.098 -65.012,-65.008 0,-8.582 1.703,-16.75 4.723,-24.25 9.617,23.891 32.965,40.758 60.289,40.758 H 6524.98 c 27.32,0 50.66,-16.867 60.28,-40.758 3.02,7.5 4.73,15.668 4.73,24.25 0,35.91 -29.11,65.008 -65.01,65.008"
         style="fill:#428834;fill-opacity:1;fill-rule:nonzero;stroke:none"
         id="path510" />
    </g>
  </g>
</svg>
